<?xml version="1.0" encoding="utf-8"?>
<!-- Generator: Adobe Illustrator 22.1.0, SVG Export Plug-In . SVG Version: 6.00 Build 0)  -->
<svg version="1.1" id="Layer_1" xmlns="http://www.w3.org/2000/svg" xmlns:xlink="http://www.w3.org/1999/xlink" x="0px" y="0px"
	 viewBox="0 0 80.6 98.9" style="enable-background:new 0 0 80.6 98.9;" xml:space="preserve">
<style type="text/css">
	.st0{fill:#FFFFFF;}
</style>
<g>
	<path class="st0" d="M50.2,0h26.7c2.1,0,3.8,2.1,3.8,3.8v89.4c0,2.1-1.7,3.8-3.8,3.8H50.2c-2.1,0-3.8-2.1-3.8-3.8V3.8
		C46.4,1.7,48.1,0,50.2,0z"/>
	<path class="st0" d="M3.8,0h26.7c2.1,0,3.8,2.1,3.8,3.8v89.4c0,2.1-1.7,3.8-3.8,3.8H3.8c-2.1,0-3.8-2.1-3.8-3.8V3.8
		C0,1.7,1.7,0,3.8,0z"/>
</g>
</svg>
