<?xml version="1.0" encoding="UTF-8"?>
<svg width="51px" height="51px" viewBox="0 0 51 51" version="1.1" xmlns="http://www.w3.org/2000/svg" xmlns:xlink="http://www.w3.org/1999/xlink">
    <!-- Generator: Sketch 46.2 (44496) - http://www.bohemiancoding.com/sketch -->
    <title>noun_91437</title>
    <desc>Created with Sketch.</desc>
    <defs></defs>
    <g id="Page-1" stroke="none" stroke-width="1" fill="none" fill-rule="evenodd">
        <g id="SCRIBE" transform="translate(-691.000000, -3903.000000)" stroke="#FFFFFF" stroke-width="0.75" fill="#6FC511" fill-rule="nonzero">
            <g id="Group-6" transform="translate(125.000000, 3811.000000)">
                <g id="Group-2-Copy" transform="translate(449.000000, 93.000000)">
                    <g id="noun_91437" transform="translate(117.000000, 0.000000)">
                        <path d="M25.1470588,0.0635294118 C11.5017647,0.0635294118 0.400588235,11.1641176 0.400588235,24.8094118 C0.400588235,38.4541176 11.5017647,49.5552941 25.1470588,49.5552941 C38.7911765,49.5552941 49.8929412,38.4541176 49.8929412,24.8094118 C49.8929412,11.1647059 38.7911765,0.0635294118 25.1470588,0.0635294118 Z M25.1470588,46.6141176 C13.1235294,46.6141176 3.34176471,36.8317647 3.34176471,24.8088235 C3.34176471,12.7858824 13.1235294,3.00411765 25.1470588,3.00411765 C37.17,3.00411765 46.9517647,12.7864706 46.9517647,24.8094118 C46.9517647,36.8323529 37.17,46.6141176 25.1470588,46.6141176 Z M36.4588235,28.8511765 C30.2223529,35.0888235 20.0735294,35.0888235 13.8347059,28.8511765 C13.3747059,28.3917647 12.63,28.3917647 12.1705882,28.8511765 C11.7111765,29.3105882 11.7111765,30.0564706 12.1705882,30.5147059 C15.7482353,34.0917647 20.4476471,35.8805882 25.1470588,35.8805882 C29.8458824,35.8805882 34.5464706,34.0917647 38.1229412,30.5147059 C38.5817647,30.0552941 38.5817647,29.3105882 38.1229412,28.8511765 C37.6629412,28.3917647 36.9188235,28.3917647 36.4588235,28.8511765 Z M17.25,20.7635294 C18.3211765,20.7635294 19.19,19.8947059 19.19,18.8235294 C19.19,17.7523529 18.3211765,16.8835294 17.25,16.8835294 C16.1782353,16.8835294 15.31,17.7523529 15.31,18.8235294 C15.31,19.8947059 16.1782353,20.7635294 17.25,20.7635294 Z M32.7664706,20.7629412 C33.8370588,20.7629412 34.7058824,19.8947059 34.7058824,18.8235294 C34.7058824,17.7523529 33.8370588,16.8841176 32.7664706,16.8841176 C31.6958824,16.8841176 30.8270588,17.7523529 30.8270588,18.8235294 C30.8270588,19.8947059 31.6958824,20.7629412 32.7664706,20.7629412 Z" id="Shape"></path>
                    </g>
                </g>
            </g>
        </g>
    </g>
</svg>