<?xml version="1.0" encoding="UTF-8"?>
<svg width="41px" height="26px" viewBox="0 0 41 26" version="1.1" xmlns="http://www.w3.org/2000/svg" xmlns:xlink="http://www.w3.org/1999/xlink">
    <!-- Generator: Sketch 46.2 (44496) - http://www.bohemiancoding.com/sketch -->
    <title>noun_602639</title>
    <desc>Created with Sketch.</desc>
    <defs></defs>
    <g id="Page-1" stroke="none" stroke-width="1" fill="none" fill-rule="evenodd" opacity="0.74609375">
        <g id="Contact-Scenarios" transform="translate(-1020.000000, -356.000000)" stroke="#1E2229" fill-rule="nonzero" stroke-width="0.5" fill="#9B9B9B">
            <g id="Footer-options" transform="translate(0.000000, 280.000000)">
                <g id="footer">
                    <g id="noun_602639" transform="translate(1021.000000, 77.000000)">
                        <path d="M38.8985755,10.0170201 C38.8087423,9.67361889 38.4581034,9.47042413 38.1207116,9.56082591 L33.3003567,10.8567941 C33.1844429,10.8879744 33.0797066,10.9517997 32.997739,11.0407366 L30.1432601,14.1482457 C30.0923926,14.108381 30.0473208,14.0627355 29.9926758,14.0269252 L19.9868376,7.47112166 C19.462742,7.12688336 18.7929263,7.09486607 18.2381963,7.38825334 L13.5871582,9.84626117 C13.4290188,9.93038507 13.2344493,9.91322546 13.092455,9.80461774 C12.9931004,9.72844586 12.9293478,9.61774551 12.9127887,9.49281527 C12.8962296,9.3680943 12.9285199,9.24421037 13.0046918,9.14439171 L15.1933912,6.26597374 C15.5647291,5.77713446 16.0995881,5.44607979 16.6990277,5.33328681 L19.2669306,4.85093469 C20.6835619,4.5849609 22.1184082,4.60149274 23.5292438,4.90094863 L26.2598399,5.48081747 C26.5964037,5.55217629 26.9449728,5.52162381 27.2653914,5.39083423 C27.3129989,5.37116349 27.3585364,5.34605186 27.4003481,5.31549943 L32.8284222,1.34388951 C33.1128248,1.13567246 33.1765774,0.733677471 32.9704165,0.446149543 C32.7646696,0.158412386 32.3672511,0.0935407286 32.0824346,0.302176329 L26.7309464,4.21791296 C26.6626401,4.23570034 26.590608,4.2371652 26.5210597,4.22251676 L23.7908776,3.64285714 C22.2161069,3.30866349 20.6156696,3.29024833 19.0342752,3.58698381 L16.4663723,4.06933594 C15.7632055,4.2015381 15.1204277,4.53403149 14.6040424,5.02025494 L12.2127526,4.63623047 C12.1808764,4.6309989 12.149828,4.62241907 12.1196077,4.61070034 L6.89231277,0.323730471 C6.61908759,0.0998186571 6.21918523,0.142089857 5.9977072,0.418108243 C5.77664316,0.693708129 5.81845489,1.09863279 6.09085217,1.32233537 L11.3790018,5.65910991 C11.412534,5.68631417 11.44855,5.71017017 11.486636,5.73025946 C11.652641,5.8175223 11.8302374,5.87674384 12.0140434,5.90604069 L13.6616224,6.1707327 L11.9962423,8.36090953 C11.7122537,8.73444467 11.5901303,9.19733533 11.652227,9.66420193 C11.7143236,10.1312778 11.9531887,10.5452008 12.3253545,10.829799 C12.8581437,11.2370256 13.5842604,11.298549 14.1766623,10.985491 L18.8272864,8.52769243 C18.9750764,8.44942791 19.1547427,8.45779847 19.2950811,8.54987434 L29.3013332,15.1058872 C29.5223972,15.251116 29.674327,15.4746093 29.7281441,15.73577 C29.7823751,15.9969307 29.7318699,16.2631138 29.5865637,16.48577 C29.2959515,16.9302455 28.7151409,17.0645925 28.2630774,16.7908761 L22.8515625,13.5171596 C22.5510148,13.3351005 22.159806,13.4334543 21.9793117,13.7385603 C21.7988175,14.0432478 21.8969302,14.4379185 22.1983059,14.6203962 L26.5272177,17.2391968 C26.5273729,17.2393014 26.5275282,17.2394322 26.5276834,17.2395369 L27.0492952,17.5551061 C27.1962572,17.6442523 27.2985097,17.7861329 27.3365956,17.9552177 C27.3746816,18.1243026 27.3440472,18.2967356 27.2496604,18.4419644 C26.9226181,18.9441965 26.259012,19.1120258 25.7361583,18.8240793 L21.5057214,16.4933037 C21.19855,16.3238003 20.811481,16.4384766 20.6429922,16.7502791 C20.4749173,17.0620816 20.5887611,17.4525671 20.8971744,17.6224889 L23.9514751,19.3052805 L24.7036983,19.7695314 C24.8448646,19.8565849 24.9400795,19.9951173 24.9715418,20.1591798 C25.0030041,20.3236608 24.9657461,20.4881418 24.8668054,20.622489 C24.8581119,20.6350448 24.8494184,20.6476006 24.8411388,20.6601564 C24.5521825,21.1180247 23.9726139,21.2770648 23.4932278,21.0313896 L20.2178372,19.3501675 C19.9056981,19.1898717 19.5219408,19.3158483 19.3629735,19.6326731 C19.2040061,19.9490793 19.3290273,20.3362166 19.6424083,20.4969309 L22.3671312,21.8954905 C21.8108747,22.2458235 21.147191,22.3935374 20.4736753,22.2898997 L18.0121387,21.9092757 L18.1868631,21.6558316 C18.7382813,20.8560269 18.5929751,19.747768 17.8585789,19.1203963 C17.8519553,19.1141184 17.8449176,19.1086776 17.838294,19.1028182 C17.6061302,18.9102174 17.3306799,18.7866474 17.0416976,18.7231883 C17.2691783,17.9345268 17.0292007,17.050049 16.3695015,16.5104633 C16.0203373,16.2246357 15.5869286,16.0691791 15.1436621,16.0524119 C15.1516571,15.8824639 15.1462495,15.7112603 15.1122516,15.5398997 C15.0021336,14.9845147 14.6833708,14.5086497 14.2139202,14.1993584 C13.2880594,13.5901404 12.0304473,13.8394515 11.3978895,14.7525985 C11.2351704,14.5053538 11.0223342,14.2903619 10.7576214,14.1252792 C9.95059798,13.6209021 8.9227434,13.7540198 8.26397571,14.4001728 L5.94430408,11.3079662 C5.86482038,11.2020789 5.75511631,11.1238144 5.62968112,11.0836358 L0.907852852,9.5694057 C0.572531022,9.46100726 0.215682336,9.64976284 0.109704075,9.98772321 C0.00331182065,10.3261021 0.188773777,10.6875 0.523681657,10.7948521 L5.05301037,12.2473494 L7.47433936,15.4752372 L6.80040974,16.4493583 C6.16122835,17.374721 6.38063646,18.6600168 7.2889033,19.3141741 L7.32491934,19.3401228 C7.66650258,19.5858504 8.06428329,19.7147566 8.47391411,19.7210868 C8.47375887,20.3804496 8.77805828,21.0314942 9.34844176,21.4373605 C9.70073668,21.6880581 10.1109885,21.8186384 10.5324177,21.8186384 C10.656611,21.8186384 10.7816322,21.8073382 10.9066534,21.7843192 C11.0216098,21.7631575 11.1311586,21.7276089 11.2388704,21.6884243 C11.4150437,22.1515503 11.7410252,22.5448086 12.1788065,22.7829241 C12.4897037,22.9524275 12.8262675,23.0336217 13.1582775,23.0336217 C13.4725124,23.0336217 13.7821158,22.95881 14.0641639,22.8194667 C14.2672717,23.2025234 14.5921665,23.5064 14.9988218,23.6760603 C15.234789,23.7744141 15.4798638,23.8221261 15.7212127,23.8221261 C16.287948,23.8221261 16.8322509,23.5579834 17.1958009,23.083374 L20.2815898,23.5605469 C20.4906485,23.593192 20.6992932,23.609096 20.9066959,23.609096 C21.9712651,23.609096 22.9858724,23.1848145 23.7495576,22.420663 C23.8224435,22.4276733 23.8953812,22.4334542 23.9680601,22.4334542 C24.7264671,22.4334542 25.4604493,22.0546875 25.9013355,21.3708147 C26.1363453,21.0427682 26.253915,20.6470249 26.2489214,20.2465733 C26.2584946,20.2466779 26.2680678,20.2483259 26.2776411,20.2483259 C27.072478,20.2483259 27.8519978,19.8561663 28.3119269,19.148856 C28.4980874,18.8628714 28.5938197,18.5400303 28.6127592,18.2088972 C28.6644288,18.2125331 28.7160984,18.219308 28.7677162,18.219308 C29.5000426,18.219308 30.2153959,17.8572823 30.6480024,17.1939174 C30.9816684,16.6833147 31.0971681,16.0722656 30.9729749,15.4729353 C30.9548633,15.3852016 30.9221074,15.3037458 30.8945779,15.2199881 L33.8049955,12.051688 L38.4477541,10.8034319 C38.7872155,10.7121931 38.9888226,10.3600028 38.8985755,10.0170201 Z M8.02743927,18.2674386 C7.68425186,18.0205078 7.60145634,17.5350167 7.84280526,17.1859654 L9.05368968,15.4361049 C9.20147967,15.2222377 9.43744688,15.1054687 9.68252161,15.1054687 C9.82492989,15.1054687 9.971064,15.1452288 10.1039508,15.2280971 C10.284859,15.3410993 10.4086383,15.5185547 10.4529339,15.727818 C10.4936848,15.9202881 10.4590659,16.1142752 10.3613413,16.2824707 L9.09226716,18.1610805 C8.97723314,18.2984881 8.82243142,18.3927874 8.64467976,18.4248047 C8.44017483,18.461635 8.23235811,18.41476 8.06304127,18.2929687 L8.02743927,18.2674386 Z M10.6793797,20.5191127 C10.4682511,20.5576172 10.2558806,20.5107422 10.0778702,20.3843471 C9.72516137,20.133231 9.63574217,19.6356027 9.87916101,19.2752511 L10.1395788,18.889788 C10.156526,18.8667951 10.1776906,18.8483015 10.193784,18.8244978 C10.5696756,18.2695312 11.0138736,17.609096 11.3897652,17.0486886 C11.3993384,17.0344064 11.4045649,17.0183454 11.4137759,17.0039062 L12.4317468,15.4972098 C12.5840905,15.2712053 12.8353749,15.1489955 13.0903851,15.1489955 C13.2385891,15.1489955 13.388035,15.1904297 13.5200938,15.2770647 C13.700588,15.3959263 13.8231255,15.5788225 13.8653511,15.7922712 C13.9075768,16.0057198 13.8641092,16.2220982 13.7428138,16.4020647 L13.3946069,16.918239 C13.3866378,16.9294608 13.3759261,16.938119 13.3681641,16.9494977 L11.4555876,19.7599051 C11.421331,19.8102329 11.3996231,19.8665248 11.3701012,19.9192592 L11.1927119,20.1821986 C11.0722444,20.3609096 10.8896803,20.4806082 10.6793797,20.5191127 Z M12.7807299,21.6508092 C12.5795368,21.5411551 12.4387844,21.3570033 12.3853813,21.1322545 C12.3454066,20.9656808 12.3586797,20.7969099 12.4209575,20.6430228 L14.4420736,17.647025 C14.568699,17.4800067 14.7484429,17.3693848 14.9561821,17.3391462 C14.995096,17.3337054 15.0340099,17.3307757 15.0725098,17.3307757 C15.253004,17.3307757 15.4260466,17.3927177 15.5692829,17.5099052 C15.8892875,17.7714845 15.9571799,18.2452568 15.7236965,18.5884488 L15.1480607,19.4347884 C15.1348651,19.4525496 15.1178144,19.4666487 15.105214,19.4849331 L14.1737644,20.8363561 C14.1420176,20.8824726 14.1229487,20.934056 14.0956003,20.9822127 L13.8119481,21.3992746 C13.5821905,21.7374442 13.1388205,21.8458426 12.7807299,21.6508092 Z M15.4840035,22.4874442 C15.3134447,22.4162946 15.1855256,22.2727399 15.1337784,22.0936105 C15.0955372,21.9625854 15.1027043,21.8253087 15.1502082,21.7010324 L16.1938974,20.1664778 C16.2896556,20.0565099 16.4169537,19.9834508 16.563243,19.9628907 C16.5918075,19.9591239 16.619958,19.9570313 16.6485224,19.9570313 C16.7826511,19.9570313 16.9118122,20.0018136 17.0194463,20.0867746 C17.0231721,20.0905413 17.0273119,20.0938896 17.0314517,20.0972378 C17.2740425,20.2985492 17.3233059,20.6601563 17.1436396,20.9208985 L16.21219,22.271903 C16.0486689,22.5092076 15.7489491,22.5983538 15.4840035,22.4874442 Z" id="Shape"></path>
                    </g>
                </g>
            </g>
        </g>
    </g>
</svg>