<?xml version="1.0" encoding="UTF-8"?>
<svg width="83px" height="58px" viewBox="0 0 83 58" version="1.1" xmlns="http://www.w3.org/2000/svg" xmlns:xlink="http://www.w3.org/1999/xlink">
    <!-- Generator: Sketch 46.1 (44463) - http://www.bohemiancoding.com/sketch -->
    <title>noun_986410</title>
    <desc>Created with Sketch.</desc>
    <defs></defs>
    <g id="Page-1" stroke="none" stroke-width="1" fill="none" fill-rule="evenodd">
        <g id="About" transform="translate(-1158.000000, -1535.000000)" fill-rule="nonzero" fill="#1E2128">
            <g id="services" transform="translate(94.000000, 1531.000000)">
                <g id="Design" transform="translate(960.000000, 4.000000)">
                    <g id="noun_986410" transform="translate(104.000000, 0.000000)">
                        <path d="M77.7085106,49.7106383 L77.7085106,12.0510638 C77.7085106,9.41489362 75.5744681,7.15531915 72.812766,7.15531915 L50.4680851,7.15531915 L50.4680851,9.03829787 L72.812766,9.03829787 C74.4446809,9.03829787 75.8255319,10.4191489 75.8255319,12.0510638 L75.8255319,49.5851064 L6.28085106,49.5851064 L6.28085106,12.0510638 C6.28085106,10.4191489 7.66170213,9.03829787 9.29361702,9.03829787 L31.8893617,9.03829787 L31.8893617,7.15531915 L9.29361702,7.15531915 C6.65744681,7.15531915 4.39787234,9.2893617 4.39787234,12.0510638 L4.39787234,49.5851064 L0.00425531915,49.5851064 L0.00425531915,53.3510638 L3.51914894,57.8702128 L78.8382979,57.8702128 L82.3531915,53.3510638 L82.3531915,49.5851064 L77.7085106,49.5851064 L77.7085106,49.7106383 Z M80.3446809,52.7234043 L77.8340426,56.112766 L4.39787234,56.112766 L1.88723404,52.7234043 L1.88723404,51.4680851 L80.3446809,51.4680851 L80.3446809,52.7234043 Z" id="Shape"></path>
                        <path d="M44.4425532,18.2021277 C45.4468085,20.9638298 49.9659574,29.5 67.9170213,40.1702128 C68.0425532,40.1702128 68.5446809,40.4212766 69.1723404,40.4212766 C69.8,40.4212766 70.4276596,40.1702128 70.9297872,39.6680851 C72.0595745,38.5382979 71.6829787,37.2829787 71.306383,36.6553191 C60.7617021,18.3276596 52.1,13.9340426 49.3382979,12.9297872 C49.4638298,11.1723404 48.9617021,9.66595745 48.9617021,9.66595745 C47.5808511,4.89574468 42.6851064,4.64468085 41.0531915,4.51914894 C38.9191489,4.39361702 37.6638298,2.00851064 37.6638298,2.00851064 L37.0361702,0.878723404 L36.1574468,1.75744681 C36.1574468,1.75744681 31.512766,6.40212766 35.5297872,13.1808511 C38.5425532,18.4531915 42.5595745,18.5787234 44.4425532,18.2021277 Z M36.6595745,4.26808511 C37.412766,5.27234043 38.9191489,6.52765957 40.9276596,6.65319149 C44.5680851,6.90425532 46.4510638,8.03404255 47.2042553,10.5446809 C47.2042553,10.5446809 47.8319149,12.0510638 47.4553191,13.6829787 L47.2042553,14.687234 L48.2085106,14.812766 C48.3340426,14.812766 57.6234043,16.6957447 69.8,37.7851064 C69.9255319,37.9106383 69.9255319,38.1617021 69.6744681,38.412766 C69.4234043,38.6638298 69.0468085,38.5382979 69.0468085,38.5382979 L69.0468085,38.5382979 C48.3340426,26.2361702 46.2,16.9468085 46.2,16.9468085 L45.9489362,15.8170213 L44.9446809,16.193617 C44.9446809,16.193617 44.3170213,16.4446809 43.312766,16.4446809 C41.6808511,16.4446809 39.2957447,15.6914894 37.287234,12.4276596 C34.7765957,8.53617021 35.7808511,5.64893617 36.6595745,4.26808511 Z" id="Shape"></path>
                        <rect id="Rectangle-path" transform="translate(53.427964, 22.043982) rotate(45.948090) translate(-53.427964, -22.043982) " x="52.4864884" y="21.1025056" width="1.88295215" height="1.88295215"></rect>
                        <rect id="Rectangle-path" transform="translate(55.980455, 24.753714) rotate(135.948090) translate(-55.980455, -24.753714) " x="55.038979" y="23.8122375" width="1.88295215" height="1.88295215"></rect>
                        <rect id="Rectangle-path" transform="translate(58.634451, 27.519383) rotate(135.948090) translate(-58.634451, -27.519383) " x="57.6929748" y="26.5779065" width="1.88295215" height="1.88295215"></rect>
                        <path d="M12.9372591,27.9052673 L12.9372591,29.8256795 L12.9372591,30.4658169 C12.9372591,32.3862291 11.3583242,33.9865726 9.46360247,33.9865726 L9.04255319,33.9865726 L9.04255319,35.5869161 L9.35834015,35.5869161 C11.2530619,35.5869161 12.8319967,37.1872596 12.8319967,39.1076718 L12.8319967,39.7478092 L12.8319967,41.6682214 C12.8319967,43.9087023 14.6214562,45.7224249 16.8319649,45.7224249 L18.3056374,45.7224249 L18.3056374,44.1220814 L16.8319649,44.1220814 C15.4635547,44.1220814 14.4109315,43.0551858 14.4109315,41.6682214 L14.4109315,39.7478092 L14.4109315,39.1076718 L14.4109315,38.8942927 L14.4109315,38.8942927 C14.3056692,37.1872596 13.4635707,35.5869161 12.0951605,34.7333996 C13.4635707,33.8798831 14.4109315,32.3862291 14.4109315,30.5725065 L14.4109315,30.5725065 L14.4109315,30.3591274 L14.4109315,29.8256795 L14.4109315,27.9052673 C14.4109315,26.518303 15.4635547,25.4514073 16.8319649,25.4514073 L18.3056374,25.4514073 L18.3056374,23.8510638 L16.8319649,23.8510638 C14.7267185,23.8510638 12.9372591,25.6647865 12.9372591,27.9052673 Z" id="Shape"></path>
                        <path d="M43.3885343,30.4658169 L43.3885343,29.8256795 L43.3885343,27.9052673 C43.3885343,25.6647865 41.5990748,23.8510638 39.3885661,23.8510638 L37.9148936,23.8510638 L37.9148936,25.4514073 L39.3885661,25.4514073 C40.7569763,25.4514073 41.8095995,26.518303 41.8095995,27.9052673 L41.8095995,29.8256795 L41.8095995,30.4658169 L41.8095995,30.6791961 L41.8095995,30.6791961 C41.9148618,32.3862291 42.7569604,33.9865726 44.1253705,34.8400892 C42.7569604,35.6936057 41.8095995,37.1872596 41.8095995,39.0009822 L41.8095995,39.0009822 L41.8095995,39.2143614 L41.8095995,39.8544988 L41.8095995,41.774911 C41.8095995,43.1618753 40.7569763,44.228771 39.3885661,44.228771 L37.9148936,44.228771 L37.9148936,45.8291145 L39.3885661,45.8291145 C41.5990748,45.8291145 43.3885343,44.0153919 43.3885343,41.774911 L43.3885343,39.8544988 L43.3885343,39.2143614 C43.3885343,37.2939492 44.9674691,35.6936057 46.8621909,35.6936057 L47.2832402,35.6936057 L47.2832402,34.0932622 L46.9674532,34.0932622 C44.9674691,33.9865726 43.3885343,32.3862291 43.3885343,30.4658169 Z" id="Shape"></path>
                        <path d="M33.1824286,24.064443 L31.6034938,23.8510638 L30.656133,30.0390587 L26.7614271,30.0390587 L27.6035257,24.064443 L26.0245908,23.8510638 L25.07723,30.0390587 L20.3404255,30.0390587 L20.3404255,31.6394022 L24.8667053,31.6394022 L24.2351314,35.6936057 L20.3404255,35.6936057 L20.3404255,37.1872596 L24.0246068,37.1872596 L23.1825082,43.1618753 L24.761443,43.3752545 L25.7088039,37.1872596 L29.6035097,37.1872596 L28.7614112,43.1618753 L30.340346,43.3752545 L31.2877069,37.1872596 L36.0245113,37.1872596 L36.0245113,35.5869161 L31.4982315,35.5869161 L32.1298054,31.5327126 L36.0245113,31.5327126 L36.0245113,29.9323691 L32.3403301,29.9323691 L33.1824286,24.064443 Z M29.9192967,35.5869161 L26.0245908,35.5869161 L26.6561648,31.5327126 L30.5508706,31.5327126 L29.9192967,35.5869161 Z" id="Shape"></path>
                    </g>
                </g>
            </g>
        </g>
    </g>
</svg>