<?xml version="1.0" encoding="UTF-8"?>
<svg width="132px" height="102px" viewBox="0 0 132 102" version="1.1" xmlns="http://www.w3.org/2000/svg" xmlns:xlink="http://www.w3.org/1999/xlink">
    <!-- Generator: Sketch 46 (44423) - http://www.bohemiancoding.com/sketch -->
    <title>noun_539344</title>
    <desc>Created with Sketch.</desc>
    <defs></defs>
    <g id="Page-1" stroke="none" stroke-width="1" fill="none" fill-rule="evenodd">
        <g id="Home" transform="translate(-649.000000, -1075.000000)" fill-rule="nonzero" fill="#566678">
            <g id="who-we-work-with" transform="translate(0.000000, 822.000000)">
                <g id="Startups" transform="translate(518.000000, 199.000000)">
                    <g id="noun_539344" transform="translate(131.000000, 54.000000)">
                        <path d="M1.23904774,0.524981831 C0.509981401,0.664093028 -0.0130788558,1.3078595 -1.16360339e-12,2.04996366 L-1.16360339e-12,69.1491642 C8.42063013e-05,69.9913536 0.682792504,70.6740619 1.52498183,70.6741461 L52.945463,70.6741461 L46.0830447,98.123819 L32.0246185,98.123819 C31.9295174,98.1148648 31.8337854,98.1148648 31.7386844,98.123819 C30.8964602,98.2027776 30.2777111,98.9495437 30.3566696,99.7917679 C30.4356281,100.633992 31.1823943,101.252741 32.0246185,101.173783 L99.123819,101.173783 C99.6737797,101.181557 100.185324,100.892609 100.462573,100.417582 C100.739822,99.9425559 100.739822,99.3550458 100.462573,98.8800193 C100.185324,98.4049928 99.6737797,98.1160451 99.123819,98.123819 L85.0653928,98.123819 L78.2029745,70.6741461 L129.623456,70.6741461 C130.465645,70.6740619 131.148353,69.9913536 131.148437,69.1491642 L131.148437,2.04996366 C131.148353,1.20777434 130.465645,0.525066038 129.623456,0.524981831 L1.52498183,0.524981831 C1.42988077,0.51602757 1.33414879,0.51602757 1.23904774,0.524981831 Z M3.04996366,3.57494549 L128.098474,3.57494549 L128.098474,67.6241824 L3.04996366,67.6241824 L3.04996366,3.57494549 Z M65.240629,8.14989099 C65.1077284,8.18029248 64.9795041,8.22837657 64.8593835,8.29285804 C57.0162632,12.4602216 51.8493823,23.1864863 51.8493823,35.599564 C51.8493823,37.1184382 51.9375064,38.6210211 52.0876607,40.0791981 L41.7463776,48.1330084 C41.3846616,48.4226414 41.174242,48.8610154 41.1745094,49.3244004 L41.1745094,59.9992733 C41.1743324,60.4710444 41.3924945,60.9163408 41.7653895,61.2053345 C42.1382846,61.4943281 42.6239311,61.5944833 43.0807367,61.4765994 L58.7118005,57.5688335 C60.4966819,59.8112186 62.5439197,61.6282787 64.8593835,62.8586142 C65.3064251,63.0958118 65.8420124,63.0958118 66.289054,62.8586142 C68.6045193,61.6282787 70.6517556,59.8112186 72.436637,57.5688335 L88.0677008,61.4765994 C88.5245064,61.5944833 89.0101529,61.4943281 89.383048,61.2053345 C89.755943,60.9163408 89.9741051,60.4710444 89.9739281,59.9992733 L89.9739281,49.3244004 C89.9741955,48.8610154 89.7637759,48.4226414 89.4020599,48.1330084 L79.0607768,40.0791981 C79.2109311,38.6210211 79.2990552,37.1184382 79.2990552,35.599564 C79.2990552,23.1864863 74.1321774,12.4601454 66.289054,8.29285804 C65.9678386,8.12161303 65.595967,8.07090327 65.240629,8.14989099 L65.240629,8.14989099 Z M65.5742187,11.5811001 C71.5852595,15.3036418 76.2490916,24.5094081 76.2490916,35.599564 C76.2490916,46.6897961 71.5852884,55.8475865 65.5742187,59.5703721 C59.5631506,55.8475865 54.8993459,46.6897961 54.8993459,35.599564 C54.8993459,24.5094081 59.5631811,15.3036418 65.5742187,11.5811001 Z M65.5742187,21.8747275 C63.0656099,21.8747275 60.9992733,23.9410626 60.9992733,26.449673 C60.9992733,28.9582833 63.0656099,31.0246185 65.5742187,31.0246185 C68.0828291,31.0246185 70.1491642,28.9582833 70.1491642,26.449673 C70.1491642,23.9410626 68.0828291,21.8747275 65.5742187,21.8747275 Z M65.5742187,24.9246911 C66.4345068,24.9246911 67.0992006,25.589385 67.0992006,26.449673 C67.0992006,27.309961 66.4345068,27.9746548 65.5742187,27.9746548 C64.7139323,27.9746548 64.0492369,27.309961 64.0492369,26.449673 C64.0492369,25.589385 64.7139323,24.9246911 65.5742187,24.9246911 Z M52.6118732,43.5580629 C53.4223233,47.8114019 54.8412838,51.7196879 56.8055732,54.9477709 L44.2244731,58.0453903 L44.2244731,50.0868914 L52.6118732,43.5580629 Z M78.5365643,43.5580629 L86.9239644,50.0868914 L86.9239644,58.0453903 L74.3428643,54.9477709 C76.3071537,51.7196879 77.7261158,47.8114019 78.5365643,43.5580629 Z M56.090738,70.6741461 L75.0576995,70.6741461 L81.9201178,98.123819 L49.2283197,98.123819 L56.090738,70.6741461 Z" id="Shape"></path>
                    </g>
                </g>
            </g>
        </g>
    </g>
</svg>