<?xml version="1.0" encoding="UTF-8"?>
<svg width="50px" height="53px" viewBox="0 0 50 53" version="1.1" xmlns="http://www.w3.org/2000/svg" xmlns:xlink="http://www.w3.org/1999/xlink">
    <!-- Generator: Sketch 46.2 (44496) - http://www.bohemiancoding.com/sketch -->
    <title>noun_652201</title>
    <desc>Created with Sketch.</desc>
    <defs></defs>
    <g id="Page-1" stroke="none" stroke-width="1" fill="none" fill-rule="evenodd">
        <g id="SCRIBE" transform="translate(-1130.000000, -3900.000000)" fill-rule="nonzero" fill="#3087EC">
            <g id="Group-6" transform="translate(125.000000, 3811.000000)">
                <g id="Group-2-Copy-2" transform="translate(884.000000, 86.000000)">
                    <g id="noun_652201" transform="translate(121.000000, 3.000000)">
                        <path d="M2.48910256,34.7352564 C3.0025641,34.6089744 3.31538462,34.0891026 3.18910256,33.575 C2.77179487,31.8788462 2.55064103,30.1070513 2.55064103,28.2801282 C2.55064103,22.1897436 5.01217949,16.6833333 8.99615385,12.6903846 C12.9737179,8.70769231 18.4551282,6.24423077 24.5211538,6.23397436 L22.3410256,9.66794872 C22.0576923,10.1147436 22.1891026,10.7076923 22.6346154,10.9916667 C23.0807692,11.275641 23.6724359,11.1435897 23.9570513,10.6974359 L26.9224359,6.025 C27.0307692,5.92051282 27.1134615,5.79166667 27.1634615,5.64487179 L27.4391026,5.21089744 L27.0935897,4.86282051 C27.0108974,4.71923077 26.8916667,4.60128205 26.7487179,4.51602564 L22.8589744,0.601282051 C22.4858974,0.226282051 21.8801282,0.225 21.5057692,0.598076923 C21.1314103,0.971794872 21.1301282,1.57820513 21.5032051,1.95384615 L21.5019231,1.95384615 L23.8660256,4.33269231 C10.975,4.70128205 0.637179487,15.2762821 0.635897436,28.2794872 C0.635897436,30.2615385 0.877564103,32.1891026 1.33076923,34.0326923 C1.45705128,34.5474359 1.97564103,34.8615385 2.48910256,34.7352564 Z" id="Shape"></path>
                        <path d="M39.2339744,44.7083333 C35.3365385,48.2038462 30.1987179,50.3269231 24.5570513,50.3275641 C16.2012821,50.3288462 8.93461538,45.6615385 5.20705128,38.7884615 L9.26730769,39.0544872 C9.79423077,39.0891026 10.249359,38.6891026 10.2839744,38.1602564 C10.3192308,37.6320513 9.91923077,37.175641 9.39166667,37.1410256 L2.91538462,36.7179487 L1.08141026,42.9551282 C0.932692308,43.4628205 1.22179487,43.9961538 1.72884615,44.1455128 C2.23589744,44.2948718 2.76730769,44.0044872 2.91730769,43.4967949 L3.86410256,40.2782051 C8.00128205,47.4282051 15.7141026,52.2435897 24.5570513,52.2448718 C30.6833333,52.2455128 36.2801282,49.9339744 40.5115385,46.1365385 C40.9044872,45.7833333 40.9371795,45.1775641 40.5852564,44.7833333 C40.2320513,44.3884615 39.6275641,44.3551282 39.2339744,44.7083333 Z" id="Shape"></path>
                        <path d="M48.3108974,40.8583333 L48.3108974,40.8583333 L44.6884615,41.2230769 C47.0839744,37.4897436 48.4775641,33.0448718 48.4775641,28.2801282 C48.475641,17.1352564 40.8858974,7.76794872 30.5974359,5.08653846 C30.0852564,4.95320513 29.5634615,5.26025641 29.4294872,5.77307692 C29.2967949,6.28525641 29.6038462,6.80897436 30.1153846,6.94230769 C39.575,9.40833333 46.5653846,18.0275641 46.5628205,28.2801282 C46.5628205,32.7096154 45.2602564,36.8275641 43.0185897,40.2814103 L41.8089744,36.6423077 C41.6410256,36.1403846 41.100641,35.8685897 40.5987179,36.0358974 C40.0967949,36.2038462 39.825641,36.7455128 39.9935897,37.2487179 L41.7365385,42.4923077 C41.749359,42.6358974 41.7955128,42.775 41.8717949,42.900641 L42.0442308,43.4179487 L42.6230769,43.3589744 C42.7205128,43.3660256 42.8185897,43.3532051 42.9121795,43.3301282 L48.5032051,42.7666667 C49.0282051,42.7141026 49.4121795,42.2442308 49.3589744,41.7166667 C49.3057692,41.1897436 48.8371795,40.8051282 48.3108974,40.8583333 Z" id="Shape"></path>
                        <path d="M23.0544872,40.0474359 L26.3025641,40.0474359 C27.7121795,40.0435897 28.85,38.9038462 28.8532051,37.4916667 L28.8602564,32.6916667 C28.8608974,32.3961538 28.9057692,32.1666667 28.9846154,31.9538462 C29.1198718,31.5865385 29.375,31.2455128 29.7583333,30.8551282 C30.3237179,30.2698718 31.3211538,29.6275641 32.0423077,28.6448718 C32.7685897,27.6634615 33.3173077,26.3108974 33.3096154,24.5012821 C33.3070513,22.3532051 32.3487179,20.3166667 30.8076923,18.8128205 C29.2660256,17.3096154 27.1141026,16.324359 24.6987179,16.324359 C22.2833333,16.324359 20.1307692,17.3096154 18.5891026,18.8128205 C17.0474359,20.3166667 16.0897436,22.3532051 16.0871795,24.5012821 C16.0846154,25.8775641 16.3878205,26.9878205 16.8570513,27.8730769 C17.5628205,29.2025641 18.7705128,29.9955128 19.4538462,30.6807692 C19.8,31.0230769 20.0666667,31.3320513 20.2365385,31.6378205 C20.4057692,31.9455128 20.500641,32.2467949 20.5032051,32.6910256 L20.5032051,37.4923077 C20.5064103,38.9032051 21.6448718,40.0435897 23.0544872,40.0474359 Z M26.7519231,37.9416667 C26.6314103,38.0608974 26.4769231,38.1294872 26.3025641,38.1301282 L23.0544872,38.1301282 C22.8794872,38.1294872 22.725,38.0608974 22.6051282,37.9416667 C22.4858974,37.8211538 22.4173077,37.6660256 22.4160256,37.4910256 L22.4160256,34.9339744 L26.9435897,34.9339744 L26.9410256,37.4897436 C26.9403846,37.6666667 26.8711538,37.8211538 26.7519231,37.9416667 Z M18.8852564,27.5192308 C18.3782051,26.799359 18.0089744,25.9544872 18.0012821,24.500641 C17.9987179,22.9378205 18.7134615,21.3647436 19.924359,20.1865385 C21.1333333,19.0089744 22.8089744,18.2403846 24.6987179,18.2403846 C26.5884615,18.2403846 28.2641026,19.0083333 29.4724359,20.1865385 C30.6826923,21.3647436 31.3987179,22.9378205 31.3961538,24.500641 C31.3935897,25.6057692 31.1666667,26.3570513 30.8397436,26.9711538 C30.3519231,27.8903846 29.4057692,28.5301282 28.5935897,29.3108974 C28.1923077,29.7032051 27.7839744,30.1378205 27.4679487,30.6935897 C27.149359,31.2467949 26.9429487,31.9275641 26.9467949,32.6897436 L26.9455128,33.0166667 L22.4173077,33.0166667 L22.4173077,32.6897436 C22.4173077,32.1839744 22.3314103,31.7134615 22.1782051,31.2923077 C21.9076923,30.5519231 21.4532051,29.9910256 20.9961538,29.5160256 C20.3032051,28.8057692 19.3948718,28.2378205 18.8852564,27.5192308 Z" id="Shape"></path>
                    </g>
                </g>
            </g>
        </g>
    </g>
</svg>