<?xml version="1.0" encoding="UTF-8"?>
<svg width="51px" height="51px" viewBox="0 0 51 51" version="1.1" xmlns="http://www.w3.org/2000/svg" xmlns:xlink="http://www.w3.org/1999/xlink">
    <!-- Generator: Sketch 46.2 (44496) - http://www.bohemiancoding.com/sketch -->
    <title>Group 4</title>
    <desc>Created with Sketch.</desc>
    <defs></defs>
    <g id="Page-1" stroke="none" stroke-width="1" fill="none" fill-rule="evenodd">
        <g id="PHILIPS" transform="translate(-1135.000000, -1657.000000)" stroke="#FFFFFF" fill-rule="nonzero" fill="#4A90E2">
            <g id="Group-3" transform="translate(139.000000, 1647.000000)">
                <g id="Group-2-Copy-2" transform="translate(870.000000, 0.000000)">
                    <g id="Group-4" transform="translate(127.000000, 11.000000)">
                        <path d="M24.5890411,49.3835616 C18.0136986,49.3835616 11.8493151,46.7808219 7.19178082,42.1232877 C2.53424658,37.4657534 0,31.2328767 0,24.6575342 C0,18.0821918 2.60273973,11.9178082 7.26027397,7.26027397 C11.9178082,2.60273973 18.0821918,0 24.6575342,0 C31.2328767,0 37.3972603,2.60273973 42.0547945,7.26027397 C46.7123288,11.9178082 49.2465753,18.1506849 49.2465753,24.7260274 C49.2465753,31.3013699 46.7123288,37.5342466 42.0547945,42.1917808 C37.3287671,46.8493151 31.1643836,49.3835616 24.5890411,49.3835616 Z M24.5890411,2.73972603 C18.7671233,2.73972603 13.2876712,5 9.17808219,9.17808219 C5.06849315,13.3561644 2.80821918,18.8356164 2.80821918,24.7260274 C2.80821918,30.6164384 5.06849315,36.0958904 9.17808219,40.2739726 C13.2876712,44.4520548 18.7671233,46.7123288 24.5890411,46.7123288 C30.4109589,46.7123288 35.890411,44.4520548 40,40.2739726 C44.109589,36.0958904 46.369863,30.6164384 46.369863,24.7260274 C46.369863,18.8356164 44.109589,13.3561644 40,9.17808219 C35.890411,5.06849315 30.4794521,2.73972603 24.5890411,2.73972603 Z" id="Shape"></path>
                        <path d="M36.4383562,17.8082192 C35.890411,17.5342466 35.3424658,17.3972603 34.7260274,17.3972603 C34.7260274,17.3972603 34.7260274,17.3972603 34.7260274,17.3972603 L28.1506849,17.3972603 C28.4931507,15.5479452 28.5616438,13.630137 28.4931507,11.7808219 L28.4931507,11.6438356 C28.4246575,10.4794521 28.0136986,9.45205479 27.1917808,8.56164384 C26.369863,7.73972603 25.2054795,7.39726027 24.109589,7.60273973 C23.7671233,7.67123288 23.4246575,7.80821918 23.1506849,8.01369863 L22.3972603,8.49315068 C21.9863014,8.76712329 21.7123288,9.17808219 21.7123288,9.65753425 L21.7123288,11.7808219 C21.7123288,12.8082192 21.5068493,13.7671233 21.1643836,14.6575342 C20.7534247,15.6164384 20.2054795,16.4383562 19.5205479,17.1232877 L18.4931507,18.2191781 C18.2191781,17.9452055 17.8767123,17.8082192 17.5342466,17.8082192 L11.9178082,17.8082192 C11.1643836,17.8082192 10.5479452,18.4246575 10.5479452,19.1780822 L10.5479452,34.5890411 C10.5479452,35.3424658 11.1643836,35.9589041 11.9178082,35.9589041 L17.5342466,35.9589041 C18.2876712,35.9589041 18.9041096,35.3424658 18.9041096,34.5890411 L18.9041096,34.5890411 C19.7260274,34.7945205 20.5479452,34.9315068 21.4383562,34.9315068 L32.8082192,34.9315068 C34.6575342,34.9315068 36.0958904,33.4931507 36.2328767,31.7123288 C37.260274,27.260274 38.4246575,21.9178082 38.4246575,21.1643836 C38.3561644,19.7260274 37.6712329,18.4931507 36.4383562,17.8082192 Z M16.0958904,21.0958904 L16.0958904,32.6027397 L16.0958904,33.1506849 L13.2191781,33.1506849 L13.2191781,20.4794521 L16.0958904,20.4794521 L16.0958904,21.0958904 Z M33.4931507,31.0958904 C33.4931507,31.1643836 33.4931507,31.3013699 33.4931507,31.369863 C33.4931507,31.7123288 33.2191781,32.0547945 32.8082192,32.0547945 L21.369863,32.0547945 C20.4794521,32.0547945 19.6575342,31.9178082 18.8356164,31.6438356 L18.8356164,21.7123288 L21.4383562,19.109589 C22.3972603,18.1506849 23.1506849,16.9863014 23.630137,15.7534247 C24.1780822,14.5205479 24.3835616,13.1506849 24.3835616,11.8493151 L24.3835616,10.4794521 L24.4520548,10.4109589 C24.5205479,10.4109589 24.5890411,10.3424658 24.6575342,10.3424658 C24.7945205,10.2739726 25,10.4109589 25.1369863,10.5479452 C25.4794521,10.890411 25.6849315,11.3013699 25.6849315,11.7808219 L25.6849315,11.9178082 C25.7534247,13.6986301 25.6164384,15.5479452 25.2739726,17.3287671 L25.1369863,18.4931507 C25.0684932,18.9041096 25.1369863,19.3150685 25.4109589,19.5890411 C25.6849315,19.9315068 26.0273973,20.0684932 26.4383562,20.0684932 L26.4383562,20.0684932 L34.6575342,20.0684932 L34.6575342,20.0684932 C34.7945205,20.0684932 34.9315068,20.1369863 35.0684932,20.2054795 C35.3424658,20.3424658 35.5479452,20.6849315 35.5479452,20.9589041 C35.6164384,21.7123288 34.3150685,27.3287671 33.4931507,31.0958904 Z" id="Shape"></path>
                    </g>
                </g>
            </g>
        </g>
    </g>
</svg>