<?xml version="1.0" encoding="UTF-8"?>
<svg width="38px" height="60px" viewBox="0 0 38 60" version="1.1" xmlns="http://www.w3.org/2000/svg" xmlns:xlink="http://www.w3.org/1999/xlink">
    <!-- Generator: Sketch 46.2 (44496) - http://www.bohemiancoding.com/sketch -->
    <title>noun_937565</title>
    <desc>Created with Sketch.</desc>
    <defs></defs>
    <g id="Page-1" stroke="none" stroke-width="1" fill="none" fill-rule="evenodd">
        <g id="SONGBIRD" transform="translate(-252.000000, -2085.000000)" fill-rule="nonzero" fill="#EB3BAB">
            <g id="Group-3" transform="translate(139.000000, 2082.000000)">
                <g id="Group-2" transform="translate(0.000000, 1.000000)">
                    <g id="noun_937565" transform="translate(113.000000, 2.000000)">
                        <path d="M18.5991561,34 C18.1983122,34 17.8776371,33.7196702 17.7974684,33.3592462 L15.9135021,24.188457 L10.5421941,24.188457 L9.05907173,32.5182568 C8.97890295,32.9187279 8.65822785,33.1990577 8.25738397,33.1990577 C8.25738397,33.1990577 8.25738397,33.1990577 8.25738397,33.1990577 C7.85654008,33.1990577 7.53586498,32.9187279 7.4556962,32.5182568 L6.092827,24.1484099 C2.68565401,23.7879859 0,20.9045936 0,17.4204947 L0,6.76796231 C0.0400843882,3.04358068 3.0464135,0 6.7742616,0 L31.2257384,0 C34.9535865,0 38,3.04358068 38,6.76796231 L38,17.4605418 C38,20.9846879 35.314346,23.8680801 31.8670886,24.188457 L30.3839662,32.5583039 C30.3037975,32.958775 29.9831224,33.2391048 29.5822785,33.2391048 C29.5822785,33.2391048 29.5822785,33.2391048 29.5822785,33.2391048 C29.1814346,33.2391048 28.8607595,32.958775 28.7805907,32.5583039 L27.4177215,24.188457 L21.2848101,24.188457 L19.4008439,33.3592462 C19.3206751,33.7196702 19,34 18.5991561,34 Z M9.86075949,22.5865724 L16.5949367,22.5865724 C16.9957806,22.5865724 17.3164557,22.8669022 17.3966245,23.2273263 L18.5991561,29.1943463 L19.8016878,23.2273263 C19.8818565,22.8669022 20.2025316,22.5865724 20.6033755,22.5865724 L28.0991561,22.5865724 C28.5,22.5865724 28.8206751,22.8669022 28.9008439,23.2673734 L29.6223629,27.6325088 L30.3839662,23.2673734 C30.464135,22.8669022 30.7848101,22.5865724 31.185654,22.5865724 C34.07173,22.5865724 36.3565401,20.2638398 36.3565401,17.4204947 L36.3565401,6.76796231 C36.3565401,3.9246172 34.0316456,1.60188457 31.185654,1.60188457 L6.73417722,1.60188457 C3.88818565,1.60188457 1.56329114,3.9246172 1.56329114,6.76796231 L1.56329114,17.4605418 C1.56329114,20.3038869 3.88818565,22.6266196 6.73417722,22.6266196 C7.1350211,22.6266196 7.49578059,22.9069494 7.53586498,23.3074205 L8.29746835,27.6325088 L9.05907173,23.2673734 C9.13924051,22.8669022 9.5,22.5865724 9.86075949,22.5865724 Z" id="Shape"></path>
                        <path d="M11,15 C9.34210526,15 8,13.6578947 8,12 C8,10.3421053 9.34210526,9 11,9 C12.6578947,9 14,10.3421053 14,12 C14,13.6578947 12.6578947,15 11,15 Z M11,10.5789474 C10.2105263,10.5789474 9.57894737,11.2105263 9.57894737,12 C9.57894737,12.7894737 10.2105263,13.4210526 11,13.4210526 C11.7894737,13.4210526 12.4210526,12.7894737 12.4210526,12 C12.4210526,11.2105263 11.7894737,10.5789474 11,10.5789474 Z" id="Shape"></path>
                        <path d="M19,15 C17.3421053,15 16,13.6578947 16,12 C16,10.3421053 17.3421053,9 19,9 C20.6578947,9 22,10.3421053 22,12 C22,13.6578947 20.6578947,15 19,15 Z M19,10.5789474 C18.2105263,10.5789474 17.5789474,11.2105263 17.5789474,12 C17.5789474,12.7894737 18.2105263,13.4210526 19,13.4210526 C19.7894737,13.4210526 20.4210526,12.7894737 20.4210526,12 C20.4210526,11.2105263 19.7894737,10.5789474 19,10.5789474 Z" id="Shape"></path>
                        <path d="M27,15 C25.3421053,15 24,13.6578947 24,12 C24,10.3421053 25.3421053,9 27,9 C28.6578947,9 30,10.3421053 30,12 C30,13.6578947 28.6578947,15 27,15 Z M27,10.5789474 C26.2105263,10.5789474 25.5789474,11.2105263 25.5789474,12 C25.5789474,12.7894737 26.2105263,13.4210526 27,13.4210526 C27.7894737,13.4210526 28.4210526,12.7894737 28.4210526,12 C28.4210526,11.2105263 27.75,10.5789474 27,10.5789474 Z" id="Shape"></path>
                        <path d="M31.955414,47.6374134 C33.0636943,46.7344111 33.7898089,45.3602771 33.7898089,43.8290993 C33.7898089,41.1593533 31.6496815,39 29.0509554,39 C27.9044586,39 26.8726115,39.4318707 26.0318471,40.0993072 C26.1847134,40.7274827 26.2993631,41.3949192 26.2993631,42.0623557 C26.2993631,42.1016166 26.2993631,42.1016166 26.2993631,42.1408776 C26.8726115,41.1986143 27.866242,40.5704388 29.0509554,40.5704388 C30.8089172,40.5704388 32.2611465,42.0230947 32.2611465,43.8290993 C32.2611465,45.6351039 30.8089172,47.0877598 29.0509554,47.0877598 C27.522293,47.0877598 26.2229299,45.9884527 25.9171975,44.4965358 C25.6878981,45.1639723 25.3821656,45.7528868 25,46.3418014 C25.3057325,46.852194 25.6878981,47.2840647 26.1464968,47.6766744 C25.7643312,47.8337182 25.3821656,48.0300231 25.0382166,48.2263279 C25.5350318,48.5404157 26.0318471,48.8545035 26.4904459,49.2471132 C27.2929936,48.8937644 28.1719745,48.6974596 29.0509554,48.6974596 C32.566879,48.6974596 35.4713376,51.6027714 35.4713376,55.2147806 C35.4713376,55.6466513 35.8152866,56 36.2356688,56 C36.656051,56 37,55.6466513 37,55.2147806 C37,51.7205543 34.9363057,48.8152425 31.955414,47.6374134 Z" id="Shape"></path>
                        <path d="M10.8535032,47.6967593 C11.3121019,47.3425926 11.6942675,46.8703704 12,46.3587963 C11.6178344,45.8078704 11.3121019,45.1782407 11.0828025,44.5092593 C10.7770701,46.0046296 9.47770701,47.1064815 7.94904459,47.1064815 C6.1910828,47.1064815 4.7388535,45.650463 4.7388535,43.8402778 C4.7388535,42.0300926 6.1910828,40.5740741 7.94904459,40.5740741 C9.0955414,40.5740741 10.1273885,41.2037037 10.7006369,42.1481481 C10.7006369,42.1087963 10.7006369,42.1087963 10.7006369,42.0694444 C10.7006369,41.400463 10.8152866,40.7314815 10.9681529,40.1018519 C10.1656051,39.3935185 9.0955414,39 7.94904459,39 C5.35031847,39 3.21019108,41.1643519 3.21019108,43.8402778 C3.21019108,45.4143519 3.93630573,46.7916667 5.04458599,47.6574074 C2.10191083,48.837963 0,51.7893519 0,55.212963 C0,55.6458333 0.343949045,56 0.76433121,56 C1.18471338,56 1.52866242,55.6458333 1.52866242,55.212963 C1.52866242,51.5925926 4.39490446,48.6805556 7.94904459,48.6805556 C8.82802548,48.6805556 9.70700637,48.8773148 10.5095541,49.2314815 C10.9681529,48.8773148 11.4267516,48.5231481 11.9617834,48.2083333 C11.6178344,48.0509259 11.2356688,47.8541667 10.8535032,47.6967593 Z" id="Shape"></path>
                        <path d="M22.6644295,47.8824477 C24.6778523,46.6747182 26.0067114,44.4605475 26.0067114,41.9645733 C26.0067114,38.1400966 22.8657718,35 19,35 C15.1342282,35 11.9932886,38.099839 11.9932886,41.9645733 C11.9932886,44.4605475 13.3221477,46.6344605 15.3355705,47.8824477 C10.5033557,49.4122383 7,53.921095 7,59.194847 C7,59.6376812 7.36241611,60 7.80536913,60 C8.24832215,60 8.61073826,59.6376812 8.61073826,59.194847 C8.61073826,53.5185185 13.2818792,48.9291465 19,48.9291465 C24.7181208,48.9291465 29.3892617,53.5587762 29.3892617,59.194847 C29.3892617,59.6376812 29.7516779,60 30.1946309,60 C30.6375839,60 31,59.6376812 31,59.194847 C31,53.921095 27.4966443,49.4122383 22.6644295,47.8824477 Z M13.6040268,41.9645733 C13.6040268,39.0257649 16.0201342,36.610306 19,36.610306 C21.9798658,36.610306 24.3959732,39.0257649 24.3959732,41.9645733 C24.3959732,44.9033816 21.9798658,47.3188406 19,47.3188406 C16.0201342,47.3188406 13.6040268,44.9033816 13.6040268,41.9645733 Z" id="Shape"></path>
                    </g>
                </g>
            </g>
        </g>
    </g>
</svg>