<?xml version="1.0" encoding="UTF-8"?>
<svg width="29px" height="24px" viewBox="0 0 29 24" version="1.1" xmlns="http://www.w3.org/2000/svg" xmlns:xlink="http://www.w3.org/1999/xlink">
    <!-- Generator: Sketch 46.2 (44496) - http://www.bohemiancoding.com/sketch -->
    <title>noun_56408</title>
    <desc>Created with Sketch.</desc>
    <defs></defs>
    <g id="Page-1" stroke="none" stroke-width="1" fill="none" fill-rule="evenodd" opacity="0.748245018">
        <g id="Contact-Scenarios" transform="translate(-1025.000000, -407.000000)" fill-rule="nonzero" fill="#9B9B9B">
            <g id="Footer-options" transform="translate(0.000000, 280.000000)">
                <g id="footer">
                    <g id="noun_56408" transform="translate(1021.000000, 127.000000)">
                        <g id="Group">
                            <path d="M20.145506,23.8898361 C20.1224458,23.8898361 20.0997831,23.8878689 20.0767229,23.8839344 C17.3416988,23.4082623 14.8818072,22.3707541 12.9614458,20.8847213 C12.788494,20.7509508 12.7578795,20.5034754 12.8930602,20.3323279 C13.028241,20.1615738 13.2783253,20.1308852 13.4512771,20.2650492 C14.9983012,21.4626885 16.9226386,22.3534426 19.0692289,22.8716066 C18.4871566,22.1256393 18.0382771,21.3265574 17.7301446,20.4857705 C17.6856145,20.3641967 17.7039036,20.2288525 17.7794458,20.1234098 C17.8553855,20.0179672 17.9750602,19.9617049 18.1090482,19.9581639 L18.2291205,19.9605246 C18.2855783,19.9617049 18.3416386,19.9632787 18.3988916,19.9632787 C25.8529157,19.9632787 31.9169639,15.7274754 31.9169639,10.5206557 C31.9169639,5.31383607 25.8529157,1.07803279 18.3988916,1.07803279 C12.837,1.07803279 7.76136145,3.5224918 5.76903614,7.16065574 C5.66446988,7.35147541 5.42273494,7.42268852 5.2303012,7.31921311 C5.03746988,7.2157377 4.96550602,6.97691803 5.07046988,6.78570492 C7.2309759,2.8402623 12.4628675,0.291147541 18.3992892,0.291147541 C26.2918554,0.291147541 32.7125422,4.8802623 32.7125422,10.5206557 C32.7125422,16.0902295 26.4520843,20.6344918 18.6962892,20.7481967 C19.0994458,21.6318689 19.6807229,22.4616393 20.4301807,23.2217705 C20.5506506,23.3441311 20.5776867,23.5290492 20.4973735,23.6801311 C20.4273976,23.8103607 20.2914217,23.8898361 20.145506,23.8898361 Z" id="Shape"></path>
                            <path d="M13.2063614,20.9681311 C13.1208795,20.9681311 13.0346024,20.9409836 12.9618434,20.8847213 C12.3861325,20.4389508 11.8652892,19.9577705 11.4128313,19.4521967 C6.89063855,17.6451148 4.08603614,14.2296393 4.08603614,10.5206557 C4.08603614,9.23567213 4.41722892,7.97901639 5.07086747,6.78570492 C5.17503614,6.5944918 5.41677108,6.52367213 5.60960241,6.62714754 C5.80243373,6.73062295 5.87439759,6.96944262 5.76943373,7.1602623 C5.18020482,8.2375082 4.88121687,9.36786885 4.88121687,10.5206557 C4.88121687,13.9247213 7.53075904,17.0805246 11.7961084,18.7565902 C11.8549518,18.7798033 11.9074337,18.8163934 11.9495783,18.864 C12.3833494,19.3577705 12.8886867,19.8291148 13.4520723,20.2646557 C13.6250241,20.3984262 13.6556386,20.6459016 13.5204578,20.8170492 C13.4417349,20.9161967 13.3248434,20.9681311 13.2063614,20.9681311 Z" id="Shape"></path>
                        </g>
                        <g id="Group" transform="translate(10.000000, 8.000000)">
                            <path d="M2.58652174,4.76769231 C1.32769565,4.76769231 0.304043478,3.76115385 0.304043478,2.52423077 C0.304043478,1.28730769 1.32769565,0.280769231 2.58652174,0.280769231 C3.84534783,0.280769231 4.869,1.28730769 4.869,2.52423077 C4.869,3.76153846 3.84534783,4.76769231 2.58652174,4.76769231 Z M2.58652174,1.05 C1.75969565,1.05 1.08665217,1.71115385 1.08665217,2.52423077 C1.08665217,3.33730769 1.75969565,3.99846154 2.58652174,3.99846154 C3.41334783,3.99846154 4.0863913,3.33692308 4.0863913,2.52423077 C4.0863913,1.71153846 3.41334783,1.05 2.58652174,1.05 Z" id="Shape"></path>
                            <path d="M9.1083913,4.76769231 C7.84956522,4.76769231 6.82552174,3.76115385 6.82552174,2.52423077 C6.82552174,1.28730769 7.84956522,0.280769231 9.1083913,0.280769231 C10.3672174,0.280769231 11.3908696,1.28730769 11.3908696,2.52423077 C11.3908696,3.76153846 10.3672174,4.76769231 9.1083913,4.76769231 Z M9.1083913,1.05 C8.28117391,1.05 7.60813043,1.71115385 7.60813043,2.52423077 C7.60813043,3.33730769 8.28117391,3.99846154 9.1083913,3.99846154 C9.93521739,3.99846154 10.6082609,3.33692308 10.6082609,2.52423077 C10.6082609,1.71153846 9.93521739,1.05 9.1083913,1.05 Z" id="Shape"></path>
                            <path d="M15.6298696,4.76769231 C14.3710435,4.76769231 13.3473913,3.76115385 13.3473913,2.52423077 C13.3473913,1.28730769 14.3710435,0.280769231 15.6298696,0.280769231 C16.8886957,0.280769231 17.9127391,1.28730769 17.9127391,2.52423077 C17.9127391,3.76153846 16.8886957,4.76769231 15.6298696,4.76769231 Z M15.6298696,1.05 C14.8030435,1.05 14.13,1.71115385 14.13,2.52423077 C14.13,3.33730769 14.8030435,3.99846154 15.6298696,3.99846154 C16.457087,3.99846154 17.1301304,3.33692308 17.1301304,2.52423077 C17.1301304,1.71153846 16.457087,1.05 15.6298696,1.05 Z" id="Shape"></path>
                        </g>
                    </g>
                </g>
            </g>
        </g>
    </g>
</svg>