<?xml version="1.0" encoding="UTF-8"?>
<svg width="56px" height="56px" viewBox="0 0 56 56" version="1.1" xmlns="http://www.w3.org/2000/svg" xmlns:xlink="http://www.w3.org/1999/xlink">
    <!-- Generator: Sketch 45.2 (43514) - http://www.bohemiancoding.com/sketch -->
    <title>noun_782445</title>
    <desc>Created with Sketch.</desc>
    <defs></defs>
    <g id="Page-1" stroke="none" stroke-width="1" fill="none" fill-rule="evenodd">
        <g id="AMADEUS" transform="translate(-1124.000000, -1140.000000)" fill-rule="nonzero" fill="#000000">
            <g id="clean-text-panel" transform="translate(-130.000000, 868.000000)">
                <g id="Group-2-Copy-2" transform="translate(1139.000000, 272.000000)">
                    <g id="noun_782445" transform="translate(115.000000, 0.000000)">
                        <path d="M28,6.51162796e-06 C27.6403628,6.51162796e-06 27.3488372,0.291545116 27.3488372,0.651169302 L27.3488372,7.16279721 C27.3488372,7.5224214 27.6403628,7.81396 28,7.81396 C28.3596372,7.81396 28.6511628,7.5224214 28.6511628,7.16279721 L28.6511628,0.651169302 C28.6511628,0.291545116 28.3596372,6.51162796e-06 28,6.51162796e-06 Z M8.66860465,8.01744837 C8.50197209,8.01744837 8.32772093,8.07344837 8.20061395,8.20058791 C7.94633488,8.45489302 7.94626977,8.86201302 8.20061395,9.11628558 L12.799386,13.7354716 C13.0536651,13.9897767 13.4812186,13.9897702 13.7354977,13.7354716 C13.9897116,13.4811665 13.9897116,13.0536977 13.7354977,12.7994251 L9.11627907,8.20058791 C8.98917209,8.07343535 8.83523721,8.01744837 8.66860465,8.01744837 Z M47.3517767,8.01744837 C47.1850791,8.01744837 47.0108279,8.07344837 46.8837209,8.20058791 L42.2848837,12.7994251 C42.0306047,13.0536977 42.0306047,13.4811665 42.2848837,13.7354716 C42.5391628,13.9897702 42.9463349,13.9897767 43.200614,13.7354716 L47.799386,9.11628558 C48.0537302,8.86201302 48.0536651,8.45489302 47.799386,8.20058791 C47.6722791,8.07343535 47.5184093,8.01744837 47.3517767,8.01744837 Z M26.6976744,11.069774 C18.0510791,11.069774 11.0697674,18.0510856 11.0697674,26.6976874 C11.0697674,33.5159479 15.370893,39.9387572 21.4883721,42.122106 L21.4883721,48.1860595 C21.4883721,50.7000037 23.5325674,52.7441991 26.0465116,52.7441991 L26.0465116,54.0465247 C26.0465116,55.1174921 26.9290326,56.000013 28,56.000013 C29.0709674,56.000013 29.9534884,55.1174921 29.9534884,54.0465247 L29.9534884,52.7441991 C32.4674326,52.7441991 34.5116279,50.7000037 34.5116279,48.1860595 L34.5116279,42.122106 C40.6327535,39.9411014 44.9302326,33.5184874 44.9302326,26.6976874 C44.9302326,18.0510856 37.9489209,11.069774 29.3023256,11.069774 L26.6976744,11.069774 Z M26.6976744,12.3720995 L29.3023256,12.3720995 C37.2499628,12.3720995 43.627907,18.7500437 43.627907,26.6976874 C43.627907,33.1185433 39.3996465,39.2195479 33.6569767,41.0435851 C33.3858851,41.1333854 33.2045665,41.388893 33.2093023,41.6744316 C33.2076101,41.701537 33.2076101,41.7287216 33.2093023,41.755827 L33.2093023,46.2325712 L22.7906977,46.2325712 L22.7906977,41.7761433 C22.7933415,41.7422909 22.7933415,41.708284 22.7906977,41.6744316 C22.7954335,41.388893 22.6141149,41.1333854 22.3430233,41.0435851 C16.6003535,39.2195479 12.372093,33.1185433 12.372093,26.6976874 C12.372093,18.7500437 18.7500372,12.3720995 26.6976744,12.3720995 Z M0.651162791,27.3488502 C0.291460465,27.3488502 0,27.6403758 0,28.000013 C0,28.3596502 0.291525581,28.6512409 0.651162791,28.6511758 L7.1627907,28.6511758 C7.52242791,28.6512409 7.81395349,28.3596502 7.81395349,28.000013 C7.81395349,27.6403758 7.52242791,27.3488502 7.1627907,27.3488502 L0.651162791,27.3488502 Z M48.8372093,27.3488502 C48.4775721,27.3488502 48.1860465,27.6403758 48.1860465,28.000013 C48.1860465,28.3596502 48.4775721,28.6512409 48.8372093,28.6511758 L55.3488372,28.6511758 C55.7084744,28.6512409 56,28.3596502 56,28.000013 C56,27.6403758 55.7085395,27.3488502 55.3488372,27.3488502 L48.8372093,27.3488502 Z M13.2674419,42.0814084 C13.1008093,42.0814084 12.9265581,42.1374084 12.799386,42.2645153 L8.20061395,46.883734 C7.94626977,47.1380781 7.94626977,47.54512 8.20061395,47.7993991 C8.45482791,48.0537433 8.86206512,48.0537433 9.11627907,47.7993991 L13.7354977,43.2005619 C13.9897116,42.9462828 13.9897116,42.5188595 13.7354977,42.2645153 C13.6083256,42.1374084 13.4340744,42.0814084 13.2674419,42.0814084 L13.2674419,42.0814084 Z M42.7325581,42.0814084 C42.5659256,42.0814084 42.4120558,42.1374084 42.2848837,42.2645153 C42.0306047,42.5188595 42.0306047,42.9462828 42.2848837,43.2005619 L46.8837209,47.7993991 C47.1379349,48.0537433 47.5451721,48.0537433 47.799386,47.7993991 C48.0537302,47.54512 48.0537302,47.1380781 47.799386,46.883734 L43.200614,42.2645153 C43.0734419,42.1373433 42.8991907,42.0814084 42.7325581,42.0814084 L42.7325581,42.0814084 Z M22.7906977,47.5348967 L33.2093023,47.5348967 L33.2093023,48.1860595 C33.2093023,50.0010456 31.7684744,51.4418735 29.9534884,51.4418735 L26.0465116,51.4418735 C24.2315256,51.4418735 22.7906977,50.0010456 22.7906977,48.1860595 L22.7906977,47.5348967 Z M27.3488372,52.7441991 L28.6511628,52.7441991 L28.6511628,54.0465247 C28.6511628,54.418534 28.3720093,54.6976874 28,54.6976874 C27.6279907,54.6976874 27.3488372,54.418534 27.3488372,54.0465247 L27.3488372,52.7441991 Z" id="Shape"></path>
                    </g>
                </g>
            </g>
        </g>
    </g>
</svg>