<?xml version="1.0" encoding="UTF-8"?>
<svg width="60px" height="59px" viewBox="0 0 60 59" version="1.1" xmlns="http://www.w3.org/2000/svg" xmlns:xlink="http://www.w3.org/1999/xlink">
    <!-- Generator: Sketch 46.2 (44496) - http://www.bohemiancoding.com/sketch -->
    <title>noun_998043</title>
    <desc>Created with Sketch.</desc>
    <defs></defs>
    <g id="Page-1" stroke="none" stroke-width="1" fill="none" fill-rule="evenodd">
        <g id="EG" transform="translate(-1124.000000, -1588.000000)" stroke="#FFFFFF" stroke-width="0.6" fill="#0CBBF0" fill-rule="nonzero">
            <g id="Group-3" transform="translate(139.000000, 1587.000000)">
                <g id="Group-2-Copy-2" transform="translate(870.000000, 0.000000)">
                    <g id="noun_998043" transform="translate(116.000000, 1.000000)">
                        <path d="M39.2190476,34.9380952 C44.3285714,27.6190476 43.6380952,17.4 37.147619,10.9095238 C29.8285714,3.59047619 17.8833333,3.59047619 10.5642857,10.9095238 C3.2452381,18.2285714 3.2452381,30.1738095 10.5642857,37.4928571 C14.2238095,41.152381 19.0571429,43.0166667 23.8214286,43.0166667 C28.5857143,43.0166667 33.4880952,41.2214286 37.0785714,37.4928571 C38.0452381,36.5261905 38.597619,35.697619 39.2190476,34.9380952 Z M12.0142857,12.2904762 C15.2595238,9.0452381 19.5404762,7.38809524 23.8214286,7.38809524 C28.102381,7.38809524 32.3833333,9.0452381 35.6285714,12.2904762 C41.5666667,18.2285714 42.05,27.4809524 37.2166667,34.0404762 L35.1452381,34.0404762 L35.1452381,24.5119048 L28.5166667,24.5119048 L28.5166667,12.152381 L19.8857143,12.152381 L19.8857143,20.3 L13.2571429,20.3 L13.2571429,34.1095238 L10.4261905,34.1095238 C5.59285714,27.55 6.07619048,18.2285714 12.0142857,12.2904762 Z M28.5857143,34.0404762 L28.5857143,26.5833333 L33.1428571,26.5833333 L33.1428571,34.0404762 L28.5857143,34.0404762 Z M21.9571429,34.0404762 L21.9571429,33.4880952 L26.5142857,28.9309524 L26.5142857,34.0404762 L21.9571429,34.0404762 Z M26.5142857,26.0309524 L21.9571429,30.5880952 L21.9571429,27.2047619 L26.5142857,22.647619 L26.5142857,26.0309524 Z M26.5142857,19.747619 L21.9571429,24.3047619 L21.9571429,20.9214286 L26.5142857,16.3642857 L26.5142857,19.747619 Z M21.9571429,18.0214286 L21.9571429,14.2238095 L25.7547619,14.2238095 L21.9571429,18.0214286 Z M19.8857143,22.3714286 L19.8857143,34.1095238 L15.3285714,34.1095238 L15.3285714,22.3714286 L19.8857143,22.3714286 Z M12.2214286,36.1119048 L35.4904762,36.1119048 C29,42.3952381 18.6428571,42.3952381 12.2214286,36.1119048 Z" id="Shape"></path>
                        <path d="M47.1595238,40.2547619 L42.3952381,38.8738095 C45.7095238,34.7309524 47.5738095,29.552381 47.5738095,24.1666667 C47.5738095,17.8142857 45.0880952,11.8761905 40.6,7.38809524 C36.1119048,2.9 30.1738095,0.483333333 23.8214286,0.483333333 C17.4690476,0.483333333 11.5309524,2.96904762 7.04285714,7.45714286 C2.62380952,11.8761905 0.138095238,17.8142857 0.138095238,24.1666667 C0.138095238,30.5190476 2.62380952,36.4571429 7.11190476,40.9452381 C11.6,45.4333333 17.5380952,47.9190476 23.8904762,47.9190476 C29.3452381,47.9190476 34.5238095,46.0547619 38.7357143,42.6714286 L40.1857143,47.3666667 L50.8190476,58 L57.8619048,50.9571429 L47.1595238,40.2547619 Z M8.56190476,39.4261905 C4.48809524,35.352381 2.20952381,29.897619 2.20952381,24.1666667 C2.20952381,18.3666667 4.48809524,12.9809524 8.56190476,8.90714286 C12.6357143,4.83333333 18.0904762,2.5547619 23.8214286,2.5547619 C29.552381,2.5547619 35.0071429,4.83333333 39.0809524,8.90714286 C43.1547619,12.9809524 45.4333333,18.4357143 45.4333333,24.1666667 C45.4333333,29.9666667 43.1547619,35.352381 39.0809524,39.4261905 C35.0071429,43.5 29.552381,45.7785714 23.8214286,45.7785714 C18.0904762,45.7785714 12.6357143,43.5 8.56190476,39.4261905 Z M41.9119048,46.1928571 L40.5309524,41.6357143 L41.4285714,40.7380952 L46.0547619,42.05 L54.8928571,50.8880952 L50.75,55.0309524 L41.9119048,46.1928571 Z" id="Shape"></path>
                    </g>
                </g>
            </g>
        </g>
    </g>
</svg>