<?xml version="1.0" encoding="UTF-8"?>
<svg width="28px" height="26px" viewBox="0 0 28 26" version="1.1" xmlns="http://www.w3.org/2000/svg" xmlns:xlink="http://www.w3.org/1999/xlink">
    <!-- Generator: Sketch 46.2 (44496) - http://www.bohemiancoding.com/sketch -->
    <title>noun_1189114</title>
    <desc>Created with Sketch.</desc>
    <defs>
        <linearGradient x1="0%" y1="0%" x2="100%" y2="100%" id="linearGradient-1">
            <stop stop-color="#1B1C25" offset="0%"></stop>
            <stop stop-color="#1F232A" offset="100%"></stop>
        </linearGradient>
        <rect id="path-2" x="0" y="0" width="1440" height="260"></rect>
    </defs>
    <g id="Page-1" stroke="none" stroke-width="1" fill="none" fill-rule="evenodd">
        <g id="Contact-Scenarios" transform="translate(-1027.000000, -460.000000)">
            <g id="Footer-options" transform="translate(0.000000, 280.000000)">
                <g id="footer">
                    <g id="Rectangle-3">
                        <use fill="#1B1C25" xlink:href="#path-2"></use>
                        <use fill="url(#linearGradient-1)" xlink:href="#path-2"></use>
                    </g>
                    <g id="Group-2" transform="translate(125.000000, 180.000000)" font-size="14" font-family="Assistant-Regular, Assistant" line-spacing="60" fill="#9B9B9B" font-weight="normal">
                        <text id="©-2008-2017-Proximit">
                            <tspan x="0" y="14">© 2008-2017 Proximity Lab,  All Rights Reserved</tspan>
                        </text>
                    </g>
                    <g id="noun_1189114" opacity="0.752887228" transform="translate(1027.000000, 180.000000)" fill-rule="nonzero" fill="#9B9B9B">
                        <path d="M26.2098361,3.55384615 L18.1770492,3.55384615 L18.1770492,0.692307692 C18.1770492,0.415384615 17.9934426,0.230769231 17.7180328,0.230769231 L9.82295082,0.230769231 C9.54754098,0.230769231 9.36393443,0.415384615 9.36393443,0.692307692 L9.36393443,3.55384615 L1.33114754,3.55384615 C0.596721311,3.55384615 0,4.15384615 0,4.89230769 L0,22.4769231 C0,23.2153846 0.596721311,23.8153846 1.33114754,23.8153846 L26.2557377,23.8153846 C26.9901639,23.8153846 27.5868852,23.2153846 27.5868852,22.4769231 L27.5868852,4.89230769 C27.5409836,4.15384615 26.9442623,3.55384615 26.2098361,3.55384615 Z M10.2819672,1.15384615 L17.2590164,1.15384615 L17.2590164,3.55384615 L10.2819672,3.55384615 L10.2819672,1.15384615 Z M26.2098361,22.8461538 L1.33114754,22.8461538 C1.10163934,22.8461538 0.918032787,22.6615385 0.918032787,22.4307692 L0.918032787,12.6923077 L11.0163934,12.6923077 L11.0163934,11.7692308 L0.918032787,11.7692308 L0.918032787,4.89230769 C0.918032787,4.66153846 1.10163934,4.47692308 1.33114754,4.47692308 L9.86885246,4.47692308 L17.7639344,4.47692308 L26.3016393,4.47692308 C26.5311475,4.47692308 26.7147541,4.66153846 26.7147541,4.89230769 L26.7147541,11.7692308 L16.5245902,11.7692308 L16.5245902,12.6923077 L26.6229508,12.6923077 L26.6229508,22.4307692 C26.6229508,22.6615385 26.4393443,22.8461538 26.2098361,22.8461538 Z M15.147541,9 L12.3934426,9 C12.1180328,9 11.9344262,9.18461538 11.9344262,9.46153846 L11.9344262,15 C11.9344262,15.2769231 12.1180328,15.4615385 12.3934426,15.4615385 L15.147541,15.4615385 C15.4229508,15.4615385 15.6065574,15.2769231 15.6065574,15 L15.6065574,9.46153846 C15.6065574,9.18461538 15.4229508,9 15.147541,9 Z M14.6885246,14.5384615 L12.852459,14.5384615 L12.852459,9.92307692 L14.6885246,9.92307692 L14.6885246,14.5384615 Z" id="Shape"></path>
                    </g>
                </g>
            </g>
        </g>
    </g>
</svg>