<?xml version="1.0" encoding="UTF-8"?>
<svg width="80px" height="78px" viewBox="0 0 80 78" version="1.1" xmlns="http://www.w3.org/2000/svg" xmlns:xlink="http://www.w3.org/1999/xlink">
    <!-- Generator: Sketch 46.2 (44496) - http://www.bohemiancoding.com/sketch -->
    <title>photoshop-cc</title>
    <desc>Created with Sketch.</desc>
    <defs>
        <radialGradient cx="32.9351254%" cy="22.4100935%" fx="32.9351254%" fy="22.4100935%" r="0.139277297%" gradientTransform="translate(0.329351,0.224101),scale(0.971223,1.000000),translate(-0.329351,-0.224101)" id="radialGradient-1">
            <stop stop-color="#34364E" stop-opacity="0.98" offset="0%"></stop>
            <stop stop-color="#0C0824" offset="100%"></stop>
        </radialGradient>
    </defs>
    <g id="Page-1" stroke="none" stroke-width="1" fill="none" fill-rule="evenodd">
        <g id="ADOBE" transform="translate(-170.000000, -1095.000000)" fill-rule="nonzero">
            <g id="Logos-1" transform="translate(170.000000, 1095.000000)">
                <g id="PhotoShop">
                    <g id="photoshop-cc">
                        <polygon id="Shape" fill="url(#radialGradient-1)" points="3.32926174 3.42409278 76.574094 3.42409278 76.574094 74.5611649 3.32926174 74.5611649"></polygon>
                        <path d="M3.32926174,3.42409278 L76.574094,3.42409278 L76.574094,74.5611649 L3.32926174,74.5611649 L3.32926174,3.42409278 Z M0,77.8854124 L79.9033557,77.8854124 L79.9033557,0.0999793814 L0,0.0999793814 L0,77.8854124 Z M53.8681879,32.0118969 C51.2379866,32.0118969 50.3391946,33.3415155 50.3391946,34.4384742 C50.3391946,35.6351443 50.9383893,36.4662062 54.4675168,38.2945155 C59.6944966,40.8209381 61.325906,43.2475155 61.325906,46.8044227 C61.325906,52.1230309 57.2641611,54.9818247 51.7707383,54.9818247 C48.8742282,54.9818247 46.3771812,54.3834227 44.9456376,53.5524948 C44.7126174,53.4527835 44.6793289,53.2865979 44.6793289,53.020567 L44.6793289,48.1340412 C44.6793289,47.8016701 44.8457718,47.7018247 45.0789262,47.8681443 C47.1763758,49.231134 49.5734228,49.8294021 51.7707383,49.8294021 C54.4009396,49.8294021 55.4995973,48.7324433 55.4995973,47.2365052 C55.4995973,46.0398351 54.7338255,44.9761134 51.3711409,43.2475155 C46.6434899,40.9871237 44.6793289,38.6934948 44.6793289,34.8706907 C44.6793289,30.582433 48.0420134,27.0256598 53.8681879,27.0256598 C56.7314094,27.0256598 58.7289933,27.4578763 59.827651,27.956433 C60.0939597,28.1226186 60.1605369,28.3885155 60.1605369,28.6211753 L60.1605369,33.1751959 C60.1605369,33.4410928 59.994094,33.6074124 59.6610738,33.507567 C58.1962416,32.5770619 56.0322148,32.0118969 53.8681879,32.0118969 L53.8681879,32.0118969 Z M25.2361074,35.9676495 C26.0018792,36.0341237 26.6012081,36.0341237 27.9328859,36.0341237 C31.8283221,36.0341237 35.4904698,34.671268 35.4904698,29.3858969 C35.4904698,25.1642474 32.8602685,23.0366701 28.432349,23.0366701 C27.1006711,23.0366701 25.8354362,23.1031443 25.2361074,23.1363814 L25.2361074,35.9676495 Z M19.3100671,18.3163299 C19.3100671,18.0836701 19.7762416,17.9173505 20.0424161,17.9173505 C22.1732886,17.8176392 25.3361074,17.7511649 28.6320805,17.7511649 C37.8542282,17.7511649 41.4497987,22.8038763 41.4497987,29.2528144 C41.4497987,37.6961134 35.3238926,41.3194948 27.7997315,41.3194948 C26.5346309,41.3194948 26.1018792,41.2530206 25.2028188,41.2530206 L25.2028188,54.0178144 C25.2028188,54.2837113 25.102953,54.4166598 24.8033557,54.4166598 L19.7095302,54.4166598 C19.4432215,54.4166598 19.3099329,54.3169485 19.3099329,54.0178144 L19.3099329,18.3163299 L19.3100671,18.3163299 Z" id="Shape" fill="#31C5F0"></path>
                    </g>
                </g>
            </g>
        </g>
    </g>
</svg>