<?xml version="1.0" encoding="UTF-8"?>
<svg width="60px" height="60px" viewBox="0 0 60 60" version="1.1" xmlns="http://www.w3.org/2000/svg" xmlns:xlink="http://www.w3.org/1999/xlink">
    <!-- Generator: Sketch 46.2 (44496) - http://www.bohemiancoding.com/sketch -->
    <title>noun_897863</title>
    <desc>Created with Sketch.</desc>
    <defs></defs>
    <g id="Page-1" stroke="none" stroke-width="1" fill="none" fill-rule="evenodd">
        <g id="ADOBE" transform="translate(-234.000000, -1455.000000)" fill-rule="nonzero" fill="#1884EC">
            <g id="Group-3" transform="translate(127.000000, 1444.000000)">
                <g id="Group-2" transform="translate(0.000000, 6.000000)">
                    <g id="noun_897863" transform="translate(107.000000, 5.000000)">
                        <path d="M40.6451613,41.6129032 L36.1016129,41.6129032 C38.8441935,39.6851613 40.6451613,36.5032258 40.6451613,32.9032258 L40.6451613,24.1935484 C40.6451613,22.3093548 39.2922581,20.7358065 37.5067742,20.3922581 C36.626129,18.0416129 34.376129,16.4516129 31.8164516,16.4516129 L27.3251613,16.4516129 C22.9296774,16.4516129 19.3548387,20.0264516 19.3548387,24.4219355 L19.3548387,32.9032258 C19.3548387,36.5032258 21.1558065,39.6851613 23.8983871,41.6129032 L19.3548387,41.6129032 C13.4854839,41.6129032 8.70967742,46.3887097 8.70967742,52.2580645 L8.70967742,60 L51.2903226,60 L51.2903226,52.2580645 C51.2903226,46.3887097 46.5145161,41.6129032 40.6451613,41.6129032 Z M39.2903226,46.2580645 L35.5480645,49.0654839 L37.4632258,52.8948387 L31.4767742,56.8858065 L36.4770968,43.5483871 L37.2580645,43.5483871 L39.2903226,46.2580645 Z M20.7096774,46.2580645 L22.7419355,43.5483871 L23.5229032,43.5483871 L28.5241935,56.8848387 L22.5377419,52.893871 L24.4529032,49.0645161 L20.7096774,46.2580645 Z M34.41,43.5483871 L30,55.3083871 L25.59,43.5483871 L34.41,43.5483871 Z M27.3251613,18.3870968 L31.8164516,18.3870968 C33.7209677,18.3870968 35.373871,19.6770968 35.8354839,21.5254839 L36.0193548,22.2580645 L36.7741935,22.2580645 C37.8416129,22.2580645 38.7096774,23.126129 38.7096774,24.1935484 L38.7096774,28.8541935 C37.586129,28.4535484 36.7741935,27.3890323 36.7741935,26.1290323 L36.7741935,24.1935484 L34.3209677,24.1935484 L34.0335484,24.6241935 C33.0019355,26.1725806 31.2745161,27.0967742 29.4145161,27.0967742 L21.2903226,27.0967742 L21.2903226,24.4219355 C21.2903226,21.093871 23.9980645,18.3870968 27.3251613,18.3870968 Z M21.2903226,32.9032258 L21.2903226,29.0322581 L29.4145161,29.0322581 C31.5029032,29.0322581 33.4674194,28.1680645 34.8696774,26.673871 C35.1058065,28.7641935 36.6793548,30.45 38.7106452,30.8641935 L38.7106452,32.9032258 C38.7106452,37.7051613 34.803871,41.6129032 30.0009677,41.6129032 C25.1980645,41.6129032 21.2903226,37.7051613 21.2903226,32.9032258 Z M10.6451613,52.2580645 C10.6451613,47.456129 14.5519355,43.5483871 19.3548387,43.5483871 L20.3225806,43.5483871 L18,46.6451613 L21.9996774,49.6441935 L20.043871,53.5567742 L26.8035484,58.0645161 L19.3548387,58.0645161 L19.3548387,52.2580645 L17.4193548,52.2580645 L17.4193548,58.0645161 L10.6451613,58.0645161 L10.6451613,52.2580645 Z M49.3548387,58.0645161 L42.5806452,58.0645161 L42.5806452,52.2580645 L40.6451613,52.2580645 L40.6451613,58.0645161 L33.1964516,58.0645161 L39.9570968,53.5567742 L38.0012903,49.6441935 L42,46.6451613 L39.6774194,43.5483871 L40.6451613,43.5483871 C45.4480645,43.5483871 49.3548387,47.456129 49.3548387,52.2580645 L49.3548387,58.0645161 Z" id="Shape"></path>
                        <path d="M55.1612903,25.1612903 C52.8251613,25.1612903 50.8703226,26.8267742 50.4203226,29.0322581 L49.3548387,29.0322581 L49.3548387,30.9677419 L50.4203226,30.9677419 C50.8703226,33.1732258 52.8241935,34.8387097 55.1612903,34.8387097 C57.8293548,34.8387097 60,32.6680645 60,30 C60,27.3319355 57.8293548,25.1612903 55.1612903,25.1612903 Z M55.1612903,32.9032258 C53.5606452,32.9032258 52.2580645,31.6006452 52.2580645,30 C52.2580645,28.3993548 53.5606452,27.0967742 55.1612903,27.0967742 C56.7619355,27.0967742 58.0645161,28.3993548 58.0645161,30 C58.0645161,31.6006452 56.7619355,32.9032258 55.1612903,32.9032258 Z" id="Shape"></path>
                        <rect id="Rectangle-path" x="45.483871" y="29.0322581" width="1.93548387" height="1.93548387"></rect>
                        <rect id="Rectangle-path" transform="translate(41.632987, 18.366627) rotate(-45.000000) translate(-41.632987, -18.366627) " x="40.6647708" y="17.3988947" width="1.93643304" height="1.93546531"></rect>
                        <path d="M43.0025806,15.63 L44.3709677,16.9983871 L45.1248387,16.2445161 C45.9096774,16.7651613 46.8290323,17.0467742 47.7929032,17.0467742 C49.0858065,17.0467742 50.3003226,16.5435484 51.213871,15.63 C53.1,13.7429032 53.1,10.6732258 51.213871,8.78709677 C50.3003226,7.87354839 49.0858065,7.37032258 47.7929032,7.37032258 C46.5,7.37032258 45.2854839,7.87354839 44.3719355,8.78709677 C42.72,10.44 42.5148387,12.9987097 43.7574194,14.8770968 L43.0025806,15.63 Z M45.7393548,10.1554839 C46.2870968,9.60774194 47.0158065,9.30580645 47.7919355,9.30580645 C48.5680645,9.30580645 49.2967742,9.60774194 49.8445161,10.1554839 C50.9767742,11.2877419 50.9767742,13.1293548 49.8445161,14.2616129 C48.7480645,15.3580645 46.8358065,15.3580645 45.7393548,14.2616129 C44.6070968,13.1293548 44.6070968,11.2877419 45.7393548,10.1554839 Z" id="Shape"></path>
                        <path d="M29.0322581,9.57967742 L29.0322581,10.6451613 L30.9677419,10.6451613 L30.9677419,9.57967742 C33.1732258,9.12967742 34.8387097,7.17580645 34.8387097,4.83870968 C34.8387097,2.17064516 32.6680645,8.8817842e-16 30,8.8817842e-16 C27.3319355,8.8817842e-16 25.1612903,2.17064516 25.1612903,4.83870968 C25.1612903,7.17483871 26.8267742,9.12967742 29.0322581,9.57967742 Z M30,1.93548387 C31.6006452,1.93548387 32.9032258,3.23806452 32.9032258,4.83870968 C32.9032258,6.43935484 31.6006452,7.74193548 30,7.74193548 C28.3993548,7.74193548 27.0967742,6.43935484 27.0967742,4.83870968 C27.0967742,3.23806452 28.3993548,1.93548387 30,1.93548387 Z" id="Shape"></path>
                        <rect id="Rectangle-path" x="29.0322581" y="12.5806452" width="1.93548387" height="1.93548387"></rect>
                        <path d="M12.2080645,17.0467742 C13.1719355,17.0467742 14.0912903,16.766129 14.876129,16.2445161 L15.63,16.9983871 L16.9983871,15.63 L16.2445161,14.876129 C17.486129,12.9987097 17.2819355,10.4390323 15.63,8.78612903 C14.7164516,7.87258065 13.5019355,7.36935484 12.2090323,7.36935484 C10.916129,7.36935484 9.7016129,7.87258065 8.78806452,8.78612903 C6.90193548,10.6732258 6.90193548,13.7429032 8.78806452,15.6290323 C9.70064516,16.5435484 10.9151613,17.0467742 12.2080645,17.0467742 Z M10.1554839,10.1554839 C10.7032258,9.60774194 11.4319355,9.30580645 12.2080645,9.30580645 C12.9841935,9.30580645 13.7129032,9.60774194 14.2606452,10.1554839 C15.3929032,11.2877419 15.3929032,13.1293548 14.2606452,14.2616129 C13.1641935,15.3580645 11.2519355,15.3580645 10.1554839,14.2616129 C9.02322581,13.1293548 9.02322581,11.2877419 10.1554839,10.1554839 Z" id="Shape"></path>
                        <rect id="Rectangle-path" transform="translate(18.366731, 18.367213) rotate(-45.000000) translate(-18.366731, -18.367213) " x="17.3989983" y="17.3989966" width="1.93546531" height="1.93643304"></rect>
                        <rect id="Rectangle-path" x="12.5806452" y="29.0322581" width="1.93548387" height="1.93548387"></rect>
                        <path d="M10.6451613,30.9677419 L10.6451613,29.0322581 L9.57967742,29.0322581 C9.12967742,26.8267742 7.17483871,25.1612903 4.83870968,25.1612903 C2.17064516,25.1612903 0,27.3319355 0,30 C0,32.6680645 2.17064516,34.8387097 4.83870968,34.8387097 C7.17483871,34.8387097 9.12967742,33.1732258 9.57967742,30.9677419 L10.6451613,30.9677419 Z M4.83870968,32.9032258 C3.23806452,32.9032258 1.93548387,31.6006452 1.93548387,30 C1.93548387,28.3993548 3.23806452,27.0967742 4.83870968,27.0967742 C6.43935484,27.0967742 7.74193548,28.3993548 7.74193548,30 C7.74193548,31.6006452 6.43935484,32.9032258 4.83870968,32.9032258 Z" id="Shape"></path>
                    </g>
                </g>
            </g>
        </g>
    </g>
</svg>