<?xml version="1.0" encoding="UTF-8"?>
<svg width="60px" height="59px" viewBox="0 0 60 59" version="1.1" xmlns="http://www.w3.org/2000/svg" xmlns:xlink="http://www.w3.org/1999/xlink">
    <!-- Generator: Sketch 46.2 (44496) - http://www.bohemiancoding.com/sketch -->
    <title>acrobat-pro-cc</title>
    <desc>Created with Sketch.</desc>
    <defs></defs>
    <g id="Page-1" stroke="none" stroke-width="1" fill="none" fill-rule="evenodd">
        <g id="ADOBE" transform="translate(-529.000000, -1105.000000)" fill-rule="nonzero" fill="#E42127">
            <g id="Logos-1" transform="translate(170.000000, 1095.000000)">
                <g id="Acrobat" transform="translate(347.000000, 0.000000)">
                    <g id="acrobat-pro-cc">
                        <path d="M42.2488591,13.6624639 C41.6162416,11.4020722 40.0848322,10.2718763 38.786443,10.4380619 C37.2216107,10.6374845 35.5569128,11.5682577 34.8910067,13.0309588 C33.0265772,17.2193711 36.9218792,29.5519485 37.5212081,31.6130515 C33.725906,43.0480928 20.7414765,65.6524124 14.3825503,67.1815876 C14.249396,65.6857835 15.0484564,61.3644227 23.438255,55.9792062 C23.8711409,55.5137526 24.3704698,54.9487216 24.6036242,54.5829794 C17.5122148,58.0401753 8.32322148,63.5915773 13.8499329,67.7467526 C14.1495302,67.9794124 14.6157047,68.1789691 15.1484564,68.3783918 C19.3766443,69.9406701 25.3026846,64.8214845 31.2622819,53.2201237 C37.8209396,51.0594433 43.1146309,49.4305567 50.6055034,48.3003608 C58.7955705,53.8517629 64.2888591,54.9818247 68.0177181,53.5524948 C69.0497987,53.1535155 70.6812081,51.857134 71.1472483,50.1617732 C68.1175839,53.884866 61.0261745,51.2921031 55.366443,47.7351959 C60.5932886,47.1700309 65.9868456,46.8377938 68.3173154,47.5690103 C71.2804027,48.4997835 71.1805369,49.9623505 71.1472483,50.1619072 C71.3802685,49.3642165 71.7132886,48.067701 71.0806711,47.0372165 C68.5836242,42.9817526 57.1308725,45.3419897 52.9692617,45.7740722 C46.4104698,41.8183196 41.8825503,34.7711134 40.0515436,29.6851649 C41.749396,23.1363814 43.5805369,18.3829381 42.2488591,13.6624639 M39.4189262,27.391268 C38.3202685,23.5019897 36.7887248,14.859268 39.2524832,12.0669485 C44.08,14.8260309 41.0836242,21.3745464 39.4189262,27.391268 M48.4413423,46.6714742 C42.1157047,47.8349072 37.8209396,49.4636598 31.661745,51.8902371 C33.4928859,48.3334639 36.955302,39.2585258 38.62,33.2750412 C40.9504698,37.9289072 43.7802685,42.4829278 48.4413423,46.6714742" id="Shape"></path>
                    </g>
                </g>
            </g>
        </g>
    </g>
</svg>