<?xml version="1.0" encoding="UTF-8"?>
<svg width="82px" height="50px" viewBox="0 0 82 50" version="1.1" xmlns="http://www.w3.org/2000/svg" xmlns:xlink="http://www.w3.org/1999/xlink">
    <!-- Generator: Sketch 46.2 (44496) - http://www.bohemiancoding.com/sketch -->
    <title>noun_1115155</title>
    <desc>Created with Sketch.</desc>
    <defs></defs>
    <g id="Page-1" stroke="none" stroke-width="1" fill="none" fill-rule="evenodd">
        <g id="SCRIBE" transform="translate(-242.000000, -3904.000000)" fill-rule="nonzero" fill="#F5A623">
            <g id="Group-6" transform="translate(125.000000, 3811.000000)">
                <g id="Group-2" transform="translate(14.000000, 87.000000)">
                    <g id="noun_1115155" transform="translate(103.000000, 6.000000)">
                        <path d="M43.2826114,21.616666 C43.3498841,22.092666 43.8435205,22.4648478 44.3195205,22.3979388 L52.9558841,22.3979388 L38.8366114,34.8411206 L30.5695205,28.2217569 C30.0360659,27.6771206 29.4790659,27.8245751 29.1775205,28.0513024 L20.4608645,35.7792039 C20.0964099,36.0915675 20.0490463,36.7073857 20.3614099,37.0718402 C20.6737735,37.4362948 21.2895008,37.4836584 21.6539554,37.1712948 L29.8024295,29.9263024 L37.9842477,36.4888478 C38.2706114,36.8328478 38.9481568,37.1002115 39.4615205,36.7161206 L54.3195205,23.6194842 L54.3195205,32.3979388 C54.3104295,32.8782115 54.7482477,33.3199388 55.2286114,33.3199388 C55.708975,33.3199388 56.1445205,32.8782115 56.1377023,32.3979388 L56.1377023,21.4888478 C56.1376114,21.0128478 55.7046114,20.5798478 55.2286114,20.5797569 L44.3195205,20.5797569 C43.6387023,20.5470297 43.2231568,21.0422115 43.2826114,21.616666 Z" id="Shape" transform="translate(38.146066, 28.978287) rotate(-19.000000) translate(-38.146066, -28.978287) "></path>
                        <path d="M81.3636364,33.6345455 C81.3609091,26.4327273 76.6245455,20.3545455 70.0945455,18.3072727 C70.7009091,16.9127273 71.0463636,15.3745455 71.0463636,13.7572727 C71.0454545,7.41636364 65.9063636,2.27818182 59.5645455,2.27727273 C55.89,2.27727273 52.6236364,4.00909091 50.5245455,6.69272727 C46.4809091,2.80545455 40.9845455,0.404545455 34.9309091,0.405454545 C23.3154545,0.407272727 13.76,9.19636364 12.5463636,20.4909091 C5.67,21.7245455 0.457272727,27.7218182 0.454545455,34.9481818 C0.455454545,43.0690909 7.03545455,49.6490909 15.1554545,49.65 L39.3372727,49.6309091 L42.0645455,49.6290909 L65.2845455,49.61 C69.7136364,49.6109091 73.7409091,47.8390909 76.65,44.9572727 C79.56,42.0781818 81.3645455,38.0709091 81.3636364,33.6345455 Z M65.2836364,46.8827273 L42.0645455,46.9018182 L39.3363636,46.9027273 L15.1545455,46.9218182 C11.8436364,46.9209091 8.85909091,45.5836364 6.68818182,43.4145455 C4.51909091,41.2436364 3.18181818,38.2590909 3.18090909,34.9481818 C3.17818182,28.7436364 7.90636364,23.64 13.95,23.0363636 L15.1081818,22.9209091 L15.1754545,21.7590909 C15.7763636,11.3736364 24.39,3.13090909 34.9290909,3.13272727 C40.8063636,3.13272727 46.07,5.69 49.7,9.75545455 L50.9763636,11.1863636 L51.9090909,9.51090909 C53.4090909,6.82181818 56.2681818,5.00272727 59.5636364,5.00363636 C61.9854545,5.00454545 64.1654545,5.98090909 65.7536364,7.56727273 C67.34,9.15545455 68.3172727,11.3354545 68.3181818,13.7563636 C68.3181818,15.49 67.81,17.0918182 66.9390909,18.4572727 L65.8581818,20.1490909 L67.83,20.53 C73.9827273,21.72 78.6381818,27.1327273 78.6354545,33.6336364 C78.6354545,41.0036364 72.6727273,46.8781818 65.2836364,46.8827273 Z" id="Shape" stroke="#FFFFFF" stroke-width="0.7"></path>
                    </g>
                </g>
            </g>
        </g>
    </g>
</svg>