<?xml version="1.0" encoding="utf-8"?>
<!-- Generator: Adobe Illustrator 22.1.0, SVG Export Plug-In . SVG Version: 6.00 Build 0)  -->
<svg version="1.1" id="Layer_1" xmlns="http://www.w3.org/2000/svg" xmlns:xlink="http://www.w3.org/1999/xlink" x="0px" y="0px"
	 viewBox="0 0 100 81.2" style="enable-background:new 0 0 100 81.2;" xml:space="preserve">
<style type="text/css">
	.st0{fill:#a9ed51;}
</style>
<g>
	<path class="st0" d="M53.7,24.9c-1.9-1.9-5.1-1.9-7.1,0l0,0l-8.5,8.5l-8.6-8.6c-2.2,3.1-3.4,6.8-3.6,10.5l8.6,8.6l0,0
		c1.9,1.9,5.1,1.9,7.1,0l0,0l8.5-8.5l12.4,12.4c2.2-3.1,3.4-6.8,3.6-10.5L53.7,24.9z"/>
	<path class="st0" d="M9.9,19.3c1.5-3.1,3.4-6,5.6-8.6l-6-6C8.6,3.6,7.3,3,5.9,3C4.5,2.9,3.2,3.5,2.2,4.5S0.7,6.8,0.7,8.2
		c0.1,1.4,0.7,2.7,1.7,3.6L9.9,19.3z"/>
	<path class="st0" d="M50.3,72.5c7.7-0.9,14.7-4.2,20.3-9.3c0.2-0.1,0.3-0.3,0.5-0.4c0.3-0.2,0.5-0.5,0.8-0.7
		c0.3-0.3,0.5-0.5,0.8-0.8c0.1-0.2,0.3-0.3,0.4-0.5c0.3-0.3,0.5-0.6,0.8-0.9c0.1-0.1,0.2-0.3,0.3-0.4c2.2-2.6,4-5.6,5.3-8.7l0,0
		c4.6-10.8,3.7-23.2-2.4-33.2C71,7.4,60.4,0.9,48.7,0.1S25.5,4.1,18,13.2l0,0c-2.2,2.6-4,5.6-5.4,8.7l0.1,0.1
		c-2.5,5.9-3.5,12.4-2.7,18.8s3.3,12.5,7.2,17.6L2.5,73.1C0.7,75,0.8,78,2.6,79.8c1.8,1.8,4.8,1.9,6.7,0.1L24,65.2
		C31.5,71,41,73.6,50.3,72.5z M27.2,55.2c-5-5-7.8-11.8-7.8-18.9l0,0c0-7.1,2.8-13.9,7.8-18.9S39,9.6,46.1,9.6S60,12.4,65,17.4
		s7.8,11.8,7.8,18.9S70,50.2,65,55.2S53.2,63,46.1,63C39,63.1,32.2,60.2,27.2,55.2z"/>
	<path class="st0" d="M97.2,55.4c-0.1-0.9-0.7-1.7-1.5-2c-0.9-0.3-1.8-0.1-2.5,0.5l0,0L88,59.2l-5.8-5.8c-1.5,3.1-3.3,6-5.5,8.6
		l4.3,4.3l-1.4,1.3l-3.8,3.9c-0.6,0.7-0.8,1.6-0.5,2.5s1.1,1.4,2,1.5l18.9,1.7c0.8,0.1,1.6-0.2,2.2-0.8s0.9-1.4,0.8-2.2L97.2,55.4z"
		/>
</g>
</svg>
