<?xml version="1.0" encoding="UTF-8"?>
<svg fill="#fdb900" width="100pt" height="100pt" version="1.1" viewBox="0 0 100 100" xmlns="http://www.w3.org/2000/svg">
 <path d="m81.289 97.141c5.2656 0.007813 10.16-2.7109 12.93-7.1875s3.0195-10.07 0.66016-14.777c-2.3555-4.707-6.9883-7.8555-12.23-8.3164-5.2461-0.46094-10.355 1.8281-13.5 6.0508-3.6289-1.7344-6.9453-4.0703-9.7969-6.9102-12.742-12.66-13.621-33-3.3516-47.172l0.92188 4.4102c0.5 2.4258 2.875 3.9844 5.2969 3.4805 1.1641-0.23828 2.1875-0.93359 2.8398-1.9297 0.65234-0.99219 0.88281-2.2031 0.64062-3.3672l-3.1094-15c-0.52734-2.4023-2.8945-3.9297-5.3008-3.4219l-15 3.1094c-1.1641 0.24219-2.1836 0.93359-2.8359 1.9297-0.65625 0.99219-0.88672 2.207-0.64453 3.3711 0.24219 1.1641 0.9375 2.1875 1.9297 2.8398 0.99609 0.65234 2.207 0.88281 3.3711 0.64062l4.4102-0.92188c-12.461 17.641-11.25 42.711 4.4805 58.359 3.7969 3.7852 8.2461 6.8555 13.129 9.0625v0.57812c0.007813 4.0195 1.6055 7.875 4.4453 10.719 2.8438 2.8438 6.6953 4.4453 10.715 4.4531zm0-21.379c2.5117 0 4.7734 1.5078 5.7344 3.8242 0.96484 2.3164 0.4375 4.9844-1.332 6.7656-1.7695 1.7773-4.4375 2.3164-6.7578 1.3633-2.3203-0.94922-3.8398-3.207-3.8555-5.7148-0.007813-1.6523 0.64453-3.2383 1.8086-4.4102 1.168-1.1719 2.75-1.8281 4.4023-1.8281zm-11.027-25.762l4.6797-4.6797-4.6797-4.6797c-0.84375-0.83984-1.3164-1.9805-1.3164-3.1719 0-1.1875 0.47266-2.3281 1.3164-3.168 0.83984-0.84375 1.9805-1.3164 3.168-1.3164 1.1914 0 2.3281 0.47266 3.1719 1.3164l4.6875 4.6992 4.7109-4.6602c0.83984-0.83984 1.9805-1.3125 3.1719-1.3125 1.1875 0 2.3281 0.47266 3.168 1.3125s1.3164 1.9805 1.3164 3.1719c0 1.1875-0.47656 2.3281-1.3164 3.168l-4.6797 4.6797 4.6484 4.6406c1.7656 1.7422 1.7852 4.5859 0.042968 6.3516-1.7422 1.7617-4.5859 1.7812-6.3516 0.039063l-4.7109-4.6914-4.6875 4.6914c-1.7656 1.75-4.6172 1.7383-6.3672-0.027344-1.75-1.7617-1.7383-4.6133 0.027344-6.3633zm-29.262 29l-4.6797 4.6797 4.6797 4.7305c1.75 1.75 1.75 4.5898 0 6.3398s-4.5898 1.75-6.3398 0l-4.6602-4.6914-4.6797 4.6797c-1.7734 1.5781-4.4688 1.4961-6.1484-0.17969-1.6758-1.6797-1.75-4.3789-0.17188-6.1484l4.6797-4.6797-4.6797-4.7305c-1.75-1.75-1.75-4.5898 0-6.3398s4.5898-1.75 6.3398 0l4.6602 4.7305 4.6797-4.6797c0.80078-0.98047 1.9766-1.5781 3.2383-1.6406 1.2656-0.066406 2.4961 0.40625 3.3945 1.2969 0.89453 0.89453 1.3711 2.1211 1.3125 3.3867-0.058594 1.2617-0.64844 2.4414-1.625 3.2461zm-36.148-33.84l4.6797-4.6797-4.6797-4.6914c-1.7539-1.75-1.7539-4.5898 0-6.3398 1.75-1.75 4.5859-1.75 6.3398 0l4.6797 4.6797 4.6797-4.6797c1.75-1.75 4.5898-1.75 6.3398 0s1.75 4.5898 0 6.3398l-4.6797 4.6797 4.6797 4.6797c1.75 1.7539 1.75 4.5898 0 6.3398-1.75 1.7539-4.5898 1.7539-6.3398 0l-4.6797-4.6797-4.6797 4.6914c-1.7539 1.75-4.5898 1.75-6.3398 0-1.7539-1.75-1.7539-4.5898 0-6.3398z"/>
</svg>
