<?xml version="1.0" encoding="UTF-8"?>
<svg width="98px" height="49px" viewBox="0 0 98 49" version="1.1" xmlns="http://www.w3.org/2000/svg" xmlns:xlink="http://www.w3.org/1999/xlink">
    <!-- Generator: Sketch 46.2 (44496) - http://www.bohemiancoding.com/sketch -->
    <title>noun_508804</title>
    <desc>Created with Sketch.</desc>
    <defs></defs>
    <g id="Page-1" stroke="none" stroke-width="1" fill="none" fill-rule="evenodd">
        <g id="PHILIPS" transform="translate(-236.000000, -1657.000000)">
            <g id="Group-3" transform="translate(139.000000, 1647.000000)">
                <g id="Group-2" transform="translate(0.000000, 11.000000)">
                    <g id="noun_508804" transform="translate(98.000000, 0.000000)">
                        <path d="M5.184,30.355 C2.708,32.83 2.708,36.855 5.184,39.326 C7.654,41.8 11.677,41.8 14.15,39.326 C16.624,36.855 16.627,32.828 14.15,30.355 C11.678,27.881 7.654,27.887 5.184,30.355 Z" id="Shape"></path>
                        <path d="M54.557,32.588 C52.082,35.061 52.082,39.087 54.557,41.559 C57.028,44.032 61.053,44.032 63.526,41.559 C66,39.087 66.003,35.059 63.526,32.588 C61.052,30.113 57.027,30.115 54.557,32.588 Z" id="Shape"></path>
                        <path d="M82.232,5.371 C79.755,7.843 79.755,11.87 82.232,14.34 C84.703,16.814 88.726,16.814 91.199,14.34 C93.673,11.87 93.676,7.841 91.199,5.371 C88.727,2.897 84.703,2.899 82.232,5.371 Z" id="Shape"></path>
                        <path d="M93.553,3.021 C89.782,-0.747 83.649,-0.747 79.878,3.021 C76.518,6.379 76.159,11.61 78.786,15.378 L64.824,29.34 C61.465,26.828 56.842,26.783 53.437,29.207 L41.109,16.875 C43.816,13.1 43.485,7.802 40.098,4.413 C36.326,0.646 30.193,0.646 26.422,4.413 C23.029,7.807 22.7,13.108 25.414,16.884 L15.299,26.998 C11.522,24.288 6.221,24.616 2.828,28.006 C-0.942,31.777 -0.942,37.91 2.828,41.68 C6.602,45.448 12.732,45.448 16.5,41.68 C19.871,38.311 20.219,33.057 17.567,29.286 L27.703,19.15 C31.03,21.489 35.499,21.487 38.822,19.146 L51.162,31.486 C48.482,35.259 48.822,40.533 52.203,43.911 C55.976,47.68 62.105,47.68 65.876,43.911 C69.2,40.588 69.589,35.428 67.053,31.668 L81.045,17.675 C84.824,20.416 90.149,20.096 93.55,16.695 C97.32,12.925 97.32,6.79 93.553,3.021 Z M14.15,39.326 C11.677,41.8 7.654,41.8 5.184,39.326 C2.708,36.855 2.708,32.83 5.184,30.355 C7.654,27.886 11.678,27.88 14.15,30.355 C16.627,32.828 16.624,36.855 14.15,39.326 Z M32.049,15.624 L28.183,11.765 L29.682,10.267 L32.05,12.629 L38.023,6.666 L39.523,8.162 L32.049,15.624 Z M63.525,41.559 C61.052,44.032 57.027,44.032 54.556,41.559 C52.081,39.087 52.081,35.061 54.556,32.588 C57.027,30.115 61.051,30.113 63.525,32.588 C66.002,35.059 65.999,39.087 63.525,41.559 Z M91.199,14.34 C88.726,16.814 84.703,16.814 82.232,14.34 C79.755,11.87 79.755,7.843 82.232,5.371 C84.703,2.899 88.726,2.897 91.199,5.371 C93.676,7.841 93.673,11.87 91.199,14.34 Z" id="Shape" stroke="#FFFFFF" fill="#92CF02" fill-rule="nonzero"></path>
                    </g>
                </g>
            </g>
        </g>
    </g>
</svg>