<?xml version="1.0" encoding="UTF-8"?>
<svg width="71px" height="60px" viewBox="0 0 71 60" version="1.1" xmlns="http://www.w3.org/2000/svg" xmlns:xlink="http://www.w3.org/1999/xlink">
    <!-- Generator: Sketch 46.2 (44496) - http://www.bohemiancoding.com/sketch -->
    <title>noun_229089</title>
    <desc>Created with Sketch.</desc>
    <defs></defs>
    <g id="Page-1" stroke="none" stroke-width="1" fill="none" fill-rule="evenodd">
        <g id="EG" transform="translate(-685.000000, -1591.000000)" fill-rule="nonzero" fill="#0BD1BB">
            <g id="Group-3" transform="translate(139.000000, 1587.000000)">
                <g id="Group-2-Copy" transform="translate(435.000000, 4.000000)">
                    <g id="noun_229089" transform="translate(111.000000, 0.000000)">
                        <path d="M11.5454545,24.3636364 C12.1818182,24.3636364 12.6363636,23.8181818 12.6363636,23.1818182 C12.6363636,23 12.6363636,22.7272727 12.6363636,22.5454545 C14.4545455,22 15.8181818,20.3636364 15.8181818,18.4545455 C15.8181818,16.0909091 13.9090909,14.0909091 11.4545455,14.0909091 C9.09090909,14.0909091 7.09090909,16 7.09090909,18.4545455 C7.09090909,20.4545455 8.45454545,22.0909091 10.2727273,22.6363636 C10.2727273,22.9090909 10.2727273,23.0909091 10.3636364,23.3636364 C10.3636364,23.9090909 10.8181818,24.3636364 11.5454545,24.3636364 C11.4545455,24.3636364 11.4545455,24.3636364 11.5454545,24.3636364 Z M11.3636364,16.2727273 C12.4545455,16.2727273 13.3636364,17.1818182 13.3636364,18.2727273 C13.3636364,19.3636364 12.4545455,20.2727273 11.3636364,20.2727273 C10.2727273,20.2727273 9.36363636,19.3636364 9.36363636,18.2727273 C9.36363636,17.1818182 10.1818182,16.2727273 11.3636364,16.2727273 Z" id="Shape"></path>
                        <path d="M13.6363636,30.0909091 C13.3636364,29.3636364 13.1818182,28.4545455 13.0909091,27.5454545 C13,26.9090909 12.3636364,26.5454545 11.8181818,26.6363636 C11.1818182,26.7272727 10.8181818,27.3636364 10.9090909,27.9090909 C11.0909091,28.9090909 11.2727273,29.9090909 11.5454545,30.7272727 C11.7272727,31.1818182 12.1818182,31.5454545 12.6363636,31.5454545 C12.7272727,31.5454545 12.8181818,31.5454545 13,31.4545455 C13.5454545,31.2727273 13.8181818,30.6363636 13.6363636,30.0909091 Z" id="Shape"></path>
                        <path d="M17.3636364,34.6363636 C16.7272727,34.4545455 16.0909091,34.0909091 15.5454545,33.5454545 C15.0909091,33.0909091 14.3636364,33.0909091 13.9090909,33.5454545 C13.4545455,34 13.4545455,34.7272727 13.9090909,35.1818182 C14.7272727,36 15.7272727,36.5454545 16.7272727,36.8181818 C16.8181818,36.8181818 16.9090909,36.8181818 17,36.8181818 C17.5454545,36.8181818 18,36.4545455 18.0909091,36 C18.2727273,35.4545455 17.9090909,34.8181818 17.3636364,34.6363636 Z" id="Shape"></path>
                        <path d="M34.6363636,22.5454545 C34.1818182,22.0909091 33.4545455,22.1818182 33,22.6363636 C32.4545455,23.1818182 31.9090909,23.9090909 31.1818182,24.7272727 C30.8181818,25.1818182 30.8181818,25.9090909 31.3636364,26.3636364 C31.5454545,26.5454545 31.8181818,26.6363636 32.0909091,26.6363636 C32.4545455,26.6363636 32.7272727,26.4545455 33,26.2727273 C33.7272727,25.4545455 34.2727273,24.8181818 34.7272727,24.2727273 C35.0909091,23.7272727 35.0909091,23 34.6363636,22.5454545 Z" id="Shape"></path>
                        <path d="M28.2727273,28.1818182 C27.6363636,29 27,29.6363636 26.4545455,30.1818182 C26,30.6363636 26,31.3636364 26.4545455,31.8181818 C26.6363636,32 27,32.0909091 27.2727273,32.0909091 C27.5454545,32.0909091 27.9090909,32 28.0909091,31.7272727 C28.6363636,31.0909091 29.2727273,30.4545455 30,29.6363636 C30.3636364,29.1818182 30.3636364,28.4545455 29.9090909,28 C29.3636364,27.6363636 28.7272727,27.7272727 28.2727273,28.1818182 Z" id="Shape"></path>
                        <path d="M44.6363636,18.1818182 C44.0909091,17.9090909 43.3636364,18.0909091 43.0909091,18.7272727 C42.8181818,19.2727273 43,20 43.6363636,20.2727273 C44.1818182,20.5454545 44.7272727,21.0909091 45.1818182,21.7272727 C45.3636364,22.0909091 45.7272727,22.2727273 46.0909091,22.2727273 C46.2727273,22.2727273 46.5454545,22.1818182 46.7272727,22.0909091 C47.2727273,21.7272727 47.3636364,21.0909091 47.0909091,20.5454545 C46.3636364,19.3636364 45.5454545,18.6363636 44.6363636,18.1818182 Z" id="Shape"></path>
                        <path d="M60.8181818,24.9090909 L60.8181818,1.81818182 C60.8181818,1.45454545 60.6363636,1.09090909 60.2727273,0.909090909 C60,0.727272727 59.5454545,0.636363636 59.1818182,0.818181818 L40.2727273,8.81818182 L21.3636364,0.818181818 C21.3636364,0.818181818 21.3636364,0.818181818 21.3636364,0.818181818 C21.3636364,0.818181818 21.2727273,0.818181818 21.1818182,0.818181818 C21.1818182,0.818181818 21.0909091,0.818181818 21.0909091,0.818181818 C21,0.818181818 21,0.818181818 20.9090909,0.818181818 C20.8181818,0.818181818 20.8181818,0.818181818 20.7272727,0.818181818 C20.7272727,0.818181818 20.6363636,0.818181818 20.6363636,0.818181818 C20.5454545,0.818181818 20.5454545,0.818181818 20.4545455,0.818181818 C20.4545455,0.818181818 20.4545455,0.818181818 20.4545455,0.818181818 L1.09090909,9 C0.636363636,9.18181818 0.363636364,9.54545455 0.363636364,10.0909091 L0.363636364,50.2727273 C0.363636364,50.6363636 0.545454545,51 0.909090909,51.1818182 C1.09090909,51.2727273 1.27272727,51.3636364 1.54545455,51.3636364 C1.72727273,51.3636364 1.81818182,51.3636364 2,51.2727273 L20.9090909,43.2727273 L36.2727273,49.7272727 C39.3636364,55.3636364 45.3636364,59.2727273 52.2727273,59.2727273 C62.3636364,59.2727273 70.5454545,51.0909091 70.5454545,41 C70.5454545,34.0909091 66.6363636,28 60.8181818,24.9090909 Z M41.4545455,10.8181818 L58.5454545,3.63636364 L58.5454545,24 C56.6363636,23.2727273 54.4545455,22.9090909 52.2727273,22.9090909 C48.1818182,22.9090909 44.4545455,24.2727273 41.3636364,26.5454545 L41.3636364,10.8181818 L41.4545455,10.8181818 Z M50.1818182,46 C49.7272727,45.8181818 49.2727273,45.5454545 48.9090909,45.2727273 C48.5454545,45 48.1818182,44.7272727 48,44.5454545 C48.0909091,43.8181818 48,42.9090909 47.6363636,41.9090909 C47,40.0909091 46.7272727,38.8181818 46.8181818,37.1818182 C47.0909091,34.7272727 49.4545455,32.5454545 52.0909091,32.5454545 L52.1818182,32.5454545 C54.8181818,32.5454545 57.2727273,34.6363636 57.4545455,37.1818182 C57.6363636,38.8181818 57.2727273,40.0909091 56.6363636,41.9090909 C56.6363636,41.9090909 56.6363636,41.9090909 56.6363636,41.9090909 C56.4545455,42.3636364 56.3636364,42.8181818 56.2727273,43.2727273 C56.1818182,43.7272727 56.1818182,44.0909091 56.2727273,44.5454545 C56.2727273,44.5454545 56.2727273,44.5454545 56.2727273,44.5454545 C54.9090909,45.8181818 53.4545455,46.3636364 52,46.3636364 C51.9090909,46.3636364 51.9090909,46.3636364 51.8181818,46.3636364 C51.4545455,46.4545455 50.8181818,46.2727273 50.1818182,46 Z M40.0909091,51.2727273 C40.0909091,51.2727273 40,51.1818182 40,51.1818182 C40,51.0909091 40.0909091,51 40.0909091,51 C40.3636364,50.5454545 40.7272727,50.1818182 41.1818182,49.8181818 C41.2727273,49.7272727 41.3636364,49.7272727 41.3636364,49.6363636 C42.2727273,49 43.3636364,48.4545455 44.4545455,48 C45,47.7272727 45.5454545,47.4545455 46.0909091,47.1818182 C46.3636364,47 46.6363636,46.8181818 46.8181818,46.6363636 C47,46.8181818 47.2727273,47 47.4545455,47.0909091 C47.8181818,47.3636364 48.1818182,47.5454545 48.6363636,47.8181818 C49.5454545,48.2727273 50.7272727,48.6363636 52,48.7272727 C52.0909091,48.7272727 52.0909091,48.7272727 52.1818182,48.7272727 C54,48.7272727 55.8181818,48 57.4545455,46.6363636 C57.6363636,46.8181818 57.9090909,47 58.1818182,47.1818182 C58.7272727,47.4545455 59.2727273,47.7272727 59.8181818,48 C61.5454545,48.8181818 63.2727273,49.6363636 64.1818182,51 C64.2727273,51.0909091 64.2727273,51.1818182 64.3636364,51.2727273 C61.4545455,54.7272727 57,57 52.0909091,57 C47.4545455,57 43,54.8181818 40.0909091,51.2727273 C40.0909091,51.3636364 40.0909091,51.2727273 40.0909091,51.2727273 Z M65.9090909,49.2727273 C64.6363636,47.6363636 62.7272727,46.7272727 60.9090909,45.9090909 C60.3636364,45.6363636 59.8181818,45.4545455 59.3636364,45.1818182 C58.9090909,44.9090909 58.5454545,44.6363636 58.6363636,43.6363636 C58.6363636,43.3636364 58.7272727,43.0909091 58.9090909,42.7272727 C59,42.5454545 59,42.4545455 59.0909091,42.2727273 C59.3636364,41.5454545 59.5454545,40.9090909 59.6363636,40.2727273 C59.8181818,39.1818182 59.9090909,38.1818182 59.8181818,37 C59.8181818,36.6363636 59.7272727,36.3636364 59.6363636,36 C59.4545455,35.0909091 59,34.3636364 58.5454545,33.6363636 C57.1818182,31.7272727 54.8181818,30.3636364 52.2727273,30.3636364 L52.1818182,30.3636364 C50.6363636,30.3636364 49.1818182,30.8181818 47.9090909,31.7272727 C47.1818182,32.2727273 46.4545455,32.9090909 45.9090909,33.6363636 C45.1818182,34.6363636 44.7272727,35.8181818 44.5454545,37.0909091 C44.2727273,39.3636364 44.8181818,41.0909091 45.4545455,42.8181818 C46.0909091,44.5454545 45.5454545,45 45,45.2727273 C44.5454545,45.5454545 44,45.7272727 43.4545455,46 C42.8181818,46.3636364 42.0909091,46.6363636 41.3636364,47 C41,47.1818182 40.6363636,47.4545455 40.2727273,47.7272727 C39.9090909,48 39.4545455,48.2727273 39.1818182,48.6363636 C39,48.8181818 38.8181818,49 38.6363636,49.2727273 C38.3636364,48.9090909 38.1818182,48.4545455 38,48.0909091 C37,46 36.3636364,43.6363636 36.3636364,41.1818182 C36.3636364,37.8181818 37.3636364,34.7272727 39.1818182,32.1818182 C39.5454545,31.6363636 39.9090909,31.1818182 40.2727273,30.7272727 C40.6363636,30.2727273 41,29.9090909 41.3636364,29.5454545 C42.8181818,28.1818182 44.5454545,27.0909091 46.4545455,26.3636364 C47.1818182,26.0909091 47.9090909,25.8181818 48.6363636,25.6363636 C49.8181818,25.3636364 51,25.1818182 52.2727273,25.1818182 C54.4545455,25.1818182 56.6363636,25.6363636 58.5454545,26.4545455 C58.9090909,26.6363636 59.2727273,26.8181818 59.6363636,27 C60,27.1818182 60.3636364,27.4545455 60.7272727,27.6363636 C65.1818182,30.4545455 68.1818182,35.4545455 68.1818182,41.0909091 C68.2727273,44.0909091 67.4545455,46.9090909 65.9090909,49.2727273 Z M22,41.2727273 L22,36.2727273 C22.8181818,35.9090909 23.6363636,35.4545455 24.5454545,34.9090909 C25.0909091,34.5454545 25.1818182,33.8181818 24.8181818,33.3636364 C24.4545455,32.8181818 23.7272727,32.7272727 23.2727273,33.0909091 C22.8181818,33.3636364 22.4545455,33.6363636 22.0909091,33.8181818 L22.0909091,3.54545455 L39.1818182,10.7272727 L39.1818182,18 C38.3636364,18.2727273 37.4545455,18.7272727 36.6363636,19.3636364 C36.0909091,19.7272727 36,20.4545455 36.3636364,20.9090909 C36.5454545,21.2727273 36.9090909,21.3636364 37.2727273,21.3636364 C37.4545455,21.3636364 37.7272727,21.2727273 37.9090909,21.1818182 C38.3636364,20.9090909 38.7272727,20.6363636 39.1818182,20.4545455 L39.1818182,28.3636364 C36,31.6363636 34.0909091,36.0909091 34.0909091,41 C34.0909091,43 34.4545455,44.9090909 35,46.7272727 L22,41.2727273 Z M2.63636364,10.8181818 L19.7272727,3.63636364 L19.7272727,41.3636364 L2.63636364,48.5454545 L2.63636364,10.8181818 Z" id="Shape"></path>
                    </g>
                </g>
            </g>
        </g>
    </g>
</svg>