<?xml version="1.0" encoding="UTF-8"?>
<svg width="63px" height="60px" viewBox="0 0 63 60" version="1.1" xmlns="http://www.w3.org/2000/svg" xmlns:xlink="http://www.w3.org/1999/xlink">
    <!-- Generator: Sketch 46.2 (44496) - http://www.bohemiancoding.com/sketch -->
    <title>noun_912238</title>
    <desc>Created with Sketch.</desc>
    <defs></defs>
    <g id="Page-1" stroke="none" stroke-width="1" fill="none" fill-rule="evenodd">
        <g id="EG" transform="translate(-248.000000, -1596.000000)" stroke="#FFFFFF" stroke-width="0.85" fill="#D24AEE" fill-rule="nonzero">
            <g id="Group-3" transform="translate(139.000000, 1587.000000)">
                <g id="Group-2" transform="translate(0.000000, 1.000000)">
                    <g id="noun_912238" transform="translate(109.000000, 8.000000)">
                        <path d="M25.4666667,42 L22.1333333,42 C24.5333333,40 26,36.9333333 26,33.6 C26,27.4666667 21.0666667,22.5333333 14.9333333,22.5333333 C8.93333333,22.5333333 3.86666667,27.4666667 3.86666667,33.6 C3.86666667,36.9333333 5.33333333,40 7.73333333,42 L4.4,42 C2.4,42 0.666666667,43.6 0.666666667,45.7333333 L0.666666667,57.6 C0.666666667,58.4 1.2,58.9333333 2,58.9333333 C2.8,58.9333333 3.33333333,58.4 3.33333333,57.6 L3.33333333,45.7333333 C3.33333333,45.2 3.73333333,44.6666667 4.4,44.6666667 L11.6,44.6666667 L9.86666667,46.4 C9.33333333,46.9333333 9.33333333,47.7333333 9.86666667,48.2666667 L13.3333333,52 L10.4,56.8 C10,57.4666667 10.2666667,58.2666667 10.8,58.6666667 C11.0666667,58.8 11.2,58.8 11.4666667,58.8 C11.8666667,58.8 12.4,58.5333333 12.6666667,58.1333333 L14.9333333,54.4 L17.2,58.1333333 C17.4666667,58.5333333 17.8666667,58.8 18.4,58.8 C18.6666667,58.8 18.8,58.8 19.0666667,58.6666667 C19.7333333,58.2666667 19.8666667,57.4666667 19.6,56.8 L16.5333333,52 L20,48.1333333 C20.5333333,47.6 20.4,46.8 20,46.2666667 L18.2666667,44.5333333 L25.4666667,44.5333333 C26,44.5333333 26.5333333,44.9333333 26.5333333,45.6 L26.5333333,57.4666667 C26.5333333,58.2666667 27.2,58.8 27.8666667,58.8 C28.6666667,58.8 29.2,58.2666667 29.2,57.4666667 L29.2,45.6 C29.2,43.6 27.4666667,42 25.4666667,42 Z M14.9333333,49.8666667 L12.6666667,47.3333333 L14.9333333,45.0666667 L17.2,47.3333333 L14.9333333,49.8666667 Z M15.0666667,42 C15.0666667,42 15.0666667,42 15.0666667,42 L14.8,42 C14.8,42 14.8,42 14.8,42 C10.2666667,41.8666667 6.53333333,38.2666667 6.53333333,33.6 C6.53333333,29.0666667 10.2666667,25.2 14.9333333,25.2 C19.6,25.2 23.3333333,28.9333333 23.3333333,33.6 C23.3333333,38.1333333 19.6,41.8666667 15.0666667,42 Z" id="Shape"></path>
                        <path d="M14.9333333,39.0666667 C11.8666667,39.0666667 9.46666667,36.6666667 9.46666667,33.6 C9.46666667,32.8 10,32.2666667 10.8,32.2666667 C11.6,32.2666667 12.1333333,32.8 12.1333333,33.6 C12.1333333,35.2 13.3333333,36.4 14.9333333,36.4 C16.5333333,36.4 17.7333333,35.2 17.7333333,33.6 C17.7333333,32.8 18.2666667,32.2666667 19.0666667,32.2666667 C19.8666667,32.2666667 20.4,32.8 20.4,33.6 C20.4,36.6666667 18,39.0666667 14.9333333,39.0666667 Z" id="Shape"></path>
                        <path d="M47.6,39.0666667 C44.5333333,39.0666667 42.1333333,36.6666667 42.1333333,33.6 C42.1333333,32.8 42.6666667,32.2666667 43.4666667,32.2666667 C44.2666667,32.2666667 44.8,32.8 44.8,33.6 C44.8,35.2 46,36.4 47.6,36.4 C49.2,36.4 50.4,35.2 50.4,33.6 C50.4,32.8 50.9333333,32.2666667 51.7333333,32.2666667 C52.5333333,32.2666667 53.0666667,32.8 53.0666667,33.6 C53.0666667,36.6666667 50.6666667,39.0666667 47.6,39.0666667 Z" id="Shape"></path>
                        <path d="M58.1333333,42 L54.8,42 C57.2,40 58.6666667,36.9333333 58.6666667,33.6 C58.6666667,27.4666667 53.7333333,22.5333333 47.6,22.5333333 C41.4666667,22.5333333 36.5333333,27.4666667 36.5333333,33.6 C36.5333333,36.9333333 38,40 40.4,42 L37.0666667,42 C35.0666667,42 33.3333333,43.6 33.3333333,45.7333333 L33.3333333,57.6 C33.3333333,58.4 33.8666667,58.9333333 34.6666667,58.9333333 C35.4666667,58.9333333 36,58.4 36,57.6 L36,45.7333333 C36,45.2 36.4,44.6666667 37.0666667,44.6666667 L58.1333333,44.6666667 C58.6666667,44.6666667 59.2,45.0666667 59.2,45.7333333 L59.2,57.6 C59.2,58.4 59.8666667,58.9333333 60.5333333,58.9333333 C61.3333333,58.9333333 61.8666667,58.4 61.8666667,57.6 L61.8666667,45.7333333 C61.8666667,43.6 60.1333333,42 58.1333333,42 Z M47.6,42 C42.9333333,42 39.2,38.2666667 39.2,33.6 C39.2,28.9333333 42.9333333,25.2 47.6,25.2 C52.2666667,25.2 56,28.9333333 56,33.6 C56,38.2666667 52.1333333,42 47.6,42 Z" id="Shape"></path>
                        <path d="M26.5333333,3.46666667 L11.4666667,3.46666667 C10.6666667,3.46666667 10.1333333,2.93333333 10.1333333,2.13333333 C10.1333333,1.33333333 10.6666667,0.8 11.4666667,0.8 L26.5333333,0.8 C27.3333333,0.8 27.8666667,1.33333333 27.8666667,2.13333333 C27.8666667,2.93333333 27.3333333,3.46666667 26.5333333,3.46666667 Z" id="Shape"></path>
                        <path d="M26.5333333,8.8 L11.4666667,8.8 C10.6666667,8.8 10.1333333,8.26666667 10.1333333,7.46666667 C10.1333333,6.66666667 10.6666667,6.13333333 11.4666667,6.13333333 L26.5333333,6.13333333 C27.3333333,6.13333333 27.8666667,6.66666667 27.8666667,7.46666667 C27.8666667,8.26666667 27.3333333,8.8 26.5333333,8.8 Z" id="Shape"></path>
                        <path d="M17.6,14.1333333 L11.4666667,14.1333333 C10.6666667,14.1333333 10.1333333,13.6 10.1333333,12.8 C10.1333333,12 10.6666667,11.4666667 11.4666667,11.4666667 L17.6,11.4666667 C18.4,11.4666667 18.9333333,12 18.9333333,12.8 C18.9333333,13.6 18.2666667,14.1333333 17.6,14.1333333 Z" id="Shape"></path>
                        <path d="M52.5333333,7.46666667 L37.0666667,7.46666667 C36.2666667,7.46666667 35.7333333,6.93333333 35.7333333,6.13333333 C35.7333333,5.33333333 36.2666667,4.8 37.0666667,4.8 L52.5333333,4.8 C53.3333333,4.8 53.8666667,5.33333333 53.8666667,6.13333333 C53.8666667,6.93333333 53.3333333,7.46666667 52.5333333,7.46666667 Z" id="Shape"></path>
                        <path d="M52.5333333,12.8 L37.0666667,12.8 C36.2666667,12.8 35.7333333,12.2666667 35.7333333,11.4666667 C35.7333333,10.6666667 36.2666667,10.1333333 37.0666667,10.1333333 L52.5333333,10.1333333 C53.3333333,10.1333333 53.8666667,10.6666667 53.8666667,11.4666667 C53.8666667,12.2666667 53.3333333,12.8 52.5333333,12.8 Z" id="Shape"></path>
                        <path d="M52.5333333,18.1333333 L46,18.1333333 C45.2,18.1333333 44.6666667,17.6 44.6666667,16.8 C44.6666667,16 45.2,15.4666667 46,15.4666667 L52.5333333,15.4666667 C53.3333333,15.4666667 53.8666667,16 53.8666667,16.8 C53.8666667,17.6 53.3333333,18.1333333 52.5333333,18.1333333 Z" id="Shape"></path>
                    </g>
                </g>
            </g>
        </g>
    </g>
</svg>