<?xml version="1.0" encoding="utf-8"?>
<!-- Generator: Adobe Illustrator 17.1.0, SVG Export Plug-In . SVG Version: 6.00 Build 0)  -->
<!DOCTYPE svg PUBLIC "-//W3C//DTD SVG 1.1//EN" "http://www.w3.org/Graphics/SVG/1.1/DTD/svg11.dtd">
<svg version="1.1" id="Layer_1" xmlns="http://www.w3.org/2000/svg" xmlns:xlink="http://www.w3.org/1999/xlink" x="0px" y="0px"
	 viewBox="0 0 24 28" enable-background="new 0 0 24 28" xml:space="preserve">
<title>pause-circle-o</title>
<path fill="#FFFFFF" d="M12,2c6.6,0,12,5.4,12,12s-5.4,12-12,12S0,20.6,0,14S5.4,2,12,2z M12,22.5c4.7,0,8.5-3.8,8.5-8.5
	S16.7,5.5,12,5.5S3.5,9.3,3.5,14S7.3,22.5,12,22.5z M13.5,19c-0.3,0-0.5-0.2-0.5-0.5v-9C13,9.2,13.2,9,13.5,9h3
	C16.8,9,17,9.2,17,9.5v9c0,0.3-0.2,0.5-0.5,0.5H13.5z M7.5,19C7.2,19,7,18.8,7,18.5v-9C7,9.2,7.2,9,7.5,9h3C10.8,9,11,9.2,11,9.5v9
	c0,0.3-0.2,0.5-0.5,0.5H7.5z"/>
</svg>
