<?xml version="1.0" encoding="utf-8"?>
<!-- Generator: Adobe Illustrator 17.1.0, SVG Export Plug-In . SVG Version: 6.00 Build 0)  -->
<!DOCTYPE svg PUBLIC "-//W3C//DTD SVG 1.1//EN" "http://www.w3.org/Graphics/SVG/1.1/DTD/svg11.dtd">
<svg version="1.1" id="Layer_1" xmlns="http://www.w3.org/2000/svg" xmlns:xlink="http://www.w3.org/1999/xlink" x="0px" y="0px"
	 viewBox="0 0 24 28" enable-background="new 0 0 24 28" xml:space="preserve">
<title>play-circle-o</title>
<path fill="#FFFFFF" d="M18.5,14c0,0.4-0.2,0.7-0.5,0.9l-8.5,5C9.3,20,9.2,20,9,20s-0.3,0-0.5-0.1C8.2,19.7,8,19.4,8,19V9
	c0-0.4,0.2-0.7,0.5-0.9c0.3-0.2,0.7-0.2,1,0l8.5,5C18.3,13.3,18.5,13.6,18.5,14z M20.5,14c0-4.7-3.8-8.5-8.5-8.5S3.5,9.3,3.5,14
	s3.8,8.5,8.5,8.5S20.5,18.7,20.5,14z M24,14c0,6.6-5.4,12-12,12S0,20.6,0,14S5.4,2,12,2S24,7.4,24,14z"/>
</svg>
