<?xml version="1.0" encoding="UTF-8"?>
<svg width="100px" height="100px" viewBox="0 0 100 100" version="1.1" xmlns="http://www.w3.org/2000/svg" xmlns:xlink="http://www.w3.org/1999/xlink">
    <!-- Generator: Sketch 46.2 (44496) - http://www.bohemiancoding.com/sketch -->
    <title>icon-desktop.svg</title>
    <desc>Created with Sketch.</desc>
    <defs></defs>
    <g id="Symbols" stroke="none" stroke-width="1" fill="none" fill-rule="evenodd">
        <g id="Startups-Panel" transform="translate(-149.000000, -99.000000)" fill-rule="nonzero" fill="#CF0D7D">
            <g id="Startups">
                <g id="icon-desktop.svg" transform="translate(149.000000, 99.000000)">
                    <path d="M24.1448718,75.8551282 C23.6435897,75.3538462 22.8333333,75.3538462 22.3320513,75.8551282 L1.12692308,97.0589744 C0.625641026,97.5602564 0.625641026,98.3705128 1.12692308,98.8717949 C1.37692308,99.1217949 1.70512821,99.2474359 2.03333333,99.2474359 C2.36153846,99.2474359 2.68974359,99.1217949 2.93974359,98.8717949 L24.1435897,77.6679487 C24.6448718,77.1679487 24.6448718,76.3564103 24.1448718,75.8551282 Z" id="Shape"></path>
                    <path d="M10.2346154,75.6423077 C10.5628205,75.6423077 10.8910256,75.5166667 11.1410256,75.2666667 L16.4423077,69.9653846 C16.9435897,69.4641026 16.9435897,68.6538462 16.4423077,68.1525641 C15.9410256,67.6512821 15.1307692,67.6512821 14.6294872,68.1525641 L9.32820513,73.4538462 C8.82692308,73.9551282 8.82692308,74.7653846 9.32820513,75.2666667 C9.57820513,75.5179487 9.90641026,75.6423077 10.2346154,75.6423077 Z" id="Shape"></path>
                    <path d="M60.1269231,26.3307692 C58.3179487,28.1397436 57.3217949,30.5435897 57.3217949,33.1012821 C57.3217949,35.6602564 58.3179487,38.0641026 60.1269231,39.8730769 C61.9358974,41.6820513 64.3397436,42.6782051 66.8987179,42.6782051 C69.4564103,42.6782051 71.8615385,41.6820513 73.6692308,39.8730769 C77.4025641,36.1397436 77.4025641,30.0641026 73.6692308,26.3307692 C69.9346154,22.5974359 63.8589744,22.5987179 60.1269231,26.3307692 Z M71.8551282,38.0602564 C69.1217949,40.7923077 64.6730769,40.7935897 61.9384615,38.0602564 C59.2051282,35.3269231 59.2051282,30.8769231 61.9384615,28.1435897 C63.3051282,26.7769231 65.1012821,26.0935897 66.8961538,26.0935897 C68.6923077,26.0935897 70.4871795,26.7769231 71.8551282,28.1435897 C74.5897436,30.8782051 74.5897436,35.3269231 71.8551282,38.0602564 Z" id="Shape"></path>
                    <path d="M99.1512821,3.63205128 L99.1128205,2.13717949 C99.0961538,1.4525641 98.5461538,0.902564103 97.8615385,0.885897436 L96.3666667,0.847435897 C88.3307692,0.638461538 78.3307692,0.378205128 71.0410256,4.63717949 C62.9192308,9.38205128 55.9423077,16.4205128 49.1948718,23.2282051 C48.5089744,23.9192308 47.8320513,24.6012821 47.1551282,25.2807692 C47.1089744,25.2782051 47.0692308,25.2589744 47.0217949,25.2615385 L29.0923077,26.0641026 C28.7717949,26.0782051 28.4705128,26.2115385 28.2435897,26.4384615 L10.4858974,44.1961538 C10.1192308,44.5628205 10.0089744,45.1141026 10.2076923,45.5935897 C10.4064103,46.0730769 10.874359,46.3846154 11.3923077,46.3846154 L26.0551282,46.3846154 L22.1833333,50.2564103 C21.6820513,50.7576923 21.6820513,51.5679487 22.1833333,52.0692308 L25.5820513,55.4679487 L19.8346154,58.6910256 C19.4846154,58.8871795 19.2474359,59.2358974 19.1923077,59.6333333 C19.1384615,60.0307692 19.2717949,60.4320513 19.5564103,60.7153846 L39.2833333,80.4423077 C39.525641,80.6846154 39.8525641,80.8179487 40.1897436,80.8179487 C40.2474359,80.8179487 40.3064103,80.8141026 40.3653846,80.8064103 C40.7628205,80.7512821 41.1128205,80.5128205 41.3076923,80.1641026 L44.5307692,74.4166667 L47.9294872,77.8153846 C48.1794872,78.0653846 48.5076923,78.1910256 48.8358974,78.1910256 C49.1641026,78.1910256 49.4923077,78.0653846 49.7423077,77.8153846 L53.6141026,73.9435897 L53.6141026,88.6064103 C53.6141026,89.124359 53.9269231,89.5923077 54.4051282,89.7910256 C54.5641026,89.8564103 54.7307692,89.8884615 54.8961538,89.8884615 C55.2294872,89.8884615 55.5576923,89.7576923 55.8025641,89.5128205 L73.5602564,71.7564103 C73.7871795,71.5307692 73.9205128,71.2269231 73.9346154,70.9076923 L74.7448718,52.8179487 C75.4153846,52.15 76.0884615,51.4807692 76.7705128,50.8051282 C83.5782051,44.0576923 90.6166667,37.0807692 95.3615385,28.9576923 C99.6205128,21.6692308 99.3602564,11.6679487 99.1512821,3.63205128 Z M14.4871795,43.8205128 L29.7051282,28.6038462 L44.5,27.9410256 L28.6192308,43.8205128 L14.4871795,43.8205128 Z M39.9,77.4333333 L22.5666667,60.1 L27.4666667,57.3512821 L42.6487179,72.5333333 L39.9,77.4333333 Z M71.3961538,70.2948718 L56.1782051,85.5115385 L56.1782051,71.3807692 L72.0576923,55.5012821 L71.3961538,70.2948718 Z M93.1474359,27.6641026 C88.5717949,35.4961538 81.6551282,42.3525641 74.9641026,48.9833333 C74.0935897,49.8461538 73.2307692,50.7012821 72.3807692,51.5512821 L48.8358974,75.0961538 L24.9025641,51.1641026 L48.4487179,27.6179487 C49.2987179,26.7679487 50.1551282,25.9051282 51.0179487,25.0333333 C57.6487179,18.3435897 64.5051282,11.4269231 72.3358974,6.85128205 C78.9961538,2.96153846 88.1897436,3.2025641 96.3012821,3.41153846 L96.5807692,3.41794872 L96.5871795,3.6974359 C96.7987179,11.8115385 97.0384615,21.0051282 93.1474359,27.6641026 Z" id="Shape"></path>
                    <path d="M7.21153846,78.6666667 C7.54102564,78.6666667 7.86923077,78.5410256 8.12051282,78.2897436 L8.25512821,78.1551282 C8.75384615,77.6525641 8.7525641,76.8410256 8.25128205,76.3410256 C7.74871795,75.8423077 6.93846154,75.8435897 6.43717949,76.3448718 L6.3025641,76.4794872 C5.80384615,76.9820513 5.80512821,77.7935897 6.30641026,78.2935897 C6.55641026,78.5423077 6.88333333,78.6666667 7.21153846,78.6666667 Z" id="Shape"></path>
                    <path d="M2.87435897,83.0025641 C3.2025641,83.0025641 3.53076923,82.8769231 3.78076923,82.6269231 L5.15641026,81.2512821 C5.65769231,80.75 5.65769231,79.9397436 5.15641026,79.4384615 C4.65512821,78.9371795 3.84487179,78.9371795 3.34358974,79.4384615 L1.96794872,80.8141026 C1.46666667,81.3153846 1.46666667,82.125641 1.96794872,82.6269231 C2.21923077,82.8769231 2.54615385,83.0025641 2.87435897,83.0025641 Z" id="Shape"></path>
                    <path d="M22.674359,90.9179487 L17.3730769,96.2192308 C16.8717949,96.7205128 16.8717949,97.5307692 17.3730769,98.0320513 C17.6230769,98.2820513 17.9512821,98.4076923 18.2794872,98.4076923 C18.6076923,98.4076923 18.9358974,98.2820513 19.1858974,98.0320513 L24.4871795,92.7307692 C24.9884615,92.2294872 24.9884615,91.4192308 24.4871795,90.9179487 C23.9858974,90.4166667 23.174359,90.4166667 22.674359,90.9179487 Z" id="Shape"></path>
                    <path d="M25.6974359,87.8935897 L25.5628205,88.0282051 C25.0615385,88.5294872 25.0615385,89.3397436 25.5628205,89.8410256 C25.8128205,90.0910256 26.1410256,90.2166667 26.4692308,90.2166667 C26.7974359,90.2166667 27.125641,90.0910256 27.375641,89.8410256 L27.5102564,89.7064103 C28.0115385,89.2051282 28.0115385,88.3948718 27.5102564,87.8935897 C27.0089744,87.3923077 26.1987179,87.3935897 25.6974359,87.8935897 Z" id="Shape"></path>
                    <path d="M30.0333333,83.5576923 L28.6576923,84.9333333 C28.1564103,85.4346154 28.1564103,86.2448718 28.6576923,86.7461538 C28.9076923,86.9961538 29.2358974,87.1217949 29.5641026,87.1217949 C29.8923077,87.1217949 30.2205128,86.9961538 30.4705128,86.7461538 L31.8461538,85.3705128 C32.3474359,84.8692308 32.3474359,84.0589744 31.8461538,83.5576923 C31.3448718,83.0564103 30.5346154,83.0564103 30.0333333,83.5576923 Z" id="Shape"></path>
                </g>
            </g>
        </g>
    </g>
</svg>