<?xml version="1.0" encoding="UTF-8"?>
<svg width="73px" height="51px" viewBox="0 0 73 51" version="1.1" xmlns="http://www.w3.org/2000/svg" xmlns:xlink="http://www.w3.org/1999/xlink">
    <!-- Generator: Sketch 46.2 (44496) - http://www.bohemiancoding.com/sketch -->
    <title>noun_715571</title>
    <desc>Created with Sketch.</desc>
    <defs></defs>
    <g id="Page-1" stroke="none" stroke-width="1" fill="none" fill-rule="evenodd">
        <g id="PHILIPS" transform="translate(-681.000000, -1660.000000)" fill="#4A90E2">
            <g id="Group-3" transform="translate(139.000000, 1647.000000)">
                <g id="Group-2-Copy" transform="translate(435.000000, 7.000000)">
                    <g id="noun_715571" transform="translate(107.000000, 4.000000)">
                        <path d="M3.39843754,2.76128571 C1.53177823,2.76128571 0,4.30971429 0,6.17648571 L0,42.4041429 C0,44.2709143 1.53177823,45.8025429 3.39843754,45.8025429 L31.7243306,45.8025429 L38.7890623,45.8025429 L41.9196429,45.8539714 L41.9531571,43.5939429 L38.8225774,43.5425143 L38.8058631,43.5425143 L31.7243897,43.5425143 L3.39849669,43.5425143 C2.75799754,43.5425143 2.26010383,43.0462286 2.26010383,42.4041429 L2.26010383,6.17648571 C2.26010383,5.53448571 2.75799754,5.03802857 3.39849669,5.03802857 L60.0502826,5.03802857 C60.6907826,5.03802857 61.1694274,5.52917143 61.1719346,6.17648571 L61.2388774,19.7534571 L63.4989223,19.7363143 L63.4486937,6.15925714 C63.44148,4.29788571 61.9169151,2.76085714 60.050256,2.76085714 C41.1664886,2.76137143 22.2815031,2.75991429 3.39843754,2.76128571 L3.39843754,2.76128571 Z" id="Shape" fill-rule="nonzero"></path>
                        <polygon id="Shape" points="1.13839286 35.6574857 1.13839286 37.9175143 41.9531246 37.9175143 41.9531246 35.6574857"></polygon>
                        <path d="M24.9776786,45.066 L23.9732143,49.5693429 L21.6964286,50.4733714 C21.1835416,50.6697976 20.8851236,51.2055163 20.9880808,51.7449939 C21.0910381,52.2844715 21.5657758,52.6726364 22.1149543,52.6663714 L41.3839277,52.6663714 C41.9331062,52.6726364 42.4078439,52.2844715 42.5108012,51.7449939 C42.6137584,51.2055163 42.3153404,50.6697976 41.8024534,50.4733714 L39.5256677,49.5693429 L38.5212034,45.066 L36.311382,45.5511429 L37.3995514,50.3892857 L26.0993289,50.3892857 L27.1874983,45.5511429 L24.9776769,45.066 L24.9776786,45.066 Z" id="Shape"></path>
                        <path d="M32.8839317,40.7543143 C32.8839238,41.3805599 32.3762493,41.8882282 31.7500037,41.8882286 C31.1237578,41.8882287 30.6160828,41.3805603 30.6160749,40.7543143 C30.6160828,40.1280683 31.1237578,39.6203999 31.7500037,39.6204 C32.3762493,39.6204003 32.8839238,40.1280686 32.8839317,40.7543143 L32.8839317,40.7543143 Z" id="Shape" fill-rule="nonzero"></path>
                        <path d="M45.2511163,22.047 C44.6675734,22.107 44.2247631,22.599 44.2299103,23.1853714 L44.2299103,51.528 C44.227494,52.1511429 44.7283989,52.6596 45.3515623,52.6663714 L56.7020091,52.6663714 L56.7020091,50.3896286 L46.4899551,50.3896286 L46.4899551,24.3070286 L64.6372766,24.3070286 L64.6372766,27.7222286 L66.8973214,27.7222286 L66.8973214,23.1853714 C66.8997377,22.5622286 66.3988329,22.0537714 65.7756694,22.047 C58.9365617,22.047 52.0830214,22.047 45.2511163,22.047 Z" id="Shape"></path>
                        <path d="M59.9832591,29.9822571 C59.3997191,30.0405855 58.9569064,30.5342032 58.9620531,31.1206286 L58.9620531,51.528 C58.9608969,51.8302717 59.0804639,52.1204966 59.2942059,52.3342344 C59.5079479,52.5479723 59.7981752,52.6675336 60.1004469,52.6663714 L71.434152,52.6663714 C71.7364235,52.6675333 72.0266505,52.547972 72.2403924,52.3342341 C72.4541342,52.1204963 72.5737011,51.8302716 72.5725449,51.528 L72.5725449,31.1206286 C72.5737011,30.818357 72.4541342,30.5281323 72.2403924,30.3143944 C72.0266505,30.1006566 71.7364235,29.9810952 71.434152,29.9822571 L60.1004469,29.9822571 C60.0614101,29.9802375 60.022295,29.9802375 59.9832583,29.9822571 L59.9832591,29.9822571 Z M61.2388389,32.2422857 L70.2957591,32.2422857 L70.2957591,50.3896286 L61.2388389,50.3896286 L61.2388389,32.2422857 Z" id="Shape"></path>
                        <path d="M66.901782,46.9908 C66.901774,47.6170457 66.3940996,48.124714 65.767854,48.1247143 C65.141608,48.1247144 64.6339331,47.617046 64.6339251,46.9908 C64.6339331,46.364554 65.141608,45.8568856 65.767854,45.8568857 C66.3940996,45.856886 66.901774,46.3645543 66.901782,46.9908 Z" id="Shape" fill-rule="nonzero"></path>
                        <path d="M56.6964771,46.9908 C56.6964692,47.617046 56.1887942,48.1247144 55.5625483,48.1247143 C54.9363027,48.124714 54.4286282,47.6170457 54.4286203,46.9908 C54.4286282,46.3645543 54.9363027,45.856886 55.5625483,45.8568857 C56.1887942,45.8568856 56.6964692,46.364554 56.6964771,46.9908 L56.6964771,46.9908 Z" id="Shape" fill-rule="nonzero"></path>
                    </g>
                </g>
            </g>
        </g>
    </g>
</svg>