<?xml version="1.0" encoding="UTF-8"?>
<svg width="182px" height="126px" viewBox="0 0 182 126" version="1.1" xmlns="http://www.w3.org/2000/svg" xmlns:xlink="http://www.w3.org/1999/xlink">
    <!-- Generator: Sketch 46.2 (44496) - http://www.bohemiancoding.com/sketch -->
    <title>noun_715571</title>
    <desc>Created with Sketch.</desc>
    <defs></defs>
    <g id="Page-1" stroke="none" stroke-width="1" fill="none" fill-rule="evenodd">
        <g id="SCRIBE" transform="translate(-624.000000, -1995.000000)" fill="#008DDC">
            <g id="noun_715571" transform="translate(624.000000, 1995.000000)">
                <path d="M8.49609386,0.903214286 C3.82944557,0.903214286 0,4.77428571 0,9.44121429 L0,100.010357 C0,104.677286 3.82944557,108.506357 8.49609386,108.506357 L79.3108264,108.506357 L96.9726557,108.506357 L104.799107,108.634929 L104.882893,102.984857 L97.0564436,102.856286 L97.0146579,102.856286 L79.3109743,102.856286 L8.49624171,102.856286 C6.89499386,102.856286 5.65025957,101.615571 5.65025957,100.010357 L5.65025957,9.44121429 C5.65025957,7.83621429 6.89499386,6.59507143 8.49624171,6.59507143 L150.125706,6.59507143 C151.726956,6.59507143 152.923569,7.82292857 152.929836,9.44121429 L153.097194,43.3836429 L158.747306,43.3407857 L158.621734,9.39814286 C158.6037,4.74471429 154.792288,0.902142857 150.12564,0.902142857 C102.916221,0.903428571 55.7037579,0.899785714 8.49609386,0.903214286 L8.49609386,0.903214286 Z" id="Shape" fill-rule="nonzero"></path>
                <polygon id="Shape" points="2.84598214 83.1437143 2.84598214 88.7937857 104.882811 88.7937857 104.882811 83.1437143"></polygon>
                <path d="M62.4441964,106.665 L59.9330357,117.923357 L54.2410714,120.183429 C52.9588541,120.674494 52.212809,122.013791 52.4702021,123.362485 C52.7275952,124.711179 53.9144395,125.681591 55.2873857,125.665929 L103.459819,125.665929 C104.832765,125.681591 106.01961,124.711179 106.277003,123.362485 C106.534396,122.013791 105.788351,120.674494 104.506134,120.183429 L98.8141693,117.923357 L96.3030086,106.665 L90.778455,107.877857 L93.4988786,119.973214 L65.2483221,119.973214 L67.9687457,107.877857 L62.4441921,106.665 L62.4441964,106.665 Z" id="Shape"></path>
                <path d="M82.2098293,95.8857857 C82.2098094,97.4513999 80.9406233,98.7205706 79.3750093,98.7205714 C77.8093944,98.7205718 76.540207,97.4514007 76.5401871,95.8857857 C76.540207,94.3201707 77.8093944,93.0509996 79.3750093,93.051 C80.9406233,93.0510008 82.2098094,94.3201716 82.2098293,95.8857857 L82.2098293,95.8857857 Z" id="Shape" fill-rule="nonzero"></path>
                <path d="M113.127791,49.1175 C111.668934,49.2675 110.561908,50.4975 110.574776,51.9634286 L110.574776,122.82 C110.568735,124.377857 111.820997,125.649 113.378906,125.665929 L141.755023,125.665929 L141.755023,119.974071 L116.224888,119.974071 L116.224888,54.7675714 L161.593191,54.7675714 L161.593191,63.3055714 L167.243304,63.3055714 L167.243304,51.9634286 C167.249344,50.4055714 165.997082,49.1344286 164.439174,49.1175 C147.341404,49.1175 130.207554,49.1175 113.127791,49.1175 Z" id="Shape"></path>
                <path d="M149.958148,68.9556429 C148.499298,69.1014638 147.392266,70.335508 147.405133,71.8015714 L147.405133,122.82 C147.402242,123.575679 147.70116,124.301241 148.235515,124.835586 C148.76987,125.369931 149.495438,125.668834 150.251117,125.665929 L178.58538,125.665929 C179.341059,125.668833 180.066626,125.36993 180.600981,124.835585 C181.135336,124.301241 181.434253,123.575679 181.431362,122.82 L181.431362,71.8015714 C181.434253,71.0458925 181.135336,70.3203306 180.600981,69.7859861 C180.066626,69.2516415 179.341059,68.9527381 178.58538,68.9556429 L150.251117,68.9556429 C150.153525,68.9505937 150.055738,68.9505937 149.958146,68.9556429 L149.958148,68.9556429 Z M153.097097,74.6057143 L175.739398,74.6057143 L175.739398,119.974071 L153.097097,119.974071 L153.097097,74.6057143 Z" id="Shape"></path>
                <path d="M167.254455,111.477 C167.254435,113.042614 165.985249,114.311785 164.419635,114.311786 C162.85402,114.311786 161.584833,113.042615 161.584813,111.477 C161.584833,109.911385 162.85402,108.642214 164.419635,108.642214 C165.985249,108.642215 167.254435,109.911386 167.254455,111.477 Z" id="Shape" fill-rule="nonzero"></path>
                <path d="M141.741193,111.477 C141.741173,113.042615 140.471986,114.311786 138.906371,114.311786 C137.340757,114.311785 136.071571,113.042614 136.071551,111.477 C136.071571,109.911386 137.340757,108.642215 138.906371,108.642214 C140.471986,108.642214 141.741173,109.911385 141.741193,111.477 L141.741193,111.477 Z" id="Shape" fill-rule="nonzero"></path>
            </g>
        </g>
    </g>
</svg>