<?xml version="1.0" encoding="UTF-8"?>
<svg width="65px" height="67px" viewBox="0 0 65 67" version="1.1" xmlns="http://www.w3.org/2000/svg" xmlns:xlink="http://www.w3.org/1999/xlink">
    <!-- Generator: Sketch 46.1 (44463) - http://www.bohemiancoding.com/sketch -->
    <title>noun_996184</title>
    <desc>Created with Sketch.</desc>
    <defs></defs>
    <g id="Page-1" stroke="none" stroke-width="1" fill="none" fill-rule="evenodd">
        <g id="About" transform="translate(-203.000000, -1531.000000)" fill-rule="nonzero" fill="#1E2128">
            <g id="services" transform="translate(94.000000, 1531.000000)">
                <g id="Research">
                    <g id="noun_996184" transform="translate(109.000000, 0.000000)">
                        <rect id="Rectangle-path" x="31.7" y="57.4" width="1.5" height="1.5"></rect>
                        <rect id="Rectangle-path" x="31.7" y="60.6" width="1.5" height="1.5"></rect>
                        <path d="M64.9,4.5 C64.9,2.4 63.2,0.8 61.2,0.8 L3.8,0.8 C1.7,0.8 0.1,2.5 0.1,4.5 L0.1,54.9 L27.6,54.9 L27.6,61.3 C27.6,64 29.8,66.2 32.5,66.2 C35.2,66.2 37.4,64 37.4,61.3 L37.4,54.9 L64.9,54.9 L64.9,4.5 Z M3.8,2.3 L61.2,2.3 C62.4,2.3 63.4,3.3 63.4,4.5 L63.4,8.7 L1.6,8.7 L1.6,4.5 C1.6,3.2 2.6,2.3 3.8,2.3 Z M35.9,61.3 C35.9,63.2 34.4,64.7 32.5,64.7 C30.6,64.7 29.1,63.2 29.1,61.3 L29.1,51.8 C29.1,51.3 29.5,50.9 30,50.9 L31.3,50.9 L31.3,47.7 C31.7,47.7 32.1,47.8 32.5,47.8 C32.9,47.8 33.3,47.8 33.7,47.7 L33.7,50.9 L35,50.9 C35.5,50.9 35.9,51.3 35.9,51.8 L35.9,61.3 Z M16,26.4 C15.7,26.5 15.5,26.5 15.2,26.5 C13.6,26.5 12.3,25.2 12.3,23.6 C12.3,22 13.6,20.7 15.2,20.7 C16.2,20.7 17.2,21.3 17.7,22.2 C16.9,23.5 16.3,24.9 16,26.4 Z M16.3,36.2 L7.3,36.2 C7.4,34.9 7.5,33.8 7.6,32.8 C7.6,32.7 7.6,32.7 7.6,32.6 C7.6,32.2 7.8,31.7 8.1,31.3 L8.1,31.2 C8.3,30.9 8.6,30.6 8.9,30.4 C9,30.3 9.2,30.3 9.3,30.2 L11.2,29.5 L12.7,33.3 L15.5,33.3 C15.8,34.4 16,35.3 16.3,36.2 Z M16.9,30.7 C16.9,22.1 23.9,15.1 32.5,15.1 C41.1,15.1 48.1,22.1 48.1,30.7 C48.1,39.3 41.1,46.3 32.5,46.3 C23.9,46.3 16.9,39.3 16.9,30.7 Z M49.4,33.5 L52.2,33.5 L53.7,29.7 L55.6,30.4 C55.7,30.5 55.9,30.5 56,30.6 C56.4,30.8 56.6,31.1 56.9,31.4 L56.9,31.5 C57.2,32 57.3,32.4 57.4,32.8 L57.4,32.9 C57.5,33.9 57.7,35 57.7,36.3 L48.7,36.3 C49,35.3 49.2,34.4 49.4,33.5 Z M47.4,22.2 C47.9,21.3 48.8,20.7 49.9,20.7 C51.5,20.7 52.8,22 52.8,23.6 C52.8,25.2 51.5,26.5 49.9,26.5 C49.6,26.5 49.4,26.4 49.1,26.4 C48.7,24.9 48.1,23.5 47.4,22.2 Z M37.4,53.4 L37.4,51.8 C37.4,50.5 36.4,49.5 35.2,49.4 L35.2,47.5 C40.9,46.6 45.7,42.8 48,37.7 L59.2,37.7 L59.2,36.9 C59.1,35.3 59,33.8 58.8,32.5 C58.7,31.9 58.5,31.2 58.2,30.6 L58.2,30.5 C57.9,29.9 57.4,29.4 56.8,29.1 C56.6,29 56.4,28.9 56.2,28.8 L52.9,27.6 L51.1,32 L49.5,32 C49.5,31.6 49.6,31.1 49.6,30.7 C49.6,29.8 49.5,28.9 49.4,28 C49.6,28 49.7,28 49.9,28 C52.3,28 54.3,26 54.3,23.6 C54.3,21.2 52.3,19.2 49.9,19.2 C48.6,19.2 47.4,19.8 46.5,20.8 C43.4,16.4 38.3,13.5 32.5,13.5 C26.7,13.5 21.6,16.4 18.5,20.8 C17.7,19.8 16.5,19.2 15.1,19.2 C12.7,19.2 10.7,21.2 10.7,23.6 C10.7,26 12.7,28 15.1,28 C15.3,28 15.4,28 15.6,28 C15.5,28.9 15.4,29.8 15.4,30.7 C15.4,31.1 15.4,31.6 15.5,32 L13.9,32 L12.3,27.7 L9,28.9 C8.8,29 8.6,29.1 8.4,29.2 C7.8,29.5 7.3,30 7,30.6 L6.9,30.8 C6.6,31.4 6.4,32 6.3,32.7 C6.1,33.9 6,35.3 5.9,37 L5.9,37.8 L17.1,37.8 C19.4,42.9 24.2,46.7 29.9,47.6 L29.9,49.5 C28.7,49.6 27.7,50.6 27.7,51.9 L27.7,53.5 L1.7,53.5 L1.7,10.1 L63.5,10.1 L63.5,53.3 L37.4,53.3 L37.4,53.4 Z" id="Shape"></path>
                        <rect id="Rectangle-path" x="50.8" y="4.7" width="1.5" height="1.5"></rect>
                        <rect id="Rectangle-path" x="54.6" y="4.7" width="1.5" height="1.5"></rect>
                        <rect id="Rectangle-path" x="58.4" y="4.7" width="1.5" height="1.5"></rect>
                        <rect id="Rectangle-path" x="6" y="4.7" width="39.9" height="1.5"></rect>
                        <path d="M43.6,38.6 C43.5,36.6 43.3,34.9 43.1,33.5 L43.1,33.4 C43,32.7 42.8,31.9 42.4,31.2 L42.3,31.1 C41.9,30.4 41.3,29.9 40.6,29.5 C40.4,29.4 40.1,29.3 39.9,29.2 L36.1,27.8 L33.9,33.5 L31.2,33.5 L29,27.8 L25.2,29.2 C24.2,29.6 23.3,30.3 22.8,31.2 C22.3,32.1 22,32.9 22,33.8 C21.9,34.2 21.6,35.8 21.5,38.7 L21.5,39.5 L43.7,39.5 L43.6,38.6 Z M23,37.9 C23.1,35.3 23.4,34 23.4,33.9 L23.4,33.7 C23.4,32.9 23.7,32.2 24,31.8 C24.3,31.2 24.9,30.7 25.6,30.5 L28.1,29.6 L30.1,34.9 L34.9,34.9 L36.9,29.6 L39.3,30.5 C39.5,30.6 39.6,30.6 39.8,30.7 C40.2,30.9 40.6,31.3 40.9,31.7 L40.9,31.8 C41.2,32.4 41.4,32.9 41.5,33.4 C41.5,33.4 41.5,33.5 41.5,33.6 C41.7,34.8 41.8,36.2 41.9,37.8 L23,37.8 L23,37.9 Z" id="Shape"></path>
                        <path d="M32.5,27.7 C35.3,27.7 37.6,25.4 37.6,22.6 C37.6,19.8 35.3,17.5 32.5,17.5 C29.7,17.5 27.4,19.8 27.4,22.6 C27.4,25.4 29.7,27.7 32.5,27.7 Z M32.5,19.1 C34.5,19.1 36.1,20.7 36.1,22.7 C36.1,24.7 34.5,26.3 32.5,26.3 C30.5,26.3 28.9,24.7 28.9,22.7 C28.9,20.7 30.5,19.1 32.5,19.1 Z" id="Shape"></path>
                    </g>
                </g>
            </g>
        </g>
    </g>
</svg>