<?xml version="1.0" encoding="UTF-8"?>
<svg width="40px" height="20px" viewBox="0 0 40 20" version="1.1" xmlns="http://www.w3.org/2000/svg" xmlns:xlink="http://www.w3.org/1999/xlink">
    <!-- Generator: Sketch 46 (44423) - http://www.bohemiancoding.com/sketch -->
    <title>Shape</title>
    <desc>Created with Sketch.</desc>
    <defs></defs>
    <g id="Page-1" stroke="none" stroke-width="1" fill="none" fill-rule="evenodd">
        <g id="Home" transform="translate(-697.000000, -654.000000)" fill-rule="nonzero" fill="#FFFFFF">
            <g id="intro-panel">
                <path d="M736.503009,671.067542 L721.495507,655.883762 C720.258154,654.631084 718.621099,653.997637 716.999658,654.000007 C715.378998,653.998427 713.741163,654.631084 712.50459,655.883762 L697.497088,671.067542 C696.834304,671.738111 696.834304,672.826503 697.497088,673.497073 C698.159873,674.167642 699.235629,674.167642 699.898414,673.497073 L714.905915,658.313293 C715.488291,657.724866 716.236168,657.437367 716.999658,657.435787 C717.763149,657.438156 718.511026,657.724866 719.093402,658.313293 L734.100903,673.497073 C734.763688,674.167642 735.839444,674.167642 736.502229,673.497073 C737.165794,672.826503 737.165794,671.738111 736.503009,671.067542 Z" id="Shape" transform="translate(717.000000, 664.000000) rotate(-180.000000) translate(-717.000000, -664.000000) "></path>
            </g>
        </g>
    </g>
</svg>