<?xml version="1.0" encoding="UTF-8"?>
<svg width="126px" height="96px" viewBox="0 0 126 96" version="1.1" xmlns="http://www.w3.org/2000/svg" xmlns:xlink="http://www.w3.org/1999/xlink">
    <!-- Generator: Sketch 46 (44423) - http://www.bohemiancoding.com/sketch -->
    <title>noun_601013</title>
    <desc>Created with Sketch.</desc>
    <defs></defs>
    <g id="Page-1" stroke="none" stroke-width="1" fill="none" fill-rule="evenodd">
        <g id="Home" transform="translate(-1117.000000, -1075.000000)" fill-rule="nonzero" fill="#566678">
            <g id="who-we-work-with" transform="translate(0.000000, 822.000000)">
                <g id="App-Reboots" transform="translate(980.000000, 199.000000)">
                    <g id="noun_601013" transform="translate(137.000000, 54.000000)">
                        <path d="M120.727273,0 L4.36363636,0 C1.95366655,-1.47568091e-16 2.95136182e-16,1.95366655 0,4.36363636 L0,91.6363636 L2.90909091,91.6363636 L2.90909091,4.36363636 C2.90909091,3.56031309 3.56031309,2.90909091 4.36363636,2.90909091 L120.727273,2.90909091 L120.727273,0 Z" id="Shape"></path>
                        <path d="M120.727273,5.81818182 L10.1818182,5.81818182 C7.77184836,5.81818182 5.81818182,7.77184836 5.81818182,10.1818182 L5.81818182,91.6363636 C5.81818182,94.0463335 7.77184836,96 10.1818182,96 L120.727273,96 C123.137243,96 125.090909,94.0463335 125.090909,91.6363636 L125.090909,10.1818182 C125.090909,7.77184836 123.137243,5.81818182 120.727273,5.81818182 Z M122.181818,91.6363636 C122.181818,92.4396869 121.530596,93.0909091 120.727273,93.0909091 L10.1818182,93.0909091 C9.37849491,93.0909091 8.72727273,92.4396869 8.72727273,91.6363636 L8.72727273,23.2727273 L122.181818,23.2727273 L122.181818,91.6363636 Z M8.72727273,20.3636364 L8.72727273,10.1818182 C8.72727273,9.37849491 9.37849491,8.72727273 10.1818182,8.72727273 L120.727273,8.72727273 C121.530596,8.72727273 122.181818,9.37849491 122.181818,10.1818182 L122.181818,20.3636364 L8.72727273,20.3636364 Z" id="Shape"></path>
                        <path d="M48,68.6690909 C52.8594993,76.7489738 62.6301617,80.4362846 71.6162403,77.5815284 C80.6023189,74.7267722 86.4535298,66.0766026 85.7589461,56.6735821 C85.0643624,47.2705615 78.0056504,39.574024 68.6976425,38.0706182 C59.3896345,36.5672123 50.2668141,41.6501497 46.6472727,50.3563636 C46.3379933,51.0994377 46.6896532,51.9525387 47.4327273,52.2618182 C48.1758013,52.5710976 49.0289024,52.2194377 49.3381818,51.4763636 C52.4517571,43.987519 60.313485,39.6299675 68.3142577,40.9584179 C76.3150305,42.2868684 82.3466691,48.9512781 82.872995,57.0444929 C83.399321,65.1377078 78.281649,72.5271904 70.5203249,74.8806971 C62.7590008,77.2342038 54.3991096,73.9315927 50.3418182,66.9090909 L58.1818182,66.9090909 L58.1818182,64 L45.0909091,64 L45.0909091,77.0909091 L48,77.0909091 L48,68.6690909 Z" id="Shape"></path>
                        <rect id="Rectangle-path" x="13.0909091" y="13.0909091" width="2.90909091" height="2.90909091"></rect>
                        <rect id="Rectangle-path" x="20.3636364" y="13.0909091" width="2.90909091" height="2.90909091"></rect>
                        <rect id="Rectangle-path" x="27.6363636" y="13.0909091" width="2.90909091" height="2.90909091"></rect>
                        <rect id="Rectangle-path" x="100.363636" y="13.0909091" width="17.4545455" height="2.90909091"></rect>
                    </g>
                </g>
            </g>
        </g>
    </g>
</svg>