<?xml version="1.0" encoding="UTF-8"?>
<svg width="67px" height="52px" viewBox="0 0 67 52" version="1.1" xmlns="http://www.w3.org/2000/svg" xmlns:xlink="http://www.w3.org/1999/xlink">
    <!-- Generator: Sketch 46.2 (44496) - http://www.bohemiancoding.com/sketch -->
    <title>Shape</title>
    <desc>Created with Sketch.</desc>
    <defs></defs>
    <g id="Page-1" stroke="none" stroke-width="1" fill="none" fill-rule="evenodd">
        <g id="PHILIPS" transform="translate(-1115.000000, -1660.000000)" stroke="#BD10E0" stroke-width="0.3" fill="#BD10E0" fill-rule="nonzero">
            <g id="Group-3" transform="translate(139.000000, 1647.000000)">
                <g id="Group-2-Copy-2" transform="translate(870.000000, 0.000000)">
                    <path d="M150.090062,55.0714286 L110.02795,55.0714286 C109.639752,55.0714286 109.251553,54.9161491 108.940994,54.6055901 C108.552795,54.2173913 108.475155,53.673913 108.475155,53.5186335 L108.475155,40.3198758 L108.475155,39.0776398 L108.475155,23.6273292 L112.978261,23.6273292 C112.978261,23.6273292 112.978261,23.6273292 112.978261,23.6273292 C112.978261,23.6273292 112.978261,23.6273292 112.978261,23.6273292 L167.481366,23.6273292 C167.559006,23.6273292 167.636646,23.6273292 167.714286,23.5496894 L167.714286,27.5093168 C167.714286,27.9751553 168.024845,28.2857143 168.490683,28.2857143 C168.956522,28.2857143 169.267081,27.9751553 169.267081,27.5093168 L169.267081,18.1149068 C169.267081,16.7950311 168.723602,15.6304348 167.869565,14.8540373 C167.248447,14.310559 166.47205,14 165.695652,14 L113.21118,14 C113.21118,14 113.13354,14 113.13354,14 C113.13354,14 113.055901,14 113.055901,14 L110.571429,14 C109.795031,14 109.018634,14.310559 108.397516,14.8540373 C107.465839,15.6304348 107,16.7950311 107,18.1149068 L107,39.0776398 L107,40.3198758 L107,53.5962733 C107,53.984472 107.07764,54.9161491 107.931677,55.7701863 C108.475155,56.3136646 109.251553,56.6242236 110.02795,56.6242236 L150.012422,56.6242236 C150.478261,56.6242236 150.78882,56.3136646 150.78882,55.8478261 C150.78882,55.3819876 150.478261,55.0714286 150.090062,55.0714286 Z M109.406832,16.0186335 C109.795031,15.7080745 110.18323,15.552795 110.571429,15.552795 L112.978261,15.552795 C112.978261,15.552795 113.055901,15.552795 113.055901,15.552795 C113.055901,15.552795 113.13354,15.552795 113.13354,15.552795 L165.618012,15.552795 C166.006211,15.552795 166.39441,15.7080745 166.782609,16.0186335 C167.326087,16.484472 167.636646,17.2608696 167.636646,18.1149068 L167.636646,22.0745342 C167.559006,22.0745342 167.481366,21.9968944 167.403727,21.9968944 L113.055901,21.9968944 C113.055901,21.9968944 113.055901,21.9968944 113.055901,21.9968944 C113.055901,21.9968944 113.055901,21.9968944 113.055901,21.9968944 L108.552795,21.9968944 L108.552795,18.0372671 C108.552795,17.2608696 108.863354,16.484472 109.406832,16.0186335 Z M111.192547,18.9689441 C111.192547,18.3478261 111.658385,17.8819876 112.279503,17.8819876 C112.900621,17.8819876 113.36646,18.3478261 113.36646,18.9689441 C113.36646,19.5900621 112.900621,20.0559006 112.279503,20.0559006 C111.658385,20.0559006 111.192547,19.5900621 111.192547,18.9689441 Z M114.531056,18.9689441 C114.531056,18.3478261 114.996894,17.8819876 115.618012,17.8819876 C116.23913,17.8819876 116.704969,18.3478261 116.704969,18.9689441 C116.704969,19.5900621 116.23913,20.0559006 115.618012,20.0559006 C114.996894,20.0559006 114.531056,19.5900621 114.531056,18.9689441 Z M117.791925,18.9689441 C117.791925,18.3478261 118.257764,17.8819876 118.878882,17.8819876 C119.5,17.8819876 119.965839,18.3478261 119.965839,18.9689441 C119.965839,19.5900621 119.5,20.0559006 118.878882,20.0559006 C118.257764,20.0559006 117.791925,19.5900621 117.791925,18.9689441 Z M138.21118,35.1956522 L125.78882,35.1956522 C125.322981,35.1956522 125.012422,34.8850932 125.012422,34.4192547 C125.012422,33.9534161 125.322981,33.6428571 125.78882,33.6428571 L138.21118,33.6428571 C138.677019,33.6428571 138.987578,33.9534161 138.987578,34.4192547 C138.987578,34.8850932 138.677019,35.1956522 138.21118,35.1956522 Z M121.984472,39.931677 C122.295031,40.1645963 122.372671,40.7080745 122.139752,41.0186335 L118.801242,45.5217391 C118.645963,45.7546584 118.413043,45.8322981 118.180124,45.8322981 C118.024845,45.8322981 117.869565,45.7546584 117.714286,45.6770186 L115.074534,43.7360248 C114.763975,43.5031056 114.686335,42.9596273 114.919255,42.6490683 C115.152174,42.3385093 115.618012,42.2608696 116.006211,42.4937888 L118.024845,43.9689441 L120.897516,40.0869565 C121.208075,39.7763975 121.673913,39.6987578 121.984472,39.931677 Z M122.139752,32.1677019 L118.801242,36.6708075 C118.645963,36.9037267 118.413043,36.9813665 118.180124,36.9813665 C118.024845,36.9813665 117.869565,36.9037267 117.714286,36.826087 L115.074534,34.8850932 C114.763975,34.6521739 114.686335,34.1863354 114.919255,33.7981366 C115.152174,33.4875776 115.618012,33.4099379 116.006211,33.6428571 L118.024845,35.1180124 L120.897516,31.2360248 C121.130435,30.9254658 121.673913,30.8478261 121.984472,31.0807453 C122.372671,31.3136646 122.450311,31.7795031 122.139752,32.1677019 Z M134.950311,42.2608696 C135.416149,42.2608696 135.726708,42.5714286 135.726708,43.0372671 C135.726708,43.5031056 135.416149,43.8136646 134.950311,43.8136646 L125.78882,43.8136646 C125.322981,43.8136646 125.012422,43.5031056 125.012422,43.0372671 C125.012422,42.5714286 125.322981,42.2608696 125.78882,42.2608696 L134.950311,42.2608696 Z M153.81677,35.5062112 C154.127329,35.8167702 154.049689,36.2826087 153.73913,36.5931677 C153.583851,36.7484472 153.428571,36.7484472 153.195652,36.7484472 C152.962733,36.7484472 152.729814,36.6708075 152.574534,36.515528 L149.779503,33.3322981 C149.468944,33.0217391 149.546584,32.5559006 149.857143,32.2453416 C150.167702,31.9347826 150.63354,32.0124224 150.944099,32.3229814 L153.81677,35.5062112 Z M151.021739,40.242236 C150.944099,40.242236 150.86646,40.242236 150.78882,40.1645963 L146.751553,38.7670807 C146.363354,38.6118012 146.130435,38.1459627 146.285714,37.757764 C146.440994,37.3695652 146.829193,37.136646 147.295031,37.2919255 L151.332298,38.689441 C151.720497,38.8447205 151.953416,39.310559 151.798137,39.6987578 C151.642857,40.0093168 151.332298,40.242236 151.021739,40.242236 Z M150.555901,42.7267081 C150.944099,42.6490683 151.409938,42.8819876 151.487578,43.3478261 C151.565217,43.7360248 151.332298,44.2018634 150.86646,44.2795031 L146.751553,45.0559006 C146.673913,45.0559006 146.673913,45.0559006 146.596273,45.0559006 C146.208075,45.0559006 145.897516,44.8229814 145.819876,44.4347826 C145.742236,44.0465839 145.975155,43.5807453 146.440994,43.5031056 L150.555901,42.7267081 Z M153.118012,46.6863354 C153.428571,46.9968944 153.350932,47.4627329 153.040373,47.7732919 L149.857143,50.568323 C149.701863,50.7236025 149.546584,50.7236025 149.313665,50.7236025 C149.080745,50.7236025 148.847826,50.6459627 148.692547,50.4906832 C148.381988,50.1801242 148.459627,49.7142857 148.770186,49.4037267 L151.953416,46.6086957 C152.341615,46.2981366 152.807453,46.3757764 153.118012,46.6863354 Z M166.006211,39.6987578 L170.198758,38.9223602 C170.586957,38.8447205 171.052795,39.1552795 171.130435,39.5434783 C171.208075,39.931677 170.897516,40.3975155 170.509317,40.4751553 L166.31677,41.2515528 C166.23913,41.2515528 166.23913,41.2515528 166.161491,41.2515528 C165.773292,41.2515528 165.462733,41.0186335 165.385093,40.6304348 C165.307453,40.1645963 165.618012,39.7763975 166.006211,39.6987578 Z M168.102484,34.6521739 L164.919255,37.447205 C164.763975,37.5248447 164.608696,37.6024845 164.375776,37.6024845 C164.142857,37.6024845 163.909938,37.5248447 163.754658,37.3695652 C163.444099,37.0590062 163.521739,36.5931677 163.832298,36.2826087 L167.015528,33.4875776 C167.326087,33.1770186 167.791925,33.2546584 168.102484,33.5652174 C168.413043,33.8757764 168.413043,34.3416149 168.102484,34.6521739 Z M162.590062,29.8385093 C162.978261,29.9937888 163.21118,30.4596273 163.055901,30.8478261 L161.658385,34.8074534 C161.580745,35.1180124 161.270186,35.3509317 160.959627,35.3509317 C160.881988,35.3509317 160.804348,35.3509317 160.726708,35.2732919 C160.338509,35.1180124 160.10559,34.6521739 160.26087,34.2639752 L161.658385,30.3043478 C161.813665,29.9161491 162.201863,29.6832298 162.590062,29.8385093 Z M157.07764,35.0403727 C157,35.0403727 157,35.0403727 156.92236,35.0403727 C156.534161,35.0403727 156.223602,34.8074534 156.145963,34.4192547 L155.369565,30.2267081 C155.291925,29.8385093 155.602484,29.3726708 155.990683,29.2950311 C156.456522,29.2173913 156.84472,29.5279503 156.92236,29.9161491 L157.698758,34.1086957 C157.776398,34.5745342 157.465839,34.9627329 157.07764,35.0403727 Z M172.372671,53.052795 L158.319876,40.1645963 C158.086957,39.931677 157.776398,39.931677 157.465839,40.0093168 C157.15528,40.0869565 157,40.3975155 157,40.7080745 L157,59.8074534 C157,60.1180124 157.232919,60.4285714 157.465839,60.5062112 C157.776398,60.5838509 158.086957,60.5062112 158.319876,60.2732919 L161.813665,56.4689441 L164.453416,62.447205 C164.763975,63.1459627 165.307453,63.6118012 165.928571,63.8447205 C166.23913,64 166.549689,64 166.860248,64 C167.248447,64 167.636646,63.9223602 167.947205,63.7670807 C168.645963,63.4565217 169.111801,62.9130435 169.34472,62.2919255 C169.57764,61.5931677 169.57764,60.8944099 169.267081,60.1956522 L166.549689,54.1397516 L171.673913,54.2173913 C171.984472,54.2173913 172.295031,54.0621118 172.372671,53.7515528 C172.450311,53.4409938 172.60559,53.2080745 172.372671,53.052795 Z M165.540373,52.6645963 C165.307453,52.6645963 164.996894,52.8198758 164.841615,52.9751553 C164.686335,53.1304348 164.686335,53.4409938 164.763975,53.7515528 L167.947205,60.8944099 C168.102484,61.2049689 168.102484,61.515528 167.947205,61.7484472 C167.869565,62.0590062 167.636646,62.2919255 167.326087,62.3695652 C167.015528,62.5248447 166.704969,62.5248447 166.47205,62.3695652 C166.161491,62.2919255 165.928571,62.0590062 165.850932,61.7484472 L162.745342,54.6055901 C162.667702,54.3726708 162.434783,54.2173913 162.124224,54.1397516 C162.046584,54.1397516 162.046584,54.1397516 161.968944,54.1397516 C161.736025,54.1397516 161.503106,54.2173913 161.425466,54.3726708 L158.552795,57.7888199 L158.552795,42.4937888 L169.810559,52.742236 L165.540373,52.6645963 Z" id="Shape"></path>
                </g>
            </g>
        </g>
    </g>
</svg>