<?xml version="1.0" encoding="UTF-8"?>
<svg width="56px" height="51px" viewBox="0 0 56 51" version="1.1" xmlns="http://www.w3.org/2000/svg" xmlns:xlink="http://www.w3.org/1999/xlink">
    <!-- Generator: Sketch 45.2 (43514) - http://www.bohemiancoding.com/sketch -->
    <title>noun_276646</title>
    <desc>Created with Sketch.</desc>
    <defs></defs>
    <g id="Page-1" stroke="none" stroke-width="1" fill="none" fill-rule="evenodd">
        <g id="AMADEUS" transform="translate(-688.000000, -1147.000000)" fill-rule="nonzero" fill="#000000">
            <g id="clean-text-panel" transform="translate(-130.000000, 868.000000)">
                <g id="Group-2-Copy" transform="translate(704.000000, 279.000000)">
                    <g id="noun_276646" transform="translate(114.000000, 0.000000)">
                        <path d="M50.79375,44.7125 L5.20625,44.7125 C4.94375,44.7125 4.76875,44.5375 4.76875,44.275 L4.76875,6.475 C4.76875,6.2125 4.94375,6.0375 5.20625,6.0375 L29.70625,6.0375 C29.96875,6.0375 30.14375,6.2125 30.14375,6.475 C30.14375,6.7375 29.96875,6.9125 29.70625,6.9125 L5.64375,6.9125 L5.64375,43.88125 L50.35625,43.88125 L50.35625,6.9125 L36.4,6.9125 C36.1375,6.9125 35.9625,6.7375 35.9625,6.475 C35.9625,6.2125 36.1375,6.0375 36.4,6.0375 L50.79375,6.0375 C51.05625,6.0375 51.23125,6.2125 51.23125,6.475 L51.23125,44.31875 C51.23125,44.5375 51.05625,44.7125 50.79375,44.7125 Z" id="Shape"></path>
                        <path d="M54.90625,50.61875 L1.09375,50.61875 C0.6125,50.61875 0.21875,50.225 0.21875,49.74375 L0.21875,1.00625 C0.21875,0.525 0.6125,0.13125 1.09375,0.13125 L54.90625,0.13125 C55.3875,0.13125 55.78125,0.525 55.78125,1.00625 L55.78125,49.7875 C55.78125,50.225 55.3875,50.61875 54.90625,50.61875 Z M1.96875,48.86875 L54.03125,48.86875 L54.03125,1.88125 L1.96875,1.88125 L1.96875,48.86875 Z" id="Shape"></path>
                        <path d="M50.79375,44.7125 L5.20625,44.7125 C4.94375,44.7125 4.76875,44.5375 4.76875,44.275 L4.76875,6.475 C4.76875,6.2125 4.94375,6.0375 5.20625,6.0375 L50.79375,6.0375 C51.05625,6.0375 51.23125,6.2125 51.23125,6.475 L51.23125,44.31875 C51.23125,44.5375 51.05625,44.7125 50.79375,44.7125 Z M5.64375,43.8375 L50.35625,43.8375 L50.35625,6.9125 L5.64375,6.9125 L5.64375,43.8375 Z" id="Shape"></path>
                        <path d="M50.79375,29.925 L39.33125,29.925 C39.06875,29.925 38.89375,29.75 38.89375,29.4875 C38.89375,29.225 39.06875,29.05 39.33125,29.05 L50.79375,29.05 C51.05625,29.05 51.23125,29.225 51.23125,29.4875 C51.23125,29.75 51.05625,29.925 50.79375,29.925 Z" id="Shape"></path>
                        <path d="M39.33125,38.36875 C39.06875,38.36875 38.89375,38.19375 38.89375,37.93125 L38.89375,13.3 C38.89375,13.0375 39.06875,12.8625 39.33125,12.8625 C39.59375,12.8625 39.76875,13.0375 39.76875,13.3 L39.76875,37.93125 C39.76875,38.15 39.55,38.36875 39.33125,38.36875 Z" id="Shape"></path>
                        <path d="M23.1875,44.7125 C22.925,44.7125 22.75,44.5375 22.75,44.275 L22.75,20.125 C22.75,19.8625 22.925,19.6875 23.1875,19.6875 L34.51875,19.6875 C34.78125,19.6875 34.95625,19.8625 34.95625,20.125 C34.95625,20.3875 34.78125,20.5625 34.51875,20.5625 L23.625,20.5625 L23.625,44.275 C23.625,44.5375 23.45,44.7125 23.1875,44.7125 Z" id="Shape"></path>
                        <path d="M23.1875,13.7375 C22.925,13.7375 22.75,13.5625 22.75,13.3 L22.75,6.475 C22.75,6.2125 22.925,6.0375 23.1875,6.0375 C23.45,6.0375 23.625,6.2125 23.625,6.475 L23.625,13.3 C23.625,13.51875 23.45,13.7375 23.1875,13.7375 Z" id="Shape"></path>
                        <path d="M13.25625,23.5375 L5.20625,23.5375 C4.94375,23.5375 4.76875,23.3625 4.76875,23.1 C4.76875,22.8375 4.94375,22.6625 5.20625,22.6625 L13.25625,22.6625 C13.51875,22.6625 13.69375,22.8375 13.69375,23.1 C13.69375,23.3625 13.51875,23.5375 13.25625,23.5375 Z" id="Shape"></path>
                        <path d="M13.25625,37.1875 C12.99375,37.1875 12.81875,37.0125 12.81875,36.75 L12.81875,17.85 C12.81875,17.5875 12.99375,17.4125 13.25625,17.4125 C13.51875,17.4125 13.69375,17.5875 13.69375,17.85 L13.69375,36.75 C13.69375,37.0125 13.51875,37.1875 13.25625,37.1875 Z" id="Shape"></path>
                    </g>
                </g>
            </g>
        </g>
    </g>
</svg>