<?xml version="1.0" encoding="UTF-8"?>
<svg width="60px" height="60px" viewBox="0 0 60 60" version="1.1" xmlns="http://www.w3.org/2000/svg" xmlns:xlink="http://www.w3.org/1999/xlink">
    <!-- Generator: Sketch 46.2 (44496) - http://www.bohemiancoding.com/sketch -->
    <title>noun_898473</title>
    <desc>Created with Sketch.</desc>
    <defs></defs>
    <g id="Page-1" stroke="none" stroke-width="1" fill="none" fill-rule="evenodd">
        <g id="ADOBE" transform="translate(-678.000000, -1451.000000)" fill-rule="nonzero" fill="#E44853">
            <g id="Group-3" transform="translate(127.000000, 1444.000000)">
                <g id="Group-2-Copy" transform="translate(435.000000, 7.000000)">
                    <g id="noun_898473" transform="translate(116.000000, 0.000000)">
                        <path d="M60,5.80645161 L60,0 L54.1935484,0 L54.1935484,1.93548387 L5.80645161,1.93548387 L5.80645161,0 L0,0 L0,5.80645161 L5.80645161,5.80645161 L5.80645161,3.87096774 L19.7787097,3.87096774 C9.63096774,7.85516129 2.35064516,17.5809677 1.95967742,29.0322581 L0,29.0322581 L0,34.8387097 L5.80645161,34.8387097 L5.80645161,29.0322581 L3.89516129,29.0322581 C4.40709677,15.0716129 15.9174194,3.87096774 30,3.87096774 C44.0825806,3.87096774 55.5929032,15.0716129 56.1048387,29.0322581 L54.1935484,29.0322581 L54.1935484,34.8387097 L60,34.8387097 L60,29.0322581 L58.0403226,29.0322581 C57.6493548,17.5809677 50.3690323,7.85516129 40.2212903,3.87096774 L54.1935484,3.87096774 L54.1935484,5.80645161 L60,5.80645161 Z M3.87096774,3.87096774 L1.93548387,3.87096774 L1.93548387,1.93548387 L3.87096774,1.93548387 L3.87096774,3.87096774 Z M3.87096774,32.9032258 L1.93548387,32.9032258 L1.93548387,30.9677419 L3.87096774,30.9677419 L3.87096774,32.9032258 Z M58.0645161,32.9032258 L56.1290323,32.9032258 L56.1290323,30.9677419 L58.0645161,30.9677419 L58.0645161,32.9032258 Z M56.1290323,1.93548387 L58.0645161,1.93548387 L58.0645161,3.87096774 L56.1290323,3.87096774 L56.1290323,1.93548387 Z" id="Shape"></path>
                        <path d="M30,9.67741935 C18.7945161,9.67741935 9.67741935,18.7935484 9.67741935,30 C9.67741935,36.5448387 12.8109677,42.626129 18.0948387,46.4516129 L16.4516129,46.4516129 L16.4516129,48.3870968 L18.3870968,48.3870968 L18.3870968,50.3225806 L16.4516129,50.3225806 L16.4516129,52.2580645 L18.3870968,52.2580645 L18.3870968,54.1935484 L16.4516129,54.1935484 L16.4516129,56.1290323 L18.3870968,56.1290323 L18.3870968,60 L41.6129032,60 L41.6129032,56.1290323 L43.5483871,56.1290323 L43.5483871,54.1935484 L41.6129032,54.1935484 L41.6129032,52.2580645 L43.5483871,52.2580645 L43.5483871,50.3225806 L41.6129032,50.3225806 L41.6129032,48.3870968 L43.5483871,48.3870968 L43.5483871,46.4516129 L41.9051613,46.4516129 C47.1890323,42.626129 50.3225806,36.5448387 50.3225806,30 C50.3225806,18.7935484 41.2054839,9.67741935 30,9.67741935 Z M39.6774194,54.1935484 L37.7419355,54.1935484 L37.7419355,56.1290323 L39.6774194,56.1290323 L39.6774194,58.0645161 L20.3225806,58.0645161 L20.3225806,56.1290323 L35.8064516,56.1290323 L35.8064516,54.1935484 L20.3225806,54.1935484 L20.3225806,52.2580645 L39.6774194,52.2580645 L39.6774194,54.1935484 Z M39.6774194,50.3225806 L20.3225806,50.3225806 L20.3225806,48.3870968 L39.6774194,48.3870968 L39.6774194,50.3225806 Z M30,33.8709677 C27.8651613,33.8709677 26.1290323,32.1348387 26.1290323,30 C26.1290323,27.8651613 27.8651613,26.1290323 30,26.1290323 C32.1348387,26.1290323 33.8709677,27.8651613 33.8709677,30 C33.8709677,32.1348387 32.1348387,33.8709677 30,33.8709677 Z M40.1119355,45.3483871 L39.6774194,45.6358065 L39.6774194,46.4516129 L30.9677419,46.4516129 L30.9677419,35.7193548 C33.7093548,35.2567742 35.8064516,32.8722581 35.8064516,30 C35.8064516,26.7977419 33.2022581,24.1935484 30,24.1935484 C26.7977419,24.1935484 24.1935484,26.7977419 24.1935484,30 C24.1935484,32.8712903 26.2906452,35.2558065 29.0322581,35.7193548 L29.0322581,46.4516129 L20.3225806,46.4516129 L20.3225806,45.6358065 L19.8880645,45.3493548 C14.7058065,41.9274194 11.6129032,36.1896774 11.6129032,30 C11.6129032,19.8609677 19.8609677,11.6129032 30,11.6129032 C40.1390323,11.6129032 48.3870968,19.8609677 48.3870968,30 C48.3870968,36.1896774 45.2941935,41.9274194 40.1119355,45.3483871 Z" id="Shape"></path>
                    </g>
                </g>
            </g>
        </g>
    </g>
</svg>