<?xml version="1.0" encoding="UTF-8"?>
<svg width="119px" height="90px" viewBox="0 0 119 90" version="1.1" xmlns="http://www.w3.org/2000/svg" xmlns:xlink="http://www.w3.org/1999/xlink">
    <!-- Generator: Sketch 46.2 (44496) - http://www.bohemiancoding.com/sketch -->
    <title>icon-app.svg</title>
    <desc>Created with Sketch.</desc>
    <defs></defs>
    <g id="Symbols" stroke="none" stroke-width="1" fill="none" fill-rule="evenodd">
        <g id="App-Reboots-Panel" transform="translate(-143.000000, -102.000000)" fill-rule="nonzero" fill="#D42289">
            <g id="App-Reboots">
                <g id="icon-app.svg" transform="translate(143.000000, 102.000000)">
                    <path d="M114.646341,1.28929125e-15 L4.35365854,1.28929125e-15 C1.94919932,0 0,1.9497277 0,4.35483871 L0,85.6451613 C0,88.0502723 1.94919932,90 4.35365854,90 L114.646341,90 C117.050801,90 119,88.0502723 119,85.6451613 L119,4.35483871 C119,1.9497277 117.050801,0 114.646341,1.28929125e-15 Z M116.097561,85.6451613 C116.097561,86.446865 115.447828,87.0967742 114.646341,87.0967742 L4.35365854,87.0967742 C3.55217213,87.0967742 2.90243902,86.446865 2.90243902,85.6451613 L2.90243902,17.4193548 L116.097561,17.4193548 L116.097561,85.6451613 Z M2.90243902,14.516129 L2.90243902,4.35483871 C2.90243902,3.55313504 3.55217213,2.90322581 4.35365854,2.90322581 L114.646341,2.90322581 C115.447828,2.90322581 116.097561,3.55313504 116.097561,4.35483871 L116.097561,14.516129 L2.90243902,14.516129 Z" id="Shape"></path>
                    <path d="M43.8573841,61.3067393 C48.6305095,69.2416539 58.2275059,72.8628074 67.0538639,70.0592709 C75.8802219,67.2557344 81.6274321,58.7607651 80.945194,49.5264524 C80.262956,40.2921398 73.3297072,32.7336926 64.1871419,31.2572606 C55.0445766,29.7808287 46.0839073,34.7725686 42.5287005,43.3225768 C42.2249182,44.0523186 42.5703277,44.8901135 43.3001942,45.1938439 C44.0300606,45.4975743 44.8679985,45.1522237 45.1717807,44.4224819 C48.2300146,37.0680011 55.9520063,32.7886323 63.8105715,34.0932478 C71.6691368,35.3978634 77.5935676,41.9427011 78.1105385,49.8907084 C78.6275094,57.8387158 73.6008001,65.0956173 65.9774276,67.4068976 C58.354055,69.718178 50.1427545,66.4748219 46.1575782,59.578317 L53.8582283,59.578317 L53.8582283,56.7214207 L41,56.7214207 L41,69.5774542 L43.8573841,69.5774542 L43.8573841,61.3067393 Z" id="Shape"></path>
                    <rect id="Rectangle-path" x="7" y="7" width="3" height="3"></rect>
                    <rect id="Rectangle-path" x="14" y="7" width="3" height="3"></rect>
                    <rect id="Rectangle-path" x="22" y="7" width="3" height="3"></rect>
                    <rect id="Rectangle-path" x="94" y="7" width="17" height="3"></rect>
                </g>
            </g>
        </g>
    </g>
</svg>