<?xml version="1.0" encoding="UTF-8"?>
<svg width="24px" height="24px" viewBox="0 0 24 24" version="1.1" xmlns="http://www.w3.org/2000/svg" xmlns:xlink="http://www.w3.org/1999/xlink">
    <!-- Generator: Sketch 46.2 (44496) - http://www.bohemiancoding.com/sketch -->
    <title>noun_997408</title>
    <desc>Created with Sketch.</desc>
    <defs></defs>
    <g id="Page-1" stroke="none" stroke-width="1" fill="none" fill-rule="evenodd">
        <g id="Contact-Scenarios" transform="translate(-1275.000000, -321.000000)" fill="#C624AE">
            <g id="Footer-options" transform="translate(0.000000, 280.000000)">
                <g id="footer">
                    <g id="noun_997408" transform="translate(1275.000000, 41.000000)">
                        <path d="M11.9999995,0 C5.38065764,0 -5.45453076e-07,5.37791182 -5.45453076e-07,12.0000055 C-5.45453076e-07,18.6195055 5.38049945,24.0000055 11.9999995,24.0000055 C18.6220985,24.0000055 24.0000005,18.6193418 24.0000005,12.0000055 C24.0000005,5.37804818 18.6219431,3.10055012e-14 11.9999995,3.10055012e-14 L11.9999995,0 Z M11.9999995,1.09091182 C18.0326013,1.09091182 22.9090915,5.96741182 22.9090915,12.0000055 C22.9090915,18.02976 18.0324458,22.9090964 11.9999995,22.9090964 C5.97040855,22.9090964 1.09090855,18.0295964 1.09090855,12.0000055 C1.09090855,5.96754818 5.97025309,1.09091182 11.9999995,1.09091182 L11.9999995,1.09091182 Z" id="Shape"></path>
                        <path d="M7.84499945,7.36099364 C7.63267889,7.38165697 7.45188416,7.52418633 7.38222965,7.72581779 C7.31257515,7.92744924 7.36684296,8.15118204 7.52113582,8.29849364 L11.2199995,12.0058964 L7.52113582,15.7047327 C7.30700679,15.9189072 7.30702367,16.2661096 7.52117352,16.4802632 C7.73532337,16.6944168 8.08252579,16.6944398 8.296704,16.4803145 L12.0040904,12.7729418 L15.702954,16.4803145 C15.9171322,16.6944398 16.2643346,16.6944168 16.4784845,16.4802632 C16.6926343,16.2661096 16.6926512,15.9189072 16.4785222,15.7047327 L12.7711358,12.0058964 L16.4785222,8.29849364 C16.6413335,8.14128012 16.6901576,7.89986177 16.6012317,7.69173729 C16.5123058,7.48361281 16.3041022,7.35201536 16.077954,7.36099364 C15.9366979,7.36437246 15.8022634,7.42242864 15.702954,7.52293909 L12.0040904,11.2218027 L8.296704,7.52293909 C8.19322025,7.41827948 8.05183624,7.35987681 7.90465855,7.36099364 C7.88478707,7.3599054 7.86487093,7.3599054 7.84499945,7.36099364 L7.84499945,7.36099364 Z" id="Shape"></path>
                    </g>
                </g>
            </g>
        </g>
    </g>
</svg>