<?xml version="1.0" encoding="UTF-8"?>
<svg width="80px" height="59px" viewBox="0 0 80 59" version="1.1" xmlns="http://www.w3.org/2000/svg" xmlns:xlink="http://www.w3.org/1999/xlink">
    <!-- Generator: Sketch 46.2 (44496) - http://www.bohemiancoding.com/sketch -->
    <title>creative-cloud-cc</title>
    <desc>Created with Sketch.</desc>
    <defs>
        <polygon id="path-1" points="0 0.255666667 79.6721311 0.255666667 79.6721311 59 0 59"></polygon>
    </defs>
    <g id="Page-1" stroke="none" stroke-width="1" fill="none" fill-rule="evenodd">
        <g id="ADOBE" transform="translate(-344.000000, -1102.000000)">
            <g id="Logos-1" transform="translate(170.000000, 1095.000000)">
                <g id="Creative-Cloud" transform="translate(170.000000, 7.000000)">
                    <g id="creative-cloud-cc" transform="translate(4.000000, 0.000000)">
                        <mask id="mask-2" fill="white">
                            <use xlink:href="#path-1"></use>
                        </mask>
                        <g id="a"></g>
                        <path d="M79.6721311,28.3167222 L79.6721311,30.9389444 C79.6472131,31.0812 79.6157377,31.2208333 79.5993443,31.3624333 C79.4636066,32.5031 79.3757377,33.6509778 79.1881967,34.7831222 C78.5757377,38.4627556 77.2518033,41.8827889 75.2845902,45.0451889 C72.2970492,49.8464778 68.2583607,53.5077556 63.1829508,56.0080444 C60.2536411,57.4579692 57.0952714,58.3897356 53.8478689,58.7620333 C53.1265574,58.8452889 52.4059016,58.9200222 51.6845902,58.9993444 L23.695082,58.9993444 C23.5540984,58.9731222 23.4137705,58.9311667 23.2714754,58.9226444 C20.4491803,58.7449889 17.7337705,58.1018889 15.1455738,56.9697444 C9.51081967,54.5048556 5.3095082,50.5099 2.55934426,45.0111 C1.34409393,42.5856477 0.557638344,39.968332 0.234754098,37.2748889 C0.155409836,36.6199889 0.0780327869,35.9657444 0,35.3115 L0,32.7672889 C0.0268852459,32.6263444 0.0681967213,32.4854 0.0767213115,32.3438 C0.22295082,29.8992333 0.724590164,27.5254667 1.60786885,25.2441333 C3.98491803,19.1055111 8.12852459,14.5526778 14.0170492,11.6059556 C17.0721311,10.0765444 20.3285246,9.27283333 23.7344262,9.09452222 C25.4019672,9.00798889 27.0681967,9.10107778 28.7259016,9.32331111 C28.8760656,9.34363333 29.092459,9.27676667 29.1967213,9.16991111 C31.5803279,6.73583333 34.2944262,4.75867778 37.3547541,3.26007778 C40.3232787,1.80671111 43.4472131,0.869922222 46.7357377,0.494944444 C47.5095082,0.406444444 48.2852459,0.333677778 49.0603279,0.2537 L51.4465574,0.2537 C51.602623,0.277955556 51.7593443,0.305488889 51.9154098,0.323844444 C53.0977049,0.461511111 54.2865574,0.548044444 55.4577049,0.744055556 C59.1114754,1.357 62.5127869,2.66811111 65.6603279,4.61576667 C70.4865574,7.60247778 74.1645902,11.6452889 76.677377,16.7350222 C78.130601,19.6648891 79.0636004,22.8248932 79.4347541,26.0740667 C79.52,26.8220556 79.5927869,27.5700444 79.6721311,28.3167222 M35.1245902,11.3489778 C35.172459,11.4119111 35.1842623,11.4414111 35.2045902,11.4512444 C36.8432629,12.2587379 38.4094661,13.2055681 39.8859016,14.2812778 C39.9790164,14.3488 40.2098361,14.3206111 40.322623,14.2498111 C44.3803279,11.6793778 48.7790164,10.7924111 53.5042623,11.6302111 C58.1344262,12.4509667 61.9022951,14.7637667 64.7809836,18.4578222 C68.0406557,22.6383 69.2832787,27.3655111 68.3836066,32.6250333 C67.7803279,36.1499556 66.3678689,39.3123556 63.9672131,41.9614556 C59.5868852,46.7909333 54.1016393,48.7884111 47.6445902,47.9427444 C43.6695082,47.4222333 40.2380328,45.7079556 37.3980328,42.8385889 C33.7527869,39.1576444 30.0839344,35.5009556 26.4281967,31.8298444 C25.9409836,31.3408 25.3986885,30.9474667 24.6970492,30.8615889 C23.4714754,30.7114667 22.3593443,31.3231 21.8301639,32.4237778 C21.3580328,33.4064556 21.4190164,34.5143444 22.4432787,35.5212778 C26.5186885,39.5208222 30.5580328,43.5570778 34.6288525,47.5605556 C35.3255849,48.249237 36.0728003,48.8849277 36.8642623,49.4623222 C39.8380328,51.6210667 43.1908197,52.8148333 46.8216393,53.2953556 C49.6714754,53.6716444 52.4990164,53.5910111 55.304918,52.9603667 C60.6570492,51.7587333 65.0904918,49.0276889 68.5822951,44.8137778 C71.4655738,41.3314667 73.2091803,37.3299556 73.8170492,32.8374333 C74.1693063,30.2755953 74.0957474,27.6731746 73.5993443,25.1353111 C72.7895082,20.9856444 71.0334426,17.2725778 68.2196721,14.1121444 C62.8511475,8.08562222 56.0970492,5.39522222 48.0596721,5.99571111 C44.9678689,6.22646667 42.0432787,7.13441111 39.2911475,8.57466667 C37.8060175,9.34606751 36.4089902,10.2762811 35.1245902,11.3489778 M33.1580328,53.4199111 C33.0474221,53.3174679 32.9372571,53.2145447 32.827541,53.1111444 C31.1613115,51.5384667 29.4859016,49.9756222 27.8393443,48.3826222 C27.5206557,48.0745111 27.227541,47.9243889 26.7763934,47.9348778 C25.1088525,47.9755222 23.44,47.9827333 21.7967213,47.6116889 C13.6262295,45.7643333 8.88196721,36.8835222 11.8931148,29.0693 C14.2681967,22.9077333 20.8432787,19.1553333 27.3272131,20.3123889 C30.2334426,20.8309333 32.7842623,22.0607556 34.8780328,24.2195 C37.4314754,26.8548333 40.0609836,29.4147778 42.6419672,32.0232333 C43.2295082,32.6171667 43.9042623,32.8879111 44.7180328,32.7718778 C45.7698361,32.6217556 46.6072131,32.1209111 46.987541,31.0897222 C47.36,30.0749222 47.1796721,29.1138778 46.4111475,28.3357333 C43.7022951,25.5922333 41.0577049,22.7799 38.2393443,20.1530889 C32.7731148,15.0561444 26.3272131,13.5405 19.1980328,15.7077667 C9.60918033,18.6204 3.99737705,28.5192889 6.18819672,38.2870667 C8.18491803,47.1868889 15.9704918,53.4330222 25.0806557,53.4408889 C27.6242623,53.4435111 30.1685246,53.4422 32.7121311,53.4408889 C32.8380328,53.4408889 32.9639344,53.4297444 33.1580328,53.4199111" id="Shape" fill="#DA1F26" fill-rule="nonzero" mask="url(#mask-2)"></path>
                    </g>
                </g>
            </g>
        </g>
    </g>
</svg>