<?xml version="1.0" encoding="UTF-8"?>
<svg width="63px" height="50px" viewBox="0 0 63 50" version="1.1" xmlns="http://www.w3.org/2000/svg" xmlns:xlink="http://www.w3.org/1999/xlink">
    <!-- Generator: Sketch 46.2 (44496) - http://www.bohemiancoding.com/sketch -->
    <title>noun_159282</title>
    <desc>Created with Sketch.</desc>
    <defs></defs>
    <g id="Page-1" stroke="none" stroke-width="1" fill="none" fill-rule="evenodd">
        <g id="AMADEUS" transform="translate(-1123.000000, -2679.000000)" fill-rule="nonzero" fill="#BFCD83">
            <g id="photo-bleed-panel" transform="translate(-135.000000, 1556.000000)">
                <g id="Group-8" transform="translate(274.000000, 1113.000000)">
                    <g id="Group-2-Copy-2" transform="translate(870.000000, 0.000000)">
                        <g id="noun_159282" transform="translate(114.000000, 10.000000)">
                            <path d="M37.3006579,44.4835526 L17.8098684,44.4835526 C17.3657895,44.4835526 17.0039474,44.1223684 17.0039474,43.6776316 L17.0039474,40.4059211 C17.0039474,39.9605263 17.3651316,39.6 17.8098684,39.6 L24.6657895,39.6 L24.6657895,36.2546053 C24.6657895,35.8098684 25.0263158,35.4486842 25.4717105,35.4486842 L47.4138158,35.4486842 C47.8592105,35.4486842 48.2197368,35.8098684 48.2197368,36.2546053 L48.2197368,41.1802632 L57.9164474,41.1802632 L57.9164474,28.0769737 L48.2197368,28.0769737 L48.2197368,31.7815789 C48.2197368,32.2263158 47.8592105,32.5875 47.4138158,32.5875 C46.9684211,32.5875 46.6078947,32.2263158 46.6078947,31.7815789 L46.6078947,27.2717105 C46.6078947,26.8269737 46.9684211,26.4657895 47.4138158,26.4657895 L58.7217105,26.4657895 C59.1657895,26.4657895 59.5276316,26.8269737 59.5276316,27.2717105 L59.5276316,41.9861842 C59.5276316,42.4322368 59.1657895,42.7921053 58.7217105,42.7921053 L47.4138158,42.7921053 C46.9684211,42.7921053 46.6078947,42.4322368 46.6078947,41.9861842 L46.6078947,37.0605263 L26.2763158,37.0605263 L26.2763158,40.4059211 C26.2763158,40.8519737 25.9157895,41.2118421 25.4703947,41.2118421 L18.6151316,41.2118421 L18.6151316,42.8717105 L36.4947368,42.8717105 L36.4947368,41.2118421 L30.1625,41.2118421 C29.7190789,41.2118421 29.3565789,40.8519737 29.3565789,40.4059211 C29.3565789,39.9605263 29.7184211,39.6 30.1625,39.6 L37.3006579,39.6 C37.7460526,39.6 38.1065789,39.9605263 38.1065789,40.4059211 L38.1065789,43.6776316 C38.1059211,44.1230263 37.7453947,44.4835526 37.3006579,44.4835526 Z" id="Shape"></path>
                            <path d="M21.2572368,37.0618421 L1.13881579,37.0618421 C0.695394737,37.0618421 0.332894737,36.7019737 0.332894737,36.2559211 L0.332894737,1.45921053 C0.332894737,1.01315789 0.694736842,0.653289474 1.13881579,0.653289474 L54.4947368,0.653289474 C54.9401316,0.653289474 55.3006579,1.01315789 55.3006579,1.45921053 L55.3006579,18.8578947 C55.3006579,19.3039474 54.9401316,19.6638158 54.4947368,19.6638158 C54.0493421,19.6638158 53.6888158,19.3039474 53.6888158,18.8578947 L53.6888158,2.26513158 L1.94407895,2.26513158 L1.94407895,35.4506579 L21.2565789,35.4506579 C21.7013158,35.4506579 22.0625,35.8111842 22.0625,36.2565789 C22.0625,36.7019737 21.7019737,37.0618421 21.2572368,37.0618421 Z" id="Shape"></path>
                            <path d="M62.0269737,49.3559211 L44.1046053,49.3559211 C43.6605263,49.3559211 43.2986842,48.9947368 43.2986842,48.55 L43.2986842,39.6111842 C43.2986842,39.1664474 43.6605263,38.8052632 44.1046053,38.8052632 C44.55,38.8052632 44.9105263,39.1664474 44.9105263,39.6111842 L44.9105263,47.7440789 L61.2217105,47.7440789 L61.2217105,24.7684211 L54.4940789,24.7684211 C54.0486842,24.7684211 53.6881579,24.4072368 53.6881579,23.9625 C53.6881579,23.5164474 54.0486842,23.1565789 54.4940789,23.1565789 L62.0269737,23.1565789 C62.4723684,23.1565789 62.8328947,23.5164474 62.8328947,23.9625 L62.8328947,48.55 C62.8328947,48.9953947 62.4723684,49.3559211 62.0269737,49.3559211 Z" id="Shape"></path>
                            <path d="M54.9427632,46.0532895 L51.1914474,46.0532895 C50.7460526,46.0532895 50.3855263,45.6934211 50.3855263,45.2473684 C50.3855263,44.8026316 50.7460526,44.4414474 51.1914474,44.4414474 L54.9427632,44.4414474 C55.3881579,44.4414474 55.7480263,44.8026316 55.7480263,45.2473684 C55.7480263,45.6934211 55.3881579,46.0532895 54.9427632,46.0532895 Z" id="Shape"></path>
                            <path d="M44.1046053,30.3526316 L6.18947368,30.3526316 C5.74473684,30.3526316 5.38355263,29.9927632 5.38355263,29.5467105 C5.38355263,29.1019737 5.74473684,28.7407895 6.18947368,28.7407895 L43.2993421,28.7407895 L43.2993421,23.9625 C43.2993421,23.5164474 43.6611842,23.1565789 44.1052632,23.1565789 L54.4947368,23.1565789 C54.9401316,23.1565789 55.3006579,23.5164474 55.3006579,23.9625 C55.3006579,24.4072368 54.9401316,24.7684211 54.4947368,24.7684211 L44.9111842,24.7684211 L44.9111842,29.5467105 C44.9105263,29.9927632 44.55,30.3526316 44.1046053,30.3526316 Z" id="Shape"></path>
                        </g>
                    </g>
                </g>
            </g>
        </g>
    </g>
</svg>