<?xml version="1.0" encoding="UTF-8"?>
<svg width="80px" height="79px" viewBox="0 0 80 79" version="1.1" xmlns="http://www.w3.org/2000/svg" xmlns:xlink="http://www.w3.org/1999/xlink">
    <!-- Generator: Sketch 46.2 (44496) - http://www.bohemiancoding.com/sketch -->
    <title>Group 4</title>
    <desc>Created with Sketch.</desc>
    <defs>
        <radialGradient cx="32.9351254%" cy="22.4100935%" fx="32.9351254%" fy="22.4100935%" r="0.139277297%" gradientTransform="translate(0.329351,0.224101),scale(0.972727,1.000000),translate(-0.329351,-0.224101)" id="radialGradient-1">
            <stop stop-color="#39464D" stop-opacity="0.98" offset="0%"></stop>
            <stop stop-color="#05151F" offset="100%"></stop>
        </radialGradient>
    </defs>
    <g id="Page-1" stroke="none" stroke-width="1" fill="none" fill-rule="evenodd">
        <g id="ADOBE" transform="translate(-170.000000, -1095.000000)" fill-rule="nonzero">
            <g id="Logos-2" transform="translate(170.000000, 1095.000000)">
                <g id="lightroom-cc">
                    <g id="Group-4">
                        <polygon id="Shape" fill="url(#radialGradient-1)" points="3 3 76.2448322 3 76.2448322 74.2472483 3 74.2472483"></polygon>
                        <path d="M3.32926174,3.42939597 L76.574094,3.42939597 L76.574094,74.6766443 L3.32926174,74.6766443 L3.32926174,3.42939597 Z M0,78.0060403 L79.9033557,78.0060403 L79.9033557,0.100134228 L0,0.100134228 L0,78.0060403 Z M46.7767785,32.8938255 C46.7767785,32.4942282 46.7767785,31.5288591 46.6103356,29.6642953 C46.6103356,29.3979866 46.6769128,29.3314094 46.8766443,29.2315436 C48.9075168,28.3991946 53.7350336,26.9343624 59.1284564,26.9343624 C59.3947651,26.9343624 59.5280537,27.0009396 59.5280537,27.2672483 L59.5280537,32.0614765 C59.5280537,32.3277852 59.4281879,32.3943624 59.1284564,32.3943624 C57.0310067,32.2944966 53.9347651,32.5608054 52.7695302,33.0601342 L52.7695302,54.0681879 C52.7695302,54.3344966 52.6696644,54.467651 52.3699329,54.467651 L47.142953,54.467651 C46.8766443,54.467651 46.7433557,54.3677852 46.7433557,54.0681879 L46.7433557,32.8936913 L46.7767785,32.8936913 L46.7767785,32.8938255 L46.7767785,32.8938255 Z M22.14,54.467651 C21.7404027,54.467651 21.6405369,54.3013423 21.6405369,53.9683221 L21.6405369,18.178255 C21.6405369,17.9119463 21.7404027,17.7453691 22.0401342,17.7453691 L27.3002685,17.7453691 C27.5665772,17.7453691 27.6331544,17.8452349 27.6331544,18.1449664 L27.6331544,48.9743624 L41.3497987,48.9743624 C41.6161074,48.9743624 41.7161074,49.0742282 41.649396,49.3739597 L40.8171812,54.1016107 C40.750604,54.3677852 40.5841611,54.5010738 40.3177181,54.5010738 L22.14,54.5010738 L22.14,54.467651 L22.14,54.467651 Z" id="Shape" fill="#AAD1EB"></path>
                    </g>
                </g>
            </g>
        </g>
    </g>
</svg>