<?xml version="1.0" encoding="UTF-8"?>
<svg width="80px" height="78px" viewBox="0 0 80 78" version="1.1" xmlns="http://www.w3.org/2000/svg" xmlns:xlink="http://www.w3.org/1999/xlink">
    <!-- Generator: Sketch 46.2 (44496) - http://www.bohemiancoding.com/sketch -->
    <title>after-effects-cc</title>
    <desc>Created with Sketch.</desc>
    <defs>
        <radialGradient cx="32.9351254%" cy="22.4100935%" fx="32.9351254%" fy="22.4100935%" r="0.139277297%" gradientTransform="translate(0.329351,0.224101),scale(0.971223,1.000000),translate(-0.329351,-0.224101)" id="radialGradient-1">
            <stop stop-color="#442F55" stop-opacity="0.98" offset="0%"></stop>
            <stop stop-color="#12002C" offset="100%"></stop>
        </radialGradient>
    </defs>
    <g id="Page-1" stroke="none" stroke-width="1" fill="none" fill-rule="evenodd">
        <g id="ADOBE" transform="translate(-517.000000, -1095.000000)" fill-rule="nonzero">
            <g id="Logos-2" transform="translate(170.000000, 1095.000000)">
                <g id="After-Effects" transform="translate(347.000000, 0.000000)">
                    <g id="after-effects-cc">
                        <polygon id="Shape" fill="url(#radialGradient-1)" points="3.32926174 3.42409278 76.574094 3.42409278 76.574094 74.5611649 3.32926174 74.5611649"></polygon>
                        <path d="M3.32926174,3.42409278 L76.574094,3.42409278 L76.574094,74.5611649 L3.32926174,74.5611649 L3.32926174,3.42409278 Z M0,77.8854124 L79.9033557,77.8854124 L79.9033557,0.0999793814 L0,0.0999793814 L0,77.8854124 Z M56.5315436,37.5965361 C58.229396,37.5965361 58.8287248,37.5965361 58.9951678,37.5300619 C58.9951678,37.2974021 59.061745,37.1310825 59.061745,36.9648969 C59.061745,35.1698247 58.1961074,31.8457113 54.7336913,31.8457113 C51.5374497,31.8457113 50.1726174,34.6378969 49.8395973,37.5965361 L56.5315436,37.5965361 L56.5315436,37.5965361 Z M49.7731544,42.1505567 C49.8397315,46.6382371 51.9704698,49.6632165 57.0310067,49.6632165 C58.995302,49.6632165 60.6931544,49.3974536 62.4578523,48.632866 C62.6908725,48.5331546 62.8574497,48.5663918 62.8574497,48.8655258 L62.8574497,53.020701 C62.8574497,53.3530722 62.7575839,53.5193918 62.5245638,53.6855773 C60.76,54.5497423 58.5625503,54.9487216 55.8326174,54.9487216 C47.0433557,54.9487216 43.7472483,48.4666804 43.7472483,41.2532887 C43.7472483,33.4082577 47.8091275,26.9926907 54.9671141,26.9926907 C62.2249664,26.9926907 64.755302,33.0758866 64.755302,38.0288866 C64.755302,39.6245361 64.6554362,40.9209175 64.4889933,41.5525567 C64.4224161,41.8184536 64.3225503,41.918299 64.0561074,41.9847732 C63.3902013,42.0844845 61.425906,42.217299 58.4961074,42.217299 L49.7731544,42.217299 L49.7731544,42.1505567 Z M31.9281879,38.7599691 C30.9959732,35.0701134 28.7319463,27.0256598 27.8995973,23.1363814 L27.8330201,23.1363814 C27.1339597,27.0256598 25.3026846,33.6074124 23.9377181,38.7599691 L31.9281879,38.7599691 L31.9281879,38.7599691 Z M22.5726174,44.1451856 L19.9425503,54.0844227 C19.8759732,54.3501856 19.7761074,54.4500309 19.4430872,54.4500309 L14.5489933,54.4500309 C14.2161074,54.4500309 14.149396,54.3503196 14.2161074,53.9514742 L23.6712752,20.9424639 C23.8377181,20.3441959 23.9375839,19.8787423 24.0041611,18.2167526 C24.0041611,17.9840928 24.1040268,17.8843814 24.2704698,17.8843814 L31.2620134,17.8843814 C31.4950336,17.8843814 31.5948993,17.9508557 31.6616107,18.2167526 L42.2487248,54.0179485 C42.315302,54.2837113 42.2487248,54.4500309 41.9824161,54.4500309 L36.4891275,54.4500309 C36.2228188,54.4500309 36.0562416,54.3503196 35.9896644,54.1177938 L33.2595973,44.1453196 L22.5726174,44.1453196 L22.5726174,44.1451856 Z" id="Shape" fill="#D8A1FF"></path>
                    </g>
                </g>
            </g>
        </g>
    </g>
</svg>