<?xml version="1.0" encoding="UTF-8"?>
<svg width="65px" height="57px" viewBox="0 0 65 57" version="1.1" xmlns="http://www.w3.org/2000/svg" xmlns:xlink="http://www.w3.org/1999/xlink">
    <!-- Generator: Sketch 46.2 (44496) - http://www.bohemiancoding.com/sketch -->
    <title>Group 6</title>
    <desc>Created with Sketch.</desc>
    <defs>
        <path d="M19.0666667,0 C15.0252652,0 11.7333333,3.29193113 11.7333333,7.33333333 C11.7333333,11.3747355 15.0252652,14.6666667 19.0666667,14.6666667 C22.8631069,14.6666667 25.9881849,11.7688619 26.3541667,8.06666667 L52.4333333,8.06666667 C57.5243511,8.06666667 61.6,12.1423155 61.6,17.2333333 C61.6,22.3570351 57.8910178,26.4 52.8,26.4 C52.5355337,26.3962598 52.2895403,26.5352086 52.1562157,26.7636401 C52.022891,26.9920716 52.022891,27.274595 52.1562157,27.5030266 C52.2895403,27.7314581 52.5355337,27.8704069 52.8,27.8666667 C58.6781822,27.8666667 63.0666667,23.0788316 63.0666667,17.2333333 C63.0666667,11.3551511 58.3115155,6.6 52.4333333,6.6 L26.3541667,6.6 C25.9881849,2.8978048 22.8631069,0 19.0666667,0 Z M19.0666667,1.46666667 C22.3154243,1.46666667 24.9333333,4.08457647 24.9333333,7.33333333 C24.9333333,10.5820902 22.3154243,13.2 19.0666667,13.2 C15.8179091,13.2 13.2,10.5820902 13.2,7.33333333 C13.2,4.08457647 15.8179091,1.46666667 19.0666667,1.46666667 Z M10.6333333,26.4 C4.75515113,26.4 0,31.1551511 0,37.0333333 C0,42.9115155 4.75515113,47.6666667 10.6333333,47.6666667 L29.76875,47.6666667 L24.4291667,53.00625 C24.2408579,53.1904651 24.165131,53.4611483 24.2305116,53.716336 C24.2958921,53.9715237 24.4924473,54.1724468 24.7461366,54.2434194 C24.9998259,54.314392 25.2721079,54.2446318 25.4604167,54.0604167 L32.0604167,47.4604167 C32.3428899,47.1746966 32.3428899,46.7148867 32.0604167,46.4291667 L25.4375,39.80625 C25.4097101,39.7730486 25.3790348,39.7423732 25.3458333,39.7145833 C25.1503765,39.5105069 24.8553956,39.4362446 24.5866087,39.5234462 C24.3178217,39.6106478 24.1226192,39.8439386 24.0841945,40.1238924 C24.0457699,40.4038461 24.1708978,40.6811035 24.40625,40.8375 L29.76875,46.2 L10.6333333,46.2 C5.54231553,46.2 1.46666667,42.1243511 1.46666667,37.0333333 C1.46666667,31.9423155 5.54231553,27.8666667 10.6333333,27.8666667 L48.4,27.8666667 C48.6644663,27.8704069 48.9104597,27.7314581 49.0437843,27.5030266 C49.177109,27.274595 49.177109,26.9920716 49.0437843,26.7636401 C48.9104597,26.5352086 48.6644663,26.3962598 48.4,26.4 L10.6333333,26.4 Z" id="path-1"></path>
        <path d="M53.1568078,43.2291266 L48.0347375,42.2945563 L45.7202844,37.4625251 C45.4253625,36.8453376 44.4273156,36.8453376 44.1323938,37.4654548 L41.8501672,42.2965095 L36.7163781,43.2623298 C36.3941125,43.3228767 36.1343469,43.5552986 36.0386437,43.8687751 C35.9429405,44.1822516 36.0279015,44.5201423 36.2612999,44.7515876 L39.9605187,48.4049079 L39.1255578,53.8502204 C39.0864953,54.1041266 39.1597375,54.3609626 39.3267297,54.554322 C39.4946985,54.7506111 39.7378625,54.8629158 39.9946985,54.8629158 C40.1363001,54.8629158 40.2779016,54.826783 40.4048547,54.7603767 L44.9566125,52.3560798 L49.5327844,54.741822 C49.8892297,54.9273689 50.3482141,54.8365486 50.6099328,54.5318611 C50.7759484,54.3375252 50.848214,54.0797127 50.808175,53.8238533 L49.9390344,48.4019782 L53.6216516,44.7144782 C53.8530969,44.4820563 53.9361047,44.1431891 53.8374719,43.8306891 C53.7398156,43.5181892 53.4790735,43.2877204 53.1568078,43.2291266 Z M49.1880578,47.7388923 C48.988839,47.9381111 48.8960656,48.2222907 48.9409875,48.4986579 L49.7818078,53.7437751 L45.3579797,51.438111 C45.1070031,51.3092048 44.7964563,51.3092048 44.5454797,51.4420172 L40.1499719,53.7633063 L40.9585657,48.4957282 C41.0015345,48.2203376 40.9077845,47.9371344 40.7075891,47.7369391 L37.1284875,44.2027594 L42.0962609,43.2672125 C42.3726281,43.2154547 42.6089562,43.0318609 42.7280968,42.7789313 L44.9282921,38.1236579 L47.1587609,42.7808845 C47.2798547,43.0328376 47.5161828,43.2144783 47.7945031,43.2672126 L52.7505578,44.1715095 L49.1880578,47.7388923 Z" id="path-2"></path>
    </defs>
    <g id="Page-1" stroke="none" stroke-width="1" fill="none" fill-rule="evenodd">
        <g id="ADOBE" transform="translate(-1103.000000, -1455.000000)" fill-rule="nonzero">
            <g id="Group-3" transform="translate(127.000000, 1444.000000)">
                <g id="Group-2-Copy-2" transform="translate(870.000000, 0.000000)">
                    <g id="Group-6" transform="translate(107.000000, 12.000000)">
                        <g id="Shape">
                            <use fill="#0F996D" fill-rule="evenodd" xlink:href="#path-1"></use>
                            <path stroke="#0F996D" stroke-width="0.2" d="M26.4442166,6.5 L52.4333333,6.5 C58.366744,6.5 63.1666667,11.2999227 63.1666667,17.2333333 C63.1666667,23.2179361 58.6538203,27.9666667 52.8014141,27.9666567 C52.5008878,27.9709069 52.2213533,27.8130124 52.0698498,27.5534343 C51.9183463,27.2938561 51.9183463,26.9728106 52.0698498,26.7132324 C52.2213533,26.4536542 52.5008878,26.2957598 52.8,26.3 C57.7747635,26.3 61.5,22.3661067 61.5,17.2333333 C61.5,12.197544 57.4691227,8.16666667 52.4333333,8.16666667 L26.4442166,8.16666667 C26.0291957,11.9019036 22.8583066,14.7666667 19.0666667,14.7666667 C14.9700365,14.7666667 11.6333333,11.4299638 11.6333333,7.33333333 C11.6333333,3.23670291 14.9700365,-0.1 19.0666667,-0.1 C22.8583066,-0.1 26.0291957,2.76476307 26.4442166,6.5 Z M19.0666667,1.56666667 C15.8731378,1.56666667 13.3,4.13980469 13.3,7.33333333 C13.3,10.526862 15.8731378,13.1 19.0666667,13.1 C22.2601955,13.1 24.8333333,10.526862 24.8333333,7.33333333 C24.8333333,4.13980469 22.2601955,1.56666667 19.0666667,1.56666667 Z M29.5274176,46.1 L24.3509037,40.9207874 C24.0835982,40.7431572 23.9414818,40.4282571 23.9851234,40.1102945 C24.0287649,39.7923319 24.2504697,39.5273676 24.5557494,39.4283268 C24.8610291,39.329286 25.1960591,39.4136308 25.4100179,39.6379 C25.4477464,39.669479 25.4826043,39.7043369 25.5082107,39.7355393 L32.1315302,46.3588612 C32.4525187,46.6835392 32.4525187,47.2060441 32.1311273,47.5311273 L25.5303461,54.1319001 C25.3164988,54.3410985 25.0072897,54.4203197 24.7191949,54.3397217 C24.4311,54.2591238 24.2078879,54.0309514 24.1336404,53.741155 C24.0593929,53.4513586 24.1453899,53.143965 24.358456,52.9355393 L29.5273286,47.7666667 L10.6333333,47.7666667 C4.69992266,47.7666667 -0.1,42.966744 -0.1,37.0333333 C-0.1,31.0999227 4.69992266,26.3 10.6333333,26.3 L48.3985859,26.30001 C48.6991122,26.2957598 48.9786467,26.4536542 49.1301502,26.7132324 C49.2816537,26.9728106 49.2816537,27.2938561 49.1301502,27.5534343 C48.9786467,27.8130124 48.6991122,27.9709069 48.4,27.9666667 L10.6333333,27.9666667 C5.59754401,27.9666667 1.56666667,31.997544 1.56666667,37.0333333 C1.56666667,42.0691227 5.59754401,46.1 10.6333333,46.1 L29.5274176,46.1 Z"></path>
                        </g>
                        <g id="Shape">
                            <use fill="#0F996D" fill-rule="evenodd" xlink:href="#path-2"></use>
                            <path stroke="#0F996D" stroke-width="0.4" d="M53.192707,43.0323748 L53.1925849,43.0323526 L53.192707,43.0323748 Z M53.1926491,43.0323642 C53.5880457,43.1042789 53.9085259,43.3875399 54.0281975,43.7704913 C54.1492081,44.1538916 54.0474216,44.5703517 53.7631666,44.8558058 L50.152667,48.4710926 L51.0057702,53.7929319 C51.0547947,54.1062108 50.966115,54.4228324 50.7616468,54.6621794 C50.4390465,55.0377439 49.8788394,55.1474348 49.4403268,54.9191679 L44.957221,52.5819448 L40.4975543,54.9375963 C40.341304,55.0193273 40.167871,55.0629158 39.9946985,55.0629158 C39.6793013,55.0629158 39.3806607,54.9249585 39.1753651,54.6850459 C38.9700772,54.4473441 38.8799138,54.1316119 38.9278683,53.8199075 L39.747359,48.4754864 L36.120474,44.8936019 C35.8345062,44.6100271 35.7299267,44.1950289 35.8473595,43.8103767 C35.9647972,43.4257088 36.2840334,43.140059 36.6794008,43.0657778 L41.712914,42.1188224 L43.9517797,37.3795564 C44.318702,36.6080473 45.5329773,36.6066716 45.9006606,37.3761282 L48.1710296,42.1161222 L53.1926491,43.0323642 Z M49.0465821,47.5975253 L52.3397414,44.2998523 L47.7572709,43.4637164 C47.4171715,43.3992766 47.1273958,43.1773207 46.9783808,42.8672733 L44.9294882,38.5891784 L42.9090289,42.864158 C42.7622828,43.1756925 42.4720373,43.4003145 42.1332749,43.4637575 L37.5406325,44.3286586 L40.8490104,47.5955177 C41.094185,47.8406921 41.2090276,48.1878227 41.1562502,48.5260735 L40.4079465,53.4008922 L44.4519338,51.2652428 C44.7598129,51.1023186 45.1393845,51.1009984 45.4504166,51.2607542 L49.5213378,53.382486 L48.7435784,48.5307456 C48.6883556,48.1910056 48.801871,47.8422689 49.0465855,47.5975218 Z"></path>
                        </g>
                    </g>
                </g>
            </g>
        </g>
    </g>
</svg>