<?xml version="1.0" encoding="UTF-8"?>
<svg width="79px" height="50px" viewBox="0 0 79 50" version="1.1" xmlns="http://www.w3.org/2000/svg" xmlns:xlink="http://www.w3.org/1999/xlink">
    <!-- Generator: Sketch 46.2 (44496) - http://www.bohemiancoding.com/sketch -->
    <title>noun_981049</title>
    <desc>Created with Sketch.</desc>
    <defs></defs>
    <g id="Page-1" stroke="none" stroke-width="1" fill="none" fill-rule="evenodd">
        <g id="AMADEUS" transform="translate(-681.000000, -2679.000000)" fill-rule="nonzero" fill="#CA7150">
            <g id="photo-bleed-panel" transform="translate(-135.000000, 1556.000000)">
                <g id="Group-8" transform="translate(274.000000, 1113.000000)">
                    <g id="Group-2-Copy" transform="translate(435.000000, 7.000000)">
                        <g id="noun_981049" transform="translate(107.000000, 3.000000)">
                            <rect id="Rectangle-path" transform="translate(49.878175, 7.914274) rotate(45.000000) translate(-49.878175, -7.914274) " x="48.9666456" y="4.74357309" width="1.82305944" height="6.3414026"></rect>
                            <rect id="Rectangle-path" x="38.6492308" y="0.365853659" width="1.82307692" height="6.34146341"></rect>
                            <rect id="Rectangle-path" x="21.7553846" y="17.3170732" width="6.32" height="1.82926829"></rect>
                            <rect id="Rectangle-path" x="50.9246154" y="17.3170732" width="6.32" height="1.82926829"></rect>
                            <rect id="Rectangle-path" transform="translate(29.090577, 7.838451) rotate(44.995949) translate(-29.090577, -7.838451) " x="25.930384" y="6.92376117" width="6.3203863" height="1.8293801"></rect>
                            <rect id="Rectangle-path" transform="translate(28.802854, 46.203017) rotate(-176.380518) translate(-28.802854, -46.203017) " x="27.8913202" y="42.7884007" width="1.8230672" height="6.82923188"></rect>
                            <rect id="Rectangle-path" transform="translate(50.184012, 46.135369) rotate(-93.603985) translate(-50.184012, -46.135369) " x="46.7810117" y="45.2207556" width="6.80600136" height="1.82922731"></rect>
                            <path d="M39.5,27.5609756 C44.1184615,27.5609756 47.8861538,23.7804878 47.8861538,19.1463415 C47.8861538,14.5121951 44.1184615,10.7317073 39.5,10.7317073 C34.8815385,10.7317073 31.1138462,14.5121951 31.1138462,19.1463415 C31.1138462,23.7804878 34.8815385,27.5609756 39.5,27.5609756 Z M39.5,12.4390244 C43.1461538,12.4390244 46.1846154,15.3658537 46.1846154,19.1463415 C46.1846154,22.9268293 43.2676923,25.8536585 39.5,25.8536585 C35.8538462,25.8536585 32.8153846,22.9268293 32.8153846,19.1463415 C32.8153846,15.3658537 35.8538462,12.4390244 39.5,12.4390244 Z" id="Shape"></path>
                            <path d="M78.3923077,41.3414634 L78.3923077,41.3414634 C78.3923077,40.2439024 78.0276923,39.1463415 77.42,37.9268293 C76.8123077,36.7073171 75.7184615,35.8536585 74.3815385,35.3658537 L69.6415385,33.6585366 L65.5092308,41.3414634 L64.4153846,41.3414634 L60.2830769,33.6585366 L55.9076923,35.2439024 C55.7861538,35 55.6646154,34.7560976 55.5430769,34.5121951 C54.6923077,33.0487805 53.3553846,31.9512195 51.6538462,31.3414634 L45.6984615,29.1463415 L40.3507692,39.1463415 L38.5276923,39.1463415 L33.18,29.1463415 L27.2246154,31.3414634 C25.5230769,31.9512195 24.1861538,33.0487805 23.3353846,34.5121951 C23.2138462,34.7560976 23.0923077,35 22.9707692,35.2439024 L18.5953846,33.6585366 L14.4630769,41.3414634 L13.3692308,41.3414634 L9.23692308,33.6585366 L4.61846154,35.3658537 C3.28153846,35.8536585 2.18769231,36.7073171 1.58,37.9268293 C0.972307692,39.0243902 0.607692308,40.2439024 0.607692308,41.2195122 C0.607692308,41.2195122 0.121538462,45.4878049 0,49.5121951 L1.82307692,49.6341463 C1.94461538,45.6097561 2.43076923,41.4634146 2.43076923,41.3414634 C2.43076923,40.3658537 2.79538462,39.5121951 3.16,38.902439 C3.64615385,38.1707317 4.37538462,37.4390244 5.22615385,37.195122 L8.50769231,35.9756098 L12.3969231,43.2926829 L15.6784615,43.2926829 L19.5676923,35.9756098 L22.3630769,36.9512195 C22.2415385,37.5609756 22.12,38.1707317 22.12,38.6585366 C22.12,38.6585366 21.5123077,44.1463415 21.2692308,49.5121951 L23.0923077,49.6341463 C23.3353846,44.3902439 23.9430769,38.902439 23.9430769,38.7804878 C23.9430769,37.4390244 24.5507692,36.2195122 24.9153846,35.3658537 C25.5230769,34.2682927 26.4953846,33.4146341 27.8323077,32.9268293 L32.3292308,31.3414634 L37.4338462,40.8536585 L41.4446154,40.8536585 L46.5492308,31.3414634 L51.0461538,32.9268293 C52.2615385,33.4146341 53.3553846,34.2682927 53.9630769,35.3658537 C54.4492308,36.2195122 54.9353846,37.4390244 54.9353846,38.7804878 C54.9353846,38.7804878 55.5430769,44.2682927 55.7861538,49.5121951 L57.6092308,49.3902439 C57.3661538,44.0243902 56.7584615,38.6585366 56.7584615,38.6585366 C56.7584615,38.0487805 56.6369231,37.4390244 56.5153846,36.8292683 L59.3107692,35.8536585 L63.2,43.1707317 L66.4815385,43.1707317 L70.3707692,35.8536585 L73.6523077,37.0731707 C74.5030769,37.4390244 75.3538462,38.0487805 75.7184615,38.7804878 C76.0830769,39.3902439 76.4476923,40.2439024 76.4476923,41.3414634 C76.4476923,41.3414634 76.9338462,45.4878049 77.0553846,49.5121951 L78.8784615,49.3902439 C78.8784615,45.4878049 78.3923077,41.3414634 78.3923077,41.3414634 Z" id="Shape"></path>
                            <rect id="Rectangle-path" transform="translate(73.145831, 46.927611) rotate(-93.605298) translate(-73.145831, -46.927611) " x="70.5328092" y="46.0129962" width="5.22604431" height="1.82922995"></rect>
                            <path d="M64.9015385,32.9268293 C68.5476923,32.9268293 71.5861538,29.8780488 71.5861538,26.2195122 C71.5861538,22.5609756 68.5476923,19.5121951 64.9015385,19.5121951 C61.2553846,19.5121951 58.2169231,22.5609756 58.2169231,26.2195122 C58.2169231,30 61.2553846,32.9268293 64.9015385,32.9268293 Z M64.9015385,21.3414634 C67.5753846,21.3414634 69.7630769,23.5365854 69.7630769,26.2195122 C69.7630769,28.902439 67.5753846,31.097561 64.9015385,31.097561 C62.2276923,31.097561 60.04,28.902439 60.04,26.2195122 C60.04,23.5365854 62.2276923,21.3414634 64.9015385,21.3414634 Z" id="Shape"></path>
                            <rect id="Rectangle-path" transform="translate(5.938488, 46.888563) rotate(-176.380518) translate(-5.938488, -46.888563) " x="5.02695442" y="44.2666259" width="1.8230672" height="5.24387448"></rect>
                            <path d="M14.0984615,32.9268293 C17.7446154,32.9268293 20.7830769,29.8780488 20.7830769,26.2195122 C20.7830769,22.5609756 17.7446154,19.5121951 14.0984615,19.5121951 C10.4523077,19.5121951 7.41384615,22.5609756 7.41384615,26.2195122 C7.41384615,30 10.4523077,32.9268293 14.0984615,32.9268293 Z M14.0984615,21.3414634 C16.7723077,21.3414634 18.96,23.5365854 18.96,26.2195122 C18.96,28.902439 16.7723077,31.097561 14.0984615,31.097561 C11.4246154,31.097561 9.23692308,28.902439 9.23692308,26.2195122 C9.23692308,23.5365854 11.4246154,21.3414634 14.0984615,21.3414634 Z" id="Shape"></path>
                        </g>
                    </g>
                </g>
            </g>
        </g>
    </g>
</svg>