<?xml version="1.0" encoding="UTF-8"?>
<svg width="44px" height="56px" viewBox="0 0 44 56" version="1.1" xmlns="http://www.w3.org/2000/svg" xmlns:xlink="http://www.w3.org/1999/xlink">
    <!-- Generator: Sketch 45.2 (43514) - http://www.bohemiancoding.com/sketch -->
    <title>noun_791374</title>
    <desc>Created with Sketch.</desc>
    <defs></defs>
    <g id="Page-1" stroke="none" stroke-width="1" fill="none" fill-rule="evenodd">
        <g id="AMADEUS" transform="translate(-261.000000, -1141.000000)" fill-rule="nonzero" fill="#000000">
            <g id="clean-text-panel" transform="translate(-130.000000, 868.000000)">
                <g id="Group-2" transform="translate(269.000000, 273.000000)">
                    <g id="noun_791374" transform="translate(122.000000, 0.000000)">
                        <path d="M2.46941935,55.3948387 C2.36103226,55.3948387 2.25204301,55.3659355 2.15329032,55.3051183 C1.87027957,55.1298925 1.78356989,54.7589677 1.95819355,54.475957 C2.00997849,54.3922581 7.14752688,46.0350108 7.01023656,41.8500645 C6.86933333,37.5495054 5.69212903,32.9773763 4.1464086,30.7295484 C2.52602151,28.3715269 0.196903226,22.8510108 0.34744086,18.4914409 C0.509419355,13.7802151 4.57212903,0.364903226 20.4369892,0.602150538 C27.5905376,0.700903226 36.6282151,2.95294624 39.0578925,13.1226667 L39.1175054,13.3689462 C39.2379355,13.8494624 39.3746237,14.3137204 39.5076989,14.7659355 C39.9502796,16.2695054 40.3687742,17.6893763 40.0652903,19.2092043 C39.7347097,20.8621075 39.8027527,21.0421505 40.6457634,22.480086 C40.8673548,22.8576344 41.2406882,23.3911398 41.6363011,23.9547527 C42.9008172,25.7587957 43.799828,27.1094194 43.855828,28.0644301 C43.9587957,29.8136774 42.8683011,30.3261075 41.8380215,30.6699355 C41.5628387,30.7614624 41.2111828,30.9264516 41.0979785,31.1889892 C41.0227097,31.3624086 41.0510108,31.5924301 41.1810753,31.8742366 C41.5044301,32.5745376 41.4062796,33.1387527 41.2671828,33.488 C41.1425376,33.8005161 40.9366022,34.0732903 40.6662366,34.2912688 C40.9974194,34.9668817 41.0576344,35.7412473 40.1911398,36.6083441 C39.7612043,37.0376774 39.840086,37.2460215 39.9821935,37.6235699 C40.0056774,37.6855914 40.027957,37.7446022 40.0466237,37.8018065 C40.2682151,38.4683871 40.5235269,41.2467097 38.8146237,42.1469247 C38.0938495,42.5262796 36.7221505,42.7021075 35.1348817,42.9056344 C33.6210753,43.0995269 31.7369462,43.3409892 31.2377634,43.7468387 C30.1653333,44.6175484 29.6902366,46.4306237 30.0268387,48.3659355 C30.1906237,49.3107097 29.9750538,50.0971183 29.7251613,51.0075699 C29.4740645,51.9216344 29.1898495,53.1024516 29.1663656,54.6596129 C29.1609462,54.9895914 28.8929892,55.3990538 28.5642151,55.3990538 C28.5612043,55.3990538 28.5581935,55.3990538 28.5551828,55.3990538 C28.2221935,55.3990538 27.9572473,54.9739355 27.9620645,54.6421505 C27.987957,52.9314409 28.3070968,51.695828 28.5636129,50.7618925 C28.7924301,49.9273118 28.9580215,49.2884301 28.84,48.6092043 C28.4293333,46.2517849 29.0730323,43.972043 30.4778495,42.8303656 C31.2431828,42.2083441 33.0592688,41.9662796 34.9813333,41.72 C36.2675269,41.5556129 37.7253333,41.3635269 38.2534194,41.0859355 C39.231914,40.5710968 39.0073118,38.4948817 38.9037419,38.1853763 L38.8549677,38.0498925 C38.6821505,37.5910538 38.3593978,36.736 39.3390968,35.7575054 C39.8063656,35.2896344 39.8075699,35.0903226 39.343914,34.427957 L38.907957,33.8053333 L39.6136774,33.5235269 C39.8726022,33.419957 40.0670968,33.2447312 40.1477849,33.0430108 C40.2236559,32.8539355 40.2031828,32.6299355 40.0869677,32.3794409 C39.7389247,31.6249462 39.8436989,31.0565161 39.9924301,30.7114839 C40.2254624,30.1725591 40.7180215,29.7745376 41.4574624,29.5282581 C42.4769032,29.188043 42.7003011,28.927914 42.6539355,28.1354839 C42.6135914,27.447828 41.432172,25.7618065 40.6505806,24.6466237 C40.2405161,24.0619355 39.8539355,23.5097634 39.6082581,23.0900645 C38.6297634,21.4209032 38.4876559,20.9644731 38.8856774,18.9743656 C39.1307527,17.7459785 38.7712688,16.5236129 38.3533763,15.107957 C38.2154839,14.640086 38.0745806,14.1595699 37.9505376,13.6627957 L37.887914,13.403871 C36.0808602,5.84266667 30.203871,1.94133333 20.4207312,1.80645161 C20.2924731,1.80464516 20.1636129,1.80404301 20.0371613,1.80404301 C2.61754839,1.80404301 1.55595699,18.3643871 1.54993548,18.5329892 C1.40963441,22.6221935 3.60808602,27.8211613 5.13815054,30.047914 C6.80068817,32.4661505 8.06460215,37.3032258 8.21212903,41.8103226 C8.36206452,46.3583656 3.20163441,54.7547527 2.98124731,55.1100215 C2.86804301,55.2936774 2.67113978,55.3948387 2.46941935,55.3948387 Z" id="Shape"></path>
                        <path d="M32.1572473,16.7235269 C32.3667957,16.3393548 32.536,15.9443441 32.679914,15.5445161 L31.1420215,14.0156559 C31.2166882,13.6477419 31.2552258,13.2774194 31.2642581,12.9076989 L33.1110538,11.7630108 C33.0604731,11.3348817 32.9821935,10.9115699 32.8665806,10.4972903 C32.8563441,10.459957 32.8455054,10.4226237 32.8346667,10.3852903 C32.7136344,9.9728172 32.555871,9.5723871 32.3722151,9.18219355 L30.1996559,9.18821505 C29.996129,8.87931183 29.7673118,8.58546237 29.5095914,8.31268817 L30.0057634,6.20154839 C29.672172,5.9384086 29.319914,5.69273118 28.9387527,5.47776344 C28.9218925,5.46812903 28.9074409,5.45729032 28.8905806,5.44765591 C28.8737204,5.43862366 28.8562581,5.432 28.84,5.42296774 C28.455828,5.21341935 28.0608172,5.04421505 27.6615914,4.90090323 L26.1327312,6.4387957 C25.7648172,6.36412903 25.3944946,6.3255914 25.0247742,6.31595699 L23.880086,4.46916129 C23.451957,4.51974194 23.0286452,4.59802151 22.6143656,4.71303226 C22.5770323,4.72326882 22.5396989,4.73410753 22.5023656,4.74494624 C22.0898925,4.86597849 21.6894624,5.02434409 21.2992688,5.20739785 L21.3052903,7.37995699 C20.9963871,7.58348387 20.7025376,7.81230108 20.4297634,8.07002151 L18.3186237,7.57384946 C18.0554839,7.90744086 17.8098065,8.25969892 17.5948387,8.64086022 C17.5852043,8.65772043 17.5743656,8.67217204 17.5647312,8.68903226 C17.5550968,8.70589247 17.5490753,8.72335484 17.540043,8.7396129 C17.3304946,9.12378495 17.1612903,9.5187957 17.0179785,9.91862366 L18.555871,11.4474839 C18.4812043,11.8153978 18.4426667,12.1857204 18.4336344,12.5554409 L16.5868387,13.700129 C16.6374194,14.1282581 16.7156989,14.5515699 16.8313118,14.9658495 C16.8415484,15.0031828 16.8523871,15.0405161 16.8632258,15.0778495 C16.9842581,15.4903226 17.1426237,15.8907527 17.3256774,16.2809462 L19.4982366,16.2749247 C19.7017634,16.583828 19.9305806,16.8782796 20.1889032,17.1504516 L19.6927312,19.2615914 C20.0263226,19.5247312 20.3785806,19.7704086 20.7597419,19.9853763 C20.7766022,19.9944086 20.7910538,20.0058495 20.807914,20.0154839 C20.8247742,20.0245161 20.8422366,20.0311398 20.8584946,20.040172 C21.2426667,20.2497204 21.6376774,20.4189247 22.0369032,20.5622366 L23.5657634,19.0243441 C23.9336774,19.0990108 24.304,19.1375484 24.6737204,19.1465806 L25.8184086,20.9933763 C26.2459355,20.9427957 26.6698495,20.8645161 27.0835269,20.7495054 C27.1208602,20.7392688 27.1581935,20.7284301 27.1955269,20.7175914 C27.608,20.5965591 28.0084301,20.4381935 28.3986237,20.2551398 L28.3926022,18.0825806 C28.7015054,17.8790538 28.9953548,17.6502366 29.268129,17.3925161 L31.3792688,17.8886882 C31.6424086,17.5550968 31.888086,17.2028387 32.1030538,16.8216774 C32.1126882,16.8048172 32.1235269,16.7903656 32.1331613,16.7735054 C32.1415914,16.7578495 32.1482151,16.7403871 32.1572473,16.7235269 Z M28.8634839,16.0611613 C28.3938065,16.6277849 27.8205591,17.0775914 27.1858925,17.3949247 L27.1913118,19.4500645 C26.9366022,19.5385806 26.6776774,19.6126452 26.4145376,19.6722581 L25.331871,17.9254194 C24.6249462,17.9922581 23.9005591,17.9139785 23.2026667,17.6815484 L21.7526882,19.1405591 C21.6316559,19.0821505 21.5100215,19.0291613 21.3907957,18.9629247 C21.2715699,18.8966882 21.1625806,18.8214194 21.0487742,18.7497634 L21.5196559,16.7470108 C20.9530323,16.2773333 20.5032258,15.704086 20.1858925,15.0694194 L18.1307527,15.0748387 C18.0422366,14.820129 17.968172,14.5612043 17.9085591,14.2980645 L19.6553978,13.2153978 C19.5885591,12.5084731 19.6668387,11.784086 19.8992688,11.0861935 L18.4402581,9.63621505 C18.4986667,9.5151828 18.5516559,9.39354839 18.6172903,9.27432258 C18.6829247,9.15569892 18.7587957,9.04610753 18.8304516,8.93230108 L20.8326022,9.4031828 C21.3022796,8.83655914 21.8755269,8.38675269 22.5107957,8.06941935 L22.5053763,6.01427957 C22.760086,5.92576344 23.0190108,5.85169892 23.2821505,5.79208602 L24.3648172,7.53892473 C25.0717419,7.47208602 25.796129,7.55036559 26.4940215,7.7827957 L27.944,6.32378495 C28.0650323,6.38219355 28.1866667,6.4351828 28.3058925,6.50141935 C28.4245161,6.56705376 28.5341075,6.64292473 28.647914,6.71458065 L28.1770323,8.71733333 C28.7436559,9.18701075 29.1934624,9.76025806 29.5107957,10.3949247 L31.5659355,10.3889032 C31.6544516,10.6436129 31.7285161,10.9025376 31.788129,11.1650753 L30.0412903,12.2477419 C30.108129,12.9546667 30.0298495,13.6790538 29.7974194,14.3775484 L31.2564301,15.8275269 C31.1980215,15.9485591 31.1450323,16.0701935 31.0787957,16.1894194 C31.0131613,16.308043 30.9372903,16.4176344 30.8656344,16.5314409 L28.8634839,16.0611613 Z" id="Shape"></path>
                        <path d="M24.9097634,15.5138065 C24.423828,15.5138065 23.943914,15.3903656 23.507957,15.1483011 C22.1109677,14.3727312 21.6051613,12.6054194 22.3807312,11.2084301 C23.1556989,9.81204301 24.9218065,9.30563441 26.3206022,10.0806022 C27.7169892,10.856172 28.2233978,12.6234839 27.447828,14.0204731 L27.447828,14.0204731 C27.0726882,14.6972903 26.456086,15.1874409 25.7112258,15.4006022 C25.4474839,15.475871 25.1771183,15.5138065 24.9097634,15.5138065 Z M24.9175914,10.9212043 C24.3214624,10.9212043 23.7427957,11.2355269 23.4332903,11.7925161 C23.2141075,12.188129 23.1617204,12.6451613 23.2863656,13.079914 C23.4104086,13.5146667 23.6970323,13.8753548 24.0926452,14.0945376 C24.4876559,14.3149247 24.9458925,14.3661075 25.3806452,14.2420645 C25.8153978,14.1174194 26.1754839,13.8307957 26.395871,13.4357849 L26.395871,13.4357849 C26.8486882,12.6192688 26.5530323,11.5859785 25.7365161,11.1331613 C25.4769892,10.9892473 25.1951828,10.9212043 24.9175914,10.9212043 Z" id="Shape"></path>
                        <circle id="Oval" cx="11.9189677" cy="23.824086" r="1"></circle>
                        <path d="M15.4331183,23.2610753 C15.4276989,23.2255484 15.4252903,23.1906237 15.4180645,23.1550968 C15.4108387,23.1195699 15.4006022,23.0858495 15.3927742,23.0509247 L16.3694624,21.4022366 C16.0166022,20.7555269 15.5282581,20.2051613 14.952,19.7734194 L13.1846882,20.4984086 C13.1184516,20.4731183 13.0522151,20.4466237 12.984172,20.4249462 L12.047828,18.7587957 C11.691957,18.7497634 11.3306667,18.7756559 10.9669677,18.8455054 C10.6032688,18.9147527 10.2576344,19.0243441 9.93066667,19.164043 L9.67475269,21.0578065 C9.61935484,21.1029677 9.56817204,21.1517419 9.5163871,21.199914 L7.60576344,21.1782366 C7.2288172,21.791828 6.97832258,22.4836989 6.8892043,23.2147097 L8.4048172,24.3870968 C8.41023656,24.4226237 8.41264516,24.4575484 8.41987097,24.4930753 C8.42649462,24.5286022 8.43733333,24.5623226 8.44516129,24.5972473 L7.46847312,26.2459355 C7.82133333,26.8926452 8.30967742,27.4430108 8.88593548,27.8747527 L10.6538495,27.1497634 C10.720086,27.1750538 10.7857204,27.2015484 10.8531613,27.2226237 L11.7895054,28.8887742 C12.1453763,28.8978065 12.5066667,28.871914 12.8703656,28.8020645 C13.2340645,28.7328172 13.5796989,28.6232258 13.9066667,28.4835269 L14.1625806,26.5897634 C14.2179785,26.5446022 14.2691613,26.495828 14.3215484,26.4476559 L16.232172,26.4693333 C16.6091183,25.8557419 16.8596129,25.163871 16.9487312,24.4328602 L15.4331183,23.2610753 Z M15.5023656,25.2566022 L13.7952688,25.2373333 C13.595957,25.5022796 13.3406452,25.7214624 13.0431828,25.8846452 L12.8143656,27.5778925 C12.7577634,27.5911398 12.7023656,27.6086022 12.6445591,27.6194409 C12.5867527,27.6302796 12.5295484,27.6350968 12.4717419,27.6435269 L11.6353548,26.1544086 C11.2987527,26.1128602 10.9802151,26.0032688 10.6972043,25.8304516 L9.11776344,26.4783656 C9.03767742,26.3940645 8.96060215,26.3061505 8.88774194,26.2140215 L9.75423656,24.7513978 C9.68860215,24.5984516 9.63621505,24.4370753 9.60369892,24.2672688 C9.5711828,24.0968602 9.56094624,23.9282581 9.56516129,23.7614624 L8.21995699,22.7215484 C8.25367742,22.6095484 8.2928172,22.4993548 8.33617204,22.3909677 L10.043871,22.4102366 C10.2431828,22.1452903 10.4984946,21.9255054 10.795957,21.7629247 L11.024172,20.0702796 C11.0807742,20.0570323 11.136172,20.040172 11.1939785,20.0287312 C11.2517849,20.0178925 11.3095914,20.0130753 11.3673978,20.0046452 L12.2049892,21.4937634 C12.5415914,21.5353118 12.8595269,21.6449032 13.1425376,21.8177204 L14.7219785,21.1698065 C14.8026667,21.2547097 14.8791398,21.3420215 14.952,21.4341505 L14.0861075,22.8967742 C14.1517419,23.0497204 14.204129,23.2110968 14.2366452,23.3809032 C14.2691613,23.5513118 14.2793978,23.719914 14.2751828,23.8867097 L15.6197849,24.9266237 C15.5854624,25.0386237 15.5463226,25.1488172 15.5023656,25.2566022 Z" id="Shape"></path>
                        <path d="M35.5202581,10.9657634 C35.3751398,10.4436989 35.1890753,9.93789247 34.9674839,9.4627957 L33.8757849,9.9716129 C34.0690753,10.3870968 34.2322581,10.8302796 34.3605161,11.2891183 L35.5202581,10.9657634 Z" id="Shape"></path>
                        <path d="M5.39827957,25.3950968 L4.25419355,25.772043 C4.57935484,26.7577634 5.09419355,27.6935054 5.78425806,28.5527742 L6.72301075,27.7988817 C6.12326882,27.0522151 5.67767742,26.2435269 5.39827957,25.3950968 Z" id="Shape"></path>
                        <path d="M5.06227957,23.352 C5.06288172,22.772129 5.14537634,22.2006882 5.30615054,21.6539355 L4.15122581,21.3131183 C3.95733333,21.9700645 3.85858065,22.655914 3.85797849,23.3513978 C3.85797849,23.7409892 3.88929032,24.1353978 3.95070968,24.5231828 L5.13995699,24.3347097 C5.08877419,24.0089462 5.06227957,23.6783656 5.06227957,23.352 Z" id="Shape"></path>
                        <path d="M6.63690323,29.487914 C7.41126882,30.2351828 8.2928172,30.8343226 9.25686022,31.2684731 L9.75062366,30.1701505 C8.91363441,29.7932043 8.14769892,29.2723441 7.47329032,28.6214194 L6.63690323,29.487914 Z" id="Shape"></path>
                        <path d="M7.41126882,18.548043 L6.64473118,17.6195269 C5.78305376,18.3312688 5.10503226,19.1676559 4.62993548,20.1064086 L5.70356989,20.6507527 C6.104,19.8607312 6.67845161,19.1538065 7.41126882,18.548043 Z" id="Shape"></path>
                        <path d="M17.6062796,20.2653763 L18.4167742,19.3747957 C18.0572903,19.047828 17.7134624,18.7033978 17.3943226,18.3517419 C17.036043,17.9585376 16.6380215,17.6008602 16.2092903,17.2883441 L15.499957,18.2614194 C15.8624516,18.5257634 16.2002581,18.8286452 16.5031398,19.1616344 C16.8475699,19.5415914 17.2190968,19.9125161 17.6062796,20.2653763 Z" id="Shape"></path>
                        <path d="M10.8664086,17.0432688 L10.7230968,15.8473978 C9.65187097,15.9756559 8.63122581,16.3236989 7.69187097,16.8812903 L8.30666667,17.9169892 C9.10090323,17.4449032 9.96197849,17.1510538 10.8664086,17.0432688 Z" id="Shape"></path>
                        <path d="M10.7875269,30.5507097 L10.452129,31.708043 C11.275871,31.9464946 12.1315269,32.068129 12.9962151,32.0687312 C13.1985376,32.0687312 13.4014624,32.0615054 13.6025806,32.0488602 L13.5236989,30.8469677 C12.6012043,30.9095914 11.6702796,30.8066237 10.7875269,30.5507097 Z" id="Shape"></path>
                        <path d="M30.5187957,21.1312688 C30.4073978,21.2077419 30.2966022,21.2812043 30.1846022,21.3510538 L30.8252903,22.3704946 C30.9511398,22.2916129 31.0763871,22.2085161 31.2016344,22.1224086 C31.9651613,21.5967312 32.6486022,21.0108387 33.2332903,20.3809892 L32.3511398,19.5620645 C31.8260645,20.1274839 31.2100645,20.6555699 30.5187957,21.1312688 Z" id="Shape"></path>
                        <path d="M12.0129032,15.8022366 L11.9526882,17.0053333 C12.8667527,17.0504946 13.7464946,17.2829247 14.5690323,17.6953978 L15.1085591,16.6187527 C14.1366882,16.1304086 13.0943656,15.855828 12.0129032,15.8022366 Z" id="Shape"></path>
                        <path d="M35.784,12.2025806 L34.5923441,12.3796129 C34.6567742,12.8155699 34.6898925,13.2575484 34.6898925,13.6947097 C34.6898925,14.1848602 34.6489462,14.6756129 34.5670538,15.1525161 L35.7538925,15.356043 C35.8472258,14.8123011 35.8941935,14.2529032 35.8941935,13.6947097 C35.8941935,13.1979355 35.8574624,12.6963441 35.784,12.2025806 Z" id="Shape"></path>
                        <path d="M26.5548387,22.6306237 L26.6686452,23.8295054 C27.7115699,23.7301505 28.7388387,23.4447312 29.7209462,22.9792688 L29.2061075,21.8905806 C28.3504516,22.2964301 27.4586667,22.5451183 26.5548387,22.6306237 Z" id="Shape"></path>
                        <path d="M33.0622796,18.7003871 L34.035957,19.4085161 C34.6670108,18.5402151 35.1451183,17.591828 35.4576344,16.5892473 L34.3075269,16.2309677 C34.0347527,17.1076989 33.6156559,17.9386667 33.0622796,18.7003871 Z" id="Shape"></path>
                        <path d="M22.3150968,23.2135054 C23.3453763,23.5952688 24.3822796,23.8126452 25.3956989,23.8602151 L25.4523011,22.6571183 C24.5617204,22.6155699 23.6476559,22.4228817 22.7335914,22.0844731 L22.3150968,23.2135054 Z" id="Shape"></path>
                        <path d="M18.5486452,21.0626237 C19.3904516,21.7243871 20.2707957,22.2813763 21.1643871,22.7191398 L21.6948817,21.6376774 C20.8771613,21.2366452 20.0690753,20.7242151 19.2923011,20.1148387 L18.5486452,21.0626237 Z" id="Shape"></path>
                        <path d="M15.4114409,30.4868817 C15.1627527,30.5657634 14.9104516,30.6356129 14.6545376,30.6898065 L14.9050323,31.8682151 C15.2819785,31.7875269 15.6510968,31.676129 16.0135914,31.5496774 L16.6139355,32.6100645 L18.4408602,29.5053763 L14.8381935,29.4752688 L15.4114409,30.4868817 Z" id="Shape"></path>
                        <path d="M13.8566882,13.3406452 C13.8542796,13.3225806 13.788043,12.8932473 13.788043,12.2170323 C13.788043,11.5197419 13.8554839,10.8188387 13.9897634,10.1335914 L15.1717849,10.3648172 C15.0531613,10.9741935 14.9923441,11.5974194 14.9923441,12.2170323 C14.9923441,12.7914839 15.0465376,13.1515699 15.0471398,13.1551828 L13.8566882,13.3406452 Z M15.4553978,9.27191398 L14.3113118,8.89617204 C14.652129,7.85625806 15.1555269,6.90365591 15.8058495,6.06546237 L16.7572473,6.80430108 C16.191828,7.53290323 15.7534624,8.36326882 15.4553978,9.27191398 Z M17.5033118,5.97152688 L16.6645161,5.10683871 C17.4015484,4.39208602 18.2788817,3.77969892 19.2730323,3.28533333 L19.8095484,4.36378495 C18.9267957,4.80335484 18.1512258,5.34408602 17.5033118,5.97152688 Z" id="Shape"></path>
                    </g>
                </g>
            </g>
        </g>
    </g>
</svg>