<?xml version="1.0" encoding="UTF-8"?>
<svg width="29px" height="49px" viewBox="0 0 29 49" version="1.1" xmlns="http://www.w3.org/2000/svg" xmlns:xlink="http://www.w3.org/1999/xlink">
    <!-- Generator: Sketch 46.2 (44496) - http://www.bohemiancoding.com/sketch -->
    <title>noun_688695</title>
    <desc>Created with Sketch.</desc>
    <defs></defs>
    <g id="Page-1" stroke="none" stroke-width="1" fill="none" fill-rule="evenodd">
        <g id="PHILIPS" transform="translate(-706.000000, -1660.000000)" fill-rule="nonzero" fill="#0BD1BB">
            <g id="Group-3" transform="translate(139.000000, 1647.000000)">
                <g id="Group-2-Copy" transform="translate(435.000000, 7.000000)">
                    <g id="noun_688695" transform="translate(132.000000, 6.000000)">
                        <path d="M24.4055767,49 C26.9416075,48.9966675 28.9966254,46.9673177 29,44.462963 L29,4.53703704 C28.9966254,2.03268233 26.9416075,0.00333247909 24.4055767,0 L4.59442332,0 C2.05839252,0.00333247909 0.00337462963,2.03268233 0,4.53703704 L0,44.462963 C0.00337462963,46.9673177 2.05839252,48.9966675 4.59442332,49 L24.4055767,49 Z M1.83776933,4.53703704 C1.83776933,3.03359522 3.07196536,1.81481481 4.59442332,1.81481481 L24.4055767,1.81481481 C25.9280346,1.81481481 27.1622307,3.03359522 27.1622307,4.53703704 L27.1622307,8.1182716 L1.83776933,8.1182716 L1.83776933,4.53703704 Z M1.83776933,9.93308642 L27.1622307,9.93308642 L27.1622307,36.2418519 L1.83776933,36.2418519 L1.83776933,9.93308642 Z M1.83776933,44.462963 L1.83776933,38.0566667 L27.1622307,38.0566667 L27.1622307,44.462963 C27.1622307,45.9664048 25.9280346,47.1851852 24.4055767,47.1851852 L4.59442332,47.1851852 C3.07196536,47.1851852 1.83776933,45.9664048 1.83776933,44.462963 Z" id="Shape"></path>
                        <path d="M14.5,46 C15.8807119,46 17,44.8807119 17,43.5 C17,42.1192881 15.8807119,41 14.5,41 C13.1192881,41 12,42.1192881 12,43.5 C12,44.8807119 13.1192881,46 14.5,46 Z M14.5,42.875 C14.845178,42.875 15.125,43.154822 15.125,43.5 C15.125,43.845178 14.845178,44.125 14.5,44.125 C14.154822,44.125 13.875,43.845178 13.875,43.5 C13.875,43.154822 14.154822,42.875 14.5,42.875 Z" id="Shape"></path>
                        <path d="M18.0605428,4 L10.9394572,4 C10.4206093,4.00000002 10,4.44771527 10,5 C10,5.55228473 10.4206093,5.99999998 10.9394572,6 L18.0605428,6 C18.5793907,6 19,5.55228475 19,5 C19,4.44771525 18.5793907,4 18.0605428,4 L18.0605428,4 Z" id="Shape"></path>
                        <path d="M5.97204614,18 C6.22491954,17.999777 6.46735469,17.8989676 6.64605186,17.7197349 L9.72358741,14.6368186 C10.0958305,14.2586479 10.0915603,13.6497898 9.71404959,13.2768959 C9.33653892,12.904002 8.72874342,12.9082797 8.35650034,13.2864504 L5.27896479,16.3693666 C5.00653892,16.6426083 4.92510136,17.0532671 5.072583,17.4100719 C5.22006463,17.7668767 5.56746257,17.9996603 5.95297051,18 L5.97204614,18 Z" id="Shape"></path>
                        <path d="M16.4157813,13.2718089 L5.29418736,24.3995645 C5.04692053,24.6299701 4.94513668,24.97697 5.02876569,25.3044357 C5.11239471,25.6319015 5.36809848,25.8876053 5.69556426,25.9712343 C6.02303003,26.0548633 6.37002988,25.9530795 6.60043552,25.7058126 L17.7281911,14.5842187 C18.090603,14.2218067 18.090603,13.6342209 17.7281911,13.2718089 C17.3657791,12.909397 16.7781933,12.909397 16.4157813,13.2718089 Z" id="Shape"></path>
                        <path d="M15.4109737,21.2535961 L5.3007596,31.3638103 C5.04796875,31.5993632 4.94391102,31.9541152 5.02940833,32.2888966 C5.11490564,32.6236781 5.37632192,32.8850944 5.71110338,32.9705917 C6.04588484,33.056089 6.40063678,32.9520313 6.63618975,32.6992404 L16.7464039,22.5890263 C17.0933119,22.2167314 17.0830757,21.6365752 16.7232503,21.2767497 C16.3634248,20.9169243 15.7832686,20.9066881 15.4109737,21.2535961 L15.4109737,21.2535961 Z" id="Shape"></path>
                    </g>
                </g>
            </g>
        </g>
    </g>
</svg>