<?xml version="1.0" encoding="UTF-8"?>
<svg width="90px" height="102px" viewBox="0 0 90 102" version="1.1" xmlns="http://www.w3.org/2000/svg" xmlns:xlink="http://www.w3.org/1999/xlink">
    <!-- Generator: Sketch 46.2 (44496) - http://www.bohemiancoding.com/sketch -->
    <title>noun_694252</title>
    <desc>Created with Sketch.</desc>
    <defs></defs>
    <g id="Symbols" stroke="none" stroke-width="1" fill="none" fill-rule="evenodd">
        <g id="Enterprise-Pnael" transform="translate(-159.000000, -89.000000)" fill-rule="nonzero" fill="#CF0D7D">
            <g id="Enterprise">
                <g id="noun_694252" transform="translate(159.000000, 89.000000)">
                    <path d="M55.1034483,30.4827586 L34,30.4827586 C33.2965517,30.4827586 32.8275862,30.0137931 32.8275862,29.3103448 C32.8275862,28.6068966 33.2965517,28.137931 34,28.137931 L55.1034483,28.137931 C55.8068966,28.137931 56.2758621,28.6068966 56.2758621,29.3103448 C56.2758621,30.0137931 55.8068966,30.4827586 55.1034483,30.4827586 Z M56.2758621,37.5172414 C56.2758621,36.8137931 55.8068966,36.3448276 55.1034483,36.3448276 L34,36.3448276 C33.2965517,36.3448276 32.8275862,36.8137931 32.8275862,37.5172414 C32.8275862,38.2206897 33.2965517,38.6896552 34,38.6896552 L55.1034483,38.6896552 C55.8068966,38.6896552 56.2758621,38.2206897 56.2758621,37.5172414 Z M56.2758621,45.7241379 C56.2758621,45.0206897 55.8068966,44.5517241 55.1034483,44.5517241 L34,44.5517241 C33.2965517,44.5517241 32.8275862,45.0206897 32.8275862,45.7241379 C32.8275862,46.4275862 33.2965517,46.8965517 34,46.8965517 L55.1034483,46.8965517 C55.8068966,46.8965517 56.2758621,46.4275862 56.2758621,45.7241379 Z M56.2758621,53.9310345 C56.2758621,53.2275862 55.8068966,52.7586207 55.1034483,52.7586207 L34,52.7586207 C33.2965517,52.7586207 32.8275862,53.2275862 32.8275862,53.9310345 C32.8275862,54.6344828 33.2965517,55.1034483 34,55.1034483 L55.1034483,55.1034483 C55.8068966,55.1034483 56.2758621,54.6344828 56.2758621,53.9310345 Z M56.2758621,62.137931 C56.2758621,61.4344828 55.8068966,60.9655172 55.1034483,60.9655172 L34,60.9655172 C33.2965517,60.9655172 32.8275862,61.4344828 32.8275862,62.137931 C32.8275862,62.8413793 33.2965517,63.3103448 34,63.3103448 L55.1034483,63.3103448 C55.8068966,63.3103448 56.2758621,62.8413793 56.2758621,62.137931 Z M56.2758621,70.3448276 C56.2758621,69.6413793 55.8068966,69.1724138 55.1034483,69.1724138 L34,69.1724138 C33.2965517,69.1724138 32.8275862,69.6413793 32.8275862,70.3448276 C32.8275862,71.0482759 33.2965517,71.5172414 34,71.5172414 L55.1034483,71.5172414 C55.8068966,71.5172414 56.2758621,71.0482759 56.2758621,70.3448276 Z M56.2758621,78.5517241 C56.2758621,77.8482759 55.8068966,77.3793103 55.1034483,77.3793103 L34,77.3793103 C33.2965517,77.3793103 32.8275862,77.8482759 32.8275862,78.5517241 C32.8275862,79.2551724 33.2965517,79.7241379 34,79.7241379 L55.1034483,79.7241379 C55.8068966,79.7241379 56.2758621,79.2551724 56.2758621,78.5517241 Z M56.2758621,86.7586207 C56.2758621,86.0551724 55.8068966,85.5862069 55.1034483,85.5862069 L34,85.5862069 C33.2965517,85.5862069 32.8275862,86.0551724 32.8275862,86.7586207 C32.8275862,87.462069 33.2965517,87.9310345 34,87.9310345 L55.1034483,87.9310345 C55.8068966,87.9310345 56.2758621,87.462069 56.2758621,86.7586207 Z M87.9310345,99.6551724 L80.8965517,99.6551724 L80.8965517,52.7586207 C80.8965517,52.0551724 80.4275862,51.5862069 79.7241379,51.5862069 L76.2068966,51.5862069 L76.2068966,45.7241379 C76.2068966,45.0206897 75.737931,44.5517241 75.0344828,44.5517241 L65.6551724,44.5517241 L65.6551724,18.7586207 C65.6551724,18.0551724 65.1862069,17.5862069 64.4827586,17.5862069 L57.4482759,17.5862069 L57.4482759,11.7241379 C57.4482759,11.0206897 56.9793103,10.5517241 56.2758621,10.5517241 L45.7241379,10.5517241 L45.7241379,1.17241379 C45.7241379,0.468965517 45.2551724,0 44.5517241,0 C43.8482759,0 43.3793103,0.468965517 43.3793103,1.17241379 L43.3793103,10.5517241 L32.8275862,10.5517241 C32.1241379,10.5517241 31.6551724,11.0206897 31.6551724,11.7241379 L31.6551724,17.5862069 L24.6206897,17.5862069 C23.9172414,17.5862069 23.4482759,18.0551724 23.4482759,18.7586207 L23.4482759,44.5517241 L14.0689655,44.5517241 C13.3655172,44.5517241 12.8965517,45.0206897 12.8965517,45.7241379 L12.8965517,51.5862069 L9.37931034,51.5862069 C8.67586207,51.5862069 8.20689655,52.0551724 8.20689655,52.7586207 L8.20689655,99.6551724 L1.17241379,99.6551724 C-0.351724138,99.6551724 -0.351724138,102 1.17241379,102 C20.6344828,102 79.2551724,102 87.9310345,102 C89.4551724,102 89.4551724,99.6551724 87.9310345,99.6551724 Z M65.6551724,46.8965517 L73.862069,46.8965517 L73.862069,52.7586207 L65.6551724,52.7586207 L65.6551724,46.8965517 Z M34,12.8965517 L55.1034483,12.8965517 L55.1034483,18.7586207 L34,18.7586207 L34,12.8965517 Z M15.2413793,46.8965517 L23.4482759,46.8965517 L23.4482759,52.7586207 L15.2413793,52.7586207 L15.2413793,46.8965517 Z M10.5517241,99.6551724 L10.5517241,53.9310345 C15.8275862,53.9310345 16.4137931,53.9310345 23.4482759,53.9310345 L23.4482759,99.6551724 L10.5517241,99.6551724 Z M25.7931034,99.6551724 C25.7931034,82.6551724 25.7931034,36.8137931 25.7931034,19.9310345 C38.2206897,19.9310345 50.7655172,19.9310345 63.3103448,19.9310345 C63.3103448,60.4965517 63.3103448,59.3241379 63.3103448,99.6551724 L25.7931034,99.6551724 Z M65.6551724,99.6551724 L65.6551724,53.9310345 C72.6896552,53.9310345 73.2758621,53.9310345 78.5517241,53.9310345 L78.5517241,99.6551724 L65.6551724,99.6551724 Z" id="Shape"></path>
                </g>
            </g>
        </g>
    </g>
</svg>