<?xml version="1.0" encoding="UTF-8"?>
<svg width="37px" height="36px" viewBox="0 0 37 36" version="1.1" xmlns="http://www.w3.org/2000/svg" xmlns:xlink="http://www.w3.org/1999/xlink">
    <!-- Generator: Sketch 48 (47235) - http://www.bohemiancoding.com/sketch -->
    <title>Logo-2C-PMS-0p5in-R</title>
    <desc>Created with Sketch.</desc>
    <defs></defs>
    <g id="Page-1" stroke="none" stroke-width="1" fill="none" fill-rule="evenodd">
        <g id="Logo-2C-PMS-0p5in-R">
            <path d="M33.403,0 L2.723,0 C1.258,0 0.067,1.162 0.067,2.596 L0.067,33.402 C0.067,34.836 1.258,36 2.723,36 L33.403,36 C34.872,36 36.066,34.836 36.066,33.402 L36.066,2.596 C36.066,1.162 34.872,0 33.403,0" id="Fill-10" fill="#FFFFFF"></path>
            <path d="M8.075,4.956 C9.783,4.956 11.17,6.343 11.17,8.052 C11.17,9.762 9.783,11.149 8.075,11.149 C6.36,11.149 4.978,9.762 4.978,8.052 C4.978,6.343 6.36,4.956 8.075,4.956 Z M5.402,30.676 L10.746,30.676 L10.746,13.496 L5.402,13.496 L5.402,30.676 Z" id="Fill-12" fill="#2A2A2B"></path>
            <path d="M14.096,13.496 L19.214,13.496 L19.214,15.845 L19.287,15.845 C19.999,14.494 21.742,13.07 24.34,13.07 C29.745,13.07 30.744,16.627 30.744,21.254 L30.744,30.676 L25.406,30.676 L25.406,22.321 C25.406,20.329 25.371,17.766 22.631,17.766 C19.853,17.766 19.429,19.937 19.429,22.179 L19.429,30.676 L14.096,30.676 L14.096,13.496" id="Fill-13" fill="#2A2A2B"></path>
        </g>
    </g>
</svg>