<?xml version="1.0" encoding="UTF-8"?>
<svg width="67px" height="59px" viewBox="0 0 67 59" version="1.1" xmlns="http://www.w3.org/2000/svg" xmlns:xlink="http://www.w3.org/1999/xlink">
    <!-- Generator: Sketch 46.1 (44463) - http://www.bohemiancoding.com/sketch -->
    <title>noun_995918</title>
    <desc>Created with Sketch.</desc>
    <defs></defs>
    <g id="Page-1" stroke="none" stroke-width="1" fill="none" fill-rule="evenodd">
        <g id="About" transform="translate(-687.000000, -1535.000000)" fill-rule="nonzero" fill="#1E2128">
            <g id="services" transform="translate(94.000000, 1531.000000)">
                <g id="Strategy" transform="translate(480.000000, 4.000000)">
                    <g id="noun_995918" transform="translate(113.000000, 0.000000)">
                        <rect id="Rectangle-path" x="59.3" y="4.2" width="1.5" height="1.5"></rect>
                        <rect id="Rectangle-path" x="55.5" y="4.2" width="1.5" height="1.5"></rect>
                        <rect id="Rectangle-path" x="51.7" y="4.2" width="1.5" height="1.5"></rect>
                        <rect id="Rectangle-path" x="6.2" y="4.2" width="40.3" height="1.5"></rect>
                        <path d="M66.3,49.9 L66.3,0.5 L0.7,0.5 L0.7,49.9 L23,49.9 L23,57 L18.6,57 L18.6,58.5 L48.2,58.5 L48.2,57 L43.8,57 L43.8,49.8 L66.3,49.8 L66.3,49.9 Z M64.8,43.2 L2.3,43.2 L2.3,9.4 L64.8,9.4 L64.8,43.2 Z M64.8,2 L64.8,8 L2.3,8 L2.3,2 L64.8,2 Z M2.3,48.4 L2.3,44.7 L64.8,44.7 L64.8,48.4 L2.3,48.4 Z M42.4,57 L24.6,57 L24.6,49.8 L42.5,49.8 L42.5,57 L42.4,57 Z" id="Shape"></path>
                        <polygon id="Shape" points="23.4 31 21.5 33 19.5 31 18.4 32.1 20.4 34.1 18.4 36 19.5 37.1 21.5 35.1 23.4 37.1 24.5 36 22.5 34.1 24.5 32.1"></polygon>
                        <polygon id="Shape" points="47.7 21.4 49.7 19.4 51.7 21.4 52.7 20.3 50.8 18.4 52.7 16.4 51.7 15.3 49.7 17.3 47.7 15.3 46.7 16.4 48.7 18.4 46.7 20.3"></polygon>
                        <path d="M12.9,24.2 C14.3,24.2 15.4,23.3 15.7,22 L29.7,22 C31.3,22 32.6,23.3 32.6,24.9 L32.6,30.5 C32.6,32.9 34.6,34.9 37,34.9 L54.5,34.9 L52.4,37 L53.5,38.1 L57.4,34.2 L53.5,30.3 L52.4,31.4 L54.5,33.5 L37,33.5 C35.4,33.5 34.1,32.2 34.1,30.6 L34.1,25 C34.1,22.6 32.1,20.6 29.7,20.6 L15.7,20.6 C15.4,19.3 14.2,18.4 12.9,18.4 C11.3,18.4 9.9,19.7 9.9,21.4 C9.9,23.1 11.3,24.2 12.9,24.2 Z M12.9,19.8 C13.7,19.8 14.4,20.5 14.4,21.3 C14.4,22.1 13.7,22.8 12.9,22.8 C12.1,22.8 11.4,22.1 11.4,21.3 C11.5,20.5 12.1,19.8 12.9,19.8 Z" id="Shape"></path>
                        <path d="M41.1,29.2 C42.7,29.2 44.1,27.9 44.1,26.2 C44.1,24.6 42.8,23.2 41.1,23.2 C39.5,23.2 38.1,24.5 38.1,26.2 C38.2,27.9 39.5,29.2 41.1,29.2 Z M41.1,24.8 C41.9,24.8 42.6,25.5 42.6,26.3 C42.6,27.1 41.9,27.8 41.1,27.8 C40.3,27.8 39.6,27.1 39.6,26.3 C39.6,25.5 40.3,24.8 41.1,24.8 Z" id="Shape"></path>
                    </g>
                </g>
            </g>
        </g>
    </g>
</svg>