<?xml version="1.0" encoding="utf-8"?>
<!-- Generator: Adobe Illustrator 22.1.0, SVG Export Plug-In . SVG Version: 6.00 Build 0)  -->
<svg version="1.1" id="Layer_1" xmlns="http://www.w3.org/2000/svg" xmlns:xlink="http://www.w3.org/1999/xlink" x="0px" y="0px"
	 viewBox="0 0 120 120" style="enable-background:new 0 0 120 120;" xml:space="preserve">
<style type="text/css">
	.st0{fill:#13D7E9;}
</style>
<path class="st0" d="M37,75.1l-27.4,0c-0.9,0-1.8-0.4-2.5-1c-0.7-0.7-1-1.5-1-2.5V46.4c0-0.9,0.4-1.8,1-2.5c0.7-0.7,1.5-1,2.5-1H37
	l0,0c0.2,0,0.4,0.1,0.6,0.2c0.2,0.2,0.2,0.4,0.2,0.6V49c0,0.5-0.4,0.8-0.8,0.8h-2.7l0,5c0,0.5-0.2,1-0.6,1.4
	c-0.4,0.3-0.9,0.5-1.4,0.4c-0.9-0.2-1.5-1-1.5-1.8l0-4.8h-3.5l0,4.9c0,0.5-0.2,1-0.6,1.4c-0.4,0.3-0.9,0.5-1.4,0.4
	c-0.9-0.2-1.5-1-1.5-1.8v-4.8h-3.5l0,4.9c0,0.5-0.2,1-0.6,1.4c-0.4,0.3-0.9,0.5-1.4,0.4c-0.9-0.2-1.5-1-1.5-1.8v-4.8h-3.5l0,18.2
	l24,0c0.2,0,0.4,0.1,0.6,0.2c0.2,0.2,0.2,0.4,0.2,0.6v5.3c0,0.2-0.1,0.4-0.2,0.6C37.5,75,37.3,75.1,37,75.1L37,75.1z M83,43L83,43
	c-0.2,0-0.4,0.1-0.6,0.2c-0.2,0.2-0.2,0.4-0.2,0.6v5.3l0,0c0,0.2,0.1,0.4,0.2,0.6c0.2,0.2,0.4,0.2,0.6,0.2h2.7v4.8l0,0
	c0,0.9,0.6,1.7,1.5,1.8c0.5,0.1,1-0.1,1.4-0.4c0.4-0.3,0.6-0.8,0.6-1.4v-4.9h3.5v4.8v0c0,0.9,0.6,1.7,1.5,1.8c0.5,0.1,1-0.1,1.4-0.4
	c0.4-0.3,0.6-0.8,0.6-1.4v-4.9h3.5v4.8v0c0,0.9,0.6,1.7,1.5,1.8c0.5,0.1,1-0.1,1.4-0.4c0.4-0.3,0.6-0.8,0.6-1.4v-4.9h3.5l0,18.2
	l-24,0c-0.2,0-0.4,0.1-0.6,0.2c-0.2,0.2-0.2,0.4-0.2,0.6v5.3c0,0.2,0.1,0.4,0.2,0.6c0.2,0.2,0.4,0.2,0.6,0.2l27.4,0
	c0.9,0,1.8-0.4,2.5-1s1-1.5,1-2.5V46.4c0-0.9-0.4-1.8-1-2.5s-1.5-1-2.5-1L83,43z M75.2,10l0,83.1c0,1.6-0.4,3.3-1.2,4.7l-10.3,18.7
	c-0.7,1.3-2.1,2.1-3.6,2.1c-1.5,0-2.9-0.8-3.6-2.1L46,97.8c-0.8-1.4-1.2-3-1.2-4.7l0-83.1c0-4.7,3.8-8.5,8.5-8.5l13.3-0.1
	c2.3,0,4.4,0.9,6.1,2.5C74.3,5.5,75.2,7.7,75.2,10L75.2,10z M53.9,10.1c-1.3,0.3-2.2,1.4-2.2,2.7l0,80.4c0,0.6,0.2,1.2,0.6,1.7
	l4.8,8.7h5.7l5.1-9.2l0,0c0.2-0.4,0.3-0.8,0.3-1.3V91h-0.1l0,0c-2.6,0.7-5.3,1-8,0.9c-0.8,0-1.5,0-2.2-0.1c-0.5,0-0.8-0.4-0.8-0.8
	l0-78.3c0-0.8-0.4-1.6-1-2.1C55.5,10.2,54.7,10,53.9,10.1L53.9,10.1z"/>
</svg>
