<?xml version="1.0" encoding="UTF-8"?>
<svg width="24px" height="31px" viewBox="0 0 24 31" version="1.1" xmlns="http://www.w3.org/2000/svg" xmlns:xlink="http://www.w3.org/1999/xlink">
    <!-- Generator: Sketch 46.2 (44496) - http://www.bohemiancoding.com/sketch -->
    <title>noun_453297</title>
    <desc>Created with Sketch.</desc>
    <defs></defs>
    <g id="Page-1" stroke="none" stroke-width="1" fill="none" fill-rule="evenodd">
        <g id="Lab-Installation" transform="translate(-128.000000, -1270.000000)" fill-rule="nonzero">
            <g id="PDF1" transform="translate(128.000000, 1270.000000)">
                <g id="noun_453297">
                    <path d="M23.2421053,9.92837838 C23.2421053,9.92837838 23.2421053,9.92837838 23.2421053,9.92837838 L23.2,9.88648649 C23.1578947,9.84459459 23.1578947,9.84459459 23.1157895,9.8027027 L14.1473684,0.87972973 C14.1473684,0.87972973 14.1052632,0.837837838 14.1052632,0.837837838 L14.0631579,0.837837838 C14.0631579,0.837837838 14.0631579,0.837837838 14.0631579,0.837837838 C13.6,0.418918919 13.0105263,0.167567568 12.3368421,0.167567568 L1.85263158,0.167567568 C0.884210526,0.167567568 0.0842105263,0.963513514 0.0842105263,1.92702703 L0.0842105263,29.1148649 C0.0842105263,30.0783784 0.884210526,30.8743243 1.85263158,30.8743243 L22.1473684,30.8743243 C23.1157895,30.8743243 23.9157895,30.0783784 23.9157895,29.1148649 L23.9157895,11.5621622 C23.8736842,10.9337838 23.6210526,10.3472973 23.2421053,9.92837838 Z M14.8631579,2.80675676 L21.2210526,9.13243243 L16.5052632,9.13243243 C15.6210526,9.13243243 14.8631579,8.42027027 14.8631579,7.49864865 L14.8631579,2.80675676 L14.8631579,2.80675676 Z M23.0315789,29.072973 C23.0315789,29.5756757 22.6105263,29.9945946 22.1052632,29.9945946 L1.85263158,29.9945946 C1.34736842,29.9945946 0.926315789,29.5756757 0.926315789,29.072973 L0.926315789,1.88513514 C0.926315789,1.38243243 1.34736842,0.963513514 1.85263158,0.963513514 L12.3368421,0.963513514 C12.8,0.963513514 13.2210526,1.13108108 13.5157895,1.46621622 L13.5578947,1.50810811 C13.8526316,1.80135135 14.0631579,2.22027027 14.0631579,2.68108108 L14.0631579,7.49864865 C14.0631579,8.83918919 15.1578947,9.97027027 16.5473684,9.97027027 L21.4736842,9.97027027 C21.8947368,9.97027027 22.3157895,10.1378378 22.6105263,10.4310811 L22.6526316,10.472973 C22.9473684,10.7662162 23.1157895,11.1432432 23.1157895,11.6040541 L23.1157895,29.072973 L23.0315789,29.072973 Z" id="Shape" fill="#4A4A4A"></path>
                    <path d="M11.291866,11.7297297 C10.5344499,11.7297297 9.9138756,12.3471599 9.9138756,13.1007371 C9.9138756,14.0883698 10.49802,15.4020225 11.1148325,16.6234644 C10.6254091,18.1505675 10.0693602,19.8022156 9.34449761,21.1934889 C9.3429022,21.1934766 9.34130833,21.1934766 9.33971292,21.1934889 C7.89921929,21.757628 6.6190521,22.1835543 5.89473684,22.7644349 C5.6052344,23.0185948 5.47833635,23.4472953 5.47368421,23.7641278 C5.47368421,24.5176943 6.09425868,25.1351351 6.85167464,25.1351351 C7.25041256,25.1351351 7.61902867,24.9551027 7.85167464,24.7209767 C8.39676341,24.0734016 9.67364302,21.7237702 9.67464115,21.721898 C11.0695037,21.1756389 12.5418787,20.6130973 13.9665072,20.2842445 C14.9354526,21.0827443 16.4070392,21.6314496 17.569378,21.6314496 C18.3267936,21.6314496 18.9473684,21.0140241 18.9473684,20.2604423 C18.9473684,19.5068604 18.3267936,18.8894349 17.569378,18.8894349 C16.6285448,18.8894349 15.1807406,19.2418321 14.1196172,19.6035012 C13.2073323,18.7654488 12.3679384,17.7053267 11.7751196,16.57586 C12.186487,15.3042121 12.6698565,14.0255955 12.6698565,13.1007371 C12.6698565,12.3471599 12.0492823,11.7297297 11.291866,11.7297297 Z M11.291866,12.3390663 C11.7182948,12.3390663 12.0574163,12.6764697 12.0574163,13.1007371 C12.0574163,13.6724076 11.7383516,14.6861624 11.3971292,15.7427826 C10.926908,14.7261989 10.5263158,13.7025697 10.5263158,13.1007371 C10.5263158,12.6764697 10.8654374,12.3390663 11.291866,12.3390663 Z M11.5167464,17.3375307 C12.0523681,18.2425479 12.7138503,19.0793346 13.4449761,19.7939189 C12.3352282,20.0783572 11.2386866,20.4782649 10.1722488,20.8888206 C10.70948,19.7466801 11.1314508,18.5212737 11.5167464,17.3375307 Z M17.569378,19.4987715 C17.9958071,19.4987715 18.3349282,19.8361764 18.3349282,20.2604423 C18.3349282,20.6847081 17.9958071,21.022113 17.569378,21.022113 C16.7422319,21.022113 15.5891084,20.6170413 14.7464115,20.0700246 C15.7201563,19.7723179 16.8892428,19.4987715 17.569378,19.4987715 Z M8.77511962,22.0789312 C8.27599648,22.9870408 7.75413037,23.8783174 7.38755981,24.3163391 C7.25442863,24.4473464 7.07434243,24.5257985 6.85167464,24.5257985 C6.4252457,24.5257985 6.0861244,24.1883936 6.0861244,23.7641278 C6.0861244,23.5622393 6.17365007,23.3632452 6.29665072,23.2309582 C6.73823816,22.8833317 7.69338167,22.5008206 8.77511962,22.0789312 Z" id="Shape" fill="#E42127"></path>
                </g>
            </g>
        </g>
    </g>
</svg>