<?xml version="1.0" encoding="UTF-8"?>
<svg width="680px" height="481px" viewBox="0 0 680 481" version="1.1" xmlns="http://www.w3.org/2000/svg" xmlns:xlink="http://www.w3.org/1999/xlink">
    <!-- Generator: Sketch 46.2 (44496) - http://www.bohemiancoding.com/sketch -->
    <title>Group 3</title>
    <desc>Created with Sketch.</desc>
    <defs></defs>
    <g id="Page-1" stroke="none" stroke-width="1" fill="none" fill-rule="evenodd" opacity="0.200000018">
        <g id="AMADEUS" transform="translate(-380.000000, -20.000000)">
            <g id="Group-3" transform="translate(380.000000, 20.000000)">
                <g id="iPad-Copy" transform="translate(340.305447, 240.417469) rotate(-90.000000) translate(-340.305447, -240.417469) translate(100.305447, -99.582531)">
                    <g id="Body">
                        <rect id="Rectangle-2" fill="#FFFFFF" x="0" y="0" width="479.834938" height="679.389105" rx="32.2082962"></rect>
                        <ellipse id="Oval-1" stroke="#CBD2D4" stroke-width="2.1836133" cx="239.917469" cy="650.967356" rx="14.2104465" ry="14.2122118"></ellipse>
                        <g id="Group" transform="translate(235.545397, 25.142316)">
                            <path d="M4.37207233,7.10543714 C2.8653469,7.10543714 1.63952712,5.87947595 1.63952712,4.3725767 C1.63952712,2.86567746 2.8653469,1.63971626 4.37207233,1.63971626 C5.87879776,1.63971626 7.10461753,2.86567746 7.10461753,4.3725767 C7.10461753,5.87947595 5.87879776,7.10543714 4.37207233,7.10543714" id="Fill-9" fill="#BAC1C3"></path>
                            <path d="M4.37207233,0 C1.96118673,0 0,1.96141298 0,4.3725767 C0,6.78374043 1.96118673,8.7451534 4.37207233,8.7451534 C6.78295793,8.7451534 8.74414466,6.78374043 8.74414466,4.3725767 C8.74414466,1.96141298 6.78295793,0 4.37207233,0 M4.37207233,2.49861526 C5.40700431,2.49861526 6.24581761,3.33752533 6.24581761,4.3725767 C6.24581761,5.40762807 5.40700431,6.24653815 4.37207233,6.24653815 C3.33714035,6.24653815 2.49832705,5.40762807 2.49832705,4.3725767 C2.49832705,3.33752533 3.33714035,2.49861526 4.37207233,2.49861526" id="Fill-11" fill="#D0D7DA"></path>
                        </g>
                    </g>
                </g>
            </g>
        </g>
    </g>
</svg>