<?xml version="1.0" encoding="UTF-8"?>
<svg width="300px" height="627px" viewBox="0 0 300 627" version="1.1" xmlns="http://www.w3.org/2000/svg" xmlns:xlink="http://www.w3.org/1999/xlink">
    <!-- Generator: Sketch 46.2 (44496) - http://www.bohemiancoding.com/sketch -->
    <title>iPhone</title>
    <desc>Created with Sketch.</desc>
    <defs></defs>
    <g id="Page-1" stroke="none" stroke-width="1" fill="none" fill-rule="evenodd">
        <g id="MINUM" transform="translate(-591.000000, -37.000000)">
            <g id="iPhone">
                <g transform="translate(591.000000, 37.000000)" id="Body-Copy">
                    <g>
                        <path d="M300,580.863691 C300,606.343791 279.309848,627 253.787879,627 L46.2121212,627 C20.6901515,627 0,606.343791 0,580.863691 L0,46.1363088 C0,20.6562087 20.6901515,0 46.2121212,0 L253.787879,0 C279.309848,0 300,20.6562087 300,46.1363088 L300,580.863691 Z" id="Fill-1" fill="#FFFFFF" opacity="0.27"></path>
                        <path d="M300,580.863691 C300,606.343791 279.309848,627 253.787879,627 L46.2121212,627 C20.6901515,627 0,606.343791 0,580.863691 L0,46.1363088 C0,20.6562087 20.6901515,0 46.2121212,0 L253.787879,0 C279.309848,0 300,20.6562087 300,46.1363088 L300,580.863691 L300,580.863691 Z" id="Stroke-3"></path>
                        <path d="M175.539568,38.8279817 C175.539568,40.4165734 174.482801,41.7041284 173.178957,41.7041284 L127.540468,41.7041284 C126.236623,41.7041284 125.179856,40.4165734 125.179856,38.8279817 C125.179856,37.2393899 126.236623,35.9518349 127.540468,35.9518349 L173.178957,35.9518349 C174.482801,35.9518349 175.539568,37.2393899 175.539568,38.8279817" id="Fill-7" fill="#0A74B1" opacity="0.5"></path>
                        <g id="Group" opacity="0.5" transform="translate(96.402878, 33.075688)" fill="#037FBB">
                            <path d="M5.75539568,9.34747706 C3.77194245,9.34747706 2.15827338,7.73467775 2.15827338,5.75229358 C2.15827338,3.7699094 3.77194245,2.15711009 5.75539568,2.15711009 C7.73884892,2.15711009 9.35251799,3.7699094 9.35251799,5.75229358 C9.35251799,7.73467775 7.73884892,9.34747706 5.75539568,9.34747706" id="Fill-9"></path>
                            <path d="M5.75539568,0 C2.58170606,0 0,2.58031455 0,5.75229358 C0,8.92427261 2.58170606,11.5045872 5.75539568,11.5045872 C8.9290853,11.5045872 11.5107914,8.92427261 11.5107914,5.75229358 C11.5107914,2.58031455 8.9290853,0 5.75539568,0 M5.75539568,3.2870249 C7.11778006,3.2870249 8.22199383,4.39064351 8.22199383,5.75229358 C8.22199383,7.11394364 7.11778006,8.21756225 5.75539568,8.21756225 C4.39301131,8.21756225 3.28879753,7.11394364 3.28879753,5.75229358 C3.28879753,4.39064351 4.39301131,3.2870249 5.75539568,3.2870249" id="Fill-11"></path>
                        </g>
                        <path d="M169.784173,588.172018 C169.784173,577.449949 161.087564,568.758028 150.359712,568.758028 C139.63186,568.758028 130.935252,577.449949 130.935252,588.172018 C130.935252,598.894088 139.63186,607.586009 150.359712,607.586009 C161.087564,607.586009 169.784173,598.894088 169.784173,588.172018" id="Fill-17" stroke="#037FBB" stroke-width="2.87769784" opacity="0.5"></path>
                    </g>
                </g>
            </g>
        </g>
    </g>
</svg>