<?xml version="1.0" encoding="utf-8"?>
<!-- Generator: Adobe Illustrator 21.1.0, SVG Export Plug-In . SVG Version: 6.00 Build 0)  -->
<svg version="1.1" id="Layer_1" xmlns="http://www.w3.org/2000/svg" xmlns:xlink="http://www.w3.org/1999/xlink" x="0px" y="0px"
	 viewBox="0 0 347.6 476.8" style="enable-background:new 0 0 347.6 476.8;" xml:space="preserve">
<style type="text/css">
	.st0{fill:#FFFFFF;}
	.st1{filter:url(#Adobe_OpacityMaskFilter);}
	.st2{mask:url(#mask-2);fill:#FFFFFF;}
	.st3{filter:url(#Adobe_OpacityMaskFilter_1_);}
	.st4{mask:url(#mask-4);fill:#FFFFFF;}
</style>
<title>Page 1</title>
<desc>Created with Sketch.</desc>
<g id="Symbols">
	<g id="footer" transform="translate(-679.000000, -333.000000)">
		<g id="Page-1" transform="translate(679.000000, 333.000000)">
			<path id="Fill-1" class="st0" d="M7,278.9l-1.2,18.6l162.9,94l14.8-8.3V177L7,278.9z M29.2,288.5l134.9-77.9v155.8L29.2,288.5z"
				/>
			<g id="Group-12" transform="translate(0.000000, 0.301250)">
				<path id="Fill-2" class="st0" d="M19.5,451.9c0,2.8,2.3,5.2,5.2,5.2c1.1,0,2-0.4,2.5-0.7l127.2-73.5L19.5,305V451.9z
					 M24.7,476.5c-13.5,0-24.6-11-24.6-24.5V271.4l193.2,111.5L37,473.2C33.3,475.4,29,476.5,24.7,476.5L24.7,476.5z"/>
				<g id="Group-6" transform="translate(12.500000, 7.000000)">
					<g id="Clip-5">
					</g>
					<defs>
						<filter id="Adobe_OpacityMaskFilter" filterUnits="userSpaceOnUse" x="151.6" y="82.1" width="183.4" height="310.6">
							<feColorMatrix  type="matrix" values="1 0 0 0 0  0 1 0 0 0  0 0 1 0 0  0 0 0 1 0"/>
						</filter>
					</defs>
					<mask maskUnits="userSpaceOnUse" x="151.6" y="82.1" width="183.4" height="310.6" id="mask-2">
						<g class="st1">
							<polygon id="path-1" class="st0" points="335.1,392.7 335.1,82.1 151.6,82.1 151.6,392.7 							"/>
						</g>
					</mask>
					<path id="Fill-4" class="st2" d="M171,192.1v167l132.4-76.5c7.5-4.4,12.2-12.5,12.2-21.3V111.5c0-1-0.1-1.9-0.2-2.9L171,192.1z
						 M151.6,392.7V186.5h9.7l-4.8-8.4l166.4-96l6.2,7.4c3.9,6.7,5.9,14.3,5.9,22v149.8c0,15.6-8.4,30.2-21.9,38.1L151.6,392.7z"/>
				</g>
				<g id="Group-9">
					<g id="Clip-8">
					</g>
					<defs>
						<filter id="Adobe_OpacityMaskFilter_1_" filterUnits="userSpaceOnUse" x="6" y="-0.2" width="339.1" height="204.9">
							<feColorMatrix  type="matrix" values="1 0 0 0 0  0 1 0 0 0  0 0 1 0 0  0 0 0 1 0"/>
						</filter>
					</defs>
					<mask maskUnits="userSpaceOnUse" x="6" y="-0.2" width="339.1" height="204.9" id="mask-4">
						<g class="st3">
							<polygon id="path-3" class="st0" points="345.1,-0.3 5.9,-0.3 5.9,204.7 345.1,204.7 							"/>
						</g>
					</mask>
					<path id="Fill-7" class="st4" d="M29.4,98.9l144.4,83.4l144.5-83.4c-0.7-0.5-1.5-1-2.2-1.5L185.7,22.1
						c-7.2-4-16.6-4.1-24.1,0.2L32,97.1C31.1,97.7,30.2,98.3,29.4,98.9L29.4,98.9z M173.8,204.7L7.6,105L6,96.6
						c3.9-6.8,9.6-12.5,16.4-16.3L151.9,5.5c13.3-7.6,30-7.6,43.3-0.2l130.6,75.4c6.6,3.9,12,9.4,15.8,16l3.5,9.1L173.8,204.7z"/>
				</g>
				<path id="Fill-10" class="st0" d="M19.6,115.7c-0.1,1-0.2,1.9-0.2,2.9v152.8l135-77.9L19.6,115.7z M0,305.1V118.6
					c0-7.7,2-15.4,5.9-22l5.6-7.5l181.7,104.4L0,305.1z"/>
			</g>
		</g>
	</g>
</g>
</svg>
