<?xml version="1.0" encoding="utf-8"?>
<!-- Generator: Adobe Illustrator 22.1.0, SVG Export Plug-In . SVG Version: 6.00 Build 0)  -->
<svg version="1.1" id="Layer_1" xmlns="http://www.w3.org/2000/svg" xmlns:xlink="http://www.w3.org/1999/xlink" x="0px" y="0px"
	 viewBox="0 0 53.7 73.6" style="enable-background:new 0 0 53.7 73.6;" xml:space="preserve">
<style type="text/css">
	.st0{fill:#DD4097;}
</style>
<title>proximity_lab_logo_2018</title>
<path class="st0" d="M26,60.4L0.9,45.9l0.2-2.9l27.2-15.7v31.8L26,60.4z M4.5,44.5l20.8,12v-24L4.5,44.5z"/>
<path class="st0" d="M3.8,73.6c-2.1,0-3.8-1.7-3.8-3.8c0,0,0,0,0,0V41.9l29.8,17.2L5.7,73.1C5.1,73.4,4.5,73.6,3.8,73.6z M3,69.8
	c0,0.4,0.4,0.8,0.8,0.8c0,0,0,0,0,0c0.1,0,0.3,0,0.4-0.1l19.6-11.3L3,47.1V69.8z"/>
<path class="st0" d="M25.3,61.8V29.9h1.5l-0.8-1.3l25.7-14.8l1,1.1c0.6,1,0.9,2.2,0.9,3.4v23.1c0,2.4-1.3,4.7-3.4,5.9L25.3,61.8z
	 M28.3,30.8v25.8l20.4-11.8c1.2-0.7,1.9-1.9,1.9-3.3V18.4c0-0.1,0-0.3,0-0.5L28.3,30.8z"/>
<path class="st0" d="M26.8,31.6L1.2,16.3L0.9,15c0.6-1.1,1.5-1.9,2.5-2.5l20-11.6c2.1-1.2,4.6-1.2,6.7,0l20.2,11.6
	c1,0.6,1.9,1.5,2.4,2.5l0.5,1.4L26.8,31.6z M4.5,15.3l22.3,12.9l22.3-12.9c-0.1-0.1-0.2-0.2-0.3-0.2L28.7,3.5
	c-1.2-0.6-2.6-0.6-3.7,0L4.9,15C4.8,15.1,4.7,15.2,4.5,15.3z"/>
<path class="st0" d="M0,47.1V18.4C0,17.2,0.3,16,0.9,15l0.9-1.1l28,16.1L0,47.1z M3,17.9c0,0.1,0,0.3,0,0.4v23.6l20.8-12L3,17.9z"/>
</svg>
