<?xml version="1.0" encoding="UTF-8"?>
<svg width="3300px" height="2940px" viewBox="0 0 3300 2940" version="1.1" xmlns="http://www.w3.org/2000/svg" xmlns:xlink="http://www.w3.org/1999/xlink">
    <!-- Generator: Sketch 48.2 (47327) - http://www.bohemiancoding.com/sketch -->
    <title>nye5 copy</title>
    <desc>Created with Sketch.</desc>
    <defs></defs>
    <g id="Page-1" stroke="none" stroke-width="1" fill="none" fill-rule="evenodd">
        <g id="nye5-copy" fill="#FFFFFF" fill-rule="nonzero">
            <path d="M890,2853 C873,2804 835,2688 807,2594 L756,2422 L713,2499 C670,2574 622,2633 588,2651 C564,2664 507,2612 485,2558 C471,2521 470,2506 480,2435 C492,2361 491,2349 470,2276 C443,2181 446,2109 478,2077 L499,2057 L540,2084 C563,2099 617,2145 661,2187 C712,2236 741,2258 744,2249 C747,2241 754,2217 759,2195 C771,2150 784,2170 636,2010 L548,1915 L416,1910 C320,1906 277,1900 253,1887 C223,1871 221,1867 215,1793 C208,1722 193,1679 157,1627 C147,1612 149,1606 170,1590 L195,1571 L168,1561 C142,1551 141,1547 138,1478 L135,1405 L88,1400 C20,1392 0,1370 0,1301 C0,1247 3,1240 71,1145 C110,1090 151,1036 161,1024 C187,996 185,958 155,930 C123,900 122,845 152,787 C180,732 260,496 267,447 C271,419 265,394 246,351 C213,277 213,246 248,193 C263,170 286,133 299,111 C336,50 389,0 416,0 C429,0 440,4 440,8 C440,13 457,35 478,58 C526,109 541,110 667,70 C739,47 779,40 843,40 C951,40 1123,58 1184,76 C1210,84 1262,90 1297,90 C1400,90 1435,105 1522,188 C1585,248 1600,268 1605,301 C1609,323 1619,344 1626,347 C1646,355 1690,443 1690,477 C1690,493 1704,521 1728,549 C1749,574 1772,605 1779,617 C1794,645 1850,921 1850,966 C1850,1005 1772,1239 1742,1290 C1730,1309 1707,1363 1689,1409 C1662,1481 1648,1502 1594,1555 C1519,1628 1513,1656 1559,1705 C1577,1724 1590,1750 1593,1775 L1598,1815 L1528,1860 C1437,1918 1310,2043 1242,2143 C1139,2292 1075,2469 1061,2645 C1053,2743 1052,2747 995,2843 C963,2896 934,2940 929,2940 C925,2940 908,2901 890,2853 Z M750,1345 C810,1309 825,1270 825,1150 C825,1036 811,995 763,969 C735,954 734,944 759,931 C793,912 810,858 810,768 C810,703 806,678 790,653 C754,593 731,585 573,582 L430,578 L430,975 L430,1372 L573,1368 C694,1366 720,1362 750,1345 Z M1040,975 L1040,580 L980,580 L920,580 L920,975 L920,1370 L980,1370 L1040,1370 L1040,975 Z M1350,1320 L1350,1270 L1310,1270 L1270,1270 L1270,925 L1270,580 L1210,580 L1150,580 L1150,975 L1150,1370 L1250,1370 L1350,1370 L1350,1320 Z M1585,1323 L1585,1270 L1545.35547,1270 L1505,1270 L1505,922 L1505,580 L1445,580 L1385,580 L1385,975 L1385,1370 L1485,1370 L1585,1370 L1585,1323 Z" id="Shape"></path>
            <path d="M550,1141 L550,1010 L605,1010 C691,1010 718,1053 708,1176 C702,1248 686,1263 610,1268 L550,1272 L550,1141 Z" id="Shape"></path>
            <path d="M550,796 L550,680 L591,680 C632,680 669,694 682,714 C686,720 690,757 690,796 C690,882 677,898 601,907 L550,913 L550,796 Z" id="Shape"></path>
            <path d="M1950,975 L1950,570 L2035,570 L2119,570 L2129,608 C2135,628 2162,722 2189,815 L2239,985 L2239,778 L2240,570 L2305,570 L2370,570 L2370,975 L2370,1381 L2298,1378 L2225,1375 L2148,1105 L2071,835 L2070,1108 L2070,1380 L2010,1380 L1950,1380 L1950,975 Z" id="Shape"></path>
            <path d="M2580,1248 L2580,1117 L2500,859 C2456,717 2417,594 2414,585 C2408,571 2418,569 2485,572 L2563,575 L2606,730 C2630,815 2650,894 2650,905 C2652,932 2659,912 2711,723 L2753,570 L2822,570 C2883,570 2891,572 2886,588 C2883,597 2844,720 2800,862 L2720,1118 L2720,1249 L2720,1380 L2650,1380 L2580,1380 L2580,1248 Z" id="Shape"></path>
            <polygon id="Shape" points="2930 975 2930 570 3115 570 3300 570 3300 635 3300 700 3190 700 3080 700 3080 805 3080 910 3170 910 3260 910 3260 970 3260 1030 3170 1030 3080 1030 3080 1140 3080 1250 3190 1250 3300 1250 3300 1315 3300 1380 3115 1380 2930 1380"></polygon>
        </g>
    </g>
</svg>