<?xml version="1.0" encoding="UTF-8"?>
<svg width="180px" height="54px" viewBox="0 0 180 54" version="1.1" xmlns="http://www.w3.org/2000/svg" xmlns:xlink="http://www.w3.org/1999/xlink">
    <!-- Generator: Sketch 47.1 (45422) - http://www.bohemiancoding.com/sketch -->
    <title>logo</title>
    <desc>Created with Sketch.</desc>
    <defs></defs>
    <g id="Page-1" stroke="none" stroke-width="1" fill="none" fill-rule="evenodd">
        <g id="ICOVIA" transform="translate(-142.000000, -240.000000)" fill="#FFFFFF">
            <g id="logo" transform="translate(140.000000, 225.000000)">
                <text id="icovia" font-family="TrebuchetMS-Bold, Trebuchet MS" font-size="72" font-weight="bold" letter-spacing="-3">
                    <tspan x="0" y="68">i</tspan>
                    <tspan x="18.4804688" y="68" letter-spacing="-4">co</tspan>
                    <tspan x="88.0703125" y="68" letter-spacing="-10">v</tspan>
                    <tspan x="118.289062" y="68" letter-spacing="-4">i</tspan>
                    <tspan x="135.769531" y="68">a</tspan>
                </text>
                <path d="M176.635559,29.9343719 C177.405094,29.9343719 178.143368,30.1267528 178.850403,30.5115204 C179.557438,30.8962879 180.113096,31.4480402 180.517395,32.1667938 C180.921694,32.8855474 181.12384,33.637493 181.12384,34.4226532 C181.12384,35.2039071 180.9256,35.9490168 180.529114,36.6580048 C180.132627,37.3669927 179.579899,37.9197215 178.870911,38.3162079 C178.161923,38.7126942 177.416813,38.9109344 176.635559,38.9109344 C175.854305,38.9109344 175.109195,38.7126942 174.400208,38.3162079 C173.69122,37.9197215 173.138491,37.3669927 172.742004,36.6580048 C172.345518,35.9490168 172.147278,35.2039071 172.147278,34.4226532 C172.147278,33.637493 172.349424,32.8855474 172.753723,32.1667938 C173.158022,31.4480402 173.713681,30.8962879 174.420715,30.5115204 C175.12775,30.1267528 175.866024,29.9343719 176.635559,29.9343719 Z M176.641418,30.8132782 C176.024228,30.8132782 175.432437,30.9675735 174.866028,31.2761688 C174.299619,31.5847641 173.853334,32.0281191 173.527161,32.6062469 C173.200987,33.1843748 173.037903,33.7898375 173.037903,34.4226532 C173.037903,35.0515626 173.197081,35.651166 173.515442,36.2214813 C173.833803,36.7917967 174.278134,37.2371047 174.84845,37.5574188 C175.418765,37.8777329 176.016415,38.0378876 176.641418,38.0378876 C177.270328,38.0378876 177.868955,37.8777329 178.437317,37.5574188 C179.005679,37.2371047 179.450011,36.7917967 179.770325,36.2214813 C180.090639,35.651166 180.250793,35.0515626 180.250793,34.4226532 C180.250793,33.7898375 180.087709,33.1843748 179.761536,32.6062469 C179.435362,32.0281191 178.988101,31.5847641 178.419739,31.2761688 C177.851377,30.9675735 177.258609,30.8132782 176.641418,30.8132782 Z M174.608215,36.8249969 L174.608215,32.0613251 L175.575012,32.0613251 C176.481267,32.0613251 176.989074,32.0652313 177.09845,32.0730438 C177.418764,32.1003877 177.667785,32.1638636 177.84552,32.2634735 C178.023255,32.3630834 178.171691,32.5154256 178.290833,32.7205048 C178.409974,32.9255839 178.469543,33.1531207 178.469543,33.4031219 C178.469543,33.7468737 178.35724,34.040816 178.132629,34.2849579 C177.908019,34.5290997 177.592592,34.6804654 177.18634,34.7390594 C177.330872,34.7937472 177.442199,34.8533169 177.520325,34.9177704 C177.59845,34.9822238 177.705871,35.1042929 177.84259,35.2839813 C177.877747,35.3308566 177.994933,35.524214 178.194153,35.8640594 L178.756653,36.8249969 L177.56134,36.8249969 L177.162903,36.0515594 C176.89337,35.5320256 176.670716,35.2048804 176.494934,35.0701141 C176.319152,34.9353478 176.096498,34.8679657 175.826965,34.8679657 L175.575012,34.8679657 L175.575012,36.8249969 L174.608215,36.8249969 Z M175.575012,34.1179657 L175.96759,34.1179657 C176.526187,34.1179657 176.872863,34.0964815 177.007629,34.0535126 C177.142396,34.0105436 177.24884,33.935349 177.326965,33.8279266 C177.405091,33.7205042 177.444153,33.5984351 177.444153,33.4617157 C177.444153,33.3289025 177.406067,33.2107397 177.329895,33.1072235 C177.253723,33.0037074 177.145325,32.9294894 177.0047,32.8845673 C176.864074,32.8396452 176.518374,32.8171844 175.96759,32.8171844 L175.575012,32.8171844 L175.575012,34.1179657 Z" id="®"></path>
            </g>
        </g>
    </g>
</svg>