<?xml version="1.0" encoding="utf-8"?>
<!-- Generator: Adobe Illustrator 17.1.0, SVG Export Plug-In . SVG Version: 6.00 Build 0)  -->
<!DOCTYPE svg PUBLIC "-//W3C//DTD SVG 1.1//EN" "http://www.w3.org/Graphics/SVG/1.1/DTD/svg11.dtd">
<svg version="1.1" id="Layer_1" xmlns="http://www.w3.org/2000/svg" xmlns:xlink="http://www.w3.org/1999/xlink" x="0px" y="0px"
	 viewBox="-160.4 -219.5 347.6 476.8" enable-background="new -160.4 -219.5 347.6 476.8" xml:space="preserve">
<title>Page 1</title>
<desc>Created with Sketch.</desc>
<g id="Symbols">
	<g id="footer" transform="translate(-679.000000, -333.000000)">
		<g id="Page-1" transform="translate(679.000000, 333.000000)">
			<path id="Fill-1" fill="#DC3F96" d="M-153.4,59.4l-1.2,18.6L8.3,172l14.8-8.3l0-206.2L-153.4,59.4z M-131.2,69L3.7-8.9l0,155.8
				L-131.2,69z"/>
			<g id="Group-12" transform="translate(0.000000, 0.301250)">
				<path id="Fill-2" fill="#DC3F96" d="M-140.9,232.4c0,2.8,2.3,5.2,5.2,5.2c1.1,0,2-0.4,2.5-0.7L-6,163.4l-134.9-77.9V232.4z
					 M-135.7,257c-13.5,0-24.6-11-24.6-24.5V51.9L32.9,163.4l-156.3,90.3C-127.1,255.9-131.4,257-135.7,257L-135.7,257z"/>
				<g id="Group-6" transform="translate(12.500000, 7.000000)">
					<g id="Clip-5">
					</g>
					<defs>
						<filter id="Adobe_OpacityMaskFilter" filterUnits="userSpaceOnUse" x="-8.8" y="-137.4" width="183.5" height="310.7">
							<feColorMatrix  type="matrix" values="1 0 0 0 0  0 1 0 0 0  0 0 1 0 0  0 0 0 1 0"/>
						</filter>
					</defs>
					<mask maskUnits="userSpaceOnUse" x="-8.8" y="-137.4" width="183.5" height="310.7" id="mask-2">
						<g filter="url(#Adobe_OpacityMaskFilter)">
							<polygon id="path-1" fill="#FFFFFF" points="174.7,173.2 174.7,-137.4 -8.8,-137.4 -8.8,173.2 							"/>
						</g>
					</mask>
					<path id="Fill-4" mask="url(#mask-2)" fill="#DC3F96" d="M10.6-27.4l0,167L143,63.1c7.5-4.4,12.2-12.5,12.2-21.3V-108
						c0-1-0.1-1.9-0.2-2.9L10.6-27.4z M-8.8,173.2l0-206.2l9.7,0l-4.8-8.4l166.4-96l6.2,7.4c3.9,6.7,5.9,14.3,5.9,22l0,149.8
						c0,15.6-8.4,30.2-21.9,38.1L-8.8,173.2z"/>
				</g>
				<g id="Group-9">
					<g id="Clip-8">
					</g>
					<defs>
						<filter id="Adobe_OpacityMaskFilter_1_" filterUnits="userSpaceOnUse" x="-154.5" y="-219.8" width="339.2" height="205">
							<feColorMatrix  type="matrix" values="1 0 0 0 0  0 1 0 0 0  0 0 1 0 0  0 0 0 1 0"/>
						</filter>
					</defs>
					<mask maskUnits="userSpaceOnUse" x="-154.5" y="-219.8" width="339.2" height="205" id="mask-4">
						<g filter="url(#Adobe_OpacityMaskFilter_1_)">
							<polygon id="path-3" fill="#FFFFFF" points="184.7,-219.8 -154.5,-219.8 -154.5,-14.8 184.7,-14.8 							"/>
						</g>
					</mask>
					<path id="Fill-7" mask="url(#mask-4)" fill="#DC3F96" d="M-131-120.6L13.4-37.2l144.5-83.4c-0.7-0.5-1.5-1-2.2-1.5L25.3-197.4
						c-7.2-4-16.6-4.1-24.1,0.2l-129.6,74.8C-129.3-121.8-130.2-121.2-131-120.6L-131-120.6z M13.4-14.8l-166.2-99.7l-1.6-8.4
						c3.9-6.8,9.6-12.5,16.4-16.3L-8.5-214c13.3-7.6,30-7.6,43.3-0.2l130.6,75.4c6.6,3.9,12,9.4,15.8,16l3.5,9.1L13.4-14.8z"/>
				</g>
				<path id="Fill-10" fill="#DC3F96" d="M-140.8-103.8c-0.1,1-0.2,1.9-0.2,2.9V51.9L-6-26L-140.8-103.8z M-160.4,85.6v-186.5
					c0-7.7,2-15.4,5.9-22l5.6-7.5L32.8-26L-160.4,85.6z"/>
			</g>
		</g>
	</g>
</g>
</svg>
