<svg id="Layer_1" data-name="Layer 1" xmlns="http://www.w3.org/2000/svg" viewBox="0 0 287.86 73.6"><defs><style>.cls-1{fill:#dd4097;}</style></defs><title>proximity_lab_logo_2018</title><path class="cls-1" d="M77,25.86a13.52,13.52,0,0,1,3.53-.64A5.52,5.52,0,0,1,83,25.8a5.1,5.1,0,0,1,1.85,1.5A7.61,7.61,0,0,1,86,29.56a15.27,15.27,0,0,1,.78,4.86c0,1.69,0,3-.13,3.88A14.24,14.24,0,0,1,86.12,41,7.27,7.27,0,0,1,85,43.36a5.45,5.45,0,0,1-4.67,2.08A18.22,18.22,0,0,1,77,45.05a20.39,20.39,0,0,1-3.59-1V55.16H70V25.45h2.59l.78,2.11A10.76,10.76,0,0,1,77,25.86Zm3,16.46a3,3,0,0,0,1.85-.52c1-.81,1.56-3,1.56-6.52q0-6.87-3.41-6.87A16,16,0,0,0,73.39,30V41.43A24.11,24.11,0,0,0,80,42.32Z"/><path class="cls-1" d="M96.87,26.49a12.45,12.45,0,0,1,2-.84,9.1,9.1,0,0,1,2.89-.43,5.84,5.84,0,0,1,2.26.3v3.34a16.49,16.49,0,0,0-2.85-.19,10.39,10.39,0,0,0-3.29.47,16.61,16.61,0,0,0-3.35,1.69V45.14H91.12V25.45h2.6l.82,2.48.85-.55C95.88,27.06,96.38,26.76,96.87,26.49Z"/><path class="cls-1" d="M106.29,35.57a18.17,18.17,0,0,1,.86-6.27,5.52,5.52,0,0,1,2.7-3.13,12.16,12.16,0,0,1,5.2-.91q5,0,6.88,2.23t1.87,7.92q0,5.69-1.87,7.8t-6.85,2.12q-5,0-6.88-2.19T106.29,35.57Zm3.95-4.82a7.47,7.47,0,0,0-.42,2c-.08.77-.11,1.7-.11,2.76a23.28,23.28,0,0,0,.13,2.71A6,6,0,0,0,110.3,40a4.22,4.22,0,0,0,.72,1.15,2.43,2.43,0,0,0,1.1.65,7.55,7.55,0,0,0,2.63.35,19.87,19.87,0,0,0,2.3-.11,4.85,4.85,0,0,0,1.47-.44,2.37,2.37,0,0,0,1.09-1.1,11.9,11.9,0,0,0,.78-5,15.7,15.7,0,0,0-.41-4.5,6.24,6.24,0,0,0-.76-1.56,2.19,2.19,0,0,0-1-.72,7.08,7.08,0,0,0-2.63-.41c-1.07,0-1.82,0-2.27.07a6.28,6.28,0,0,0-1.35.32,2.16,2.16,0,0,0-1,.7A5.56,5.56,0,0,0,110.24,30.75Z"/><path class="cls-1" d="M125.21,45.14l7-9.86-7-9.83h4.19l4.9,7.12,5-7.12h4.19l-7.12,9.94,6.82,9.75h-3.89l-4.94-7-4.93,7Z"/><path class="cls-1" d="M146.61,22.33V20c0-.65.3-1,.89-1h2.41a.75.75,0,0,1,.63.28,1,1,0,0,1,.23.69v2.33a.76.76,0,0,1-.86.85H147.5a.88.88,0,0,1-.65-.24A.82.82,0,0,1,146.61,22.33Zm.3,22.81V25.45h3.41V45.14Z"/><path class="cls-1" d="M171.35,30.27V45.14h-3.41V31.68a3.46,3.46,0,0,0-.85-2.43,2.82,2.82,0,0,0-2.15-.91,10.33,10.33,0,0,0-2.38.26,10.62,10.62,0,0,0-1.8.58c-.48.21-1.23.58-2.24,1.13V45.14h-3.41V25.45h2.56l.85,2.3c.15-.08.36-.2.63-.37l.61-.39.59-.36c.26-.14.47-.26.63-.33s.37-.17.62-.3a4.61,4.61,0,0,1,.66-.27l.67-.21.74-.18a13.23,13.23,0,0,1,1.84-.12,7.72,7.72,0,0,1,2.06.3A4.82,4.82,0,0,1,170.65,28a12,12,0,0,1,7.71-2.79,5.63,5.63,0,0,1,4.36,1.8,6.69,6.69,0,0,1,1.65,4.7V45.14H181V31.68a3.11,3.11,0,0,0-1.45-2.93,4.29,4.29,0,0,0-2.15-.41A10.42,10.42,0,0,0,171.35,30.27Z"/><path class="cls-1" d="M188.38,22.33V20c0-.65.29-1,.89-1h2.41a.75.75,0,0,1,.63.28,1,1,0,0,1,.22.69v2.33a.75.75,0,0,1-.85.85h-2.41a.87.87,0,0,1-.65-.24A.82.82,0,0,1,188.38,22.33Zm.29,22.81V25.45h3.42V45.14Z"/><path class="cls-1" d="M202.43,19.92v5.49h5.38v3.08h-5.38v9.38a6.53,6.53,0,0,0,.5,3A2.41,2.41,0,0,0,204.44,42c1.88.52,2.9.78,3.08.78v2.3h-3.6q-4.9,0-4.9-7V28.49H195.5v-2.3l3.52-.78.74-5.49Z"/><path class="cls-1" d="M210.15,25.45h3.67l4.38,15a1.81,1.81,0,0,0,2.26,1.48l.07,0,5.2-16.39h3.71l-8.2,25.92-2.75,3.79h-2.26l3.3-10c-2.37,0-4-1.44-4.82-4.34Z"/><path class="cls-1" d="M239.49,38.13v-22h3.41V37.91a6.55,6.55,0,0,0,.5,3,2.36,2.36,0,0,0,1.5,1.11c1.88.52,2.91.78,3.08.78v2.3h-3.52C241.15,45.14,239.49,42.81,239.49,38.13Z"/><path class="cls-1" d="M251.21,26.26a32.57,32.57,0,0,1,9.57-1.18q3.63,0,5.12,2.44a6.72,6.72,0,0,1,.81,3.45V45.14h-2.59l-.82-2.3a8.09,8.09,0,0,1-1.22.69,22.65,22.65,0,0,1-3,1.21,10.73,10.73,0,0,1-3.34.63A5.12,5.12,0,0,1,252,44a4.76,4.76,0,0,1-1.43-3.63V38.21a4.73,4.73,0,0,1,5.15-5.05h7.57c0-.71,0-1.25,0-1.61s0-.65,0-.87a3.69,3.69,0,0,0-.15-.82,2.53,2.53,0,0,0-.37-.81,1.53,1.53,0,0,0-.61-.52,3.17,3.17,0,0,0-1.82-.37q-3,0-9.16.4ZM254,40c0,1.49.71,2.23,2.12,2.23a12.46,12.46,0,0,0,3-.46c1.2-.31,2.19-.62,3-.91l1.19-.45V35.61l-7.27.52a2,2,0,0,0-2,2.3Z"/><path class="cls-1" d="M274.43,16V26.6a18,18,0,0,1,3.6-1.06,17.76,17.76,0,0,1,3.26-.39,7.34,7.34,0,0,1,2.21.3,5.16,5.16,0,0,1,1.61.8,4.72,4.72,0,0,1,1.17,1.26,7.41,7.41,0,0,1,.8,1.59,12.09,12.09,0,0,1,.48,1.95,27.08,27.08,0,0,1,.3,4.34q0,10-6.46,10a11.1,11.1,0,0,1-3.82-.82A12.43,12.43,0,0,1,274.47,43l-.78,2.15h-2.6V16ZM281,42.18c2.28,0,3.41-2.28,3.41-6.83,0-2.82-.29-4.72-.89-5.71A2.77,2.77,0,0,0,281,28.27a24.3,24.3,0,0,0-6.56.89V40.58A16,16,0,0,0,281,42.18Z"/><path class="cls-1" d="M26,60.44.9,45.92l.18-2.86L28.32,27.32V59.15ZM4.51,44.54l20.82,12V32.51Z"/><path class="cls-1" d="M3.81,73.6A3.8,3.8,0,0,1,0,69.81V41.94L29.83,59.15,5.7,73.09A3.7,3.7,0,0,1,3.81,73.6ZM3,69.81a.79.79,0,0,0,.8.79.88.88,0,0,0,.39-.1L23.83,59.16,3,47.14Z"/><path class="cls-1" d="M25.33,61.75V29.91h1.5l-.75-1.29L51.77,13.8l1,1.15a6.71,6.71,0,0,1,.91,3.4V41.48a6.83,6.83,0,0,1-3.38,5.88Zm3-31V56.56l20.44-11.8a3.81,3.81,0,0,0,1.88-3.28V18.35a3.39,3.39,0,0,0,0-.45Z"/><path class="cls-1" d="M26.82,31.65,1.16,16.26.91,15a6.75,6.75,0,0,1,2.54-2.52L23.45.89a6.87,6.87,0,0,1,6.69,0L50.3,12.49A6.69,6.69,0,0,1,52.74,15l.53,1.41ZM4.53,15.31,26.82,28.18,49.13,15.31a2.64,2.64,0,0,0-.35-.23L28.66,3.46a3.83,3.83,0,0,0-3.71,0L4.94,15A2.9,2.9,0,0,0,4.53,15.31Z"/><path class="cls-1" d="M0,47.14V18.35A6.87,6.87,0,0,1,.91,15l.86-1.15L29.82,29.91ZM3,17.91a3.25,3.25,0,0,0,0,.44V41.94l20.82-12Z"/></svg>