<?xml version="1.0" encoding="UTF-8"?>
<svg width="24px" height="16px" viewBox="0 0 24 16" version="1.1" xmlns="http://www.w3.org/2000/svg" xmlns:xlink="http://www.w3.org/1999/xlink">
    <!-- Generator: Sketch 46.2 (44496) - http://www.bohemiancoding.com/sketch -->
    <title>Group</title>
    <desc>Created with Sketch.</desc>
    <defs></defs>
    <g id="Symbols" stroke="none" stroke-width="1" fill="none" fill-rule="evenodd">
        <g id="footer" transform="translate(-651.000000, -204.000000)" fill-rule="nonzero" fill="#9B9B9B">
            <g id="Group-2">
                <g transform="translate(125.000000, 180.000000)">
                    <g id="behance" transform="translate(519.000000, 21.000000)">
                        <g id="Group" transform="translate(7.000000, 3.000000)">
                            <g id="Shape">
                                <path d="M10.7372813,1.58008929 C11.1796875,2.20563616 11.4023438,2.96010603 11.4023438,3.83761719 C11.4023438,4.74036272 11.1767812,5.46959821 10.7314687,6.01953683 C10.4794688,6.32633371 10.1147812,6.60799107 9.62990625,6.85995536 C10.3666875,7.13715402 10.923375,7.56993304 11.2997813,8.1658817 C11.6747813,8.7661942 11.8622813,9.48660714 11.8622813,10.3374609 C11.8622813,11.2149721 11.6484375,12.000558 11.21775,12.6957366 C10.9453125,13.1597266 10.6054688,13.5465904 10.1953125,13.8667634 C9.735375,14.2269699 9.1875,14.4715346 8.562,14.6078571 C7.93359375,14.738298 7.25240625,14.8049888 6.51853125,14.8049888 L0,14.8049888 L0,0 L6.9916875,0 C8.75390625,0.025234375 10.0049062,0.551361607 10.7372813,1.58008929 Z M2.88571875,2.57476004 L2.88571875,5.83578125 L6.40134375,5.83578125 C7.02834375,5.83578125 7.5365625,5.71425781 7.93209375,5.47111607 C8.3203125,5.22361049 8.51803125,4.79073661 8.51803125,4.16964844 C8.51803125,3.47741071 8.25871875,3.02679688 7.7416875,2.80300781 C7.296375,2.64885045 6.72365625,2.57476004 6.03225,2.57476004 L2.88571875,2.57476004 Z M2.88571875,8.29186384 L2.88571875,12.2362054 L6.39553125,12.2362054 C7.02253125,12.2362054 7.51171875,12.145798 7.860375,11.9737109 C8.49609375,11.650692 8.8125,11.0340625 8.8125,10.1254353 C8.8125,9.35303571 8.50490625,8.82548549 7.889625,8.53794643 C7.546875,8.3778125 7.06640625,8.29489955 6.4453125,8.29186384 L2.88571875,8.29186384 L2.88571875,8.29186384 Z"></path>
                                <path d="M21.202125,4.07772321 C21.9492188,4.42161272 22.5659063,4.95969308 23.0536875,5.69784598 C23.4887813,6.35299107 23.7744375,7.10603795 23.90625,7.96429129 C23.9794688,8.46527902 24.0102187,9.18720982 23.9970937,10.1328348 L16.2070312,10.1328348 C16.251,11.2356529 16.626,12.0034989 17.329125,12.4467132 C17.7539062,12.720971 18.2682187,12.8572935 18.8671875,12.8572935 C19.5044063,12.8572935 20.0229375,12.68976 20.4184688,12.3547879 C20.6382188,12.1739732 20.828625,11.9262779 20.9970938,11.6017411 L23.8506563,11.6017411 C23.7759375,12.2479688 23.4287813,12.9106083 22.8135938,13.583683 C21.8554688,14.6434319 20.513625,15.1785714 18.7895625,15.1785714 C17.3671875,15.1785714 16.1132812,14.7294754 15.0234375,13.8311886 C13.9365,12.9314788 13.3945312,11.4729129 13.3945312,9.44657366 C13.3945312,7.55219308 13.8838125,6.09514509 14.8681875,5.08273438 C15.8481562,4.07184152 17.1225938,3.56335938 18.6900937,3.56335938 C19.6200938,3.56335938 20.4580312,3.73981027 21.202125,4.07772321 Z M17.0214375,6.55164063 C16.6258125,6.97113839 16.3797187,7.53435826 16.27725,8.2503125 L21.09375,8.2503125 C21.0424687,7.48844308 20.7934688,6.90881138 20.3466563,6.51748884 C19.9028438,6.12464844 19.3505625,5.92751674 18.6914062,5.92751674 C17.9736562,5.92761161 17.4155625,6.13811942 17.0214375,6.55164063 Z"></path>
                            </g>
                            <rect id="Rectangle-path" x="15" y="1.51785714" width="7.5" height="1.51785714"></rect>
                        </g>
                    </g>
                </g>
            </g>
        </g>
    </g>
</svg>