<?xml version="1.0" encoding="UTF-8" standalone="no"?>
<!-- Created with Inkscape (http://www.inkscape.org/) -->

<svg
   xmlns:dc="http://purl.org/dc/elements/1.1/"
   xmlns:cc="http://creativecommons.org/ns#"
   xmlns:rdf="http://www.w3.org/1999/02/22-rdf-syntax-ns#"
   xmlns:svg="http://www.w3.org/2000/svg"
   xmlns="http://www.w3.org/2000/svg"
   xmlns:sodipodi="http://sodipodi.sourceforge.net/DTD/sodipodi-0.dtd"
   xmlns:inkscape="http://www.inkscape.org/namespaces/inkscape"
   id="svg2993"
   version="1.1"
   inkscape:version="0.48.4 r9939"
   width="382.4625"
   height="150"
   xml:space="preserve"
   sodipodi:docname="Dyn-logo-black (1).pdf"><metadata
     id="metadata2999"><rdf:RDF><cc:Work
         rdf:about=""><dc:format>image/svg+xml</dc:format><dc:type
           rdf:resource="http://purl.org/dc/dcmitype/StillImage" /><dc:title></dc:title></cc:Work></rdf:RDF></metadata><defs
     id="defs2997"><clipPath
       clipPathUnits="userSpaceOnUse"
       id="clipPath3019"><path
         d="M 75.4336,764.461 C 27.6328,687.766 0,597.234 0,500.23 0,403.688 27.3555,313.559 74.6992,237.125 116.934,179.102 260.969,136.891 350.402,140.875 c 62.477,2.773 121.625,16.891 175.809,40.211 -209.992,59.449 -363.824,252.508 -363.824,481.551 0,63.718 11.984,124.64 33.703,180.672 -47.965,-15.243 -91.082,-40.293 -120.6564,-78.848"
         id="path3021" /></clipPath><clipPath
       clipPathUnits="userSpaceOnUse"
       id="clipPath3025"><path
         d="m -4.32422,135.016 0,712.339 534.21122,0 0,-712.339 -534.21122,0 z"
         id="path3027" /></clipPath><clipPath
       clipPathUnits="userSpaceOnUse"
       id="clipPath3031"><path
         d="m -10.9492,852.309 0,-732.735 543.4722,0 0,732.735 -543.4722,0 z"
         id="path3033" /></clipPath><clipPath
       clipPathUnits="userSpaceOnUse"
       id="clipPath3047"><path
         d="m 74.2773,762.66 c 76.4567,47.403 166.5197,74.899 263.0467,74.899 233.606,0 429.797,-160.004 484.938,-376.418 28.539,59.804 44.687,125.937 44.687,195.804 0,96.512 -41.222,216.532 -104.293,268.438 -76.41,47.273 -166.453,74.582 -262.914,74.582 -179.789,0 -340.008,-94.934 -425.4647,-237.305"
         id="path3049" /></clipPath><clipPath
       clipPathUnits="userSpaceOnUse"
       id="clipPath3053"><path
         d="m 911.199,461.141 -864.906,0 0,557.639 864.906,0 0,-557.639 z"
         id="path3055" /></clipPath><clipPath
       clipPathUnits="userSpaceOnUse"
       id="clipPath3069"><path
         d="m 838.559,663.402 c 0,-276.644 -224.172,-500.859 -500.801,-500.859 -96.653,0 -187.051,27 -263.2502,74.793 C 162.195,94.2734 320.363,0 500.285,0 c 276.61,0 500.835,224.211 500.835,500.824 0,179.949 -96.143,344.473 -238.624,424.684 50.867,-73.067 76.063,-165.485 76.063,-262.106"
         id="path3071" /></clipPath><clipPath
       clipPathUnits="userSpaceOnUse"
       id="clipPath3075"><path
         d="m 71.9883,-4.83984 0,934.86284 934.8717,0 0,-934.86284 -934.8717,0 z"
         id="path3077" /></clipPath><clipPath
       clipPathUnits="userSpaceOnUse"
       id="clipPath3081"><path
         d="m 1007.88,-6.20703 -940.13,0 0,940.17603 940.13,0 0,-940.17603 z"
         id="path3083" /></clipPath></defs><sodipodi:namedview
     pagecolor="#ffffff"
     bordercolor="#666666"
     borderopacity="1"
     objecttolerance="10"
     gridtolerance="10"
     guidetolerance="10"
     inkscape:pageopacity="0"
     inkscape:pageshadow="2"
     inkscape:window-width="1012"
     inkscape:window-height="799"
     id="namedview2995"
     showgrid="false"
     inkscape:zoom="1.7413472"
     inkscape:cx="177.17317"
     inkscape:cy="98.632487"
     inkscape:window-x="768"
     inkscape:window-y="92"
     inkscape:window-maximized="0"
     inkscape:current-layer="g3001" /><g
     id="g3001"
     inkscape:groupmode="layer"
     inkscape:label="Dyn-logo-black (1)"
     transform="matrix(1.25,0,0,-1.25,0,150)"><g
       id="g3003"
       transform="scale(0.12,0.12)"><path
         d="m 1231.69,694.332 c -1.08,34.539 -2.68,69.188 -4.81,103.992 9.1,-1.078 18.99,-2.008 29.71,-2.816 10.71,-0.797 22.75,-1.207 36.12,-1.207 17.68,0 37.48,0.676 59.42,2.015 21.97,1.332 50.61,2.008 85.94,2.008 46.02,0 87.93,-4.16 125.66,-12.453 37.75,-8.293 70.29,-22.351 97.61,-42.156 27.32,-19.801 48.39,-46.445 63.37,-79.902 15,-33.454 22.52,-75.618 22.52,-126.5 0,-44.411 -7.39,-84.547 -22.1,-120.403 -14.75,-35.871 -34.73,-66.562 -60.17,-91.969 -25.47,-25.429 -54.92,-44.855 -88.38,-58.265 -33.45,-13.391 -69.2,-20.071 -107.2,-20.071 -40.14,0 -74.42,0.262 -102.78,0.813 -28.39,0.539 -53,0.793 -73.89,0.793 l -36.12,0 c -10.72,0 -20.61,-0.516 -29.71,-1.606 2.13,33.227 3.73,67.106 4.81,101.622 1.08,34.586 1.6,74.031 1.6,118.457 l 0,109.199 c 0,44.437 -0.52,83.93 -1.6,118.449 m 120.44,-286.258 0,-48.219 c 0,-15.511 0.13,-29.679 0.41,-42.523 0.26,-12.871 0.41,-21.199 0.41,-24.918 8.03,-0.57 17.66,-1.082 28.92,-1.594 11.23,-0.578 25.14,-0.84 41.74,-0.84 60.48,0 108.41,20.614 143.74,61.833 35.34,41.269 53.01,103.648 53.01,187.105 0,33.207 -4.42,62.937 -13.24,89.168 -8.86,26.227 -21.3,48.59 -37.35,67.062 -16.07,18.454 -35.34,32.649 -57.82,42.551 -22.51,9.906 -47.66,14.852 -75.49,14.852 -19.27,0 -34.92,-0.383 -46.98,-1.192 -12.04,-0.82 -24.23,-1.746 -36.53,-2.828 0,-3.734 -0.15,-12.019 -0.41,-24.879 -0.28,-12.859 -0.41,-27.316 -0.41,-43.371 l 0,-272.207"
         style="fill:#ffffff;fill-opacity:1;fill-rule:nonzero;stroke:none;"
         id="path3005" /><path
         d="m 2015.37,449.422 c 7.99,21.152 15.65,41.617 22.86,61.371 7.26,19.805 14.2,39.645 20.9,59.453 6.68,19.824 13.5,40.703 20.49,62.66 5.84,-1.074 11.33,-2.011 16.4,-2.812 5.15,-0.797 10.37,-1.199 15.71,-1.199 5.34,0 10.73,0.402 16.07,1.199 5.33,0.801 11.24,1.738 17.64,2.812 -2.68,-6.972 -8.94,-21.824 -18.85,-44.578 -9.93,-22.769 -21.95,-50.883 -36.14,-84.351 -14.2,-33.403 -29.87,-70.473 -46.97,-111.157 -17.16,-40.707 -34.41,-81.808 -51.82,-123.324 -17.4,-41.484 -34.28,-82.59 -50.59,-123.269 -16.31,-40.653 -30.64,-77.602 -42.94,-110.8168 -5.9,1.1054 -11.51,1.9882 -16.86,2.832 -5.36,0.793 -10.97,1.1836 -16.85,1.1836 -5.91,0 -11.56,-0.3906 -16.9,-1.1836 -5.34,-0.8438 -10.98,-1.7266 -16.85,-2.832 17.66,35.3164 35.04,70.2808 52.17,104.8168 17.16,34.503 33.76,69.433 49.83,104.785 -12.86,30.531 -27.19,65.07 -42.97,103.636 -15.8,38.551 -31.31,76.278 -46.57,113.235 -15.28,36.898 -29.23,70.594 -41.77,101.144 -12.57,30.532 -22.1,53.817 -28.53,69.879 10.19,-1.074 20.22,-2.011 30.13,-2.812 9.92,-0.797 19.93,-1.199 30.11,-1.199 10.16,0 20.08,0.402 29.7,1.199 9.67,0.801 19.57,1.738 29.73,2.812 15.52,-42.285 31.18,-84.34 46.96,-126.129 15.8,-41.707 32.27,-83.738 49.38,-126.007 9.68,24.609 18.48,47.492 26.53,68.652"
         style="fill:#ffffff;fill-opacity:1;fill-rule:nonzero;stroke:none;"
         id="path3007" /><path
         d="m 2302.38,572.668 c 15.03,22.492 32.52,39.879 52.63,52.227 20.05,12.277 42.93,18.453 68.67,18.453 40.14,0 71.06,-11.637 92.77,-34.946 21.64,-23.281 32.48,-60.922 32.48,-112.812 0,-27.313 -0.53,-51.395 -1.61,-72.274 -1.09,-20.867 -1.61,-41.734 -1.61,-62.632 0,-17.145 0.42,-35.743 1.25,-55.844 0.78,-20.059 1.71,-39.485 2.8,-58.235 -6.99,1.09 -15.81,1.606 -26.53,1.606 l -67.44,0 c -10.72,0 -19.56,-0.516 -26.52,-1.606 3.74,27.848 6.16,60.653 7.27,98.407 1.03,37.765 1.53,80.98 1.53,129.687 0,33.711 -5.74,58.461 -17.24,74.278 -11.5,15.773 -27.65,23.691 -48.58,23.691 -24.09,0 -41.75,-10.441 -52.98,-31.336 -11.23,-20.875 -16.89,-49.738 -16.89,-86.68 l 0,-32.136 c 0,-32.641 0.41,-63.434 1.25,-92.34 0.76,-28.949 2.54,-56.762 5.23,-83.571 -6.99,1.09 -15.7,1.606 -26.17,1.606 l -67.83,0 c -10.16,0 -19.02,-0.516 -26.48,-1.606 2.64,26.809 4.41,54.622 5.24,83.571 0.77,28.906 1.19,59.699 1.19,92.34 l 0,32.136 c 0,32.625 -0.42,63.258 -1.19,91.914 -0.83,28.645 -2.6,57.438 -5.24,86.34 9.64,-1.074 19.17,-2.011 28.48,-2.812 9.38,-0.797 18.91,-1.199 28.54,-1.199 9.64,0 19.12,0.402 28.49,1.199 9.38,0.801 19.38,1.738 30.15,2.812 l -3.22,-60.238 1.56,0 0,0"
         style="fill:#ffffff;fill-opacity:1;fill-rule:nonzero;stroke:none;"
         id="path3009" /><path
         d="m 2443.73,163.707 c 3,-2.047 7.2,-3.465 11.6,-3.465 7.98,0 12.85,4.492 12.85,11.055 0,5.898 -3.05,9.473 -10.77,12.367 -8.56,3.086 -13.68,7.512 -13.68,14.691 0,7.829 6.37,13.516 15.48,13.516 4.98,0 8.77,-1.269 10.58,-2.449 l -1.47,-3.238 c -1.39,1.035 -4.81,2.507 -9.36,2.507 -8.6,0 -11.56,-5.519 -11.56,-9.691 0,-5.852 3.42,-8.863 11.1,-11.844 8.74,-3.578 13.4,-7.574 13.4,-15.468 0,-7.739 -5.54,-14.606 -16.86,-14.606 -4.62,0 -9.97,1.5 -12.77,3.543 l 1.46,3.082 0,0"
         style="fill:#ffffff;fill-opacity:1;fill-rule:nonzero;stroke:none;"
         id="path3011" /><path
         d="m 2526.91,183.039 c -0.47,7.984 -1.09,17.789 -1.09,23.609 l -0.21,0 c -1.96,-5.738 -4.09,-11.929 -7.15,-19.898 l -11.25,-28.867 -2.57,0 -10.51,28.242 c -3.01,8.293 -5.3,14.703 -6.84,20.523 l -0.15,0 c -0.16,-6.226 -0.57,-15.472 -1.2,-24.308 l -1.65,-24.457 -3.74,0 3.88,53.191 4.34,0 11.46,-30.719 c 2.5,-6.714 4.31,-12.062 5.85,-17.187 l 0.22,0 c 1.34,4.898 3.26,10.008 5.9,17.187 l 11.92,30.719 4.5,0 3.57,-53.191 -3.73,0 -1.55,25.156 0,0"
         style="fill:#ffffff;fill-opacity:1;fill-rule:nonzero;stroke:none;"
         id="path3013" /><g
         id="g3015"><g
           id="g3017"
           clip-path="url(#clipPath3019)"><g
             id="g3023"
             clip-path="url(#clipPath3025)"><g
               id="g3029"
               clip-path="url(#clipPath3031)"><path
                 d="m 325,140 0,1 -16,0 0,1 -11,0 0,1 -8,0 0,1 -7,0 0,1 -7,0 0,1 -6,0 0,1 -6,0 0,1 -5,0 0,1 -5,0 0,1 -5,0 0,1 -4,0 0,1 -5,0 0,1 -4,0 0,1 -4,0 0,1 -4,0 0,1 -4,0 0,1 -4,0 0,1 -3,0 0,1 -4,0 0,1 -3,0 0,1 -3,0 0,1 -4,0 0,1 -3,0 0,1 -3,0 0,1 -3,0 0,1 -3,0 0,1 -3,0 0,1 -3,0 0,1 -3,0 0,1 -2,0 0,1 -3,0 0,1 -3,0 0,1 -2,0 0,1 -3,0 0,1 -2,0 0,1 -3,0 0,1 -2,0 0,1 -3,0 0,1 -2,0 0,1 -2,0 0,1 -3,0 0,1 -2,0 0,1 -2,0 0,1 -2,0 0,1 -2,0 0,1 -2,0 0,1 -3,0 0,1 -1,0 0,1 -2,0 0,1 -2,0 0,1 -2,0 0,1 -2,0 0,1 -2,0 0,1 -2,0 0,1 -2,0 0,1 -1,0 0,1 -2,0 0,1 -2,0 0,1 -1,0 0,1 -2,0 0,1 -1,0 0,1 -2,0 0,1 -2,0 0,1 -1,0 0,1 -2,0 0,1 -1,0 0,1 -2,0 0,1 -1,0 0,1 -1,0 0,1 -2,0 0,1 -1,0 0,1 -1,0 0,1 -2,0 0,1 -1,0 0,1 -1,0 0,1 -1,0 0,1 -1,0 0,1 -2,0 0,1 -1,0 0,1 -1,0 0,1 -1,0 0,1 -1,0 0,1 -1,0 0,1 -1,0 0,1 -1,0 0,1 -1,0 0,1 -1,0 0,1 -1,0 0,1 -1,0 0,1 -1,0 0,2 -1,0 0,1 -1,0 0,1 -1,0 0,1 -1,0 0,1 -1,0 0,2 -1,0 0,2 -1,0 0,1 -1,0 0,2 -1,0 0,2 -1,0 0,2 -1,0 0,1 -1,0 0,2 -1,0 0,2 -1,0 0,2 -1,0 0,1 -1,0 0,2 -1,0 0,2 -1,0 0,2 -1,0 0,1 -1,0 0,2 -1,0 0,2 -1,0 0,2 -1,0 0,2 -1,0 0,2 -1,0 0,2 -1,0 0,2 -1,0 0,2 -1,0 0,2 -1,0 0,2 -1,0 0,2 -1,0 0,2 -1,0 0,2 -1,0 0,2 -1,0 0,2 -1,0 0,2 -1,0 0,3 -1,0 0,2 -1,0 0,2 -1,0 0,3 -1,0 0,2 -1,0 0,3 -1,0 0,2 -1,0 0,3 -1,0 0,2 -1,0 0,3 -1,0 0,2 -1,0 0,3 -1,0 0,2 -1,0 0,3 -1,0 0,3 -1,0 0,3 -1,0 0,3 -1,0 0,3 -1,0 0,3 -1,0 0,3 -1,0 0,3 -1,0 0,3 -1,0 0,3 -1,0 0,3 -1,0 0,4 -1,0 0,4 -1,0 0,4 -1,0 0,4 -1,0 0,4 -1,0 0,4 -1,0 0,4 -1,0 0,4 -1,0 0,4 -1,0 0,6 -1,0 0,5 -1,0 0,6 -1,0 0,6 -1,0 0,5 -1,0 0,6 -1,0 0,9 -1,0 0,10 -1,0 0,9 -1,0 0,14 -1,0 0,58 1,0 0,15 1,0 0,9 1,0 0,9 1,0 0,10 1,0 0,5 1,0 0,6 1,0 0,6 1,0 0,5 1,0 0,6 1,0 0,5 1,0 0,5 1,0 0,4 1,0 0,4 1,0 0,4 1,0 0,3 1,0 0,4 1,0 0,4 1,0 0,4 1,0 0,4 1,0 0,3 1,0 0,3 1,0 0,3 1,0 0,3 1,0 0,3 1,0 0,3 1,0 0,3 1,0 0,3 1,0 0,3 1,0 0,4 1,0 0,2 1,0 0,3 1,0 0,2 1,0 0,3 1,0 0,2 1,0 0,3 1,0 0,2 1,0 0,2 1,0 0,3 1,0 0,2 1,0 0,3 1,0 0,2 1,0 0,3 1,0 0,2 1,0 0,2 1,0 0,2 1,0 0,2 1,0 0,2 1,0 0,2 1,0 0,2 1,0 0,2 1,0 0,2 1,0 0,2 1,0 0,2 1,0 0,2 1,0 0,3 1,0 0,2 1,0 0,2 1,0 0,1 1,0 0,2 1,0 0,2 1,0 0,2 1,0 0,1 1,0 0,2 1,0 0,2 1,0 0,2 1,0 0,1 1,0 0,2 1,0 0,2 1,0 0,2 1,0 0,1 1,0 0,2 1,0 0,2 1,0 0,1 1,0 0,2 1,0 0,2 1,0 0,1 1,0 0,1 1,0 0,1 1,0 0,1 1,0 0,2 1,0 0,1 1,0 0,1 1,0 0,1 1,0 0,1 1,0 0,1 1,0 0,2 1,0 0,1 1,0 0,1 1,0 0,1 1,0 0,1 1,0 0,1 1,0 0,1 1,0 0,1 2,0 0,1 1,0 0,1 1,0 0,1 1,0 0,1 1,0 0,1 1,0 0,1 1,0 0,1 1,0 0,1 1,0 0,1 2,0 0,1 1,0 0,1 1,0 0,1 1,0 0,1 1,0 0,1 2,0 0,1 1,0 0,1 1,0 0,1 1,0 0,1 2,0 0,1 1,0 0,1 2,0 0,1 1,0 0,1 2,0 0,1 1,0 0,1 2,0 0,1 1,0 0,1 1,0 0,1 2,0 0,1 2,0 0,1 1,0 0,1 2,0 0,1 2,0 0,1 2,0 0,1 1,0 0,1 2,0 0,1 2,0 0,1 1,0 0,1 3,0 0,1 2,0 0,1 2,0 0,1 2,0 0,1 2,0 0,1 2,0 0,1 2,0 0,1 2,0 0,1 2,0 0,1 3,0 0,1 2,0 0,1 2,0 0,1 3,0 0,1 2,0 0,1 3,0 0,1 2,0 0,1 3,0 0,1 3,0 0,1 3,0 0,1 3,0 0,1 3,0 0,1 2,0 0,-1 -1,0 0,-3 -1,0 0,-3 -1,0 0,-3 -1,0 0,-3 -1,0 0,-3 -1,0 0,-3 -1,0 0,-3 -1,0 0,-3 -1,0 0,-3 -1,0 0,-3 -1,0 0,-3 -1,0 0,-3 -1,0 0,-3 -1,0 0,-3 -1,0 0,-4 -1,0 0,-4 -1,0 0,-4 -1,0 0,-5 -1,0 0,-4 -1,0 0,-4 -1,0 0,-4 -1,0 0,-4 -1,0 0,-5 -1,0 0,-4 -1,0 0,-4 -1,0 0,-7 -1,0 0,-7 -1,0 0,-8 -1,0 0,-7 -1,0 0,-7 -1,0 0,-7 -1,0 0,-15 -1,0 0,-22 -1,0 0,-27 1,0 0,-23 1,0 0,-11 1,0 0,-8 1,0 0,-8 1,0 0,-8 1,0 0,-8 1,0 0,-6 1,0 0,-4 1,0 0,-5 1,0 0,-5 1,0 0,-5 1,0 0,-4 1,0 0,-5 1,0 0,-5 1,0 0,-4 1,0 0,-4 1,0 0,-3 1,0 0,-3 1,0 0,-4 1,0 0,-3 1,0 0,-3 1,0 0,-4 1,0 0,-3 1,0 0,-3 1,0 0,-4 1,0 0,-3 1,0 0,-3 1,0 0,-3 1,0 0,-2 1,0 0,-3 1,0 0,-2 1,0 0,-3 1,0 0,-2 1,0 0,-3 1,0 0,-3 1,0 0,-2 1,0 0,-3 1,0 0,-2 1,0 0,-3 1,0 0,-2 1,0 0,-3 1,0 0,-2 1,0 0,-2 1,0 0,-2 1,0 0,-2 1,0 0,-2 1,0 0,-2 1,0 0,-2 1,0 0,-2 1,0 0,-3 1,0 0,-2 1,0 0,-2 1,0 0,-2 1,0 0,-2 1,0 0,-2 1,0 0,-2 1,0 0,-2 1,0 0,-2 1,0 0,-2 1,0 0,-2 1,0 0,-1 1,0 0,-2 1,0 0,-2 1,0 0,-1 1,0 0,-2 1,0 0,-2 1,0 0,-1 1,0 0,-2 1,0 0,-2 1,0 0,-2 1,0 0,-1 1,0 0,-2 1,0 0,-2 1,0 0,-1 1,0 0,-2 1,0 0,-2 1,0 0,-1 1,0 0,-2 1,0 0,-2 1,0 0,-1 1,0 0,-2 1,0 0,-1 1,0 0,-2 1,0 0,-1 1,0 0,-1 1,0 0,-2 1,0 0,-1 1,0 0,-2 1,0 0,-1 1,0 0,-1 1,0 0,-2 1,0 0,-1 1,0 0,-2 1,0 0,-1 1,0 0,-2 1,0 0,-1 1,0 0,-1 1,0 0,-2 1,0 0,-1 1,0 0,-2 1,0 0,-1 1,0 0,-1 1,0 0,-2 1,0 0,-1 1,0 0,-1 1,0 0,-1 1,0 0,-2 1,0 0,-1 1,0 0,-1 1,0 0,-1 1,0 0,-1 1,0 0,-2 1,0 0,-1 1,0 0,-1 1,0 0,-1 1,0 0,-1 1,0 0,-2 1,0 0,-1 1,0 0,-1 1,0 0,-1 1,0 0,-1 1,0 0,-2 1,0 0,-1 1,0 0,-1 1,0 0,-1 1,0 0,-1 1,0 0,-2 1,0 0,-1 1,0 0,-1 1,0 0,-1 1,0 0,-1 1,0 0,-1 1,0 0,-1 1,0 0,-1 1,0 0,-1 1,0 0,-1 1,0 0,-1 1,0 0,-1 1,0 0,-1 1,0 0,-1 1,0 0,-1 1,0 0,-1 1,0 0,-1 1,0 0,-1 1,0 0,-1 1,0 0,-1 1,0 0,-1 1,0 0,-1 1,0 0,-1 1,0 0,-1 1,0 0,-1 1,0 0,-1 1,0 0,-1 1,0 0,-1 1,0 0,-1 1,0 0,-1 1,0 0,-1 1,0 0,-1 1,0 0,-1 1,0 0,-1 1,0 0,-1 1,0 0,-1 1,0 0,-1 2,0 0,-1 1,0 0,-1 1,0 0,-1 1,0 0,-1 1,0 0,-1 1,0 0,-1 1,0 0,-1 2,0 0,-1 1,0 0,-1 1,0 0,-1 1,0 0,-1 1,0 0,-1 1,0 0,-1 1,0 0,-1 2,0 0,-1 1,0 0,-1 1,0 0,-1 1,0 0,-1 1,0 0,-1 1,0 0,-1 2,0 0,-1 1,0 0,-1 1,0 0,-1 2,0 0,-1 1,0 0,-1 1,0 0,-1 2,0 0,-1 1,0 0,-1 1,0 0,-1 2,0 0,-1 1,0 0,-1 1,0 0,-1 2,0 0,-1 1,0 0,-1 1,0 0,-1 2,0 0,-1 1,0 0,-1 1,0 0,-1 2,0 0,-1 1,0 0,-1 2,0 0,-1 1,0 0,-1 1,0 0,-1 2,0 0,-1 1,0 0,-1 2,0 0,-1 1,0 0,-1 2,0 0,-1 2,0 0,-1 1,0 0,-1 2,0 0,-1 1,0 0,-1 2,0 0,-1 2,0 0,-1 1,0 0,-1 2,0 0,-1 1,0 0,-1 2,0 0,-1 2,0 0,-1 1,0 0,-1 2,0 0,-1 1,0 0,-1 2,0 0,-1 2,0 0,-1 1,0 0,-1 2,0 0,-1 2,0 0,-1 2,0 0,-1 2,0 0,-1 2,0 0,-1 2,0 0,-1 2,0 0,-1 1,0 0,-1 2,0 0,-1 2,0 0,-1 2,0 0,-1 2,0 0,-1 2,0 0,-1 2,0 0,-1 2,0 0,-1 2,0 0,-1 2,0 0,-1 2,0 0,-1 2,0 0,-1 2,0 0,-1 3,0 0,-1 2,0 0,-1 2,0 0,-1 3,0 0,-1 2,0 0,-1 2,0 0,-1 3,0 0,-1 2,0 0,-1 3,0 0,-1 2,0 0,-1 2,0 0,-1 3,0 0,-1 2,0 0,-1 2,0 0,-1 3,0 0,-1 3,0 0,-1 3,0 0,-1 4,0 0,-1 3,0 0,-1 3,0 0,-1 3,0 0,-1 3,0 0,-1 3,0 0,-1 3,0 0,-1 3,0 0,-1 3,0 0,-1 3,0 0,-1 -1,0 0,-1 -2,0 0,-1 -3,0 0,-1 -2,0 0,-1 -3,0 0,-1 -3,0 0,-1 -2,0 0,-1 -3,0 0,-1 -3,0 0,-1 -2,0 0,-1 -3,0 0,-1 -3,0 0,-1 -2,0 0,-1 -3,0 0,-1 -2,0 0,-1 -3,0 0,-1 -3,0 0,-1 -4,0 0,-1 -3,0 0,-1 -4,0 0,-1 -3,0 0,-1 -4,0 0,-1 -4,0 0,-1 -3,0 0,-1 -4,0 0,-1 -3,0 0,-1 -4,0 0,-1 -3,0 0,-1 -5,0 0,-1 -5,0 0,-1 -5,0 0,-1 -6,0 0,-1 -5,0 0,-1 -6,0 0,-1 -5,0 0,-1 -6,0 0,-1 -5,0 0,-1 -12,0 0,-1 -11,0 0,-1 -11,0 0,-1 -11,0 0,-1"
                 style="fill:#ffffff;fill-opacity:1;fill-rule:nonzero;stroke:#1f2229;stroke-width:40;"
                 id="path3041" /></g></g></g></g><g
         id="g3043"><g
           id="g3045"
           clip-path="url(#clipPath3047)"><g
             id="g3051"
             clip-path="url(#clipPath3053)"><path
               d="m 822,461 0,1 -1,0 0,3 -1,0 0,3 -1,0 0,4 -1,0 0,3 -1,0 0,3 -1,0 0,4 -1,0 0,3 -1,0 0,3 -1,0 0,4 -1,0 0,3 -1,0 0,3 -1,0 0,3 -1,0 0,3 -1,0 0,2 -1,0 0,3 -1,0 0,2 -1,0 0,3 -1,0 0,3 -1,0 0,2 -1,0 0,3 -1,0 0,2 -1,0 0,3 -1,0 0,2 -1,0 0,3 -1,0 0,2 -1,0 0,3 -1,0 0,2 -1,0 0,2 -1,0 0,2 -1,0 0,2 -1,0 0,2 -1,0 0,2 -1,0 0,2 -1,0 0,3 -1,0 0,2 -1,0 0,2 -1,0 0,2 -1,0 0,2 -1,0 0,2 -1,0 0,2 -1,0 0,2 -1,0 0,2 -1,0 0,2 -1,0 0,2 -1,0 0,2 -1,0 0,2 -1,0 0,1 -1,0 0,2 -1,0 0,2 -1,0 0,1 -1,0 0,2 -1,0 0,2 -1,0 0,1 -1,0 0,2 -1,0 0,2 -1,0 0,1 -1,0 0,2 -1,0 0,2 -1,0 0,1 -1,0 0,2 -1,0 0,2 -1,0 0,1 -1,0 0,2 -1,0 0,2 -1,0 0,1 -1,0 0,2 -1,0 0,1 -1,0 0,2 -1,0 0,1 -1,0 0,1 -1,0 0,2 -1,0 0,1 -1,0 0,2 -1,0 0,1 -1,0 0,1 -1,0 0,2 -1,0 0,1 -1,0 0,2 -1,0 0,1 -1,0 0,1 -1,0 0,2 -1,0 0,1 -1,0 0,2 -1,0 0,1 -1,0 0,1 -1,0 0,2 -1,0 0,1 -1,0 0,2 -1,0 0,1 -1,0 0,1 -1,0 0,2 -1,0 0,1 -1,0 0,1 -1,0 0,1 -1,0 0,1 -1,0 0,1 -1,0 0,2 -1,0 0,1 -1,0 0,1 -1,0 0,1 -1,0 0,1 -1,0 0,2 -1,0 0,1 -1,0 0,1 -1,0 0,1 -1,0 0,1 -1,0 0,1 -1,0 0,2 -1,0 0,1 -1,0 0,1 -1,0 0,1 -1,0 0,1 -1,0 0,2 -1,0 0,1 -1,0 0,1 -1,0 0,1 -1,0 0,1 -1,0 0,1 -1,0 0,1 -1,0 0,1 -1,0 0,1 -1,0 0,1 -1,0 0,1 -1,0 0,1 -1,0 0,1 -1,0 0,1 -1,0 0,1 -1,0 0,1 -1,0 0,1 -1,0 0,1 -1,0 0,1 -1,0 0,1 -1,0 0,1 -1,0 0,1 -1,0 0,1 -1,0 0,1 -1,0 0,1 -1,0 0,1 -1,0 0,1 -1,0 0,1 -1,0 0,1 -1,0 0,1 -1,0 0,1 -1,0 0,1 -1,0 0,1 -1,0 0,1 -1,0 0,1 -1,0 0,1 -1,0 0,1 -2,0 0,1 -1,0 0,1 -1,0 0,1 -1,0 0,1 -1,0 0,1 -1,0 0,1 -2,0 0,1 -1,0 0,1 -1,0 0,1 -1,0 0,1 -1,0 0,1 -1,0 0,1 -2,0 0,1 -1,0 0,1 -1,0 0,1 -1,0 0,1 -1,0 0,1 -2,0 0,1 -1,0 0,1 -1,0 0,1 -1,0 0,1 -1,0 0,1 -1,0 0,1 -2,0 0,1 -1,0 0,1 -2,0 0,1 -1,0 0,1 -1,0 0,1 -2,0 0,1 -1,0 0,1 -2,0 0,1 -1,0 0,1 -1,0 0,1 -2,0 0,1 -1,0 0,1 -1,0 0,1 -2,0 0,1 -1,0 0,1 -2,0 0,1 -1,0 0,1 -1,0 0,1 -2,0 0,1 -1,0 0,1 -1,0 0,1 -2,0 0,1 -1,0 0,1 -2,0 0,1 -1,0 0,1 -2,0 0,1 -2,0 0,1 -1,0 0,1 -2,0 0,1 -2,0 0,1 -1,0 0,1 -2,0 0,1 -2,0 0,1 -1,0 0,1 -2,0 0,1 -2,0 0,1 -1,0 0,1 -2,0 0,1 -2,0 0,1 -1,0 0,1 -2,0 0,1 -1,0 0,1 -2,0 0,1 -2,0 0,1 -2,0 0,1 -2,0 0,1 -2,0 0,1 -2,0 0,1 -2,0 0,1 -2,0 0,1 -2,0 0,1 -2,0 0,1 -2,0 0,1 -2,0 0,1 -2,0 0,1 -2,0 0,1 -2,0 0,1 -2,0 0,1 -2,0 0,1 -2,0 0,1 -2,0 0,1 -2,0 0,1 -2,0 0,1 -2,0 0,1 -3,0 0,1 -2,0 0,1 -3,0 0,1 -2,0 0,1 -3,0 0,1 -2,0 0,1 -3,0 0,1 -2,0 0,1 -3,0 0,1 -2,0 0,1 -3,0 0,1 -2,0 0,1 -3,0 0,1 -2,0 0,1 -3,0 0,1 -4,0 0,1 -3,0 0,1 -3,0 0,1 -3,0 0,1 -4,0 0,1 -3,0 0,1 -3,0 0,1 -3,0 0,1 -4,0 0,1 -3,0 0,1 -3,0 0,1 -4,0 0,1 -5,0 0,1 -5,0 0,1 -4,0 0,1 -5,0 0,1 -4,0 0,1 -5,0 0,1 -5,0 0,1 -4,0 0,1 -7,0 0,1 -8,0 0,1 -8,0 0,1 -8,0 0,1 -7,0 0,1 -13,0 0,1 -23,0 0,1 -28,0 0,-1 -23,0 0,-1 -9,0 0,-1 -9,0 0,-1 -10,0 0,-1 -7,0 0,-1 -6,0 0,-1 -5,0 0,-1 -6,0 0,-1 -6,0 0,-1 -5,0 0,-1 -5,0 0,-1 -4,0 0,-1 -4,0 0,-1 -4,0 0,-1 -4,0 0,-1 -4,0 0,-1 -4,0 0,-1 -4,0 0,-1 -4,0 0,-1 -3,0 0,-1 -3,0 0,-1 -3,0 0,-1 -3,0 0,-1 -3,0 0,-1 -3,0 0,-1 -3,0 0,-1 -3,0 0,-1 -3,0 0,-1 -3,0 0,-1 -3,0 0,-1 -3,0 0,-1 -2,0 0,-1 -3,0 0,-1 -2,0 0,-1 -3,0 0,-1 -2,0 0,-1 -3,0 0,-1 -2,0 0,-1 -2,0 0,-1 -3,0 0,-1 -2,0 0,-1 -3,0 0,-1 -2,0 0,-1 -2,0 0,-1 -2,0 0,-1 -2,0 0,-1 -2,0 0,-1 -2,0 0,-1 -2,0 0,-1 -3,0 0,-1 -2,0 0,-1 -2,0 0,-1 -2,0 0,-1 -2,0 0,-1 -2,0 0,-1 -2,0 0,-1 -2,0 0,-1 -2,0 0,-1 -2,0 0,-1 -1,0 0,-1 -2,0 0,-1 -2,0 0,-1 -1,0 0,-1 -2,0 0,-1 -2,0 0,-1 -2,0 0,-1 -1,0 0,-1 -2,0 0,-1 -2,0 0,-1 -2,0 0,-1 -1,0 0,-1 -2,0 0,-1 -2,0 0,-1 -2,0 0,-1 -1,0 0,2 1,0 0,2 1,0 0,1 1,0 0,2 1,0 0,1 1,0 0,2 1,0 0,2 1,0 0,1 1,0 0,2 1,0 0,1 1,0 0,2 1,0 0,1 1,0 0,2 1,0 0,1 1,0 0,2 1,0 0,1 1,0 0,2 1,0 0,1 1,0 0,2 1,0 0,1 1,0 0,1 1,0 0,2 1,0 0,1 1,0 0,1 1,0 0,2 1,0 0,1 1,0 0,2 1,0 0,1 1,0 0,1 1,0 0,2 1,0 0,1 1,0 0,1 1,0 0,2 1,0 0,1 1,0 0,1 1,0 0,2 1,0 0,1 1,0 0,1 1,0 0,1 1,0 0,1 1,0 0,1 1,0 0,2 1,0 0,1 1,0 0,1 1,0 0,1 1,0 0,1 1,0 0,1 1,0 0,2 1,0 0,1 1,0 0,1 1,0 0,1 1,0 0,1 1,0 0,2 1,0 0,1 1,0 0,1 1,0 0,1 1,0 0,1 1,0 0,1 1,0 0,1 1,0 0,1 1,0 0,1 1,0 0,1 1,0 0,1 1,0 0,1 1,0 0,1 1,0 0,1 1,0 0,1 1,0 0,1 1,0 0,1 1,0 0,2 1,0 0,1 1,0 0,1 1,0 0,1 1,0 0,1 1,0 0,1 1,0 0,1 1,0 0,1 1,0 0,1 1,0 0,1 1,0 0,1 2,0 0,1 1,0 0,1 1,0 0,1 1,0 0,1 1,0 0,1 1,0 0,1 1,0 0,1 1,0 0,1 1,0 0,1 1,0 0,1 2,0 0,1 1,0 0,1 1,0 0,1 1,0 0,1 1,0 0,1 1,0 0,1 1,0 0,1 1,0 0,1 1,0 0,1 2,0 0,1 1,0 0,1 1,0 0,1 1,0 0,1 2,0 0,1 1,0 0,1 1,0 0,1 1,0 0,1 2,0 0,1 1,0 0,1 1,0 0,1 1,0 0,1 2,0 0,1 1,0 0,1 1,0 0,1 1,0 0,1 2,0 0,1 1,0 0,1 1,0 0,1 2,0 0,1 1,0 0,1 1,0 0,1 2,0 0,1 1,0 0,1 2,0 0,1 1,0 0,1 2,0 0,1 1,0 0,1 1,0 0,1 2,0 0,1 1,0 0,1 2,0 0,1 1,0 0,1 2,0 0,1 1,0 0,1 1,0 0,1 2,0 0,1 1,0 0,1 2,0 0,1 2,0 0,1 1,0 0,1 2,0 0,1 2,0 0,1 1,0 0,1 2,0 0,1 2,0 0,1 1,0 0,1 2,0 0,1 1,0 0,1 2,0 0,1 2,0 0,1 1,0 0,1 2,0 0,1 2,0 0,1 2,0 0,1 2,0 0,1 1,0 0,1 2,0 0,1 2,0 0,1 2,0 0,1 2,0 0,1 2,0 0,1 2,0 0,1 2,0 0,1 2,0 0,1 2,0 0,1 1,0 0,1 2,0 0,1 2,0 0,1 3,0 0,1 2,0 0,1 2,0 0,1 2,0 0,1 3,0 0,1 2,0 0,1 2,0 0,1 2,0 0,1 3,0 0,1 2,0 0,1 2,0 0,1 2,0 0,1 3,0 0,1 2,0 0,1 3,0 0,1 3,0 0,1 2,0 0,1 3,0 0,1 3,0 0,1 2,0 0,1 3,0 0,1 3,0 0,1 2,0 0,1 3,0 0,1 4,0 0,1 3,0 0,1 3,0 0,1 4,0 0,1 3,0 0,1 3,0 0,1 4,0 0,1 3,0 0,1 3,0 0,1 5,0 0,1 4,0 0,1 4,0 0,1 5,0 0,1 4,0 0,1 4,0 0,1 4,0 0,1 6,0 0,1 6,0 0,1 6,0 0,1 6,0 0,1 6,0 0,1 8,0 0,1 10,0 0,1 10,0 0,1 13,0 0,1 57,0 0,-1 16,0 0,-1 9,0 0,-1 9,0 0,-1 10,0 0,-1 6,0 0,-1 5,0 0,-1 6,0 0,-1 5,0 0,-1 6,0 0,-1 6,0 0,-1 4,0 0,-1 4,0 0,-1 4,0 0,-1 4,0 0,-1 4,0 0,-1 4,0 0,-1 4,0 0,-1 4,0 0,-1 3,0 0,-1 3,0 0,-1 4,0 0,-1 3,0 0,-1 3,0 0,-1 3,0 0,-1 3,0 0,-1 3,0 0,-1 3,0 0,-1 3,0 0,-1 3,0 0,-1 3,0 0,-1 2,0 0,-1 3,0 0,-1 2,0 0,-1 3,0 0,-1 2,0 0,-1 3,0 0,-1 2,0 0,-1 2,0 0,-1 3,0 0,-1 2,0 0,-1 3,0 0,-1 2,0 0,-1 2,0 0,-1 2,0 0,-1 3,0 0,-1 2,0 0,-1 2,0 0,-1 2,0 0,-1 2,0 0,-1 2,0 0,-1 2,0 0,-1 2,0 0,-1 2,0 0,-1 2,0 0,-1 2,0 0,-1 2,0 0,-1 2,0 0,-1 2,0 0,-1 2,0 0,-1 1,0 0,-1 2,0 0,-1 2,0 0,-1 2,0 0,-1 1,0 0,-1 2,0 0,-1 2,0 0,-1 2,0 0,-1 1,0 0,-1 2,0 0,-1 2,0 0,-1 2,0 0,-1 1,0 0,-1 2,0 0,-1 2,0 0,-1 1,0 0,-1 1,0 0,-1 1,0 0,-1 1,0 0,-1 1,0 0,-1 1,0 0,-1 1,0 0,-1 1,0 0,-1 1,0 0,-1 2,0 0,-1 1,0 0,-2 1,0 0,-1 1,0 0,-1 1,0 0,-1 1,0 0,-1 1,0 0,-1 1,0 0,-1 1,0 0,-1 1,0 0,-1 1,0 0,-1 1,0 0,-2 1,0 0,-1 1,0 0,-1 1,0 0,-1 1,0 0,-2 1,0 0,-1 1,0 0,-1 1,0 0,-1 1,0 0,-2 1,0 0,-1 1,0 0,-1 1,0 0,-2 1,0 0,-1 1,0 0,-2 1,0 0,-1 1,0 0,-2 1,0 0,-1 1,0 0,-2 1,0 0,-1 1,0 0,-2 1,0 0,-1 1,0 0,-2 1,0 0,-2 1,0 0,-1 1,0 0,-2 1,0 0,-2 1,0 0,-1 1,0 0,-2 1,0 0,-2 1,0 0,-1 1,0 0,-2 1,0 0,-2 1,0 0,-2 1,0 0,-2 1,0 0,-2 1,0 0,-2 1,0 0,-2 1,0 0,-2 1,0 0,-2 1,0 0,-2 1,0 0,-2 1,0 0,-2 1,0 0,-3 1,0 0,-2 1,0 0,-2 1,0 0,-2 1,0 0,-3 1,0 0,-2 1,0 0,-3 1,0 0,-2 1,0 0,-2 1,0 0,-3 1,0 0,-2 1,0 0,-3 1,0 0,-3 1,0 0,-3 1,0 0,-3 1,0 0,-3 1,0 0,-2 1,0 0,-3 1,0 0,-4 1,0 0,-3 1,0 0,-3 1,0 0,-4 1,0 0,-3 1,0 0,-4 1,0 0,-3 1,0 0,-4 1,0 0,-4 1,0 0,-4 1,0 0,-5 1,0 0,-4 1,0 0,-5 1,0 0,-5 1,0 0,-5 1,0 0,-6 1,0 0,-6 1,0 0,-7 1,0 0,-8 1,0 0,-8 1,0 0,-13 1,0 0,-54 -1,0 0,-11 -1,0 0,-12 -1,0 0,-7 -1,0 0,-7 -1,0 0,-7 -1,0 0,-6 -1,0 0,-5 -1,0 0,-5 -1,0 0,-5 -1,0 0,-5 -1,0 0,-4 -1,0 0,-4 -1,0 0,-4 -1,0 0,-4 -1,0 0,-4 -1,0 0,-3 -1,0 0,-4 -1,0 0,-3 -1,0 0,-4 -1,0 0,-3 -1,0 0,-3 -1,0 0,-3 -1,0 0,-3 -1,0 0,-3 -1,0 0,-3 -1,0 0,-3 -1,0 0,-2 -1,0 0,-3 -1,0 0,-3 -1,0 0,-2 -1,0 0,-3 -1,0 0,-2 -1,0 0,-3 -1,0 0,-2 -1,0 0,-3 -1,0 0,-2 -1,0 0,-2 -1,0 0,-2 -1,0 0,-3 -1,0 0,-2 -1,0 0,-2 -1,0 0,-2 -1,0 0,-3 -1,0 0,-1"
               style="fill:#ffffff;fill-opacity:1;fill-rule:nonzero;stroke:#1f2229;stroke-width:40;"
               id="path3063" /></g></g></g><g
         id="g3065"><g
           id="g3067"
           clip-path="url(#clipPath3069)"><g
             id="g3073"
             clip-path="url(#clipPath3075)"><g
               id="g3079"
               clip-path="url(#clipPath3081)"><path
                 d="m 469,0 0,1 -12,0 0,1 -10,0 0,1 -10,0 0,1 -8,0 0,1 -6,0 0,1 -6,0 0,1 -6,0 0,1 -6,0 0,1 -5,0 0,1 -5,0 0,1 -4,0 0,1 -4,0 0,1 -5,0 0,1 -4,0 0,1 -4,0 0,1 -4,0 0,1 -4,0 0,1 -3,0 0,1 -3,0 0,1 -4,0 0,1 -3,0 0,1 -3,0 0,1 -4,0 0,1 -3,0 0,1 -3,0 0,1 -3,0 0,1 -3,0 0,1 -2,0 0,1 -3,0 0,1 -3,0 0,1 -2,0 0,1 -3,0 0,1 -3,0 0,1 -3,0 0,1 -2,0 0,1 -3,0 0,1 -2,0 0,1 -3,0 0,1 -2,0 0,1 -2,0 0,1 -2,0 0,1 -2,0 0,1 -3,0 0,1 -2,0 0,1 -2,0 0,1 -2,0 0,1 -3,0 0,1 -2,0 0,1 -2,0 0,1 -2,0 0,1 -2,0 0,1 -2,0 0,1 -2,0 0,1 -2,0 0,1 -2,0 0,1 -1,0 0,1 -2,0 0,1 -2,0 0,1 -2,0 0,1 -2,0 0,1 -2,0 0,1 -2,0 0,1 -2,0 0,1 -2,0 0,1 -1,0 0,1 -2,0 0,1 -2,0 0,1 -1,0 0,1 -2,0 0,1 -1,0 0,1 -2,0 0,1 -2,0 0,1 -1,0 0,1 -2,0 0,1 -2,0 0,1 -1,0 0,1 -2,0 0,1 -2,0 0,1 -1,0 0,1 -2,0 0,1 -1,0 0,1 -2,0 0,1 -1,0 0,1 -2,0 0,1 -1,0 0,1 -2,0 0,1 -1,0 0,1 -1,0 0,1 -2,0 0,1 -1,0 0,1 -2,0 0,1 -1,0 0,1 -2,0 0,1 -1,0 0,1 -1,0 0,1 -2,0 0,1 -1,0 0,1 -2,0 0,1 -1,0 0,1 -1,0 0,1 -1,0 0,1 -2,0 0,1 -1,0 0,1 -1,0 0,1 -1,0 0,1 -2,0 0,1 -1,0 0,1 -1,0 0,1 -1,0 0,1 -2,0 0,1 -1,0 0,1 -1,0 0,1 -1,0 0,1 -2,0 0,1 -1,0 0,1 -1,0 0,1 -1,0 0,1 -2,0 0,1 -1,0 0,1 -1,0 0,1 -1,0 0,1 -1,0 0,1 -1,0 0,1 -1,0 0,1 -1,0 0,1 -2,0 0,1 -1,0 0,1 -1,0 0,1 -1,0 0,1 -1,0 0,1 -1,0 0,1 -1,0 0,1 -1,0 0,1 -1,0 0,1 -1,0 0,1 -2,0 0,1 -1,0 0,1 -1,0 0,1 -1,0 0,1 -1,0 0,1 -1,0 0,1 -1,0 0,1 -1,0 0,1 -1,0 0,1 -1,0 0,1 -1,0 0,1 -1,0 0,1 -1,0 0,1 -1,0 0,1 -1,0 0,1 -1,0 0,1 -1,0 0,2 -1,0 0,1 -1,0 0,1 -1,0 0,1 -1,0 0,1 -1,0 0,1 -1,0 0,1 -1,0 0,1 -1,0 0,1 -1,0 0,1 -1,0 0,1 -1,0 0,1 -1,0 0,1 -1,0 0,2 -1,0 0,1 -1,0 0,1 -1,0 0,1 -1,0 0,1 -1,0 0,1 -1,0 0,2 -1,0 0,1 -1,0 0,1 -1,0 0,1 -1,0 0,1 -1,0 0,1 -1,0 0,2 -1,0 0,1 -1,0 0,1 -1,0 0,1 -1,0 0,1 -1,0 0,2 -1,0 0,1 -1,0 0,1 -1,0 0,2 -1,0 0,1 -1,0 0,1 -1,0 0,2 -1,0 0,1 -1,0 0,1 -1,0 0,2 -1,0 0,1 -1,0 0,1 -1,0 0,2 -1,0 0,1 -1,0 0,1 -1,0 0,2 -1,0 0,1 -1,0 0,1 -1,0 0,2 -1,0 0,1 -1,0 0,2 -1,0 0,1 -1,0 0,2 -1,0 0,1 -1,0 0,2 -1,0 0,1 -1,0 0,2 -1,0 0,1 -1,0 0,2 -1,0 0,1 -1,0 0,2 -1,0 0,2 -1,0 0,1 -1,0 0,2 -1,0 0,1 -1,0 0,2 2,0 0,-1 1,0 0,-1 2,0 0,-1 2,0 0,-1 1,0 0,-1 2,0 0,-1 2,0 0,-1 2,0 0,-1 1,0 0,-1 2,0 0,-1 2,0 0,-1 2,0 0,-1 1,0 0,-1 2,0 0,-1 2,0 0,-1 1,0 0,-1 2,0 0,-1 2,0 0,-1 2,0 0,-1 2,0 0,-1 2,0 0,-1 2,0 0,-1 2,0 0,-1 2,0 0,-1 2,0 0,-1 2,0 0,-1 2,0 0,-1 2,0 0,-1 3,0 0,-1 2,0 0,-1 2,0 0,-1 2,0 0,-1 2,0 0,-1 2,0 0,-1 3,0 0,-1 2,0 0,-1 3,0 0,-1 2,0 0,-1 3,0 0,-1 2,0 0,-1 3,0 0,-1 2,0 0,-1 3,0 0,-1 2,0 0,-1 2,0 0,-1 3,0 0,-1 3,0 0,-1 3,0 0,-1 4,0 0,-1 3,0 0,-1 3,0 0,-1 3,0 0,-1 3,0 0,-1 3,0 0,-1 3,0 0,-1 3,0 0,-1 4,0 0,-1 4,0 0,-1 4,0 0,-1 4,0 0,-1 4,0 0,-1 4,0 0,-1 4,0 0,-1 4,0 0,-1 5,0 0,-1 6,0 0,-1 5,0 0,-1 6,0 0,-1 6,0 0,-1 5,0 0,-1 8,0 0,-1 9,0 0,-1 10,0 0,-1 9,0 0,-1 25,0 0,-1 30,0 0,1 19,0 0,1 13,0 0,1 8,0 0,1 8,0 0,1 8,0 0,1 6,0 0,1 6,0 0,1 6,0 0,1 5,0 0,1 5,0 0,1 5,0 0,1 4,0 0,1 4,0 0,1 5,0 0,1 4,0 0,1 4,0 0,1 3,0 0,1 4,0 0,1 3,0 0,1 4,0 0,1 3,0 0,1 4,0 0,1 3,0 0,1 3,0 0,1 3,0 0,1 3,0 0,1 3,0 0,1 3,0 0,1 3,0 0,1 3,0 0,1 2,0 0,1 3,0 0,1 2,0 0,1 3,0 0,1 2,0 0,1 3,0 0,1 2,0 0,1 3,0 0,1 2,0 0,1 3,0 0,1 2,0 0,1 2,0 0,1 2,0 0,1 2,0 0,1 3,0 0,1 2,0 0,1 2,0 0,1 2,0 0,1 3,0 0,1 1,0 0,1 2,0 0,1 2,0 0,1 2,0 0,1 2,0 0,1 2,0 0,1 2,0 0,1 2,0 0,1 2,0 0,1 2,0 0,1 2,0 0,1 2,0 0,1 1,0 0,1 2,0 0,1 2,0 0,1 2,0 0,1 1,0 0,1 2,0 0,1 2,0 0,1 2,0 0,1 1,0 0,1 2,0 0,1 2,0 0,1 1,0 0,1 2,0 0,1 2,0 0,1 1,0 0,1 2,0 0,1 1,0 0,1 2,0 0,1 1,0 0,1 2,0 0,1 1,0 0,1 2,0 0,1 2,0 0,1 1,0 0,1 2,0 0,1 1,0 0,1 1,0 0,1 2,0 0,1 1,0 0,1 2,0 0,1 1,0 0,1 1,0 0,1 2,0 0,1 1,0 0,1 2,0 0,1 1,0 0,1 1,0 0,1 2,0 0,1 1,0 0,1 1,0 0,1 2,0 0,1 1,0 0,1 1,0 0,1 2,0 0,1 1,0 0,1 1,0 0,1 1,0 0,1 2,0 0,1 1,0 0,1 1,0 0,1 1,0 0,1 2,0 0,1 1,0 0,1 1,0 0,1 1,0 0,1 1,0 0,1 2,0 0,1 1,0 0,1 1,0 0,1 1,0 0,1 1,0 0,1 1,0 0,1 1,0 0,1 2,0 0,1 1,0 0,1 1,0 0,1 1,0 0,1 1,0 0,1 1,0 0,1 1,0 0,1 1,0 0,1 2,0 0,1 1,0 0,1 1,0 0,1 1,0 0,1 1,0 0,1 1,0 0,1 1,0 0,1 1,0 0,1 1,0 0,1 1,0 0,1 1,0 0,1 1,0 0,1 1,0 0,1 1,0 0,1 1,0 0,1 1,0 0,1 1,0 0,1 1,0 0,1 1,0 0,1 1,0 0,1 1,0 0,1 1,0 0,1 1,0 0,1 1,0 0,1 1,0 0,1 1,0 0,1 1,0 0,1 1,0 0,2 1,0 0,1 1,0 0,1 1,0 0,1 1,0 0,1 1,0 0,1 1,0 0,1 1,0 0,1 1,0 0,1 1,0 0,2 1,0 0,1 1,0 0,1 1,0 0,1 1,0 0,1 1,0 0,1 1,0 0,2 1,0 0,1 1,0 0,1 1,0 0,1 1,0 0,1 1,0 0,2 1,0 0,1 1,0 0,1 1,0 0,1 1,0 0,2 1,0 0,1 1,0 0,1 1,0 0,1 1,0 0,2 1,0 0,1 1,0 0,1 1,0 0,2 1,0 0,1 1,0 0,1 1,0 0,2 1,0 0,1 1,0 0,1 1,0 0,2 1,0 0,1 1,0 0,2 1,0 0,1 1,0 0,1 1,0 0,2 1,0 0,1 1,0 0,2 1,0 0,1 1,0 0,1 1,0 0,2 1,0 0,1 1,0 0,2 1,0 0,1 1,0 0,2 1,0 0,2 1,0 0,1 1,0 0,2 1,0 0,1 1,0 0,2 1,0 0,1 1,0 0,2 1,0 0,2 1,0 0,1 1,0 0,2 1,0 0,2 1,0 0,1 1,0 0,2 1,0 0,2 1,0 0,1 1,0 0,2 1,0 0,2 1,0 0,2 1,0 0,1 1,0 0,2 1,0 0,2 1,0 0,2 1,0 0,2 1,0 0,2 1,0 0,2 1,0 0,2 1,0 0,2 1,0 0,2 1,0 0,2 1,0 0,1 1,0 0,2 1,0 0,2 1,0 0,3 1,0 0,2 1,0 0,2 1,0 0,2 1,0 0,2 1,0 0,3 1,0 0,2 1,0 0,2 1,0 0,2 1,0 0,2 1,0 0,3 1,0 0,2 1,0 0,3 1,0 0,3 1,0 0,2 1,0 0,3 1,0 0,2 1,0 0,3 1,0 0,2 1,0 0,3 1,0 0,3 1,0 0,3 1,0 0,3 1,0 0,3 1,0 0,3 1,0 0,3 1,0 0,3 1,0 0,3 1,0 0,4 1,0 0,3 1,0 0,4 1,0 0,3 1,0 0,4 1,0 0,4 1,0 0,4 1,0 0,4 1,0 0,5 1,0 0,4 1,0 0,4 1,0 0,5 1,0 0,6 1,0 0,6 1,0 0,5 1,0 0,6 1,0 0,8 1,0 0,8 1,0 0,8 1,0 0,13 1,0 0,16 1,0 0,38 -1,0 0,23 -1,0 0,10 -1,0 0,10 -1,0 0,10 -1,0 0,6 -1,0 0,6 -1,0 0,6 -1,0 0,6 -1,0 0,6 -1,0 0,5 -1,0 0,5 -1,0 0,4 -1,0 0,4 -1,0 0,4 -1,0 0,4 -1,0 0,4 -1,0 0,4 -1,0 0,4 -1,0 0,4 -1,0 0,3 -1,0 0,3 -1,0 0,3 -1,0 0,3 -1,0 0,3 -1,0 0,3 -1,0 0,3 -1,0 0,3 -1,0 0,3 -1,0 0,3 -1,0 0,3 -1,0 0,2 -1,0 0,2 -1,0 0,3 -1,0 0,2 -1,0 0,3 -1,0 0,2 -1,0 0,2 -1,0 0,3 -1,0 0,2 -1,0 0,3 -1,0 0,2 -1,0 0,2 -1,0 0,2 -1,0 0,2 -1,0 0,2 -1,0 0,2 -1,0 0,2 -1,0 0,2 -1,0 0,2 -1,0 0,2 -1,0 0,2 -1,0 0,2 -1,0 0,2 -1,0 0,2 -1,0 0,2 -1,0 0,2 -1,0 0,2 -1,0 0,1 -1,0 0,2 -1,0 0,1 -1,0 0,2 -1,0 0,2 -1,0 0,1 -1,0 0,2 -1,0 0,1 -1,0 0,2 -1,0 0,2 -1,0 0,1 -1,0 0,2 -1,0 0,1 -1,0 0,2 -1,0 0,1 -1,0 0,2 -1,0 0,2 -1,0 0,1 -1,0 0,2 2,0 0,-1 1,0 0,-1 2,0 0,-1 2,0 0,-1 1,0 0,-1 2,0 0,-1 2,0 0,-1 1,0 0,-1 2,0 0,-1 2,0 0,-1 1,0 0,-1 2,0 0,-1 1,0 0,-1 2,0 0,-1 2,0 0,-1 1,0 0,-1 2,0 0,-1 1,0 0,-1 2,0 0,-1 1,0 0,-1 1,0 0,-1 2,0 0,-1 1,0 0,-1 2,0 0,-1 1,0 0,-1 1,0 0,-1 2,0 0,-1 1,0 0,-1 2,0 0,-1 1,0 0,-1 1,0 0,-1 2,0 0,-1 1,0 0,-1 2,0 0,-1 1,0 0,-1 1,0 0,-1 1,0 0,-1 2,0 0,-1 1,0 0,-1 1,0 0,-1 1,0 0,-1 1,0 0,-1 2,0 0,-1 1,0 0,-1 1,0 0,-1 1,0 0,-1 1,0 0,-1 2,0 0,-1 1,0 0,-1 1,0 0,-1 1,0 0,-1 1,0 0,-1 2,0 0,-1 1,0 0,-1 1,0 0,-1 1,0 0,-1 1,0 0,-1 1,0 0,-1 1,0 0,-1 1,0 0,-1 1,0 0,-1 1,0 0,-1 1,0 0,-1 1,0 0,-1 1,0 0,-1 2,0 0,-1 1,0 0,-1 1,0 0,-1 1,0 0,-1 1,0 0,-1 1,0 0,-1 1,0 0,-1 1,0 0,-1 1,0 0,-1 1,0 0,-1 1,0 0,-1 1,0 0,-1 1,0 0,-1 1,0 0,-1 1,0 0,-1 1,0 0,-2 1,0 0,-1 1,0 0,-1 1,0 0,-1 1,0 0,-1 1,0 0,-1 1,0 0,-1 1,0 0,-1 1,0 0,-1 1,0 0,-1 1,0 0,-1 1,0 0,-1 1,0 0,-2 1,0 0,-1 1,0 0,-1 1,0 0,-1 1,0 0,-1 1,0 0,-1 1,0 0,-2 1,0 0,-1 1,0 0,-1 1,0 0,-1 1,0 0,-2 1,0 0,-1 1,0 0,-1 1,0 0,-1 1,0 0,-1 1,0 0,-2 1,0 0,-1 1,0 0,-1 1,0 0,-1 1,0 0,-2 1,0 0,-1 1,0 0,-1 1,0 0,-1 1,0 0,-2 1,0 0,-1 1,0 0,-2 1,0 0,-1 1,0 0,-1 1,0 0,-2 1,0 0,-1 1,0 0,-2 1,0 0,-1 1,0 0,-2 1,0 0,-1 1,0 0,-1 1,0 0,-2 1,0 0,-1 1,0 0,-2 1,0 0,-1 1,0 0,-1 1,0 0,-2 1,0 0,-1 1,0 0,-2 1,0 0,-2 1,0 0,-1 1,0 0,-2 1,0 0,-2 1,0 0,-1 1,0 0,-2 1,0 0,-1 1,0 0,-2 1,0 0,-2 1,0 0,-1 1,0 0,-2 1,0 0,-2 1,0 0,-1 1,0 0,-2 1,0 0,-2 1,0 0,-1 1,0 0,-2 1,0 0,-2 1,0 0,-2 1,0 0,-2 1,0 0,-2 1,0 0,-2 1,0 0,-2 1,0 0,-2 1,0 0,-1 1,0 0,-2 1,0 0,-2 1,0 0,-2 1,0 0,-2 1,0 0,-2 1,0 0,-2 1,0 0,-2 1,0 0,-3 1,0 0,-2 1,0 0,-2 1,0 0,-2 1,0 0,-3 1,0 0,-2 1,0 0,-2 1,0 0,-2 1,0 0,-3 1,0 0,-2 1,0 0,-2 1,0 0,-3 1,0 0,-2 1,0 0,-3 1,0 0,-3 1,0 0,-2 1,0 0,-3 1,0 0,-3 1,0 0,-2 1,0 0,-3 1,0 0,-3 1,0 0,-2 1,0 0,-3 1,0 0,-4 1,0 0,-3 1,0 0,-3 1,0 0,-4 1,0 0,-3 1,0 0,-3 1,0 0,-4 1,0 0,-3 1,0 0,-3 1,0 0,-5 1,0 0,-4 1,0 0,-4 1,0 0,-4 1,0 0,-5 1,0 0,-4 1,0 0,-4 1,0 0,-6 1,0 0,-6 1,0 0,-6 1,0 0,-6 1,0 0,-6 1,0 0,-7 1,0 0,-10 1,0 0,-10 1,0 0,-10 1,0 0,-30 1,0 0,-9 -1,0 0,-28 -1,0 0,-13 -1,0 0,-10 -1,0 0,-8 -1,0 0,-8 -1,0 0,-7 -1,0 0,-5 -1,0 0,-6 -1,0 0,-6 -1,0 0,-5 -1,0 0,-5 -1,0 0,-4 -1,0 0,-4 -1,0 0,-5 -1,0 0,-4 -1,0 0,-4 -1,0 0,-4 -1,0 0,-3 -1,0 0,-4 -1,0 0,-3 -1,0 0,-4 -1,0 0,-3 -1,0 0,-3 -1,0 0,-3 -1,0 0,-3 -1,0 0,-3 -1,0 0,-3 -1,0 0,-3 -1,0 0,-3 -1,0 0,-3 -1,0 0,-3 -1,0 0,-2 -1,0 0,-3 -1,0 0,-2 -1,0 0,-3 -1,0 0,-2 -1,0 0,-3 -1,0 0,-2 -1,0 0,-3 -1,0 0,-2 -1,0 0,-3 -1,0 0,-2 -1,0 0,-2 -1,0 0,-2 -1,0 0,-2 -1,0 0,-3 -1,0 0,-2 -1,0 0,-2 -1,0 0,-2 -1,0 0,-2 -1,0 0,-2 -1,0 0,-2 -1,0 0,-2 -1,0 0,-2 -1,0 0,-2 -1,0 0,-2 -1,0 0,-2 -1,0 0,-2 -1,0 0,-2 -1,0 0,-2 -1,0 0,-2 -1,0 0,-1 -1,0 0,-2 -1,0 0,-2 -1,0 0,-2 -1,0 0,-1 -1,0 0,-2 -1,0 0,-2 -1,0 0,-1 -1,0 0,-2 -1,0 0,-2 -1,0 0,-2 -1,0 0,-1 -1,0 0,-2 -1,0 0,-1 -1,0 0,-2 -1,0 0,-2 -1,0 0,-1 -1,0 0,-2 -1,0 0,-1 -1,0 0,-2 -1,0 0,-1 -1,0 0,-2 -1,0 0,-1 -1,0 0,-2 -1,0 0,-2 -1,0 0,-1 -1,0 0,-1 -1,0 0,-2 -1,0 0,-1 -1,0 0,-2 -1,0 0,-1 -1,0 0,-1 -1,0 0,-2 -1,0 0,-1 -1,0 0,-2 -1,0 0,-1 -1,0 0,-1 -1,0 0,-2 -1,0 0,-1 -1,0 0,-1 -1,0 0,-2 -1,0 0,-1 -1,0 0,-1 -1,0 0,-1 -1,0 0,-2 -1,0 0,-1 -1,0 0,-1 -1,0 0,-2 -1,0 0,-1 -1,0 0,-1 -1,0 0,-1 -1,0 0,-2 -1,0 0,-1 -1,0 0,-1 -1,0 0,-1 -1,0 0,-1 -1,0 0,-2 -1,0 0,-1 -1,0 0,-1 -1,0 0,-1 -1,0 0,-1 -1,0 0,-1 -1,0 0,-2 -1,0 0,-1 -1,0 0,-1 -1,0 0,-1 -1,0 0,-1 -1,0 0,-1 -1,0 0,-1 -1,0 0,-1 -1,0 0,-2 -1,0 0,-1 -1,0 0,-1 -1,0 0,-1 -1,0 0,-1 -1,0 0,-1 -1,0 0,-1 -1,0 0,-1 -1,0 0,-1 -1,0 0,-1 -1,0 0,-1 -1,0 0,-1 -1,0 0,-1 -1,0 0,-1 -1,0 0,-1 -1,0 0,-1 -1,0 0,-1 -1,0 0,-1 -1,0 0,-1 -1,0 0,-1 -1,0 0,-1 -1,0 0,-1 -1,0 0,-1 -1,0 0,-1 -1,0 0,-1 -1,0 0,-1 -1,0 0,-1 -1,0 0,-1 -1,0 0,-1 -1,0 0,-1 -1,0 0,-1 -2,0 0,-1 -1,0 0,-1 -1,0 0,-1 -1,0 0,-1 -1,0 0,-1 -1,0 0,-1 -1,0 0,-1 -2,0 0,-1 -1,0 0,-1 -1,0 0,-1 -1,0 0,-1 -1,0 0,-1 -1,0 0,-1 -1,0 0,-1 -2,0 0,-1 -1,0 0,-1 -1,0 0,-1 -1,0 0,-1 -1,0 0,-1 -2,0 0,-1 -1,0 0,-1 -1,0 0,-1 -1,0 0,-1 -2,0 0,-1 -1,0 0,-1 -1,0 0,-1 -2,0 0,-1 -1,0 0,-1 -1,0 0,-1 -1,0 0,-1 -2,0 0,-1 -1,0 0,-1 -1,0 0,-1 -2,0 0,-1 -1,0 0,-1 -1,0 0,-1 -2,0 0,-1 -1,0 0,-1 -2,0 0,-1 -1,0 0,-1 -2,0 0,-1 -1,0 0,-1 -1,0 0,-1 -2,0 0,-1 -1,0 0,-1 -2,0 0,-1 -1,0 0,-1 -2,0 0,-1 -1,0 0,-1 -2,0 0,-1 -1,0 0,-1 -2,0 0,-1 -1,0 0,-1 -2,0 0,-1 -2,0 0,-1 -1,0 0,-1 -2,0 0,-1 -1,0 0,-1 -2,0 0,-1 -1,0 0,-1 -2,0 0,-1 -2,0 0,-1 -2,0 0,-1 -1,0 0,-1 -2,0 0,-1 -2,0 0,-1 -2,0 0,-1 -1,0 0,-1 -2,0 0,-1 -2,0 0,-1 -2,0 0,-1 -1,0 0,-1 -2,0 0,-1 -2,0 0,-1 -2,0 0,-1 -2,0 0,-1 -2,0 0,-1 -2,0 0,-1 -2,0 0,-1 -2,0 0,-1 -2,0 0,-1 -2,0 0,-1 -2,0 0,-1 -2,0 0,-1 -2,0 0,-1 -3,0 0,-1 -2,0 0,-1 -2,0 0,-1 -2,0 0,-1 -2,0 0,-1 -3,0 0,-1 -2,0 0,-1 -2,0 0,-1 -3,0 0,-1 -2,0 0,-1 -3,0 0,-1 -2,0 0,-1 -3,0 0,-1 -2,0 0,-1 -3,0 0,-1 -2,0 0,-1 -3,0 0,-1 -3,0 0,-1 -3,0 0,-1 -3,0 0,-1 -3,0 0,-1 -3,0 0,-1 -3,0 0,-1 -3,0 0,-1 -3,0 0,-1 -4,0 0,-1 -3,0 0,-1 -4,0 0,-1 -3,0 0,-1 -4,0 0,-1 -3,0 0,-1 -4,0 0,-1 -5,0 0,-1 -4,0 0,-1 -4,0 0,-1 -5,0 0,-1 -4,0 0,-1 -6,0 0,-1 -5,0 0,-1 -6,0 0,-1 -6,0 0,-1 -7,0 0,-1 -8,0 0,-1 -8,0 0,-1 -11,0 0,-1 -13,0 0,-1"
                 style="fill:#ffffff;fill-opacity:1;fill-rule:nonzero;stroke:#1f2229;stroke-width:40;"
                 id="path3095" /></g></g></g></g></g></g></svg>