<?xml version="1.0" encoding="UTF-8"?>
<svg width="226px" height="54px" viewBox="0 0 226 54" version="1.1" xmlns="http://www.w3.org/2000/svg" xmlns:xlink="http://www.w3.org/1999/xlink">
    <!-- Generator: Sketch 46.2 (44496) - http://www.bohemiancoding.com/sketch -->
    <title>Group 4</title>
    <desc>Created with Sketch.</desc>
    <defs></defs>
    <g id="Page-1" stroke="none" stroke-width="1" fill="none" fill-rule="evenodd">
        <g id="SCHEDULE-ME" transform="translate(-125.000000, -268.000000)">
            <g id="Group-4" transform="translate(124.000000, 264.000000)">
                <path d="M157.487645,5.27500561 C157.930846,8.23589949 158.149327,14.632632 158.149327,24.50901 C158.149327,34.9147619 157.434007,44.4433789 156.002764,53.095143 L222.553209,55.9811606 C224.009133,49.1001551 224.699545,40.3823298 224.621769,29.8313127 C224.544883,19.401083 224.006073,12.254096 223.015377,8.42186556 L157.487645,5.27500561 Z" id="Rectangle" stroke="#FFFFFF" transform="translate(190.271931, 30.622357) rotate(-7.000000) translate(-190.271931, -30.622357) "></path>
                <path d="M170.28,44 L174.52,44 L174.52,32.04 C174.52,29.6 174.16,26.12 173.96,23.72 L174.12,23.72 L176.2,29.68 L180.72,41.56 L182.84,41.56 L187.36,29.68 L189.48,23.72 L189.64,23.72 C189.4,26.12 189.04,29.6 189.04,32.04 L189.04,44 L193.4,44 L193.4,17.84 L188.28,17.84 L183.68,30.72 L181.96,35.68 L181.8,35.68 L180.08,30.72 L175.36,17.84 L170.28,17.84 L170.28,44 Z M198.32,34.2 C198.32,27.8 202.76,23.88 207.36,23.88 C212.68,23.88 215.48,27.72 215.48,33.2 C215.48,34.08 215.4,34.88 215.28,35.36 L202.8,35.36 C203.2,38.92 205.44,40.92 208.6,40.92 C210.28,40.92 211.72,40.4 213.16,39.48 L214.72,42.36 C212.84,43.6 210.48,44.48 208,44.48 C202.56,44.48 198.32,40.68 198.32,34.2 Z M202.76,32.44 L211.48,32.44 C211.48,29.32 210.16,27.44 207.48,27.44 C205.16,27.44 203.16,29.16 202.76,32.44 Z" id="Me" fill="#FFFFFF"></path>
                <path d="M1.72,40.52 C3.8,42.84 6.76,44.48 10.6,44.48 C15.72,44.48 19.04,41.44 19.04,37.4 C19.04,33.36 16.44,31.72 13.52,30.4 L9.52,28.64 C7.6,27.76 4.96,26.6 4.96,23.56 C4.96,20.68 7.28,18.84 10.76,18.84 C13.4,18.84 15.52,19.92 17.04,21.56 L18.12,20.32 C16.52,18.6 13.96,17.16 10.76,17.16 C6.4,17.16 3.12,19.84 3.12,23.64 C3.12,27.56 6.16,29.2 8.44,30.2 L12.44,32 C15.04,33.16 17.2,34.24 17.2,37.52 C17.2,40.64 14.64,42.8 10.64,42.8 C7.56,42.8 4.8,41.4 2.88,39.24 L1.72,40.52 Z M22.84,34.44 C22.84,40.8 26.6,44.48 31.56,44.48 C34,44.48 36.04,43.4 37.68,41.92 L36.76,40.72 C35.44,41.92 33.68,42.92 31.64,42.92 C27.44,42.92 24.68,39.48 24.68,34.44 C24.68,29.36 27.72,25.88 31.64,25.88 C33.52,25.88 34.96,26.76 36.2,27.92 L37.24,26.68 C35.96,25.48 34.24,24.32 31.6,24.32 C26.92,24.32 22.84,28 22.84,34.44 Z M42.6,44 L44.36,44 L44.36,29.52 C46.72,27.12 48.36,25.92 50.64,25.92 C53.76,25.92 55.04,27.84 55.04,31.92 L55.04,44 L56.8,44 L56.8,31.68 C56.8,26.72 54.96,24.32 51,24.32 C48.36,24.32 46.36,25.8 44.36,27.8 L44.36,15.24 L42.6,15.24 L42.6,44 Z M62.32,34.44 C62.32,28.16 66.4,24.32 70.68,24.32 C75.24,24.32 78.04,27.56 78.04,33.2 C78.04,33.68 78.04,34.16 77.96,34.64 L64.12,34.64 C64.2,39.48 67.04,42.96 71.36,42.96 C73.44,42.96 75.08,42.28 76.52,41.24 L77.24,42.6 C75.72,43.52 74,44.48 71.2,44.48 C66.28,44.48 62.32,40.72 62.32,34.44 Z M64.12,33.28 L76.36,33.28 C76.36,28.36 74.16,25.84 70.72,25.84 C67.44,25.84 64.52,28.68 64.12,33.28 Z M81.84,34.44 C81.84,28.24 85.8,24.32 90.36,24.32 C92.68,24.32 94.24,25.2 96.16,26.68 L96.08,23.16 L96.08,15.24 L97.84,15.24 L97.84,44 L96.32,44 L96.16,41.52 L96.04,41.52 C94.48,43.08 92.36,44.48 89.8,44.48 C84.96,44.48 81.84,40.92 81.84,34.44 Z M83.72,34.44 C83.72,39.52 85.96,42.92 90.04,42.92 C92.16,42.92 94.04,41.8 96.08,39.76 L96.08,28.36 C94.04,26.56 92.36,25.88 90.48,25.88 C86.64,25.88 83.72,29.6 83.72,34.44 Z M105.12,37.12 C105.12,42.08 106.96,44.48 110.92,44.48 C113.56,44.48 115.56,43 117.44,40.8 L117.52,40.8 L117.72,44 L119.2,44 L119.2,24.8 L117.44,24.8 L117.44,38.96 C115.2,41.68 113.52,42.88 111.24,42.88 C108.16,42.88 106.88,40.96 106.88,36.88 L106.88,24.8 L105.12,24.8 L105.12,37.12 Z M126.76,41.44 C126.76,43.52 127.56,44.48 129.12,44.48 C129.68,44.48 130.04,44.4 130.4,44.28 L130.08,42.84 C129.68,42.92 129.52,42.92 129.36,42.92 C128.88,42.92 128.52,42.52 128.52,41.68 L128.52,15.24 L126.76,15.24 L126.76,41.44 Z M134.84,34.44 C134.84,28.16 138.92,24.32 143.2,24.32 C147.76,24.32 150.56,27.56 150.56,33.2 C150.56,33.68 150.56,34.16 150.48,34.64 L136.64,34.64 C136.72,39.48 139.56,42.96 143.88,42.96 C145.96,42.96 147.6,42.28 149.04,41.24 L149.76,42.6 C148.24,43.52 146.52,44.48 143.72,44.48 C138.8,44.48 134.84,40.72 134.84,34.44 Z M136.64,33.28 L148.88,33.28 C148.88,28.36 146.68,25.84 143.24,25.84 C139.96,25.84 137.04,28.68 136.64,33.28 Z" id="Schedule" fill="#FFFFFF"></path>
            </g>
        </g>
    </g>
</svg>