<?xml version="1.0" encoding="UTF-8"?>
<svg width="192px" height="46px" viewBox="0 0 192 46" version="1.1" xmlns="http://www.w3.org/2000/svg" xmlns:xlink="http://www.w3.org/1999/xlink">
    <!-- Generator: Sketch 47.1 (45422) - http://www.bohemiancoding.com/sketch -->
    <title>Group 4</title>
    <desc>Created with Sketch.</desc>
    <defs></defs>
    <g id="Page-1" stroke="none" stroke-width="1" fill="none" fill-rule="evenodd">
        <g id="SCHEDULE-ME" transform="translate(-122.000000, -246.000000)">
            <g id="Group-4" transform="translate(121.000000, 243.000000)">
                <path d="M133.864498,4.48375477 C134.241219,7.00051457 134.426928,12.4377372 134.426928,20.8326585 C134.426928,29.6775476 133.818906,37.7768721 132.602349,45.1308716 L189.170228,47.5839865 C190.407763,41.7351318 190.994613,34.3249803 190.928504,25.3566158 C190.863151,16.4909206 190.405162,10.4159816 189.56307,7.15858572 L133.864498,4.48375477 Z" id="Rectangle" stroke="#FFFFFF" stroke-width="0.85" transform="translate(161.731142, 26.029004) rotate(-7.000000) translate(-161.731142, -26.029004) "></path>
                <path d="M144.738,37.25 L148.342,37.25 L148.342,27.084 C148.342,25.01 148.036,22.052 147.866,20.012 L148.002,20.012 L149.77,25.078 L153.612,35.176 L155.414,35.176 L159.256,25.078 L161.058,20.012 L161.194,20.012 C160.99,22.052 160.684,25.01 160.684,27.084 L160.684,37.25 L164.39,37.25 L164.39,15.014 L160.038,15.014 L156.128,25.962 L154.666,30.178 L154.53,30.178 L153.068,25.962 L149.056,15.014 L144.738,15.014 L144.738,37.25 Z M168.572,28.92 C168.572,23.48 172.346,20.148 176.256,20.148 C180.778,20.148 183.158,23.412 183.158,28.07 C183.158,28.818 183.09,29.498 182.988,29.906 L172.38,29.906 C172.72,32.932 174.624,34.632 177.31,34.632 C178.738,34.632 179.962,34.19 181.186,33.408 L182.512,35.856 C180.914,36.91 178.908,37.658 176.8,37.658 C172.176,37.658 168.572,34.428 168.572,28.92 Z M172.346,27.424 L179.758,27.424 C179.758,24.772 178.636,23.174 176.358,23.174 C174.386,23.174 172.686,24.636 172.346,27.424 Z" id="Me" fill="#FFFFFF"></path>
                <path d="M9.146,37.658 C7.51399184,37.658 6.06333968,37.3463364 4.794,36.723 C3.52466032,36.0996636 2.44800442,35.2893383 1.564,34.292 L2.584,33.204 C3.40000408,34.133338 4.374661,34.8699973 5.508,35.414 C6.641339,35.9580027 7.85399354,36.23 9.146,36.23 C10.8686753,36.23 12.2286617,35.8163375 13.226,34.989 C14.2233383,34.1616625 14.722,33.07934 14.722,31.742 C14.722,31.0393298 14.6143344,30.4443358 14.399,29.957 C14.1836656,29.4696642 13.8946685,29.0503351 13.532,28.699 C13.1693315,28.3476649 12.7443358,28.0473346 12.257,27.798 C11.7696642,27.5486654 11.2540027,27.2993346 10.71,27.05 L7.31,25.52 C6.83399762,25.315999 6.32400272,25.0666681 5.78,24.772 C5.23599728,24.4773319 4.74300221,24.1090022 4.301,23.667 C3.85899779,23.2249978 3.49066814,22.7036697 3.196,22.103 C2.90133186,21.5023303 2.754,20.7826709 2.754,19.944 C2.754,19.1279959 2.91833169,18.38567 3.247,17.717 C3.57566831,17.04833 4.02899711,16.4703358 4.607,15.983 C5.18500289,15.4956642 5.87632931,15.1160014 6.681,14.844 C7.48567069,14.5719986 8.35266202,14.436 9.282,14.436 C10.6420068,14.436 11.8489947,14.7023307 12.903,15.235 C13.9570053,15.7676693 14.8239966,16.396663 15.504,17.122 L14.62,18.142 C13.9626634,17.4619966 13.1920044,16.9123354 12.308,16.493 C11.4239956,16.0736646 10.415339,15.864 9.282,15.864 C7.78599252,15.864 6.5846712,16.226663 5.678,16.952 C4.7713288,17.677337 4.318,18.6519939 4.318,19.876 C4.318,20.5333366 4.44266542,21.0886644 4.692,21.542 C4.94133458,21.9953356 5.25866474,22.3863317 5.644,22.715 C6.02933526,23.0436683 6.4486644,23.3269988 6.902,23.565 C7.3553356,23.8030012 7.78599796,24.0126658 8.194,24.194 L11.594,25.69 C12.2286698,25.9620014 12.8293305,26.2679983 13.396,26.608 C13.9626695,26.9480017 14.4613312,27.3446644 14.892,27.798 C15.3226688,28.2513356 15.668332,28.7896635 15.929,29.413 C16.189668,30.0363365 16.32,30.7786624 16.32,31.64 C16.32,32.5013376 16.1500017,33.3003296 15.81,34.037 C15.4699983,34.7736704 14.9883365,35.4083307 14.365,35.941 C13.7416636,36.4736693 12.9880044,36.8929985 12.104,37.199 C11.2199956,37.5050015 10.2340054,37.658 9.146,37.658 Z M27.064,37.658 C25.9986613,37.658 25.0183378,37.4653353 24.123,37.08 C23.2276622,36.6946647 22.44567,36.139337 21.777,35.414 C21.10833,34.688663 20.5870019,33.7990053 20.213,32.745 C19.8389981,31.6909947 19.652,30.4840068 19.652,29.124 C19.652,27.7639932 19.855998,26.5456721 20.264,25.469 C20.672002,24.3923279 21.2159966,23.491337 21.896,22.766 C22.5760034,22.040663 23.3636622,21.4853353 24.259,21.1 C25.1543378,20.7146647 26.1006617,20.522 27.098,20.522 C28.231339,20.522 29.1719963,20.725998 29.92,21.134 C30.6680037,21.542002 31.3253305,22.0066641 31.892,22.528 L31.008,23.582 C30.4866641,23.0833308 29.9086698,22.6696683 29.274,22.341 C28.6393302,22.0123317 27.9253373,21.848 27.132,21.848 C26.2933291,21.848 25.5170036,22.0236649 24.803,22.375 C24.0889964,22.7263351 23.4656693,23.2249968 22.933,23.871 C22.4003307,24.5170032 21.9810015,25.2819956 21.675,26.166 C21.3689985,27.0500044 21.216,28.0359946 21.216,29.124 C21.216,30.1893387 21.3576653,31.1639956 21.641,32.048 C21.9243348,32.9320044 22.3209975,33.6913302 22.831,34.326 C23.3410026,34.9606698 23.9643297,35.4536649 24.701,35.805 C25.4376704,36.1563351 26.2479956,36.332 27.132,36.332 C27.9933376,36.332 28.7923297,36.1506685 29.529,35.788 C30.2656704,35.4253315 30.9173305,34.9833359 31.484,34.462 L32.266,35.516 C31.5633298,36.1280031 30.7813376,36.637998 29.92,37.046 C29.0586624,37.454002 28.1066719,37.658 27.064,37.658 Z M36.448,37.25 L36.448,12.804 L37.944,12.804 L37.944,23.48 C38.8053376,22.6186624 39.6779956,21.9103361 40.562,21.355 C41.4460044,20.7996639 42.454661,20.522 43.588,20.522 C45.2880085,20.522 46.5346627,21.0319949 47.328,22.052 C48.1213373,23.0720051 48.518,24.6473227 48.518,26.778 L48.518,37.25 L47.022,37.25 L47.022,26.982 C47.022,25.2366579 46.7330029,23.9503375 46.155,23.123 C45.5769971,22.2956625 44.61934,21.882 43.282,21.882 C42.3073285,21.882 41.4233373,22.1369974 40.63,22.647 C39.8366627,23.1570026 38.9413383,23.9219949 37.944,24.942 L37.944,37.25 L36.448,37.25 Z M60.758,37.658 C59.7153281,37.658 58.7350046,37.4653353 57.817,37.08 C56.8989954,36.6946647 56.1000034,36.1336704 55.42,35.397 C54.7399966,34.6603297 54.2016687,33.7650053 53.805,32.711 C53.4083314,31.6569947 53.21,30.46134 53.21,29.124 C53.21,27.78666 53.4083314,26.5853387 53.805,25.52 C54.2016687,24.4546613 54.73433,23.5536703 55.403,22.817 C56.07167,22.0803296 56.8309958,21.5136686 57.681,21.117 C58.5310043,20.7203313 59.4093288,20.522 60.316,20.522 C62.2653431,20.522 63.7953278,21.1793268 64.906,22.494 C66.0166722,23.8086732 66.572,25.6673213 66.572,28.07 L66.572,28.682 C66.572,28.886001 66.5493336,29.089999 66.504,29.294 L54.74,29.294 C54.7626668,30.3140051 54.9213319,31.260329 55.216,32.133 C55.5106681,33.005671 55.9243307,33.7536635 56.457,34.377 C56.9896693,35.0003364 57.6299963,35.4876649 58.378,35.839 C59.1260037,36.1903351 59.964662,36.366 60.894,36.366 C61.7780044,36.366 62.5769964,36.235668 63.291,35.975 C64.0050036,35.714332 64.6679969,35.3573356 65.28,34.904 L65.892,36.06 C65.2346634,36.4453353 64.5150039,36.8079983 63.733,37.148 C62.9509961,37.4880017 61.9593393,37.658 60.758,37.658 Z M54.74,28.07 L65.144,28.07 C65.144,25.9619895 64.7133376,24.3923385 63.852,23.361 C62.9906624,22.3296615 61.8233407,21.814 60.35,21.814 C59.6473298,21.814 58.9786698,21.9556652 58.344,22.239 C57.7093302,22.5223347 57.1370026,22.9359973 56.627,23.48 C56.1169975,24.0240027 55.6976683,24.6813295 55.369,25.452 C55.0403317,26.2226705 54.8306671,27.0953285 54.74,28.07 Z M76.568,37.658 C74.505323,37.658 72.8620061,36.9270073 71.638,35.465 C70.4139939,34.0029927 69.802,31.8893472 69.802,29.124 C69.802,27.8093268 69.9946648,26.6193387 70.38,25.554 C70.7653353,24.4886613 71.29233,23.5820037 71.961,22.834 C72.62967,22.0859963 73.400329,21.5136686 74.273,21.117 C75.145671,20.7203313 76.0693285,20.522 77.044,20.522 C78.0413383,20.522 78.9083297,20.6976649 79.645,21.049 C80.3816704,21.4003351 81.1579959,21.8933302 81.974,22.528 L81.906,19.536 L81.906,12.804 L83.402,12.804 L83.402,37.25 L82.11,37.25 L81.974,35.142 L81.872,35.142 C81.2146634,35.7993366 80.4383378,36.3829975 79.543,36.893 C78.6476622,37.4030025 77.6560055,37.658 76.568,37.658 Z M76.772,36.332 C77.6786712,36.332 78.5456625,36.099669 79.373,35.635 C80.2003375,35.170331 81.0446624,34.5073376 81.906,33.646 L81.906,23.956 C81.0446624,23.1853295 80.2343371,22.6413349 79.475,22.324 C78.7156629,22.0066651 77.9393373,21.848 77.146,21.848 C76.3299959,21.848 75.5706702,22.0349981 74.868,22.409 C74.1653298,22.7830019 73.5590026,23.2929968 73.049,23.939 C72.5389975,24.5850032 72.1366682,25.3556622 71.842,26.251 C71.5473319,27.1463378 71.4,28.1039949 71.4,29.124 C71.4,30.2120054 71.5189988,31.1979956 71.757,32.082 C71.9950012,32.9660044 72.3406644,33.7196635 72.794,34.343 C73.2473356,34.9663365 73.80833,35.4536649 74.477,35.805 C75.14567,36.1563351 75.9106624,36.332 76.772,36.332 Z M94.52,37.658 C92.8199915,37.658 91.5733373,37.1480051 90.78,36.128 C89.9866627,35.1079949 89.59,33.5326773 89.59,31.402 L89.59,20.93 L91.086,20.93 L91.086,31.198 C91.086,32.9433421 91.3749971,34.2296625 91.953,35.057 C92.5310029,35.8843375 93.4773268,36.298 94.792,36.298 C95.7666716,36.298 96.6506627,36.0316693 97.444,35.499 C98.2373373,34.9663307 99.1099953,34.1220058 100.062,32.966 L100.062,20.93 L101.558,20.93 L101.558,37.25 L100.3,37.25 L100.13,34.53 L100.062,34.53 C99.2686627,35.4820048 98.4300044,36.2413305 97.546,36.808 C96.6619956,37.3746695 95.653339,37.658 94.52,37.658 Z M109.99,37.658 C108.65266,37.658 107.984,36.7966753 107.984,35.074 L107.984,12.804 L109.48,12.804 L109.48,35.278 C109.48,35.6406685 109.547999,35.9069992 109.684,36.077 C109.820001,36.2470008 109.989999,36.332 110.194,36.332 L110.415,36.332 C110.494334,36.332 110.624666,36.3093336 110.806,36.264 L111.078,37.488 C110.919333,37.5333336 110.760667,37.5729998 110.602,37.607 C110.443333,37.6410002 110.239335,37.658 109.99,37.658 Z M122.4,37.658 C121.357328,37.658 120.377005,37.4653353 119.459,37.08 C118.540995,36.6946647 117.742003,36.1336704 117.062,35.397 C116.381997,34.6603297 115.843669,33.7650053 115.447,32.711 C115.050331,31.6569947 114.852,30.46134 114.852,29.124 C114.852,27.78666 115.050331,26.5853387 115.447,25.52 C115.843669,24.4546613 116.37633,23.5536703 117.045,22.817 C117.71367,22.0803296 118.472996,21.5136686 119.323,21.117 C120.173004,20.7203313 121.051329,20.522 121.958,20.522 C123.907343,20.522 125.437328,21.1793268 126.548,22.494 C127.658672,23.8086732 128.214,25.6673213 128.214,28.07 L128.214,28.682 C128.214,28.886001 128.191334,29.089999 128.146,29.294 L116.382,29.294 C116.404667,30.3140051 116.563332,31.260329 116.858,32.133 C117.152668,33.005671 117.566331,33.7536635 118.099,34.377 C118.631669,35.0003364 119.271996,35.4876649 120.02,35.839 C120.768004,36.1903351 121.606662,36.366 122.536,36.366 C123.420004,36.366 124.218996,36.235668 124.933,35.975 C125.647004,35.714332 126.309997,35.3573356 126.922,34.904 L127.534,36.06 C126.876663,36.4453353 126.157004,36.8079983 125.375,37.148 C124.592996,37.4880017 123.601339,37.658 122.4,37.658 Z M116.382,28.07 L126.786,28.07 C126.786,25.9619895 126.355338,24.3923385 125.494,23.361 C124.632662,22.3296615 123.465341,21.814 121.992,21.814 C121.28933,21.814 120.62067,21.9556652 119.986,22.239 C119.35133,22.5223347 118.779003,22.9359973 118.269,23.48 C117.758997,24.0240027 117.339668,24.6813295 117.011,25.452 C116.682332,26.2226705 116.472667,27.0953285 116.382,28.07 Z" id="Schedule" fill="#FFFFFF"></path>
            </g>
        </g>
    </g>
</svg>