<?xml version="1.0" encoding="UTF-8"?>
<svg width="1697px" height="593px" viewBox="0 0 1697 593" version="1.1" xmlns="http://www.w3.org/2000/svg" xmlns:xlink="http://www.w3.org/1999/xlink">
    <!-- Generator: Sketch 48.2 (47327) - http://www.bohemiancoding.com/sketch -->
    <title>minim</title>
    <desc>Created with Sketch.</desc>
    <defs></defs>
    <g id="Page-1" stroke="none" stroke-width="1" fill="none" fill-rule="evenodd">
        <g id="minim" fill="#FFFFFF">
            <path d="M245.849471,403.102544 L141,293 L141,505.033057 L62.6204824,581.230528 C48.8067542,594.659688 26.7220293,594.347935 13.2928686,580.534207 C13.2658135,580.506377 13.238805,580.478502 13.2118429,580.450582 L13.1308216,580.366682 C-0.265218582,566.494676 0.0835545051,544.400312 13.9107673,530.958042 L69.2004063,477.20764 L62.8339844,14.1533203 L305.03753,247.936107 L546.361435,13.3305411 C560.175163,-0.0986196261 582.259888,0.213133876 595.689049,14.026862 C595.716104,14.0546918 595.743112,14.0825668 595.770074,14.1104868 L595.851096,14.1943868 C609.247136,28.0663925 608.898363,50.1607562 595.07115,63.6030262 L245.849471,403.102544 Z" id="Combined-Shape"></path>
            <path d="M575,0 C594.329966,-3.55085719e-15 610,15.6700338 610,35 L610,558 C610,577.329966 594.329966,593 575,593 C555.670034,593 540,577.329966 540,558 L540,35 C540,15.6700338 555.670034,1.77617119e-14 575,1.42108547e-14 Z M35,0 C54.3299662,-3.55085719e-15 70,15.6700338 70,35 L70,558 C70,577.329966 54.3299662,593 35,593 C15.6700338,593 2.36723813e-15,577.329966 0,558 L0,35 C-2.36723813e-15,15.6700338 15.6700338,1.77617119e-14 35,1.42108547e-14 Z" id="Rectangle-Copy-9"></path>
            <path d="M193.863281,455.640625 L245.882324,403.209961 L282.90625,445.417969 L418,593 L177,593 C157.117749,593 141,576.882251 141,557 L141,505.275391 L193.863281,455.640625 Z" id="Rectangle-2"></path>
            <rect id="Rectangle" x="727" y="272" width="49" height="321" rx="24.5"></rect>
            <rect id="Rectangle-Copy-4" x="1242" y="272" width="49" height="321" rx="24.5"></rect>
            <rect id="Rectangle-Copy" x="882" y="272" width="49" height="321" rx="24.5"></rect>
            <rect id="Rectangle-Copy-2" x="1090" y="272" width="49" height="321" rx="24.5"></rect>
            <rect id="Rectangle-Copy-6" x="1404" y="272" width="49" height="321" rx="24.5"></rect>
            <rect id="Rectangle-Copy-5" x="1648" y="272" width="49" height="321" rx="24.5"></rect>
            <path d="M1030.34853,243.929643 L1033.05421,243.929643 C1045.09088,243.929643 1054.84853,253.687294 1054.84853,265.723967 C1054.84853,266.572424 1054.79899,267.420157 1054.70015,268.262837 L1015.75654,600.28885 C1014.30891,612.631138 1003.85025,621.934789 991.42335,621.934789 L988.717674,621.934789 C976.681001,621.934789 966.92335,612.177138 966.92335,600.140465 C966.92335,599.292008 966.972896,598.444275 967.071734,597.601595 L1006.01534,265.575582 C1007.46297,253.233294 1017.92164,243.929643 1030.34853,243.929643 Z" id="Rectangle-Copy-3" transform="translate(1010.885941, 432.932216) rotate(-44.000000) translate(-1010.885941, -432.932216) "></path>
            <path d="M1497.1479,254.208778 L1499.00032,254.208778 C1511.50823,254.208778 1521.6479,264.348441 1521.6479,276.856351 C1521.6479,277.449337 1521.62461,278.042094 1521.57808,278.633253 L1507.1907,461.442926 C1506.18756,474.189002 1495.55171,484.020685 1482.76622,484.020685 L1480.9138,484.020685 C1468.40589,484.020685 1458.26622,473.881021 1458.26622,461.373112 C1458.26622,460.780125 1458.28951,460.187368 1458.33604,459.59621 L1472.72342,276.786536 C1473.72656,264.04046 1484.36241,254.208778 1497.1479,254.208778 Z" id="Rectangle-Copy-7" transform="translate(1489.957059, 369.114731) rotate(-44.000000) translate(-1489.957059, -369.114731) "></path>
            <path d="M1618.35287,250.722321 L1620.24404,250.722321 C1632.73055,250.722321 1642.85287,260.844639 1642.85287,273.331152 C1642.85287,273.935991 1642.8286,274.540587 1642.78011,275.14348 L1627.56012,464.402154 C1626.53652,477.130481 1615.90838,486.938229 1603.13896,486.938229 L1601.24779,486.938229 C1588.76128,486.938229 1578.63896,476.815911 1578.63896,464.329399 C1578.63896,463.724559 1578.66323,463.119964 1578.71172,462.51707 L1593.93171,273.258396 C1594.95531,260.53007 1605.58345,250.722321 1618.35287,250.722321 Z" id="Rectangle-Copy-8" transform="translate(1610.745915, 368.830275) rotate(-325.000000) translate(-1610.745915, -368.830275) "></path>
        </g>
    </g>
</svg>