<svg id="svg3647" xmlns="http://www.w3.org/2000/svg" viewBox="0 0 1000 243.39"><defs><style>.cls-1{fill:#fff;}</style></defs><title>logo-zynga</title><g id="layer1"><g id="g26404"><path id="path26406" class="cls-1" d="M892.73,75.87c9.69,0,20.81,4,27.55,10v61.85a42.77,42.77,0,0,1-32.07,14.51c-12.66,0-23.79-12.32-23.79-41C864.42,94.11,871.88,75.87,892.73,75.87Zm65.14,116.52V46.84h-35l-1.1,10.06c-7.81-7.12-21.63-13-35.77-13-39.78,0-61,31.28-61,77.36,0,41.69,20.88,74.1,57.71,74.1a49.18,49.18,0,0,0,37.62-17.9l2.19,15ZM745.74,75.87c9.65,0,20.85,4,27.49,10v55.92a42.81,42.81,0,0,1-32,14.48c-12.66,0-23.82-8.93-23.82-37.59C717.43,91.48,724.86,75.87,745.74,75.87Zm-49.5,161.28c10.78,3.29,26.33,6.24,50.59,6.24,43.51,0,64-23.51,64-71.88V46.84h-35L774.77,56.9c-7.87-7.12-21.63-13-35.77-13-39.81,0-61,28.65-61,74.79,0,41.69,20.85,70.72,57.71,70.72a49.23,49.23,0,0,0,37.55-17.87v8.56c0,18.24-10,31.66-32,31.66-18.65,0-29.43-3.35-38.34-6.74l-6.68,32.16ZM664,192.38V90.76c0-30.56-20.09-46.9-44.26-46.9-22.35,0-36.46,10.41-46.9,23.45L570.6,46.84H535.24V192.38h37.59V98.15C584,84,596.28,78.44,607.47,78.44s19,5.58,19,23.82v90.12H664ZM447.72,241.85l77.77-195H487.91l-35.36,94.92L419.38,46.84H378.85l53.23,138.43-25.3,56.58h40.94Zm-72.54-49.47,6.43-31.66H301.8l70-113.88H248l-6.52,32h68.93l-73.7,113.57H375.18" transform="translate(0 0)"/></g><g id="g26408"><path id="path26410" class="cls-1" d="M985.63,180.29h2.25c1.91,0,3.64-.11,3.64-2.29,0-1.81-1.58-2.13-3-2.13h-2.85Zm-2.17-6.16h5.36c3.31,0,4.85,1.31,4.85,4,0,2.48-1.58,3.55-3.64,3.77l4,6.11h-2.31l-3.79-6h-2.27v6h-2.17Zm4.64,17.07c5.49,0,9.73-4.36,9.73-10.16a9.77,9.77,0,1,0-9.73,10.16Zm0-22a11.86,11.86,0,1,1-12,11.82,11.8,11.8,0,0,1,12-11.82" transform="translate(0 0)"/></g><g id="g26412"><path id="path26414" class="cls-1" d="M162.45,5c3.44-4.2,8.64-8,15.61-1.72s13,11.77,11.08,13.63c-1.34,1.29-4.3-.4-6.25-1.45-2.53,1.23-3.69,3-4.44,5.9s-1.63,6.32-3.14,6.77c1.71,8.31.86,23.93-1.92,28.8l0,8.8c7.55,13.61,12.66,50.62,2.66,67.66,0,0-.15,21.95-4.37,31.6,0,0-4.8,20.85-3.4,32,2.3,1,8,4.36,9,6.25s1.48,4.81,1.22,5.62c-2.69,4.83-17.06,5-23.64.08-1.47-4.54,1-22.39.26-33s-1.71-14.78-3.81-29a89,89,0,0,1-29.34,1.63c-2.77,12.09-7.66,29.53-8.31,40-.47,7.71-1.12,30.25-1.12,30.25.17,2.31,1.57,4,1.8,5.52.28,2,.69,5.12.14,6.68-3.77,7.11-20.09,6.25-22.74.21-.14-1.57.39-5.59,1.24-6.76.89-1.55,4.56-4.11,5.36-6,.91-7.46,1.86-35.35-.18-41.66C95,171,92.9,155.21,92.29,141.16c-1.63-.69-10.17-5.37-18.18-10.45a30,30,0,0,1-8.74,14.14l2.76,12.92c2,.23,7.73,2.64,8.77,4.43a7.26,7.26,0,0,1,1,4.83c-1.77,3.09-14.14,2.68-16.43-.34l-8.6-26.14a46.71,46.71,0,0,0,1.8-20.13c-26.45,2.81-34.4,36.75-37.41,52.82l.53,2.35v3.95c-2.51,4.14-14.88,3.58-17.77.1a9.58,9.58,0,0,1,1.38-4.76c.92-1.38,5.34-4.6,6.42-5.34l5.87-23.19c1-25.94,7.6-50.56,18.28-63.82C17.32,64.3,18.76,44,30.57,33.41c1.24-1.1,3.32-2.41,4.06-2s.59,1.39-.76,3.38c-8.21,12.31-6.79,29,8.57,38C60.19,62,111.28,59.56,111.28,59.56l1.48-4.83c-1-1.84-2.75-10.76-2.26-15.37-.74-.34-2.25-2.22-4.22-3.92s-4.55-1.77-5.34-3c-5.71,7.23-4.18-1.9-3.41-5.34C99,20.44,100,11,110.3,10.13c2.31-.21,7.26,0,9.19,2.42,1.8-2.73,16.47-5.84,19.32-5.46,3.22-2.66,22.35-3.32,23.64-2" transform="translate(0 0)"/></g></g></svg>