<?xml version="1.0" encoding="UTF-8"?>
<svg width="8232px" height="3418px" viewBox="0 0 8232 3418" version="1.1" xmlns="http://www.w3.org/2000/svg" xmlns:xlink="http://www.w3.org/1999/xlink">
    <!-- Generator: Sketch 48.2 (47327) - http://www.bohemiancoding.com/sketch -->
    <title>eagleLogo</title>
    <desc>Created with Sketch.</desc>
    <defs></defs>
    <g id="Page-1" stroke="none" stroke-width="1" fill="none" fill-rule="evenodd">
        <g id="eagleLogo" fill="#FFFFFF" fill-rule="nonzero">
            <path d="M3125,3406 C2978,3365 2866,3297 2767,3190 C2644,3057 2580,2892 2580,2705 C2580,2502 2646,2343 2789,2199 C2914,2074 3031,2014 3200,1989 L3281,1978 L3314,1913 L3346,1848 L3282,1787 C3179,1688 3107,1565 3075,1428 C3054,1337 3056,1180 3080,1086 C3151,806 3394,591 3684,551 C3776,538 4550,536 4550,548 C4550,557 4495,835 4485,878 C4481,896 4473,900 4445,900 C4426,900 4410,902 4410,904 C4410,906 4421,932 4435,962 C4498,1099 4517,1276 4484,1423 C4475,1463 4448,1538 4423,1590 C4384,1671 4364,1697 4286,1775 C4139,1921 3991,1983 3789,1984 L3683,1985 L3661,2023 C3648,2044 3640,2063 3642,2064 C3644,2066 3672,2085 3706,2108 C3802,2172 3894,2279 3945,2385 C4004,2508 4024,2603 4018,2739 C4009,2929 3945,3074 3810,3211 C3728,3294 3651,3344 3538,3386 C3473,3410 3449,3414 3320,3417 C3217,3419 3160,3416 3125,3406 Z M3455,3041 C3583,2982 3660,2869 3668,2731 C3673,2637 3654,2563 3607,2494 C3447,2261 3092,2285 2968,2538 C2924,2627 2917,2744 2950,2833 C3027,3037 3259,3133 3455,3041 Z M3891,1620 C4155,1538 4238,1204 4044,1005 C4018,978 3972,946 3932,927 C3874,900 3854,896 3780,896 C3705,895 3687,899 3628,927 C3546,966 3477,1032 3442,1108 C3418,1158 3415,1177 3415,1270 C3415,1366 3418,1380 3443,1428 C3533,1600 3711,1676 3891,1620 Z" id="Shape"></path>
            <path d="M4780,2907 C4740,2894 4650,2811 4650,2787 C4650,2774 4659,2770 4684,2770 C4709,2770 4727,2779 4752,2804 C4797,2849 4857,2867 4909,2852 C4984,2829 5030,2771 5030,2699 L5030,2668 L5000,2693 C4958,2729 4907,2743 4840,2738 C4716,2729 4630,2634 4630,2506 C4630,2430 4653,2377 4708,2328 C4784,2260 4905,2252 4987,2309 L5030,2340 L5030,2310 C5030,2282 5033,2280 5065,2280 L5100,2280 L5100,2513 C5100,2778 5095,2799 5021,2861 C4957,2917 4866,2934 4780,2907 Z M4951,2654 C5014,2622 5049,2540 5029,2468 C5005,2379 4956,2340 4867,2340 C4739,2340 4663,2467 4719,2584 C4761,2669 4862,2700 4951,2654 Z" id="Shape"></path>
            <path d="M5260,2713 C5186,2674 5147,2613 5142,2524 C5136,2438 5158,2382 5217,2330 C5289,2267 5384,2252 5470,2291 C5552,2328 5596,2389 5607,2481 L5613,2530 L5411,2530 C5222,2530 5210,2531 5210,2549 C5210,2573 5248,2628 5282,2653 C5323,2683 5398,2687 5448,2661 C5471,2649 5497,2629 5506,2615 C5518,2596 5531,2590 5556,2590 C5575,2590 5590,2594 5590,2599 C5590,2618 5542,2676 5502,2704 C5465,2730 5447,2735 5387,2738 C5323,2741 5309,2738 5260,2713 Z M5525,2433 C5473,2306 5288,2298 5225,2421 C5217,2436 5210,2454 5210,2460 C5210,2466 5267,2470 5375,2470 L5540,2470 L5525,2433 Z" id="Shape"></path>
            <path d="M6223,2716 C6052,2636 6052,2381 6222,2296 C6340,2237 6483,2281 6543,2395 C6573,2451 6573,2559 6542,2617 C6483,2728 6344,2772 6223,2716 Z M6411,2654 C6494,2611 6522,2498 6470,2412 C6412,2317 6258,2315 6194,2408 C6094,2554 6254,2736 6411,2654 Z" id="Shape"></path>
            <path d="M7595,2721 C7510,2681 7460,2601 7460,2503 C7461,2368 7560,2270 7696,2270 C7792,2270 7890,2336 7915,2418 C7921,2438 7918,2440 7886,2440 C7858,2440 7848,2434 7834,2411 C7796,2346 7691,2319 7615,2355 C7508,2407 7502,2586 7606,2650 C7680,2697 7799,2670 7835,2599 C7848,2575 7857,2570 7885,2570 C7904,2570 7920,2575 7920,2580 C7920,2620 7846,2700 7788,2724 C7737,2746 7645,2744 7595,2721 Z" id="Shape"></path>
            <path d="M8002,2720 C7967,2699 7930,2646 7930,2618 C7930,2604 7938,2600 7965,2600 C7994,2600 8001,2604 8006,2625 C8025,2701 8147,2697 8165,2620 C8174,2582 8140,2545 8077,2525 C7999,2499 7963,2474 7950,2436 C7922,2351 7988,2270 8085,2270 C8156,2270 8220,2322 8220,2379 C8220,2396 8214,2400 8185,2400 C8158,2400 8150,2396 8150,2382 C8150,2328 8063,2313 8028,2361 C7999,2400 8016,2433 8077,2455 C8103,2464 8137,2477 8152,2482 C8167,2488 8191,2504 8205,2517 C8239,2551 8241,2643 8209,2684 C8164,2742 8066,2759 8002,2720 Z" id="Shape"></path>
            <path d="M5640,2505 L5640,2280 L5675,2280 C5706,2280 5710,2283 5710,2307 C5710,2331 5711,2332 5728,2317 C5815,2238 5978,2262 6028,2360 C6048,2400 6050,2418 6050,2567 L6050,2730 L6021,2730 L5992,2730 L5988,2583 C5983,2425 5973,2387 5928,2356 C5893,2331 5799,2335 5765,2362 C5719,2398 5710,2435 5710,2590 L5710,2730 L5675,2730 L5640,2730 L5640,2505 Z" id="Shape"></path>
            <path d="M6610,2505 L6610,2280 L6645,2280 C6676,2280 6680,2283 6680,2306 C6680,2330 6681,2330 6697,2314 C6737,2275 6819,2259 6876,2280 C6890,2286 6915,2304 6930,2320 L6958,2350 L6994,2315 C7070,2244 7189,2257 7254,2344 C7273,2369 7275,2388 7278,2551 L7281,2730 L7246,2730 L7210,2730 L7210,2581 C7210,2425 7204,2394 7170,2360 C7145,2335 7065,2332 7031,2356 C6989,2386 6980,2428 6980,2585 L6980,2730 L6945,2730 L6910,2730 L6910,2579 C6910,2413 6900,2372 6854,2351 C6818,2335 6758,2337 6731,2356 C6689,2386 6680,2428 6680,2585 L6680,2730 L6645,2730 L6610,2730 L6610,2505 Z" id="Shape"></path>
            <polygon id="Shape" points="7350 2505 7350 2280 7385 2280 7420 2280 7420 2505 7420 2730 7385 2730 7350 2730"></polygon>
            <path d="M7350,2215 C7350,2182 7352,2180 7385,2180 C7418,2180 7420,2182 7420,2215 C7420,2248 7418,2250 7385,2250 C7352,2250 7350,2248 7350,2215 Z" id="Shape"></path>
            <path d="M609,1980 C465,1957 334,1892 225,1788 C136,1704 80,1620 38,1509 C11,1435 6,1409 2,1297 C-1,1198 1,1152 15,1097 C63,892 207,712 395,620 C684,478 1006,532 1230,759 C1317,848 1370,933 1407,1045 C1430,1115 1434,1142 1434,1257 C1435,1329 1432,1391 1429,1394 C1426,1398 1204,1399 936,1398 L448,1395 L562,1253 L675,1110 L868,1110 L1061,1110 L1043,1079 C1009,1021 940,959 872,927 C813,899 795,895 720,895 C604,896 534,924 460,999 C367,1092 329,1204 350,1322 C378,1476 481,1588 630,1626 C749,1656 885,1620 973,1535 L1009,1500 L1205,1500 C1312,1500 1400,1503 1400,1507 C1400,1510 1384,1546 1364,1586 C1274,1768 1094,1914 896,1964 C821,1984 681,1991 609,1980 Z" id="Shape"></path>
            <path d="M2098,1975 C1824,1923 1598,1712 1530,1444 C1494,1303 1507,1118 1562,987 C1626,836 1758,694 1901,622 C2017,564 2092,546 2225,546 C2352,545 2440,564 2543,613 L2609,646 L2612,595 L2615,545 L2798,542 L2980,540 L2980,883 C2980,1072 2977,1390 2973,1589 L2967,1950 L2791,1948 L2615,1945 L2612,1913 L2609,1882 L2537,1915 C2398,1981 2242,2002 2098,1975 Z M2385,1601 C2513,1542 2590,1429 2598,1291 C2606,1156 2557,1046 2454,967 C2397,924 2299,890 2230,890 C2107,890 1976,964 1912,1070 C1871,1139 1859,1185 1859,1269 C1860,1538 2142,1715 2385,1601 Z" id="Shape"></path>
            <path d="M5665,1980 C5379,1935 5140,1714 5069,1430 C5049,1351 5052,1161 5074,1080 C5142,831 5341,632 5590,564 C5691,536 5873,539 5970,569 C6293,669 6493,935 6494,1265 C6494,1326 6490,1381 6486,1388 C6481,1397 6364,1400 5994,1400 C5728,1400 5510,1397 5510,1394 C5510,1390 5560,1325 5621,1249 L5732,1110 L5921,1110 C6025,1110 6110,1106 6110,1102 C6110,1086 6054,1016 6015,981 C5993,962 5951,935 5920,921 C5874,899 5851,895 5775,895 C5695,895 5678,899 5620,926 C5537,965 5475,1027 5436,1110 C5408,1168 5405,1185 5405,1265 C5405,1341 5410,1364 5432,1412 C5465,1483 5534,1558 5597,1592 C5733,1665 5906,1646 6018,1544 L6068,1500 L6260,1500 L6452,1500 L6445,1528 C6435,1569 6377,1668 6328,1727 C6171,1916 5906,2017 5665,1980 Z" id="Shape"></path>
            <path d="M4620,1052 L4620,153 L4789,77 C4881,34 4962,0 4969,0 C4977,0 4979,247 4978,973 L4975,1945 L4798,1948 L4620,1950 L4620,1052 Z" id="Shape"></path>
            <path d="M6480,723 C6452,713 6411,667 6400,634 C6386,592 6401,532 6432,503 C6520,420 6660,477 6660,595 C6660,688 6566,754 6480,723 Z M6586,682 C6685,602 6592,447 6480,505 C6414,539 6407,633 6467,680 C6499,705 6557,706 6586,682 Z" id="Shape"></path>
            <path d="M6470,595 L6470,520 L6519,520 C6546,520 6572,526 6578,533 C6583.76022,539.912266 6584.76758,551.613281 6581.20312,573.363281 C6577.63867,595.113281 6578,595 6567.30859,610 C6566.1454,611.631949 6574.09755,623.33005 6577,636.359375 C6580.554,652.313597 6581.03245,670 6577,670 C6574.28186,670 6568.57877,672.774677 6564.36133,667.591797 C6557.71762,659.427241 6552.22486,640.697638 6548.55469,630.298828 C6540.55469,610.298828 6536.08594,610 6522.08594,610 C6505.08594,610 6500,616 6500,640 C6500,660 6495,670 6485,670 C6473,670 6470,655 6470,595 Z M6549,577 C6563,560 6553,550 6523,550 C6507,550 6500,556 6500,570 C6500,593 6531,597 6549,577 Z" id="Shape"></path>
        </g>
    </g>
</svg>