<?xml version="1.0" encoding="UTF-8"?>
<svg width="88px" height="120px" viewBox="0 0 88 120" version="1.1" xmlns="http://www.w3.org/2000/svg" xmlns:xlink="http://www.w3.org/1999/xlink">
    <!-- Generator: Sketch 46 (44423) - http://www.bohemiancoding.com/sketch -->
    <title>proximity_lab_logo_white</title>
    <desc>Created with Sketch.</desc>
    <defs></defs>
    <g id="Page-1" stroke="none" stroke-width="1" fill="none" fill-rule="evenodd">
        <g id="Home" transform="translate(-676.000000, -225.000000)" fill-rule="nonzero" fill="#FFFFFF">
            <g id="intro-panel">
                <g id="proximity_lab_logo_white" transform="translate(676.000000, 225.000000)">
                    <path d="M42.2664179,98.0108108 L1.52574627,74.4648649 L1.81791045,69.827027 L46.0320896,44.3027027 L46.0320896,95.9189189 L42.2664179,98.0108108 Z M7.32033582,72.227027 L41.1139925,91.6864865 L41.1139925,52.7675676 L7.32033582,72.227027 Z" id="Shape"></path>
                    <path d="M6.18414179,119.432432 C2.78770557,119.423573 0.034048889,116.679722 0.0162313433,113.286486 L0.0162313433,68.0108108 L48.418097,95.9189189 L9.25186567,118.524324 C8.32800035,119.093484 7.26923237,119.406901 6.18414179,119.432432 L6.18414179,119.432432 Z M4.88563433,113.27027 C4.88563433,113.986748 5.46699592,114.567568 6.18414179,114.567568 C6.40719377,114.564862 6.62557057,114.503325 6.81716418,114.389189 L38.679291,96 L4.88563433,76.5405405 L4.88563433,113.27027 Z" id="Shape"></path>
                    <path d="M41.1139925,100.135135 L41.1139925,48.5027027 L43.548694,48.5027027 L42.3313433,46.4108108 L84.0296642,22.3783784 L85.6527985,24.2432432 C86.6230864,25.9188373 87.1326586,27.8209593 87.1298507,29.7567568 L87.1298507,67.2648649 C87.1213677,71.1941238 85.026766,74.8238523 81.6274254,76.8 L41.1139925,100.135135 Z M45.9833955,49.8648649 L45.9833955,91.6702703 L79.1440299,72.5351351 C81.0382564,71.4310176 82.2055027,69.4072082 82.2117537,67.2162162 L82.2117537,29.7567568 C82.2258829,29.5191284 82.2258829,29.2808716 82.2117537,29.0432432 L45.9833955,49.8648649 Z" id="Shape"></path>
                    <path d="M43.5324627,51.3243243 L1.88283582,26.3675676 L1.47705224,24.2594595 C2.459628,22.552568 3.8836158,21.1411093 5.59981343,20.172973 L38.0625,1.44324324 C41.4376057,-0.436418997 45.546163,-0.436418997 48.9212687,1.44324324 L81.6436567,20.3189189 C83.2864373,21.2846854 84.6508795,22.6590296 85.6041045,24.3081081 L86.4643657,26.5945946 L43.5324627,51.3243243 Z M7.33656716,24.827027 L43.5324627,45.6972973 L79.7283582,24.8108108 L79.1764925,24.4378378 L46.5190299,5.59459459 C44.6457057,4.55849112 42.3705257,4.55849112 40.4972015,5.59459459 L8.03451493,24.3243243 C7.79583405,24.4758242 7.56804053,24.6438009 7.35279851,24.827027 L7.33656716,24.827027 Z" id="Shape"></path>
                    <path d="M-1.63330365e-14,76.4432432 L-1.63330365e-14,29.7567568 C-0.00280787518,27.8209593 0.506764391,25.9188373 1.47705224,24.2432432 L2.87294776,22.3621622 L48.320709,48.5027027 L-1.63330365e-14,76.4432432 Z M4.86940299,29.0432432 C4.85542478,29.2808761 4.85542478,29.5191239 4.86940299,29.7567568 L4.86940299,68.0108108 L38.6630597,48.5513514 L4.86940299,29.0432432 Z" id="Shape"></path>
                </g>
            </g>
        </g>
    </g>
</svg>