<?xml version="1.0" encoding="UTF-8"?>
<svg width="225px" height="55px" viewBox="0 0 225 55" version="1.1" xmlns="http://www.w3.org/2000/svg" xmlns:xlink="http://www.w3.org/1999/xlink">
    <!-- Generator: Sketch 46.2 (44496) - http://www.bohemiancoding.com/sketch -->
    <title>songbird</title>
    <desc>Created with Sketch.</desc>
    <defs></defs>
    <g id="Page-1" stroke="none" stroke-width="1" fill="none" fill-rule="evenodd">
        <g id="SONGBIRD" transform="translate(-953.000000, -250.000000)" fill="#FFFFFF">
            <path d="M964.563966,292.455134 C965.684371,292.455134 966.754743,292.285075 967.775113,291.944952 C968.795482,291.604829 969.675788,291.144669 970.416056,290.564459 C971.156324,289.984249 971.746529,289.294009 972.186688,288.493719 C972.626848,287.693429 972.846924,286.833131 972.846924,285.912797 C972.846924,285.072493 972.726882,284.332236 972.486795,283.692004 C972.246708,283.051772 971.796552,282.461568 971.136313,281.921372 C970.476074,281.381176 969.575761,280.881003 968.435348,280.420836 C967.294935,279.960669 965.804418,279.490506 963.963751,279.010332 C962.283143,278.570173 960.832639,278.13002 959.612197,277.689861 C958.391755,277.249701 957.371401,276.729521 956.551104,276.129303 C955.730807,275.529086 955.130599,274.808836 954.750461,273.968532 C954.370323,273.128227 954.180257,272.087866 954.180257,270.847417 C954.180257,269.606968 954.450351,268.466572 954.990547,267.426195 C955.530742,266.385818 956.270999,265.505513 957.21134,264.785252 C958.15168,264.064991 959.252062,263.504797 960.512519,263.104652 C961.772975,262.704507 963.103437,262.504437 964.503944,262.504437 C965.98448,262.504437 967.334949,262.664493 968.555391,262.984609 C969.775833,263.304725 970.826198,263.714867 971.706517,264.215048 C972.586835,264.715229 973.277075,265.245413 973.777256,265.805616 C974.277437,266.365819 974.527524,266.886 974.527524,267.366174 C974.527524,267.68629 974.417486,267.97639 974.197406,268.236484 C973.977327,268.496579 973.647212,268.626624 973.207053,268.626624 C972.926951,268.626624 972.646854,268.516586 972.366752,268.296506 C972.086651,268.076426 971.686512,267.746312 971.166324,267.306152 C970.68615,266.946022 970.22599,266.615907 969.785831,266.315798 C969.345671,266.01569 968.875508,265.7556 968.375327,265.53552 C967.875146,265.31544 967.304948,265.145381 966.664716,265.025338 C966.024484,264.905294 965.284227,264.845273 964.443923,264.845273 C963.483575,264.845273 962.553252,264.965315 961.652926,265.205402 C960.7526,265.445489 959.942319,265.815617 959.222058,266.315798 C958.501797,266.81598 957.921596,267.436195 957.481436,268.176463 C957.041277,268.916731 956.8212,269.767026 956.8212,270.727374 C956.8212,271.567678 956.961249,272.277925 957.24135,272.858135 C957.521452,273.438345 958.011622,273.948522 958.711876,274.388682 C959.412129,274.828841 960.332449,275.238983 961.472862,275.619121 C962.613275,275.999259 964.043771,276.429408 965.764394,276.909582 C967.124887,277.309727 968.405332,277.719869 969.605766,278.140021 C970.806201,278.560174 971.846562,279.080354 972.726881,279.700579 C973.6072,280.320803 974.297439,281.091071 974.797621,282.011404 C975.297802,282.931737 975.547889,284.112147 975.547889,285.552669 C975.547889,286.99319 975.217774,288.283638 974.557535,289.424051 C973.897296,290.564464 973.036997,291.544805 971.976613,292.365102 C970.916229,293.185399 969.715812,293.815618 968.375327,294.255777 C967.034841,294.695936 965.684373,294.916013 964.32388,294.916013 C962.683286,294.916013 961.192768,294.70594 959.852283,294.285788 C958.511798,293.865636 957.371402,293.355459 956.431061,292.755241 C955.490721,292.155024 954.760467,291.534808 954.240279,290.894577 C953.72009,290.254345 953.46,289.714157 953.46,289.273998 C953.46,289.073925 953.550031,288.833842 953.730096,288.553741 C953.910162,288.273639 954.240276,288.153598 954.72045,288.193612 C955.120595,288.193612 955.540741,288.413688 955.9809,288.853848 C956.42106,289.294007 956.991258,289.784177 957.691511,290.324373 C958.391765,290.864569 959.292077,291.354739 960.392476,291.794898 C961.492874,292.235058 962.883357,292.455134 964.563966,292.455134 Z M994.874791,262.20433 C997.315675,262.20433 999.436411,262.674493 1001.23706,263.614834 C1003.03772,264.555174 1004.51823,265.805608 1005.67865,267.366174 C1006.83907,268.926739 1007.69937,270.707357 1008.25957,272.708081 C1008.81977,274.708806 1009.09987,276.789528 1009.09987,278.950311 C1009.09987,281.111093 1008.80977,283.191816 1008.22956,285.19254 C1007.64935,287.193265 1006.77905,288.953876 1005.61863,290.474427 C1004.45821,291.994977 1002.97769,293.215401 1001.17704,294.135734 C999.37639,295.056067 997.27566,295.516227 994.874791,295.516227 C992.473922,295.516227 990.383196,295.046064 988.602551,294.105723 C986.821906,293.165383 985.361399,291.924952 984.220986,290.384394 C983.080573,288.843837 982.230278,287.073222 981.670075,285.072497 C981.109872,283.071773 980.829775,280.99105 980.829775,278.830268 C980.829775,276.669485 981.099869,274.588763 981.640064,272.588039 C982.18026,270.587314 983.020552,268.816699 984.160965,267.276141 C985.301378,265.735584 986.751881,264.505156 988.512519,263.584823 C990.273156,262.66449 992.393893,262.20433 994.874791,262.20433 Z M994.874791,293.11537 C996.675443,293.11537 998.275999,292.765248 999.676506,292.064995 C1001.07701,291.364741 1002.26743,290.394404 1003.24778,289.153955 C1004.22814,287.913506 1004.9784,286.432992 1005.49859,284.712369 C1006.01877,282.991746 1006.27886,281.091086 1006.27886,279.010332 C1006.27886,276.929579 1006.02878,275.018915 1005.5286,273.278285 C1005.02841,271.537655 1004.29816,270.037134 1003.33781,268.776677 C1002.37747,267.516221 1001.17705,266.525877 999.736527,265.805616 C998.296006,265.085355 996.635429,264.72523 994.754748,264.72523 C992.874067,264.72523 991.233498,265.075352 989.83299,265.775606 C988.432483,266.475859 987.27208,267.456199 986.351747,268.716656 C985.431414,269.977112 984.751178,271.477633 984.311018,273.218264 C983.870859,274.958894 983.650782,276.84955 983.650782,278.890289 C983.650782,280.931028 983.900869,282.821685 984.40105,284.562315 C984.901232,286.302945 985.631485,287.803466 986.591833,289.063923 C987.552181,290.324379 988.722587,291.314723 990.103087,292.034984 C991.483587,292.755245 993.074139,293.11537 994.874791,293.11537 Z M1036.8898,274.32866 C1036.8898,272.528008 1036.68973,271.017484 1036.28958,269.797042 C1035.88944,268.5766 1035.31924,267.606263 1034.57897,266.886002 C1033.8387,266.165741 1032.9584,265.645561 1031.93803,265.325445 C1030.91766,265.005329 1029.80727,264.845273 1028.60684,264.845273 C1027.52645,264.845273 1026.39605,265.035339 1025.21563,265.415477 C1024.0352,265.795615 1022.93482,266.365813 1021.91445,267.126088 C1020.89408,267.886363 1020.05379,268.836693 1019.39355,269.977106 C1018.73331,271.117519 1018.40319,272.467988 1018.40319,274.028553 L1018.40319,292.69522 C1018.40319,293.975683 1017.94303,294.615906 1017.0227,294.615906 C1016.10237,294.615906 1015.64221,293.975683 1015.64221,292.69522 L1015.64221,264.72523 C1015.64221,264.00497 1015.75225,263.504796 1015.97233,263.224695 C1016.19241,262.944593 1016.56253,262.804544 1017.08272,262.804544 C1017.60291,262.804544 1017.95303,262.944593 1018.1331,263.224695 C1018.31316,263.504796 1018.40319,264.00497 1018.40319,264.72523 L1018.40319,268.386538 C1018.76332,267.666277 1019.29351,266.946027 1019.99376,266.225766 C1020.69402,265.505506 1021.5143,264.85528 1022.45464,264.27507 C1023.39498,263.69486 1024.43534,263.224696 1025.57576,262.864566 C1026.71617,262.504435 1027.88657,262.324373 1029.08701,262.324373 C1030.52753,262.324373 1031.888,262.534446 1033.16847,262.954598 C1034.44893,263.37475 1035.56932,264.014972 1036.52967,264.875284 C1037.49002,265.735596 1038.25028,266.855985 1038.81048,268.236484 C1039.37069,269.616984 1039.65078,271.267557 1039.65078,273.188253 L1039.65078,292.69522 C1039.65078,293.415481 1039.55075,293.915654 1039.35068,294.195756 C1039.1506,294.475857 1038.79048,294.615906 1038.27029,294.615906 C1037.7501,294.615906 1037.38998,294.475857 1037.1899,294.195756 C1036.98983,293.915654 1036.8898,293.415481 1036.8898,292.69522 L1036.8898,274.32866 Z M1073.68294,293.175391 C1073.68294,294.856 1073.37283,296.406538 1072.7526,297.827053 C1072.13238,299.247567 1071.23207,300.467991 1070.05164,301.48836 C1068.87121,302.50873 1067.41071,303.299004 1065.67008,303.859207 C1063.92944,304.41941 1061.91875,304.699507 1059.63792,304.699507 C1058.87765,304.699507 1057.86729,304.589469 1056.60684,304.369389 C1055.34638,304.149309 1054.10595,303.829198 1052.88551,303.409046 C1051.66507,302.988894 1050.6147,302.48872 1049.73438,301.90851 C1048.85406,301.3283 1048.41391,300.678074 1048.41391,299.957814 C1048.41391,299.317582 1048.62399,298.887432 1049.04414,298.667353 C1049.46429,298.447273 1049.99447,298.557311 1050.63471,298.997471 C1051.07486,299.43763 1051.66507,299.847772 1052.40534,300.22791 C1053.14561,300.608048 1053.93588,300.928159 1054.77618,301.188253 C1055.61649,301.448347 1056.49679,301.648417 1057.41713,301.788467 C1058.33746,301.928518 1059.19776,301.998542 1059.99805,301.998542 C1061.55861,301.958528 1062.99911,301.748455 1064.31959,301.368317 C1065.64007,300.98818 1066.78047,300.427985 1067.74081,299.687717 C1068.70116,298.947449 1069.45142,298.037133 1069.99162,296.956742 C1070.53181,295.87635 1070.80191,294.615913 1070.80191,293.175391 L1070.80191,288.253633 C1069.76153,290.334387 1068.27101,291.864918 1066.33031,292.845273 C1064.38961,293.825628 1062.03879,294.315798 1059.27779,294.315798 C1057.47714,294.315798 1055.78655,293.935667 1054.20598,293.175391 C1052.62541,292.415116 1051.26494,291.354748 1050.12452,289.994255 C1048.98411,288.633762 1048.0838,287.003196 1047.42356,285.102508 C1046.76332,283.20182 1046.4332,281.091087 1046.4332,278.770247 C1046.4332,275.969232 1046.83334,273.538388 1047.63363,271.477642 C1048.43392,269.416896 1049.48429,267.716305 1050.78476,266.37582 C1052.08523,265.035334 1053.54574,264.044991 1055.16632,263.404759 C1056.78691,262.764527 1058.43748,262.464423 1060.11809,262.504437 C1062.87909,262.584466 1065.17989,263.284709 1067.02056,264.605188 C1068.86122,265.925666 1070.16168,267.606249 1070.92195,269.646988 L1070.92195,264.72523 C1070.92195,263.444767 1071.38211,262.804544 1072.30244,262.804544 C1073.22278,262.804544 1073.68294,263.444767 1073.68294,264.72523 L1073.68294,293.175391 Z M1049.31423,278.770247 C1049.31423,280.770971 1049.58433,282.571596 1050.12452,284.172176 C1050.66472,285.772755 1051.41498,287.133228 1052.37533,288.253633 C1053.33567,289.374039 1054.45606,290.244341 1055.73653,290.864566 C1057.01699,291.484791 1058.41748,291.794898 1059.93803,291.794898 C1063.41929,291.794898 1066.12023,290.76454 1068.04092,288.703794 C1069.96162,286.643048 1070.92195,283.351905 1070.92195,278.830268 C1070.92195,276.549442 1070.65186,274.558751 1070.11166,272.858135 C1069.57147,271.157519 1068.8112,269.737026 1067.83085,268.596613 C1066.85049,267.4562 1065.68009,266.595901 1064.31959,266.015691 C1062.9591,265.435481 1061.45858,265.14538 1059.81798,265.14538 C1058.13738,265.14538 1056.63686,265.485499 1055.31638,266.165745 C1053.9959,266.845991 1052.89552,267.786318 1052.0152,268.986752 C1051.13488,270.187187 1050.46465,271.627687 1050.00448,273.308296 C1049.54431,274.988904 1049.31423,276.809536 1049.31423,278.770247 Z M1104.35389,278.890289 C1104.35389,276.929579 1104.15382,275.098944 1103.75368,273.398328 C1103.35353,271.697712 1102.71331,270.227202 1101.83299,268.986752 C1100.95267,267.746303 1099.82228,266.775966 1098.44178,266.075713 C1097.06128,265.375459 1095.41071,265.025338 1093.49001,265.025338 C1091.84942,265.025338 1090.38891,265.40547 1089.10845,266.165745 C1087.82798,266.92602 1086.74761,267.956378 1085.86729,269.256849 C1084.98697,270.55732 1084.31674,272.047837 1083.85657,273.728446 C1083.3964,275.409054 1083.16632,277.149659 1083.16632,278.950311 C1083.16632,280.750963 1083.36639,282.47156 1083.76654,284.112154 C1084.16668,285.752748 1084.7869,287.183245 1085.6272,288.403687 C1086.46751,289.624129 1087.52787,290.594466 1088.80834,291.314727 C1090.0888,292.034988 1091.60933,292.395113 1093.36997,292.395113 C1095.09059,292.395113 1096.64113,292.064998 1098.02163,291.404759 C1099.40213,290.74452 1100.55253,289.814197 1101.47286,288.613762 C1102.3932,287.413327 1103.10344,285.992834 1103.60362,284.35224 C1104.1038,282.711646 1104.35389,280.891014 1104.35389,278.890289 Z M1083.28637,292.635198 C1083.28637,293.915662 1082.8062,294.555884 1081.84585,294.555884 C1080.8855,294.555884 1080.40534,293.915662 1080.40534,292.635198 L1080.40534,252.000686 C1080.40534,250.720222 1080.8655,250.08 1081.78583,250.08 C1082.70616,250.08 1083.16632,250.720222 1083.16632,252.000686 L1083.16632,270.247203 C1083.52645,269.24684 1084.02663,268.286507 1084.66686,267.366174 C1085.30709,266.44584 1086.06736,265.625556 1086.94767,264.905295 C1087.82799,264.185034 1088.83834,263.604832 1089.97876,263.164673 C1091.11917,262.724514 1092.3496,262.504437 1093.67008,262.504437 C1095.51074,262.464423 1097.25135,262.764527 1098.89194,263.404759 C1100.53253,264.044991 1101.97303,265.045338 1103.21348,266.405831 C1104.45393,267.766323 1105.44428,269.486921 1106.18454,271.567674 C1106.92481,273.648428 1107.29494,276.089275 1107.29494,278.890289 C1107.29494,281.21113 1106.97483,283.351873 1106.3346,285.312583 C1105.69437,287.273293 1104.78405,288.96388 1103.60362,290.384394 C1102.4232,291.804909 1101.02271,292.915294 1099.40212,293.715584 C1097.78154,294.515874 1095.99091,294.916013 1094.0302,294.916013 C1091.2692,294.916013 1089.03843,294.24578 1087.33781,292.905295 C1085.6372,291.564809 1084.28673,289.854215 1083.28637,287.773462 L1083.28637,292.635198 Z M1118.69901,292.69522 C1118.69901,293.455495 1118.59898,293.965672 1118.39891,294.225766 C1118.19883,294.485861 1117.83871,294.615906 1117.31852,294.615906 C1116.79833,294.615906 1116.43821,294.495864 1116.23814,294.255777 C1116.03806,294.01569 1115.93803,293.49551 1115.93803,292.69522 L1115.93803,264.665209 C1115.93803,263.944948 1116.04807,263.444775 1116.26815,263.164673 C1116.48823,262.884572 1116.83835,262.744523 1117.31852,262.744523 C1117.83871,262.744523 1118.19883,262.874568 1118.39891,263.134662 C1118.59898,263.394757 1118.69901,263.904934 1118.69901,264.665209 L1118.69901,292.69522 Z M1114.91766,255.121801 C1114.91766,254.441554 1115.14774,253.871356 1115.60791,253.41119 C1116.06808,252.951023 1116.63827,252.720943 1117.31852,252.720943 C1117.99877,252.720943 1118.56897,252.951023 1119.02913,253.41119 C1119.4893,253.871356 1119.71938,254.441554 1119.71938,255.121801 C1119.71938,255.802047 1119.4893,256.372245 1119.02913,256.832412 C1118.56897,257.292578 1117.99877,257.522658 1117.31852,257.522658 C1116.63827,257.522658 1116.06808,257.292578 1115.60791,256.832412 C1115.14774,256.372245 1114.91766,255.802047 1114.91766,255.121801 Z M1140.96697,265.685573 C1139.92659,265.845631 1138.88623,266.205756 1137.84585,266.765959 C1136.80548,267.326162 1135.86515,268.116436 1135.02484,269.136806 C1134.18454,270.157176 1133.4943,271.427617 1132.95411,272.948167 C1132.41391,274.468718 1132.14382,276.269343 1132.14382,278.350096 L1132.14382,292.69522 C1132.14382,293.415481 1132.04378,293.915654 1131.84371,294.195756 C1131.64364,294.475857 1131.28351,294.615906 1130.76332,294.615906 C1130.24313,294.615906 1129.88301,294.475857 1129.68294,294.195756 C1129.48286,293.915654 1129.38283,293.415481 1129.38283,292.69522 L1129.38283,264.72523 C1129.38283,264.00497 1129.49287,263.504796 1129.71295,263.224695 C1129.93303,262.944593 1130.30316,262.804544 1130.82334,262.804544 C1131.34353,262.804544 1131.69365,262.924586 1131.87372,263.164673 C1132.05378,263.40476 1132.14382,263.924941 1132.14382,264.72523 L1132.14382,269.947095 C1133.30424,267.786313 1134.6447,266.055712 1136.16525,264.755241 C1137.6858,263.45477 1139.58646,262.804544 1141.86729,262.804544 C1143.2678,262.804544 1143.96804,263.304718 1143.96804,264.30508 C1143.96804,264.625196 1143.868,264.86528 1143.66793,265.025338 C1143.46786,265.185396 1143.21777,265.305437 1142.91766,265.385466 C1142.61755,265.465495 1142.28744,265.525516 1141.92731,265.565531 C1141.56718,265.605545 1141.24707,265.645559 1140.96697,265.685573 Z M1153.51145,278.890289 C1153.51145,280.891014 1153.76153,282.711646 1154.26171,284.35224 C1154.7619,285.992834 1155.47214,287.413327 1156.39248,288.613762 C1157.31281,289.814197 1158.45321,290.74452 1159.8137,291.404759 C1161.17419,292.064998 1162.73473,292.395113 1164.49537,292.395113 C1166.21599,292.395113 1167.71651,292.034988 1168.99698,291.314727 C1170.27744,290.594466 1171.33781,289.624129 1172.17811,288.403687 C1173.01842,287.183245 1173.64864,285.752748 1174.06879,284.112154 C1174.48894,282.47156 1174.69901,280.750963 1174.69901,278.950311 C1174.69901,277.149659 1174.46893,275.409054 1174.00877,273.728446 C1173.5486,272.047837 1172.87837,270.55732 1171.99805,269.256849 C1171.11773,267.956378 1170.03736,266.92602 1168.75689,266.165745 C1167.47643,265.40547 1166.01592,265.025338 1164.37533,265.025338 C1162.45463,265.025338 1160.80406,265.375459 1159.42356,266.075713 C1158.04306,266.775966 1156.91267,267.746303 1156.03235,268.986752 C1155.15203,270.227202 1154.51181,271.697712 1154.11166,273.398328 C1153.71152,275.098944 1153.51145,276.929579 1153.51145,278.890289 Z M1174.57897,287.773462 C1173.53859,289.854215 1172.16812,291.564809 1170.4675,292.905295 C1168.76689,294.24578 1166.55612,294.916013 1163.83513,294.916013 C1161.87442,294.916013 1160.0838,294.515874 1158.46322,293.715584 C1156.84263,292.915294 1155.44214,291.804909 1154.26171,290.384394 C1153.08129,288.96388 1152.17097,287.273293 1151.53074,285.312583 C1150.89051,283.351873 1150.5704,281.21113 1150.5704,278.890289 C1150.5704,276.089275 1150.94053,273.648428 1151.68079,271.567674 C1152.42106,269.486921 1153.41141,267.766323 1154.65185,266.405831 C1155.8923,265.045338 1157.3328,264.044991 1158.9734,263.404759 C1160.61399,262.764527 1162.3546,262.464423 1164.19526,262.504437 C1165.51574,262.504437 1166.74617,262.724514 1167.88658,263.164673 C1169.02699,263.604832 1170.03734,264.185034 1170.91766,264.905295 C1171.79798,265.625556 1172.55825,266.44584 1173.19848,267.366174 C1173.83871,268.286507 1174.33888,269.24684 1174.69901,270.247203 L1174.69901,252.000686 C1174.69901,250.720222 1175.15917,250.08 1176.07951,250.08 C1176.99984,250.08 1177.46,250.720222 1177.46,252.000686 L1177.46,292.635198 C1177.46,293.915662 1176.97983,294.555884 1176.01949,294.555884 C1175.05914,294.555884 1174.57897,293.915662 1174.57897,292.635198 L1174.57897,287.773462 Z" id="songbird"></path>
        </g>
    </g>
</svg>