<?xml version="1.0" encoding="UTF-8"?>
<svg width="220px" height="53px" viewBox="0 0 220 53" version="1.1" xmlns="http://www.w3.org/2000/svg" xmlns:xlink="http://www.w3.org/1999/xlink">
    <!-- Generator: Sketch 46.2 (44496) - http://www.bohemiancoding.com/sketch -->
    <title>root_logo</title>
    <desc>Created with Sketch.</desc>
    <defs>
        <polygon id="path-1" points="0 0 220 0 220 53 0 53 0 32.453125"></polygon>
    </defs>
    <g id="Page-1" stroke="none" stroke-width="1" fill="none" fill-rule="evenodd">
        <g id="ROOTINSIGHT" transform="translate(-105.000000, -226.000000)">
            <g id="root_logo" transform="translate(105.000000, 226.000000)">
                <g id="Group" transform="translate(16.000000, 12.000000)" fill="#FFFFFF">
                    <polygon id="Fill-1" fill-opacity="0.8" points="3.70906667 35.5681556 16.8980667 26.1203778 16.8980667 1.06482222 3.65773333 10.6543778"></polygon>
                    <polygon id="Fill-2" opacity="0.5" points="14.1583333 0.242144444 0.918 9.83292222 3.657 10.6542556 16.8985556 1.0647"></polygon>
                    <polygon id="Fill-3" opacity="0.4" points="0.917511111 9.83255556 0.968844444 34.7463333 3.70906667 35.5676667 3.65773333 10.6551111"></polygon>
                </g>
                <g id="Group-2" fill="#FFFFFF">
                    <polygon id="Fill-4" opacity="0.9" points="2.7401 13.8355556 2.7401 52.5555556 14.0701 44.4338889 14.0701 20.3133333 20.6248778 15.4586667 20.6762111 0.842111111"></polygon>
                    <polygon id="Fill-5" fill-opacity="0.5" points="17.9366 0.0195555556 0.000488888889 13.0142222 2.73948889 13.8355556 20.6768222 0.842111111"></polygon>
                    <polygon id="Fill-6" fill-opacity="0.4" points="0 51.7338556 2.74022222 52.5551889 2.74022222 13.8351889 0 13.0138556"></polygon>
                </g>
                <g id="Group-23">
                    <path d="M49,39 L49,21.0328667 C49,16.1405965 52.0091743,13 56.6330275,13 C61.3302752,13 64.4862385,15.7754108 64.4862385,19.6463786 C64.4862385,22.7127206 63.2385321,25.0146074 60.2648318,26.0371272 L60.2648318,26.108947 C63.0917431,26.5849057 65,28.6287279 65,31.9884358 L65,39 L63.3853211,39 L63.3853211,31.7705417 C63.3853211,29.068168 61.6960245,26.8758369 57.2923547,26.8758369 L52.0091743,26.8758369 L52.0091743,25.5611686 L56.1926606,25.5611686 C60.6685015,25.5611686 62.8715596,23.2239805 62.8715596,19.7924528 C62.8715596,16.5788192 60.2648318,14.3877054 56.6330275,14.3877054 C52.6697248,14.3877054 50.5412844,17.0900791 50.5412844,20.9610469 L50.5412844,39 L49,39 Z" id="Fill-7" fill="#FFFFFF"></path>
                    <path d="M69.5001042,31.0006073 C69.5001042,35.008975 72.6503229,38.6881706 76.999375,38.6881706 C81.3496771,38.6881706 84.4998958,35.008975 84.4998958,31.0006073 C84.4998958,26.9922397 81.3496771,23.3118294 76.999375,23.3118294 C72.6503229,23.3118294 69.5001042,26.9922397 69.5001042,31.0006073 M86,31.0006073 C86,35.8835279 82.0997291,40 76.999375,40 C71.9002709,40 68,35.8835279 68,31.0006073 C68,26.1164721 71.9002709,22 76.999375,22 C82.0997291,22 86,26.1164721 86,31.0006073" id="Fill-9" fill="#FFFFFF"></path>
                    <path d="M89.5001042,31.0006073 C89.5001042,35.008975 92.6503229,38.6881706 97.000625,38.6881706 C101.349677,38.6881706 104.501146,35.008975 104.501146,31.0006073 C104.501146,26.9922397 101.349677,23.3118294 97.000625,23.3118294 C92.6503229,23.3118294 89.5001042,26.9922397 89.5001042,31.0006073 M106,31.0006073 C106,35.8835279 102.100979,40 97.000625,40 C91.9002709,40 88,35.8835279 88,31.0006073 C88,26.1164721 91.9002709,22 97.000625,22 C102.100979,22 106,26.1164721 106,31.0006073" id="Fill-11" fill="#FFFFFF"></path>
                    <path d="M110.475728,21.7341465 L117,21.7341465 L117,23.0454771 L110.475728,23.0454771 L110.475728,34.1917876 C110.475728,36.3773387 111.873786,37.6886694 114.049838,37.6886694 L117,37.6886694 L117,39 L114.359223,39 C110.865372,39 109,37.1058557 109,34.0460842 L109,17 L110.475728,17 L110.475728,21.7341465 Z" id="Fill-13" fill="#FFFFFF"></path>
                    <mask id="mask-2" fill="white">
                        <use xlink:href="#path-1"></use>
                    </mask>
                    <g id="Clip-16"></g>
                    <polygon id="Fill-15" fill="#FFFFFF" mask="url(#mask-2)" points="128 14 130 14 130 40 128 40"></polygon>
                    <path d="M146.6,40 L146.6,29.4380165 C146.6,25.757438 144.057895,23.3400826 141,23.3400826 C137.942105,23.3400826 135.4,25.757438 135.4,29.4380165 L135.4,40 L134,40 L134,29.2520661 C134,24.9008264 137.094737,22 141,22 C144.905263,22 148,24.9008264 148,29.2520661 L148,40 L146.6,40 Z" id="Fill-17" fill="#FFFFFF" mask="url(#mask-2)"></path>
                    <path d="M152.03658,37.7088608 L160.058924,37.7088608 C163.199748,37.7088608 164.410668,36.5611814 164.410668,34.8408579 C164.410668,29.1729958 152,32.4725738 152,26.1256681 C152,23.9008439 153.627174,22 156.578791,22 L164.637715,22 L164.637715,23.2911392 L156.691053,23.2911392 C155.139562,23.2911392 153.588071,24.2248242 153.588071,26.0886076 C153.588071,31.1097046 166,27.918917 166,34.6244726 C166,37.6012658 163.691684,39 159.718353,39 L152.03658,39 L152.03658,37.7088608 Z" id="Fill-18" fill="#FFFFFF" mask="url(#mask-2)"></path>
                    <path d="M169.366667,21.9122257 L170.633333,21.9122257 L170.633333,39 L169.366667,39 L169.366667,21.9122257 Z M170,16 C170.566667,16 171,16.4698537 171,17.0827064 C171,17.695559 170.566667,18.1642111 170,18.1642111 C169.433333,18.1642111 169,17.695559 169,17.0827064 C169,16.4698537 169.433333,16 170,16 L170,16 Z" id="Fill-19" fill="#FFFFFF" mask="url(#mask-2)"></path>
                    <path d="M177.644084,45.8089888 C178.967532,46.3202247 180.58658,46.6853933 182.059668,46.6853933 C186.768398,46.6853933 189.601732,44.5661985 189.601732,38.505618 L189.601732,31.0208801 C189.601732,27.0040262 186.694805,23.3146067 182.5,23.3146067 C178.967532,23.3146067 175.471861,26.5646067 175.471861,31.0208801 C175.471861,35.4747191 178.967532,38.7247191 182.5,38.7247191 C184.819408,38.7247191 186.437229,37.7752809 187.945887,36.2050562 L187.945887,37.8483146 C186.878788,38.7247191 185.186147,40.0393258 182.5,40.0393258 C177.754473,40.0393258 174,36.241573 174,31.0208801 C174,25.79897 177.754473,22 182.5,22 C187.246753,22 191,25.79897 191,31.0208801 L191,39.4550562 C191,44.8595506 187.321573,48 182.242424,48 C180.514214,48 178.821573,47.7078652 177.202525,47.1235955 L177.644084,45.8089888 Z" id="Fill-20" fill="#FFFFFF" mask="url(#mask-2)"></path>
                    <path d="M207.6,40 L207.6,29.4509262 C207.6,25.7748464 205.057895,23.3604457 202,23.3604457 C198.942105,23.3604457 196.4,25.7748464 196.4,29.4509262 L196.4,40 L195,40 L195,14 L196.4,14 L196.4,24.7707034 L196.473684,24.7707034 C197.690702,23.0261441 199.715789,22.022001 202,22.022001 C205.905263,22.022001 209,24.9192819 209,29.2652031 L209,40 L207.6,40 Z" id="Fill-21" fill="#FFFFFF" mask="url(#mask-2)"></path>
                    <path d="M213.475728,21.7341465 L220,21.7341465 L220,23.0454771 L213.475728,23.0454771 L213.475728,34.1917876 C213.475728,36.3773387 214.873786,37.6886694 217.049838,37.6886694 L220,37.6886694 L220,39 L217.359223,39 C213.865372,39 212,37.1058557 212,34.0460842 L212,17 L213.475728,17 L213.475728,21.7341465 Z" id="Fill-22" fill="#FFFFFF" mask="url(#mask-2)"></path>
                </g>
            </g>
        </g>
    </g>
</svg>