<?xml version="1.0" encoding="UTF-8"?>
<svg width="747px" height="432px" viewBox="0 0 747 432" version="1.1" xmlns="http://www.w3.org/2000/svg" xmlns:xlink="http://www.w3.org/1999/xlink">
    <!-- Generator: Sketch 46.2 (44496) - http://www.bohemiancoding.com/sketch -->
    <title>Group 3 Copy 2</title>
    <desc>Created with Sketch.</desc>
    <defs></defs>
    <g id="Page-1" stroke="none" stroke-width="1" fill="none" fill-rule="evenodd" opacity="0.295346467">
        <g id="AMADEUS" transform="translate(-347.000000, -45.000000)">
            <g id="Group-3-Copy-2" transform="translate(347.000000, 45.000000)">
                <g id="Macbook-Copy">
                    <g id="Body">
                        <path d="M176.709526,-95.3345939 L549.404737,-95.3345939 L549.404737,-95.3345939 C565.697137,-95.3345939 578.904737,-82.126994 578.904737,-65.8345939 L578.904737,481.961624 L578.904737,481.961624 C578.904737,498.254025 565.697137,511.461624 549.404737,511.461624 L176.709526,511.461624 L176.709526,511.461624 C171.738964,511.461624 167.709526,507.432187 167.709526,502.461624 L167.709526,-86.3345939 L167.709526,-86.3345939 C167.709526,-91.3051566 171.738964,-95.3345939 176.709526,-95.3345939 Z" id="Rectangle-2" stroke="#CBD2D4" stroke-width="3" fill="#EAEFF1" transform="translate(373.307132, 208.063515) rotate(-90.000000) translate(-373.307132, -208.063515) "></path>
                        <g id="Group" transform="translate(370.221239, 17.063687)">
                            <path d="M3.47162936,5.02122905 C2.40815357,5.02122905 1.54294638,4.15487391 1.54294638,3.08998711 C1.54294638,2.0251003 2.40815357,1.15874517 3.47162936,1.15874517 C4.53510515,1.15874517 5.40031234,2.0251003 5.40031234,3.08998711 C5.40031234,4.15487391 4.53510515,5.02122905 3.47162936,5.02122905" id="Fill-9" fill="#BAC1C3"></path>
                            <path d="M3.08589276,0 C1.38424333,0 0,1.38607993 0,3.08998711 C0,4.79389428 1.38424333,6.17997422 3.08589276,6.17997422 C4.7875422,6.17997422 6.17178553,4.79389428 6.17178553,3.08998711 C6.17178553,1.38607993 4.7875422,0 3.08589276,0 M3.08589276,1.76570692 C3.81636767,1.76570692 4.40841823,2.35854302 4.40841823,3.08998711 C4.40841823,3.8214312 3.81636767,4.4142673 3.08589276,4.4142673 C2.35541786,4.4142673 1.76336729,3.8214312 1.76336729,3.08998711 C1.76336729,2.35854302 2.35541786,1.76570692 3.08589276,1.76570692" id="Fill-11" fill="#D0D7DA"></path>
                        </g>
                        <g id="Group-2" transform="translate(3.000000, 414.899527)">
                            <path d="M0.385736596,0.999629638 L0.385736596,5.06687656 C14.014594,10.0498831 45.0021005,12.867032 93.3482561,13.5183232 C141.824497,13.4398665 317.977543,13.4398665 621.807392,13.5183232 C681.104851,13.8487467 720.652646,10.9284976 740.450777,4.7575761 L740.450777,1.35348565 L740.450299,1.35348565 C740.450299,0.801387619 740.002875,0.353749747 739.450777,0.353485766 L1.38573648,0.000107779658 L1.38573671,-0.000370247755 C0.833452023,-0.000634318137 0.385522753,0.44686681 0.385258682,0.999151496 C0.385258606,0.999310877 0.385258568,0.999470257 0.385258568,0.999629638 Z" id="Path-37" stroke="#CBD2D4" stroke-width="6"></path>
                            <path d="M741,4.63498066 C741,4.63498066 733.368487,13.904942 574.960486,13.5738719 C522.740487,13.464733 447.921697,13.4626502 371.078605,13.5089007 C293.32871,13.4626435 218.346815,13.4645503 166.039424,13.5738719 C7.63150859,13.904942 0,4.63498066 0,4.63498066 L370.692868,4.63498066 L741,4.63498066 Z" id="Combined-Shape" fill="#CBD2D4"></path>
                            <path d="M1,0 L740,0 L740,-1.11022302e-16 C740.552285,6.25750314e-14 741,0.44771525 741,1 L741,4.63498066 L0,4.63498066 L0,1 L-1.11022302e-16,1 C-1.78657678e-16,0.44771525 0.44771525,-9.5692398e-18 1,-1.11022302e-16 Z" id="Rectangle-5" fill="#EAEFF1"></path>
                            <path d="M300.488808,0 L440.896929,0 L440.896929,4.63498066 C440.896929,4.63498066 423.21181,6.17997422 370.970116,6.17997422 C318.728423,6.17997422 300.488808,4.63498066 300.488808,4.63498066 L300.488808,0 Z" id="Rectangle-10" fill="#D9E0E3"></path>
                        </g>
                    </g>
                </g>
            </g>
        </g>
    </g>
</svg>