<?xml version="1.0" encoding="utf-8"?>
<!-- Generator: Adobe Illustrator 21.1.0, SVG Export Plug-In . SVG Version: 6.00 Build 0)  -->
<svg version="1.1" id="Layer_1" xmlns="http://www.w3.org/2000/svg" xmlns:xlink="http://www.w3.org/1999/xlink" x="0px" y="0px"
	 viewBox="0 0 11 28" style="enable-background:new 0 0 11 28;" xml:space="preserve">
<style type="text/css">
	.st0{fill:#FFFFFF;}
</style>
<title>angle-left</title>
<path class="st0" d="M10.9,6c0,0.1-0.1,0.3-0.2,0.4l-7.2,7.2l7.2,7.2c0.1,0.1,0.2,0.3,0.2,0.4s-0.1,0.3-0.2,0.4l-0.9,0.9
	c-0.1,0.1-0.3,0.2-0.4,0.2S9,22.7,8.9,22.6l-8.6-8.6c-0.1-0.1-0.2-0.3-0.2-0.4c0-0.1,0.1-0.3,0.2-0.4l8.6-8.6C9,4.5,9.2,4.5,9.4,4.5
	s0.3,0.1,0.4,0.2l0.9,0.9C10.8,5.7,10.9,5.8,10.9,6z"/>
</svg>
