<?xml version="1.0" encoding="utf-8"?>
<!-- Generator: Adobe Illustrator 21.1.0, SVG Export Plug-In . SVG Version: 6.00 Build 0)  -->
<svg version="1.1" id="Layer_1" xmlns="http://www.w3.org/2000/svg" xmlns:xlink="http://www.w3.org/1999/xlink" x="0px" y="0px"
	 viewBox="0 0 11 28" style="enable-background:new 0 0 11 28;" xml:space="preserve">
<title>angle-left</title>
<path d="M0.3,5.6l0.9-0.9c0.1-0.1,0.2-0.2,0.4-0.2s0.4,0,0.5,0.1l8.6,8.6c0.1,0.1,0.2,0.3,0.2,0.4c0,0.1-0.1,0.3-0.2,0.4l-8.6,8.6
	c-0.1,0.1-0.4,0.1-0.5,0.1s-0.3-0.1-0.4-0.2l-0.9-0.9c-0.1-0.1-0.2-0.3-0.2-0.4s0.1-0.3,0.2-0.4l7.2-7.2L0.3,6.4
	C0.2,6.3,0.1,6.1,0.1,6C0.1,5.8,0.2,5.7,0.3,5.6z"/>
</svg>
