<?xml version="1.0" encoding="UTF-8"?>
<svg width="40px" height="20px" viewBox="0 0 40 20" version="1.1" xmlns="http://www.w3.org/2000/svg" xmlns:xlink="http://www.w3.org/1999/xlink">
    <!-- Generator: Sketch 45.1 (43504) - http://www.bohemiancoding.com/sketch -->
    <title>Shape</title>
    <desc>Created with Sketch.</desc>
    <defs></defs>
    <g id="Page-1" stroke="none" stroke-width="1" fill="none" fill-rule="evenodd" opacity="0.3">
        <g id="WAGZ" transform="translate(-257.000000, -654.000000)" fill-rule="nonzero" fill="#FFFFFF">
            <g id="intro-panel">
                <g id="Group-2">
                    <path d="M296.503009,671.067542 L281.495507,655.883762 C280.258154,654.631084 278.621099,653.997637 276.999658,654.000007 C275.378998,653.998427 273.741163,654.631084 272.50459,655.883762 L257.497088,671.067542 C256.834304,671.738111 256.834304,672.826503 257.497088,673.497073 C258.159873,674.167642 259.235629,674.167642 259.898414,673.497073 L274.905915,658.313293 C275.488291,657.724866 276.236168,657.437367 276.999658,657.435787 C277.763149,657.438156 278.511026,657.724866 279.093402,658.313293 L294.100903,673.497073 C294.763688,674.167642 295.839444,674.167642 296.502229,673.497073 C297.165794,672.826503 297.165794,671.738111 296.503009,671.067542 Z" id="Shape" transform="translate(277.000000, 664.000000) rotate(-180.000000) translate(-277.000000, -664.000000) "></path>
                </g>
            </g>
        </g>
    </g>
</svg>