<?xml version="1.0" encoding="UTF-8"?>
<svg width="27px" height="38px" viewBox="0 0 27 38" version="1.1" xmlns="http://www.w3.org/2000/svg" xmlns:xlink="http://www.w3.org/1999/xlink">
    <!-- Generator: Sketch 45.1 (43504) - http://www.bohemiancoding.com/sketch -->
    <title>Page 1</title>
    <desc>Created with Sketch.</desc>
    <defs>
        <polygon id="path-1" points="14.327 24.07495 14.327 0.09745 0.1651 0.09745 0.1651 24.07495 14.327 24.07495"></polygon>
        <polygon id="path-3" points="26.63725 0.199 0.45575 0.199 0.45575 16.0226 26.63725 16.0226 26.63725 0.199"></polygon>
    </defs>
    <g id="Symbols" stroke="none" stroke-width="1" fill="none" fill-rule="evenodd">
        <g id="footer" transform="translate(-679.000000, -333.000000)">
            <g id="Page-1" transform="translate(679.000000, 333.000000)">
                <path d="M0.53955,22.0278 L0.44955,23.4603 L13.01955,30.7183 L14.16505,30.0758 L14.16155,14.1583 L0.53955,22.0278 Z M2.25355,22.7698 L12.66255,16.7568 L12.66505,28.7808 L2.25355,22.7698 Z" id="Fill-1" fill="#DC3F96"></path>
                <g id="Group-12" transform="translate(0.000000, 0.301250)">
                    <path d="M1.504,35.1014 C1.505,35.3209 1.684,35.4999 1.9045,35.4999 C1.991,35.4999 2.058,35.4709 2.0995,35.4469 L11.916,29.7769 L1.504,23.7674 L1.504,35.1014 Z M1.9045,36.9999 C0.86,36.9999 0.0075,36.1504 0.004,35.1059 L0.004,21.1699 L14.916,29.7759 L2.8515,36.7449 C2.5655,36.9114 2.2375,36.9999 1.9045,36.9999 L1.9045,36.9999 Z" id="Fill-2" fill="#DC3F96"></path>
                    <g id="Group-6" transform="translate(12.500000, 7.000000)">
                        <mask id="mask-2" fill="white">
                            <use xlink:href="#path-1"></use>
                        </mask>
                        <g id="Clip-5"></g>
                        <path d="M1.6651,8.58945 L1.6661,21.47745 L11.8831,15.57795 C12.4651,15.23995 12.8271,14.61145 12.8271,13.93745 L12.8271,2.37195 C12.8271,2.29695 12.8226,2.22295 12.8141,2.14995 L1.6651,8.58945 Z M0.1661,24.07495 L0.1651,8.15645 L0.9136,8.15395 L0.5401,7.50695 L13.3871,0.09745 L13.8691,0.67195 C14.1681,1.18595 14.3261,1.77395 14.3261,2.37195 L14.3271,13.93745 C14.3271,15.14395 13.6781,16.27045 12.6341,16.87645 L0.1661,24.07495 Z" id="Fill-4" fill="#DC3F96" mask="url(#mask-2)"></path>
                    </g>
                    <g id="Group-9">
                        <mask id="mask-4" fill="white">
                            <use xlink:href="#path-3"></use>
                        </mask>
                        <g id="Clip-8"></g>
                        <path d="M2.26375,7.8546 L13.41225,14.2901 L24.56325,7.8516 C24.50775,7.8101 24.45025,7.7721 24.39125,7.7371 L14.33025,1.9286 C13.77125,1.6186 13.05175,1.6131 12.47325,1.9436 L2.46875,7.7206 C2.39725,7.7611 2.32875,7.8056 2.26375,7.8546 L2.26375,7.8546 Z M13.41225,16.0226 L0.58225,8.3271 L0.45575,7.6776 C0.75825,7.1516 1.19725,6.7161 1.72525,6.4181 L11.72575,0.6426 C12.75575,0.0551 14.04375,0.0526 15.06975,0.6241 L25.14875,6.4426 C25.65475,6.7401 26.07775,7.1661 26.37075,7.6746 L26.63725,8.3786 L13.41225,16.0226 Z" id="Fill-7" fill="#DC3F96" mask="url(#mask-4)"></path>
                    </g>
                    <path d="M1.51325,9.1529 C1.50425,9.2264 1.50025,9.3009 1.50025,9.3749 L1.50025,21.1694 L11.91225,15.1564 L1.51325,9.1529 Z M0.00025,23.7679 L0.00025,9.3749 C0.00025,8.7769 0.15825,8.1889 0.45725,7.6749 L0.88725,7.0974 L14.91225,15.1564 L0.00025,23.7679 Z" id="Fill-10" fill="#DC3F96"></path>
                </g>
            </g>
        </g>
    </g>
</svg>