<?xml version="1.0" encoding="UTF-8"?>
<svg width="12px" height="24px" viewBox="0 0 12 24" version="1.1" xmlns="http://www.w3.org/2000/svg" xmlns:xlink="http://www.w3.org/1999/xlink">
    <!-- Generator: Sketch 45.1 (43504) - http://www.bohemiancoding.com/sketch -->
    <title>Shape</title>
    <desc>Created with Sketch.</desc>
    <defs></defs>
    <g id="Symbols" stroke="none" stroke-width="1" fill="none" fill-rule="evenodd">
        <g id="Group-6" fill-rule="nonzero" fill="#FFFFFF">
            <path d="M2.58797591,13.2562674 C2.23491986,12.9068358 2.06241999,12.458102 2.06147219,12 C2.06289389,11.541898 2.23539376,11.0931642 2.58797591,10.7437326 L11.6982437,1.73907782 C12.1005854,1.34093193 12.1005854,0.695935594 11.6982437,0.298258112 C11.295902,-0.0994193706 10.6428668,-0.0994193706 10.240525,0.298258112 L1.13025724,9.30291291 C0.378650664,10.0448695 -0.00141772845,11.0271188 3.97376623e-06,12 C-0.00141772845,12.9728812 0.378650664,13.9546621 1.13025724,14.6970871 L10.240525,23.7017419 C10.6428668,24.0994194 11.295902,24.0994194 11.6982437,23.7017419 C12.1005854,23.3040644 12.1005854,22.6585997 11.6982437,22.2609222 L2.58797591,13.2562674 Z" id="Shape"></path>
        </g>
    </g>
</svg>