<?xml version="1.0" encoding="UTF-8"?>
<svg width="27px" height="38px" viewBox="0 0 27 38" version="1.1" xmlns="http://www.w3.org/2000/svg" xmlns:xlink="http://www.w3.org/1999/xlink">
    <!-- Generator: Sketch 45.1 (43504) - http://www.bohemiancoding.com/sketch -->
    <title>Page 1</title>
    <desc>Created with Sketch.</desc>
    <defs>
        <polygon id="path-1" points="0.0039 16 14.9159 16 14.9159 0.17015 0.0039 0.17015"></polygon>
        <polygon id="path-3" points="26.63715 0.199 0.45565 0.199 0.45565 16.0226 26.63715 16.0226 26.63715 0.199"></polygon>
    </defs>
    <g id="Page-1" stroke="none" stroke-width="1" fill="none" fill-rule="evenodd">
        <g id="MINUM" transform="translate(-100.000000, -34.000000)">
            <g id="Page-1" transform="translate(100.000000, 34.000000)">
                <path d="M0.53955,22.02735 L0.44955,23.46035 L13.02005,30.71835 L14.16505,30.07585 L14.16155,14.15835 L0.53955,22.02735 Z M2.25355,22.77035 L12.66255,16.75685 L12.66455,28.78135 L2.25355,22.77035 Z" id="Fill-1" fill="#FEFEFE"></path>
                <g id="Group-13" transform="translate(0.000000, 0.301250)">
                    <g id="Group-4" transform="translate(0.000000, 21.000000)">
                        <mask id="mask-2" fill="white">
                            <use xlink:href="#path-1"></use>
                        </mask>
                        <g id="Clip-3"></g>
                        <path d="M1.5039,14.10165 C1.5049,14.32115 1.6839,14.50015 1.9044,14.50015 C1.9909,14.50015 2.0579,14.47115 2.0994,14.44715 L11.9159,8.77715 L1.5039,2.76765 L1.5039,14.10165 Z M1.9044,16.00015 C0.8599,16.00015 0.0074,15.15065 0.0039,14.10615 L0.0039,0.17015 L14.9159,8.77615 L2.8514,15.74515 C2.5654,15.91165 2.2374,16.00015 1.9044,16.00015 L1.9044,16.00015 Z" id="Fill-2" fill="#FEFEFE" mask="url(#mask-2)"></path>
                    </g>
                    <g id="Group-7" transform="translate(12.500000, 7.000000)" fill="#FEFEFE">
                        <path d="M1.66505,8.58945 L1.66605,21.47745 L11.88305,15.57845 C12.46505,15.24045 12.82705,14.61145 12.82705,13.93745 L12.82705,2.37195 C12.82705,2.29695 12.82255,2.22295 12.81405,2.14995 L1.66505,8.58945 Z M0.16605,24.07545 L0.16505,8.15645 L0.91355,8.15395 L0.54005,7.50695 L13.38705,0.09745 L13.86905,0.67195 C14.16805,1.18595 14.32605,1.77395 14.32605,2.37195 L14.32705,13.93745 C14.32705,15.14395 13.67805,16.27045 12.63405,16.87645 L0.16605,24.07545 Z" id="Fill-5"></path>
                    </g>
                    <g id="Group-10">
                        <mask id="mask-4" fill="white">
                            <use xlink:href="#path-3"></use>
                        </mask>
                        <g id="Clip-9"></g>
                        <path d="M2.26365,7.8546 L13.41215,14.2901 L24.56315,7.8516 C24.50765,7.8101 24.45015,7.7721 24.39115,7.7371 L14.33015,1.9286 C13.77115,1.6186 13.05165,1.6131 12.47315,1.9436 L2.46865,7.7206 C2.39715,7.7611 2.32865,7.8056 2.26365,7.8546 L2.26365,7.8546 Z M13.41215,16.0226 L0.58215,8.3271 L0.45565,7.6776 C0.75815,7.1516 1.19715,6.7161 1.72515,6.4181 L11.72565,0.6426 C12.75565,0.0551 14.04365,0.0526 15.06965,0.6241 L25.14865,6.4426 C25.65465,6.7401 26.07765,7.1661 26.37065,7.6746 L26.63715,8.3786 L13.41215,16.0226 Z" id="Fill-8" fill="#FEFEFE" mask="url(#mask-4)"></path>
                    </g>
                    <path d="M1.5132,9.1529 C1.5042,9.2264 1.5002,9.3009 1.5002,9.3749 L1.5002,21.1694 L11.9122,15.1564 L1.5132,9.1529 Z M0.0002,23.7679 L0.0002,9.3749 C0.0002,8.7769 0.1582,8.1889 0.4572,7.6749 L0.8872,7.0974 L14.9122,15.1564 L0.0002,23.7679 Z" id="Fill-11" fill="#FEFEFE"></path>
                </g>
            </g>
        </g>
    </g>
</svg>